<svg xmlns="http://www.w3.org/2000/svg" xmlns:xlink="http://www.w3.org/1999/xlink" width="917" height="525" fill="#000" fill-opacity="1" stroke="#000" stroke-dasharray="none" stroke-dashoffset="0" stroke-linecap="square" stroke-linejoin="miter" stroke-miterlimit="10" stroke-opacity="1" stroke-width="1" color-interpolation="auto" color-rendering="auto" font-family="'Dialog'" font-size="12" font-style="normal" font-weight="normal" image-rendering="auto" shape-rendering="auto" text-rendering="auto"><g><defs id="defs1"><clipPath id="clipPath1" clipPathUnits="userSpaceOnUse"><path d="M0 0 L917 0 L917 525 L0 525 L0 0 Z"/></clipPath><clipPath id="clipPath2" clipPathUnits="userSpaceOnUse"><path d="M430 25 L1347 25 L1347 550 L430 550 L430 25 Z"/></clipPath></defs><g fill="#fff" stroke="#fff" shape-rendering="geometricPrecision" text-rendering="geometricPrecision" transform="translate(-430,-25)"><rect width="917" height="525" x="430" y="25" stroke="none" clip-path="url(#clipPath2)"/></g><g id="y.node.0"><a target="_blank" xlink:href="https://schema.org/Dataset" xlink:show="new" xlink:type="simple"><g fill="#CFC" stroke="#CFC" shape-rendering="geometricPrecision" text-rendering="geometricPrecision" transform="matrix(1,0,0,1,-430,-25)"><rect width="106.045" height="30" x="693.055" y="250.627" stroke="none"/></g><g stroke-linecap="butt" stroke-miterlimit="1.45" shape-rendering="geometricPrecision" text-rendering="geometricPrecision" transform="matrix(1,0,0,1,-430,-25)"><rect width="106.045" height="30" x="693.055" y="250.627" fill="none"/></g><g><g stroke-linecap="butt" stroke-miterlimit="1.45" font-family="sans-serif" shape-rendering="geometricPrecision" text-rendering="geometricPrecision"><text x="700.055" y="270.163" stroke="none" transform="matrix(1,0,0,1,-430,-25)" xml:space="preserve">schema:Dataset</text></g></g></a></g><g id="y.node.1"><a target="_blank" xlink:href="https://schema.org/PropertyValue" xlink:show="new" xlink:type="simple"><g fill="#CFC" stroke="#CFC" shape-rendering="geometricPrecision" text-rendering="geometricPrecision" transform="matrix(1,0,0,1,-430,-25)"><rect width="142.918" height="30" x="905.653" y="217" stroke="none"/></g><g stroke-linecap="butt" stroke-miterlimit="1.45" shape-rendering="geometricPrecision" text-rendering="geometricPrecision" transform="matrix(1,0,0,1,-430,-25)"><rect width="142.918" height="30" x="905.653" y="217" fill="none"/></g><g><g stroke-linecap="butt" stroke-miterlimit="1.45" font-family="sans-serif" shape-rendering="geometricPrecision" text-rendering="geometricPrecision"><text x="912.653" y="236.535" stroke="none" transform="matrix(1,0,0,1,-430,-25)" xml:space="preserve">schema:PropertyValue</text></g></g></a></g><g id="y.node.2"><a target="_blank" xlink:href="https://schema.org/Person" xlink:show="new" xlink:type="simple"><g fill="#CFC" stroke="#CFC" shape-rendering="geometricPrecision" text-rendering="geometricPrecision" transform="matrix(1,0,0,1,-430,-25)"><rect width="101.188" height="30" x="963.859" y="357" stroke="none"/></g><g stroke-linecap="butt" stroke-miterlimit="1.45" shape-rendering="geometricPrecision" text-rendering="geometricPrecision" transform="matrix(1,0,0,1,-430,-25)"><rect width="101.188" height="30" x="963.859" y="357" fill="none"/></g><g><g stroke-linecap="butt" stroke-miterlimit="1.45" font-family="sans-serif" shape-rendering="geometricPrecision" text-rendering="geometricPrecision"><text x="970.859" y="376.535" stroke="none" transform="matrix(1,0,0,1,-430,-25)" xml:space="preserve">schema:Person</text></g></g></a></g><g id="y.node.3"><a target="_blank" xlink:href="http://www.sparontologies.net/ontologies/datacite/source.html#Identifier" xlink:show="new" xlink:type="simple"><g fill="#FC0" stroke="#FC0" shape-rendering="geometricPrecision" text-rendering="geometricPrecision" transform="matrix(1,0,0,1,-430,-25)"><rect width="146.826" height="41" x="1185.005" y="211.5" stroke="none"/></g><g stroke-linecap="butt" stroke-miterlimit="1.45" shape-rendering="geometricPrecision" text-rendering="geometricPrecision" transform="matrix(1,0,0,1,-430,-25)"><rect width="146.826" height="41" x="1185.005" y="211.5" fill="none"/></g><g><g stroke-linecap="butt" stroke-miterlimit="1.45" font-family="sans-serif" shape-rendering="geometricPrecision" text-rendering="geometricPrecision"><text x="1205.291" y="229.469" stroke="none" transform="matrix(1,0,0,1,-430,-25)" xml:space="preserve">datacite:Identifier,</text><text x="1208.763" y="243.602" stroke="none" transform="matrix(1,0,0,1,-430,-25)" xml:space="preserve">geolink:Identifier</text></g></g></a></g><g id="y.node.4"><a target="_blank" xlink:href="http://schema.geolink.org/1.0/base/main#Person" xlink:show="new" xlink:type="simple"><g fill="#FC0" stroke="#FC0" shape-rendering="geometricPrecision" text-rendering="geometricPrecision" transform="matrix(1,0,0,1,-430,-25)"><rect width="99.898" height="30" x="1231.933" y="357" stroke="none"/></g><g stroke-linecap="butt" stroke-miterlimit="1.45" shape-rendering="geometricPrecision" text-rendering="geometricPrecision" transform="matrix(1,0,0,1,-430,-25)"><rect width="99.898" height="30" x="1231.933" y="357" fill="none"/></g><g><g stroke-linecap="butt" stroke-miterlimit="1.45" font-family="sans-serif" shape-rendering="geometricPrecision" text-rendering="geometricPrecision"><text x="1238.933" y="376.535" stroke="none" transform="matrix(1,0,0,1,-430,-25)" xml:space="preserve">geolink:Person</text></g></g></a></g><g id="y.node.5"><g fill="#0CF" stroke="#0CF" shape-rendering="geometricPrecision" text-rendering="geometricPrecision" transform="matrix(1,0,0,1,-430,-25)"><ellipse cx="1044.927" cy="487.686" stroke="none" rx="20.061" ry="15"/></g><g stroke-linecap="butt" stroke-miterlimit="1.45" shape-rendering="geometricPrecision" text-rendering="geometricPrecision" transform="matrix(1,0,0,1,-430,-25)"><ellipse cx="1044.927" cy="487.686" fill="none" rx="20.061" ry="15"/></g><g><g stroke-linecap="butt" stroke-miterlimit="1.45" font-family="sans-serif" shape-rendering="geometricPrecision" text-rendering="geometricPrecision"><text x="1031.867" y="492.221" stroke="none" transform="matrix(1,0,0,1,-430,-25)" xml:space="preserve">Text</text></g></g></g><g id="y.node.6"><g fill="#0CF" stroke="#0CF" shape-rendering="geometricPrecision" text-rendering="geometricPrecision" transform="matrix(1,0,0,1,-430,-25)"><ellipse cx="989.117" cy="487.686" stroke="none" rx="18.15" ry="15"/></g><g stroke-linecap="butt" stroke-miterlimit="1.45" shape-rendering="geometricPrecision" text-rendering="geometricPrecision" transform="matrix(1,0,0,1,-430,-25)"><ellipse cx="989.117" cy="487.686" fill="none" rx="18.15" ry="15"/></g><g><g stroke-linecap="butt" stroke-miterlimit="1.45" font-family="sans-serif" shape-rendering="geometricPrecision" text-rendering="geometricPrecision"><text x="977.967" y="492.221" stroke="none" transform="matrix(1,0,0,1,-430,-25)" xml:space="preserve">URL</text></g></g></g><g id="y.node.7"><g fill="#0CF" stroke="#0CF" shape-rendering="geometricPrecision" text-rendering="geometricPrecision" transform="matrix(1,0,0,1,-430,-25)"><ellipse cx="767.652" cy="141.441" stroke="none" rx="57.031" ry="20.5"/></g><g stroke-linecap="butt" stroke-miterlimit="1.45" shape-rendering="geometricPrecision" text-rendering="geometricPrecision" transform="matrix(1,0,0,1,-430,-25)"><ellipse cx="767.652" cy="141.441" fill="none" rx="57.031" ry="20.5"/></g><g><g stroke-linecap="butt" stroke-miterlimit="1.45" font-family="sans-serif" shape-rendering="geometricPrecision" text-rendering="geometricPrecision"><text x="723.505" y="145.976" stroke="none" transform="matrix(1,0,0,1,-430,-25)" xml:space="preserve">&quot;datacite:orcid&quot;</text></g></g></g><g id="y.node.8"><g fill="#0CF" stroke="#0CF" shape-rendering="geometricPrecision" text-rendering="geometricPrecision" transform="matrix(1,0,0,1,-430,-25)"><ellipse cx="977.112" cy="55.931" stroke="none" rx="20.061" ry="15"/></g><g stroke-linecap="butt" stroke-miterlimit="1.45" shape-rendering="geometricPrecision" text-rendering="geometricPrecision" transform="matrix(1,0,0,1,-430,-25)"><ellipse cx="977.112" cy="55.931" fill="none" rx="20.061" ry="15"/></g><g><g stroke-linecap="butt" stroke-miterlimit="1.45" font-family="sans-serif" shape-rendering="geometricPrecision" text-rendering="geometricPrecision"><text x="964.052" y="60.466" stroke="none" transform="matrix(1,0,0,1,-430,-25)" xml:space="preserve">Text</text></g></g></g><g id="y.node.9"><g fill="#0CF" stroke="#0CF" shape-rendering="geometricPrecision" text-rendering="geometricPrecision" transform="matrix(1,0,0,1,-430,-25)"><ellipse cx="1165.468" cy="135.941" stroke="none" rx="18.15" ry="15"/></g><g stroke-linecap="butt" stroke-miterlimit="1.45" shape-rendering="geometricPrecision" text-rendering="geometricPrecision" transform="matrix(1,0,0,1,-430,-25)"><ellipse cx="1165.468" cy="135.941" fill="none" rx="18.15" ry="15"/></g><g><g stroke-linecap="butt" stroke-miterlimit="1.45" font-family="sans-serif" shape-rendering="geometricPrecision" text-rendering="geometricPrecision"><text x="1154.317" y="140.476" stroke="none" transform="matrix(1,0,0,1,-430,-25)" xml:space="preserve">URL</text></g></g></g><g id="y.node.10"><a target="_blank" xlink:href="https://schema.org/Person" xlink:show="new" xlink:type="simple"><g fill="#CFC" stroke="#CFC" shape-rendering="geometricPrecision" text-rendering="geometricPrecision" transform="matrix(1,0,0,1,-430,-25)"><rect width="101.188" height="30" x="645.115" y="357" stroke="none"/></g><g stroke-linecap="butt" stroke-miterlimit="1.45" shape-rendering="geometricPrecision" text-rendering="geometricPrecision" transform="matrix(1,0,0,1,-430,-25)"><rect width="101.188" height="30" x="645.115" y="357" fill="none"/></g><g><g stroke-linecap="butt" stroke-miterlimit="1.45" font-family="sans-serif" shape-rendering="geometricPrecision" text-rendering="geometricPrecision"><text x="659.14" y="376.535" stroke="none" transform="matrix(1,0,0,1,-430,-25)" xml:space="preserve">schema:Role</text></g></g></a></g><g id="y.node.11"><g fill="#0CF" stroke="#0CF" shape-rendering="geometricPrecision" text-rendering="geometricPrecision" transform="matrix(1,0,0,1,-430,-25)"><ellipse cx="697.385" cy="508.373" stroke="none" rx="20.061" ry="15"/></g><g stroke-linecap="butt" stroke-miterlimit="1.45" shape-rendering="geometricPrecision" text-rendering="geometricPrecision" transform="matrix(1,0,0,1,-430,-25)"><ellipse cx="697.385" cy="508.373" fill="none" rx="20.061" ry="15"/></g><g><g stroke-linecap="butt" stroke-miterlimit="1.45" font-family="sans-serif" shape-rendering="geometricPrecision" text-rendering="geometricPrecision"><text x="684.324" y="512.908" stroke="none" transform="matrix(1,0,0,1,-430,-25)" xml:space="preserve">Text</text></g></g></g><g id="y.node.12"><g fill="#0CF" stroke="#0CF" shape-rendering="geometricPrecision" text-rendering="geometricPrecision" transform="matrix(1,0,0,1,-430,-25)"><ellipse cx="653.265" cy="508.373" stroke="none" rx="18.15" ry="15"/></g><g stroke-linecap="butt" stroke-miterlimit="1.45" shape-rendering="geometricPrecision" text-rendering="geometricPrecision" transform="matrix(1,0,0,1,-430,-25)"><ellipse cx="653.265" cy="508.373" fill="none" rx="18.15" ry="15"/></g><g><g stroke-linecap="butt" stroke-miterlimit="1.45" font-family="sans-serif" shape-rendering="geometricPrecision" text-rendering="geometricPrecision"><text x="642.115" y="512.908" stroke="none" transform="matrix(1,0,0,1,-430,-25)" xml:space="preserve">URL</text></g></g></g><g id="y.node.13"><a target="_blank" xlink:href="http://schema.geolink.org/1.0/base/main#Person" xlink:show="new" xlink:type="simple"><g fill="#FC0" stroke="#FC0" shape-rendering="geometricPrecision" text-rendering="geometricPrecision" transform="matrix(1,0,0,1,-430,-25)"><rect width="128.898" height="30" x="445.865" y="357" stroke="none"/></g><g stroke-linecap="butt" stroke-miterlimit="1.45" shape-rendering="geometricPrecision" text-rendering="geometricPrecision" transform="matrix(1,0,0,1,-430,-25)"><rect width="128.898" height="30" x="445.865" y="357" fill="none"/></g><g><g stroke-linecap="butt" stroke-miterlimit="1.45" font-family="sans-serif" shape-rendering="geometricPrecision" text-rendering="geometricPrecision"><text x="456.019" y="376.535" stroke="none" transform="matrix(1,0,0,1,-430,-25)" xml:space="preserve">geolink:Participant</text></g></g></a></g><g id="y.node.14"><g fill="#0CF" stroke="#0CF" shape-rendering="geometricPrecision" text-rendering="geometricPrecision" transform="matrix(1,0,0,1,-430,-25)"><ellipse cx="809.476" cy="448.373" stroke="none" rx="57.031" ry="15"/></g><g stroke-linecap="butt" stroke-miterlimit="1.45" shape-rendering="geometricPrecision" text-rendering="geometricPrecision" transform="matrix(1,0,0,1,-430,-25)"><ellipse cx="809.476" cy="448.373" fill="none" rx="57.031" ry="15"/></g><g><g stroke-linecap="butt" stroke-miterlimit="1.45" font-family="sans-serif" shape-rendering="geometricPrecision" text-rendering="geometricPrecision"><text x="761.271" y="452.908" stroke="none" transform="matrix(1,0,0,1,-430,-25)" xml:space="preserve">Date / DateTime</text></g></g></g><g id="y.edge.1"><g stroke-linecap="butt" stroke-miterlimit="1.45" shape-rendering="geometricPrecision" text-rendering="geometricPrecision"><path fill="none" d="M1014.4531 357 L1014.4531 255.0034" transform="matrix(1,0,0,1,-430,-25)"/><path stroke="none" d="M1014.4531 247.0034 L1009.4531 259.0034 L1014.4531 256.0034 L1019.4531 259.0034 Z" transform="matrix(1,0,0,1,-430,-25)"/></g><g><g stroke-linecap="butt" stroke-miterlimit="1.45" font-family="sans-serif" shape-rendering="geometricPrecision" text-rendering="geometricPrecision"><text x="1022.694" y="285.535" stroke="none" transform="matrix(1,0,0,1,-430,-25)" xml:space="preserve">schema:identifier</text></g></g></g><g id="y.edge.3"><g stroke-linecap="butt" stroke-miterlimit="1.45" shape-rendering="geometricPrecision" text-rendering="geometricPrecision"><path fill="none" d="M1048.5713 232 L1177.0049 232" transform="matrix(1,0,0,1,-430,-25)"/><path stroke="none" d="M1185.0049 232 L1173.0049 227 L1176.0049 232 L1173.0049 237 Z" transform="matrix(1,0,0,1,-430,-25)"/></g><g><g stroke-linecap="butt" stroke-miterlimit="1.45" font-family="sans-serif" shape-rendering="geometricPrecision" text-rendering="geometricPrecision"><text x="1035.918" y="206.535" stroke="none" transform="matrix(1,0,0,1,-430,-25)" xml:space="preserve">schema:additionalType</text></g></g></g><g id="y.edge.2"><g stroke-linecap="butt" stroke-miterlimit="1.45" shape-rendering="geometricPrecision" text-rendering="geometricPrecision"><path fill="none" d="M1065.0468 372 L1223.9326 372" transform="matrix(1,0,0,1,-430,-25)"/><path stroke="none" d="M1231.9326 372 L1219.9326 367 L1222.9326 372 L1219.9326 377 Z" transform="matrix(1,0,0,1,-430,-25)"/></g><g><g stroke-linecap="butt" stroke-miterlimit="1.45" font-family="sans-serif" shape-rendering="geometricPrecision" text-rendering="geometricPrecision"><text x="1081.394" y="346.535" stroke="none" transform="matrix(1,0,0,1,-430,-25)" xml:space="preserve">schema:additionalType</text></g></g></g><g id="y.edge.4"><g stroke-linecap="butt" stroke-miterlimit="1.45" shape-rendering="geometricPrecision" text-rendering="geometricPrecision"><path fill="none" d="M1044.927 386.9728 L1044.927 464.6965" transform="matrix(1,0,0,1,-430,-25)"/><path stroke="none" d="M1044.927 472.6965 L1049.927 460.6965 L1044.927 463.6965 L1039.927 460.6965 Z" transform="matrix(1,0,0,1,-430,-25)"/></g><g><g stroke-linecap="butt" stroke-miterlimit="1.45" font-family="sans-serif" shape-rendering="geometricPrecision" text-rendering="geometricPrecision"><text x="1061.655" y="407.369" stroke="none" transform="matrix(1,0,0,1,-430,-25)" xml:space="preserve">schema:name,</text><text x="1061.655" y="421.502" stroke="none" transform="matrix(1,0,0,1,-430,-25)" xml:space="preserve">schema:familyName,</text><text x="1061.655" y="435.635" stroke="none" transform="matrix(1,0,0,1,-430,-25)" xml:space="preserve">schema:givenName,</text><text x="1061.655" y="449.767" stroke="none" transform="matrix(1,0,0,1,-430,-25)" xml:space="preserve">schema:honorificPrefix,</text><text x="1061.655" y="463.9" stroke="none" transform="matrix(1,0,0,1,-430,-25)" xml:space="preserve">schema:honorificSuffix</text></g></g></g><g id="y.edge.5"><g stroke-linecap="butt" stroke-miterlimit="1.45" shape-rendering="geometricPrecision" text-rendering="geometricPrecision"><path fill="none" d="M989.1174 386.974 L989.1174 464.6886" transform="matrix(1,0,0,1,-430,-25)"/><path stroke="none" d="M989.1174 472.6886 L994.1174 460.6886 L989.1174 463.6886 L984.1174 460.6886 Z" transform="matrix(1,0,0,1,-430,-25)"/></g><g><g stroke-linecap="butt" stroke-miterlimit="1.45" font-family="sans-serif" shape-rendering="geometricPrecision" text-rendering="geometricPrecision"><text x="889.997" y="431.085" stroke="none" transform="matrix(1,0,0,1,-430,-25)" xml:space="preserve">schema:url,</text><text x="889.997" y="445.218" stroke="none" transform="matrix(1,0,0,1,-430,-25)" xml:space="preserve">schema:sameAs</text></g></g></g><g id="y.edge.6"><g stroke-linecap="butt" stroke-miterlimit="1.45" shape-rendering="geometricPrecision" text-rendering="geometricPrecision"><path fill="none" d="M937.9466 217.0099 L937.9466 141.4406 L832.6833 141.4406" transform="matrix(1,0,0,1,-430,-25)"/><path stroke="none" d="M824.6833 141.4406 L836.6833 146.4406 L833.6833 141.4406 L836.6833 136.4406 Z" transform="matrix(1,0,0,1,-430,-25)"/></g><g><g stroke-linecap="butt" stroke-miterlimit="1.45" font-family="sans-serif" shape-rendering="geometricPrecision" text-rendering="geometricPrecision"><text x="818.716" y="169.406" stroke="none" transform="matrix(1,0,0,1,-430,-25)" xml:space="preserve">schema:propertyID</text></g></g></g><g id="y.edge.8"><g stroke-linecap="butt" stroke-miterlimit="1.45" shape-rendering="geometricPrecision" text-rendering="geometricPrecision"><path fill="none" d="M977.1123 217 L977.1123 78.9309" transform="matrix(1,0,0,1,-430,-25)"/><path stroke="none" d="M977.1123 70.9309 L972.1123 82.9309 L977.1123 79.9309 L982.1123 82.9309 Z" transform="matrix(1,0,0,1,-430,-25)"/></g><g><g stroke-linecap="butt" stroke-miterlimit="1.45" font-family="sans-serif" shape-rendering="geometricPrecision" text-rendering="geometricPrecision"><text x="889.011" y="91.45" stroke="none" transform="matrix(1,0,0,1,-430,-25)" xml:space="preserve">schema:value</text></g></g></g><g id="y.edge.7"><g stroke-linecap="butt" stroke-miterlimit="1.45" shape-rendering="geometricPrecision" text-rendering="geometricPrecision"><path fill="none" d="M1022.3787 217.0376 L1022.3787 135.9406 L1139.3174 135.9406" transform="matrix(1,0,0,1,-430,-25)"/><path stroke="none" d="M1147.3174 135.9406 L1135.3174 130.9406 L1138.3174 135.9406 L1135.3174 140.9406 Z" transform="matrix(1,0,0,1,-430,-25)"/></g><g><g stroke-linecap="butt" stroke-miterlimit="1.45" font-family="sans-serif" shape-rendering="geometricPrecision" text-rendering="geometricPrecision"><text x="1049.289" y="125.28" stroke="none" transform="matrix(1,0,0,1,-430,-25)" xml:space="preserve">schema:url</text></g></g></g><g id="y.edge.0"><g stroke-linecap="butt" stroke-miterlimit="1.45" shape-rendering="geometricPrecision" text-rendering="geometricPrecision"><path fill="none" d="M707.0777 280.612 L707.0777 348.962" transform="matrix(1,0,0,1,-430,-25)"/><path stroke="none" d="M707.0777 356.962 L712.0777 344.962 L707.0777 347.962 L702.0777 344.962 Z" transform="matrix(1,0,0,1,-430,-25)"/></g><g><g stroke-linecap="butt" stroke-miterlimit="1.45" font-family="sans-serif" shape-rendering="geometricPrecision" text-rendering="geometricPrecision"><text x="714.188" y="303.469" stroke="none" transform="matrix(1,0,0,1,-430,-25)" xml:space="preserve">schema:creator,</text><text x="714.188" y="317.602" stroke="none" transform="matrix(1,0,0,1,-430,-25)" xml:space="preserve">schema:contributor</text></g></g></g><g id="y.edge.9"><g stroke-linecap="butt" stroke-miterlimit="1.45" shape-rendering="geometricPrecision" text-rendering="geometricPrecision"><path fill="none" d="M746.3023 372 L955.8593 372" transform="matrix(1,0,0,1,-430,-25)"/><path stroke="none" d="M963.8593 372 L951.8593 367 L954.8593 372 L951.8593 377 Z" transform="matrix(1,0,0,1,-430,-25)"/></g><g><g stroke-linecap="butt" stroke-miterlimit="1.45" font-family="sans-serif" shape-rendering="geometricPrecision" text-rendering="geometricPrecision"><text x="797.188" y="351.469" stroke="none" transform="matrix(1,0,0,1,-430,-25)" xml:space="preserve">schema:creator,</text><text x="797.188" y="365.602" stroke="none" transform="matrix(1,0,0,1,-430,-25)" xml:space="preserve">schema:contributor</text></g></g></g><g id="y.edge.12"><g stroke-linecap="butt" stroke-miterlimit="1.45" shape-rendering="geometricPrecision" text-rendering="geometricPrecision"><path fill="none" d="M695.8929 387 L697.1019 485.3739" transform="matrix(1,0,0,1,-430,-25)"/><path stroke="none" d="M697.2002 493.3733 L702.0523 481.3127 L697.0896 484.3739 L692.0531 481.4356 Z" transform="matrix(1,0,0,1,-430,-25)"/></g><g><g stroke-linecap="butt" stroke-miterlimit="1.45" font-family="sans-serif" shape-rendering="geometricPrecision" text-rendering="geometricPrecision"><text x="728.384" y="501.402" stroke="none" transform="matrix(1,0,0,1,-430,-25)" xml:space="preserve">schema:roleName,</text><text x="728.384" y="515.535" stroke="none" transform="matrix(1,0,0,1,-430,-25)" xml:space="preserve">schema:name,</text><text x="728.384" y="529.668" stroke="none" transform="matrix(1,0,0,1,-430,-25)" xml:space="preserve">schema:description</text></g></g></g><g id="y.edge.11"><g stroke-linecap="butt" stroke-miterlimit="1.45" shape-rendering="geometricPrecision" text-rendering="geometricPrecision"><path fill="none" d="M653.2652 387.0078 L653.2652 485.3727" transform="matrix(1,0,0,1,-430,-25)"/><path stroke="none" d="M653.2652 493.3727 L658.2652 481.3727 L653.2652 484.3727 L648.2652 481.3727 Z" transform="matrix(1,0,0,1,-430,-25)"/></g><g><g stroke-linecap="butt" stroke-miterlimit="1.45" font-family="sans-serif" shape-rendering="geometricPrecision" text-rendering="geometricPrecision"><text x="556.474" y="462.469" stroke="none" transform="matrix(1,0,0,1,-430,-25)" xml:space="preserve">schema:url,</text><text x="556.474" y="476.602" stroke="none" transform="matrix(1,0,0,1,-430,-25)" xml:space="preserve">schema:sameAs</text></g></g></g><g id="y.edge.10"><g stroke-linecap="butt" stroke-miterlimit="1.45" shape-rendering="geometricPrecision" text-rendering="geometricPrecision"><path fill="none" d="M645.1148 372 L582.7637 372" transform="matrix(1,0,0,1,-430,-25)"/><path stroke="none" d="M574.7637 372 L586.7637 377 L583.7637 372 L586.7637 367 Z" transform="matrix(1,0,0,1,-430,-25)"/></g><g><g stroke-linecap="butt" stroke-miterlimit="1.45" font-family="sans-serif" shape-rendering="geometricPrecision" text-rendering="geometricPrecision"><text x="542.843" y="346.535" stroke="none" transform="matrix(1,0,0,1,-430,-25)" xml:space="preserve">schema:additionalType</text></g></g></g><g id="y.edge.13"><g stroke-linecap="butt" stroke-miterlimit="1.45" shape-rendering="geometricPrecision" text-rendering="geometricPrecision"><path fill="none" d="M724 386.9644 L724 448.3727 L744.4451 448.3727" transform="matrix(1,0,0,1,-430,-25)"/><path stroke="none" d="M752.4451 448.3727 L740.4451 443.3727 L743.4451 448.3727 L740.4451 453.3727 Z" transform="matrix(1,0,0,1,-430,-25)"/></g><g><g stroke-linecap="butt" stroke-miterlimit="1.45" font-family="sans-serif" shape-rendering="geometricPrecision" text-rendering="geometricPrecision"><text x="731.38" y="410.469" stroke="none" transform="matrix(1,0,0,1,-430,-25)" xml:space="preserve">schema:startDate,</text><text x="731.38" y="424.602" stroke="none" transform="matrix(1,0,0,1,-430,-25)" xml:space="preserve">schema:endDate</text></g></g></g></g></svg>