<svg xmlns="http://www.w3.org/2000/svg" xmlns:xlink="http://www.w3.org/1999/xlink" width="536" height="331" fill="#000" fill-opacity="1" stroke="#000" stroke-dasharray="none" stroke-dashoffset="0" stroke-linecap="square" stroke-linejoin="miter" stroke-miterlimit="10" stroke-opacity="1" stroke-width="1" color-interpolation="auto" color-rendering="auto" font-family="'Dialog'" font-size="12" font-style="normal" font-weight="normal" image-rendering="auto" shape-rendering="auto" text-rendering="auto"><g><defs id="defs1"><clipPath id="clipPath1" clipPathUnits="userSpaceOnUse"><path d="M0 0 L536 0 L536 331 L0 331 L0 0 Z"/></clipPath></defs><g id="y.node.0"><a target="_blank" xlink:href="https://schema.org/Dataset" xlink:show="new" xlink:type="simple"><g fill="#CFC" stroke="#CFC" shape-rendering="geometricPrecision" text-rendering="geometricPrecision" transform="matrix(1,0,0,1,-42,-202)"><rect width="106.045" height="30" x="455.978" y="217" stroke="none"/></g><g stroke-linecap="butt" stroke-miterlimit="1.45" shape-rendering="geometricPrecision" text-rendering="geometricPrecision" transform="matrix(1,0,0,1,-42,-202)"><rect width="106.045" height="30" x="455.978" y="217" fill="none"/></g><g><g stroke-linecap="butt" stroke-miterlimit="1.45" font-family="sans-serif" shape-rendering="geometricPrecision" text-rendering="geometricPrecision"><text x="462.978" y="236.535" stroke="none" transform="matrix(1,0,0,1,-42,-202)" xml:space="preserve">schema:Dataset</text></g></g></a></g><g id="y.node.1"><a target="_blank" xlink:href="https://schema.org/DataDownload" xlink:show="new" xlink:type="simple"><g fill="#CFC" stroke="#CFC" shape-rendering="geometricPrecision" text-rendering="geometricPrecision" transform="matrix(1,0,0,1,-42,-202)"><rect width="146.826" height="30" x="182.644" y="487.705" stroke="none"/></g><g stroke-linecap="butt" stroke-miterlimit="1.45" shape-rendering="geometricPrecision" text-rendering="geometricPrecision" transform="matrix(1,0,0,1,-42,-202)"><rect width="146.826" height="30" x="182.644" y="487.705" fill="none"/></g><g><g stroke-linecap="butt" stroke-miterlimit="1.45" font-family="sans-serif" shape-rendering="geometricPrecision" text-rendering="geometricPrecision"><text x="189.644" y="507.24" stroke="none" transform="matrix(1,0,0,1,-42,-202)" xml:space="preserve">schema:DataDownload</text></g></g></a></g><g id="y.node.2"><g fill="#0CF" stroke="#0CF" shape-rendering="geometricPrecision" text-rendering="geometricPrecision" transform="matrix(1,0,0,1,-42,-202)"><ellipse cx="79.689" cy="377.082" stroke="none" rx="18.15" ry="15"/></g><g stroke-linecap="butt" stroke-miterlimit="1.45" shape-rendering="geometricPrecision" text-rendering="geometricPrecision" transform="matrix(1,0,0,1,-42,-202)"><ellipse cx="79.689" cy="377.082" fill="none" rx="18.15" ry="15"/></g><g><g stroke-linecap="butt" stroke-miterlimit="1.45" font-family="sans-serif" shape-rendering="geometricPrecision" text-rendering="geometricPrecision"><text x="68.538" y="381.617" stroke="none" transform="matrix(1,0,0,1,-42,-202)" xml:space="preserve">URL</text></g></g></g><g id="y.node.3"><g fill="#0CF" stroke="#0CF" shape-rendering="geometricPrecision" text-rendering="geometricPrecision" transform="matrix(1,0,0,1,-42,-202)"><ellipse cx="77.778" cy="420.009" stroke="none" rx="20.061" ry="15"/></g><g stroke-linecap="butt" stroke-miterlimit="1.45" shape-rendering="geometricPrecision" text-rendering="geometricPrecision" transform="matrix(1,0,0,1,-42,-202)"><ellipse cx="77.778" cy="420.009" fill="none" rx="20.061" ry="15"/></g><g><g stroke-linecap="butt" stroke-miterlimit="1.45" font-family="sans-serif" shape-rendering="geometricPrecision" text-rendering="geometricPrecision"><text x="64.718" y="424.544" stroke="none" transform="matrix(1,0,0,1,-42,-202)" xml:space="preserve">Text</text></g></g></g><g id="y.edge.0"><g stroke-linecap="butt" stroke-miterlimit="1.45" shape-rendering="geometricPrecision" text-rendering="geometricPrecision"><path fill="none" d="M494 246.9694 L494 502.7046 L337.4707 502.7046" transform="matrix(1,0,0,1,-42,-202)"/><path stroke="none" d="M329.4707 502.7046 L341.4707 507.7046 L338.4707 502.7046 L341.4707 497.7046 Z" transform="matrix(1,0,0,1,-42,-202)"/></g><g><g stroke-linecap="butt" stroke-miterlimit="1.45" font-family="sans-serif" shape-rendering="geometricPrecision" text-rendering="geometricPrecision"><text x="353.833" y="477.24" stroke="none" transform="matrix(1,0,0,1,-42,-202)" xml:space="preserve">schema:distribution</text></g></g></g><g id="y.edge.1"><g stroke-linecap="butt" stroke-miterlimit="1.45" shape-rendering="geometricPrecision" text-rendering="geometricPrecision"><path fill="none" d="M314.9986 487.7071 L314.9986 377.0815 L105.8389 377.0815" transform="matrix(1,0,0,1,-42,-202)"/><path stroke="none" d="M97.8389 377.0815 L109.8389 382.0815 L106.8389 377.0815 L109.8389 372.0815 Z" transform="matrix(1,0,0,1,-42,-202)"/></g><g><g stroke-linecap="butt" stroke-miterlimit="1.45" font-family="sans-serif" shape-rendering="geometricPrecision" text-rendering="geometricPrecision"><text x="143.137" y="370.059" stroke="none" transform="matrix(1,0,0,1,-42,-202)" xml:space="preserve">schema:contentUrl</text></g></g></g><g id="y.edge.2"><g stroke-linecap="butt" stroke-miterlimit="1.45" shape-rendering="geometricPrecision" text-rendering="geometricPrecision"><path fill="none" d="M294.9986 487.7241 L294.9986 420.0089 L105.8389 420.0089" transform="matrix(1,0,0,1,-42,-202)"/><path stroke="none" d="M97.8389 420.0089 L109.8389 425.0089 L106.8389 420.0089 L109.8389 415.0089 Z" transform="matrix(1,0,0,1,-42,-202)"/></g><g><g stroke-linecap="butt" stroke-miterlimit="1.45" font-family="sans-serif" shape-rendering="geometricPrecision" text-rendering="geometricPrecision"><text x="131.898" y="438.762" stroke="none" transform="matrix(1,0,0,1,-42,-202)" xml:space="preserve">schema:encodingFormat</text></g></g></g></g></svg>