<svg xmlns="http://www.w3.org/2000/svg" xmlns:xlink="http://www.w3.org/1999/xlink" width="591" height="554" fill="#000" fill-opacity="1" stroke="#000" stroke-dasharray="none" stroke-dashoffset="0" stroke-linecap="square" stroke-linejoin="miter" stroke-miterlimit="10" stroke-opacity="1" stroke-width="1" color-interpolation="auto" color-rendering="auto" font-family="'Dialog'" font-size="12" font-style="normal" font-weight="normal" image-rendering="auto" shape-rendering="auto" text-rendering="auto"><g><defs id="defs1"><clipPath id="clipPath1" clipPathUnits="userSpaceOnUse"><path d="M0 0 L591 0 L591 554 L0 554 L0 0 Z"/></clipPath><clipPath id="clipPath2" clipPathUnits="userSpaceOnUse"><path d="M566 172 L1157 172 L1157 726 L566 726 L566 172 Z"/></clipPath></defs><g fill="#fff" stroke="#fff" shape-rendering="geometricPrecision" text-rendering="geometricPrecision" transform="translate(-566,-172)"><rect width="591" height="554" x="566" y="172" stroke="none" clip-path="url(#clipPath2)"/></g><g id="y.node.0"><a target="_blank" xlink:href="https://schema.org/Dataset" xlink:show="new" xlink:type="simple"><g fill="#CFC" stroke="#CFC" shape-rendering="geometricPrecision" text-rendering="geometricPrecision" transform="matrix(1,0,0,1,-566,-172)"><rect width="106.045" height="30" x="581.924" y="509.704" stroke="none"/></g><g stroke-linecap="butt" stroke-miterlimit="1.45" shape-rendering="geometricPrecision" text-rendering="geometricPrecision" transform="matrix(1,0,0,1,-566,-172)"><rect width="106.045" height="30" x="581.924" y="509.704" fill="none"/></g><g><g stroke-linecap="butt" stroke-miterlimit="1.45" font-family="sans-serif" shape-rendering="geometricPrecision" text-rendering="geometricPrecision"><text x="588.924" y="529.239" stroke="none" transform="matrix(1,0,0,1,-566,-172)" xml:space="preserve">schema:Dataset</text></g></g></a></g><g id="y.node.1"><a target="_blank" xlink:href="https://schema.org/Organization" xlink:show="new" xlink:type="simple"><g fill="#CFC" stroke="#CFC" shape-rendering="geometricPrecision" text-rendering="geometricPrecision" transform="matrix(1,0,0,1,-566,-172)"><rect width="137.563" height="30" x="804.519" y="595" stroke="none"/></g><g stroke-linecap="butt" stroke-miterlimit="1.45" shape-rendering="geometricPrecision" text-rendering="geometricPrecision" transform="matrix(1,0,0,1,-566,-172)"><rect width="137.563" height="30" x="804.519" y="595" fill="none"/></g><g><g stroke-linecap="butt" stroke-miterlimit="1.45" font-family="sans-serif" shape-rendering="geometricPrecision" text-rendering="geometricPrecision"><text x="811.519" y="614.535" stroke="none" transform="matrix(1,0,0,1,-566,-172)" xml:space="preserve">schema:Organization</text></g></g></a></g><g id="y.node.2"><a target="_blank" xlink:href="http://schema.geolink.org/1.0/base/main#Organization" xlink:show="new" xlink:type="simple"><g fill="#FC0" stroke="#FC0" shape-rendering="geometricPrecision" text-rendering="geometricPrecision" transform="matrix(1,0,0,1,-566,-172)"><rect width="136.273" height="30" x="805.163" y="681" stroke="none"/></g><g stroke-linecap="butt" stroke-miterlimit="1.45" shape-rendering="geometricPrecision" text-rendering="geometricPrecision" transform="matrix(1,0,0,1,-566,-172)"><rect width="136.273" height="30" x="805.163" y="681" fill="none"/></g><g><g stroke-linecap="butt" stroke-miterlimit="1.45" font-family="sans-serif" shape-rendering="geometricPrecision" text-rendering="geometricPrecision"><text x="812.163" y="700.535" stroke="none" transform="matrix(1,0,0,1,-566,-172)" xml:space="preserve">geolink:Organization</text></g></g></a></g><g id="y.node.3"><g fill="#0CF" stroke="#0CF" shape-rendering="geometricPrecision" text-rendering="geometricPrecision" transform="matrix(1,0,0,1,-566,-172)"><ellipse cx="1092.278" cy="524.704" stroke="none" rx="20.061" ry="15"/></g><g stroke-linecap="butt" stroke-miterlimit="1.45" shape-rendering="geometricPrecision" text-rendering="geometricPrecision" transform="matrix(1,0,0,1,-566,-172)"><ellipse cx="1092.278" cy="524.704" fill="none" rx="20.061" ry="15"/></g><g><g stroke-linecap="butt" stroke-miterlimit="1.45" font-family="sans-serif" shape-rendering="geometricPrecision" text-rendering="geometricPrecision"><text x="1079.217" y="529.239" stroke="none" transform="matrix(1,0,0,1,-566,-172)" xml:space="preserve">Text</text></g></g></g><g id="y.node.4"><g fill="#0CF" stroke="#0CF" shape-rendering="geometricPrecision" text-rendering="geometricPrecision" transform="matrix(1,0,0,1,-566,-172)"><ellipse cx="1092.278" cy="480.884" stroke="none" rx="18.15" ry="15"/></g><g stroke-linecap="butt" stroke-miterlimit="1.45" shape-rendering="geometricPrecision" text-rendering="geometricPrecision" transform="matrix(1,0,0,1,-566,-172)"><ellipse cx="1092.278" cy="480.884" fill="none" rx="18.15" ry="15"/></g><g><g stroke-linecap="butt" stroke-miterlimit="1.45" font-family="sans-serif" shape-rendering="geometricPrecision" text-rendering="geometricPrecision"><text x="1081.128" y="485.419" stroke="none" transform="matrix(1,0,0,1,-566,-172)" xml:space="preserve">URL</text></g></g></g><g id="y.node.5"><a target="_blank" xlink:href="https://schema.org/Offer" xlink:show="new" xlink:type="simple"><g fill="#CFC" stroke="#CFC" shape-rendering="geometricPrecision" text-rendering="geometricPrecision" transform="matrix(1,0,0,1,-566,-172)"><rect width="91.766" height="30" x="804.519" y="369.199" stroke="none"/></g><g stroke-linecap="butt" stroke-miterlimit="1.45" shape-rendering="geometricPrecision" text-rendering="geometricPrecision" transform="matrix(1,0,0,1,-566,-172)"><rect width="91.766" height="30" x="804.519" y="369.199" fill="none"/></g><g><g stroke-linecap="butt" stroke-miterlimit="1.45" font-family="sans-serif" shape-rendering="geometricPrecision" text-rendering="geometricPrecision"><text x="811.519" y="388.734" stroke="none" transform="matrix(1,0,0,1,-566,-172)" xml:space="preserve">schema:Offer</text></g></g></a></g><g id="y.node.6"><g fill="#0CF" stroke="#0CF" shape-rendering="geometricPrecision" text-rendering="geometricPrecision" transform="matrix(1,0,0,1,-566,-172)"><ellipse cx="1107.085" cy="337.616" stroke="none" rx="34.867" ry="15"/></g><g stroke-linecap="butt" stroke-miterlimit="1.45" shape-rendering="geometricPrecision" text-rendering="geometricPrecision" transform="matrix(1,0,0,1,-566,-172)"><ellipse cx="1107.085" cy="337.616" fill="none" rx="34.867" ry="15"/></g><g><g stroke-linecap="butt" stroke-miterlimit="1.45" font-family="sans-serif" shape-rendering="geometricPrecision" text-rendering="geometricPrecision"><text x="1079.217" y="342.152" stroke="none" transform="matrix(1,0,0,1,-566,-172)" xml:space="preserve">DateTime</text></g></g></g><g id="y.node.7"><a target="_blank" xlink:href="http://schema.geolink.org/1.0/base/main#Award" xlink:show="new" xlink:type="simple"><g fill="#FC0" stroke="#FC0" shape-rendering="geometricPrecision" text-rendering="geometricPrecision" transform="matrix(1,0,0,1,-566,-172)"><rect width="97.35" height="30" x="586.272" y="369.199" stroke="none"/></g><g stroke-linecap="butt" stroke-miterlimit="1.45" shape-rendering="geometricPrecision" text-rendering="geometricPrecision" transform="matrix(1,0,0,1,-566,-172)"><rect width="97.35" height="30" x="586.272" y="369.199" fill="none"/></g><g><g stroke-linecap="butt" stroke-miterlimit="1.45" font-family="sans-serif" shape-rendering="geometricPrecision" text-rendering="geometricPrecision"><text x="593.272" y="388.734" stroke="none" transform="matrix(1,0,0,1,-566,-172)" xml:space="preserve">geolink:Award</text></g></g></a></g><g id="y.node.8"><g fill="#0CF" stroke="#0CF" shape-rendering="geometricPrecision" text-rendering="geometricPrecision" transform="matrix(1,0,0,1,-566,-172)"><ellipse cx="1092.278" cy="277.616" stroke="none" rx="20.061" ry="15"/></g><g stroke-linecap="butt" stroke-miterlimit="1.45" shape-rendering="geometricPrecision" text-rendering="geometricPrecision" transform="matrix(1,0,0,1,-566,-172)"><ellipse cx="1092.278" cy="277.616" fill="none" rx="20.061" ry="15"/></g><g><g stroke-linecap="butt" stroke-miterlimit="1.45" font-family="sans-serif" shape-rendering="geometricPrecision" text-rendering="geometricPrecision"><text x="1079.217" y="282.152" stroke="none" transform="matrix(1,0,0,1,-566,-172)" xml:space="preserve">Text</text></g></g></g><g id="y.node.9"><g fill="#0CF" stroke="#0CF" shape-rendering="geometricPrecision" text-rendering="geometricPrecision" transform="matrix(1,0,0,1,-566,-172)"><ellipse cx="1092.278" cy="233.796" stroke="none" rx="18.15" ry="15"/></g><g stroke-linecap="butt" stroke-miterlimit="1.45" shape-rendering="geometricPrecision" text-rendering="geometricPrecision" transform="matrix(1,0,0,1,-566,-172)"><ellipse cx="1092.278" cy="233.796" fill="none" rx="18.15" ry="15"/></g><g><g stroke-linecap="butt" stroke-miterlimit="1.45" font-family="sans-serif" shape-rendering="geometricPrecision" text-rendering="geometricPrecision"><text x="1081.128" y="238.331" stroke="none" transform="matrix(1,0,0,1,-566,-172)" xml:space="preserve">URL</text></g></g></g><g id="y.edge.0"><g stroke-linecap="butt" stroke-miterlimit="1.45" shape-rendering="geometricPrecision" text-rendering="geometricPrecision"><path fill="none" d="M643.9691 539.739 L643.9691 610 L796.5186 610" transform="matrix(1,0,0,1,-566,-172)"/><path stroke="none" d="M804.5186 610 L792.5186 605 L795.5186 610 L792.5186 615 Z" transform="matrix(1,0,0,1,-566,-172)"/></g><g><g stroke-linecap="butt" stroke-miterlimit="1.45" font-family="sans-serif" shape-rendering="geometricPrecision" text-rendering="geometricPrecision"><text x="655.261" y="628.035" stroke="none" transform="matrix(1,0,0,1,-566,-172)" xml:space="preserve">schema:funder</text></g></g></g><g id="y.edge.1"><g stroke-linecap="butt" stroke-miterlimit="1.45" shape-rendering="geometricPrecision" text-rendering="geometricPrecision"><path fill="none" d="M873.2998 625 L873.2998 673" transform="matrix(1,0,0,1,-566,-172)"/><path stroke="none" d="M873.2998 681 L878.2998 669 L873.2998 672 L868.2998 669 Z" transform="matrix(1,0,0,1,-566,-172)"/></g><g><g stroke-linecap="butt" stroke-miterlimit="1.45" font-family="sans-serif" shape-rendering="geometricPrecision" text-rendering="geometricPrecision"><text x="885.049" y="657.535" stroke="none" transform="matrix(1,0,0,1,-566,-172)" xml:space="preserve">schema:additionalType</text></g></g></g><g id="y.edge.2"><g stroke-linecap="butt" stroke-miterlimit="1.45" shape-rendering="geometricPrecision" text-rendering="geometricPrecision"><path fill="none" d="M915.9551 594.9649 L915.9551 524.7039 L1064.2175 524.7039" transform="matrix(1,0,0,1,-566,-172)"/><path stroke="none" d="M1072.2175 524.7039 L1060.2175 519.7039 L1063.2175 524.7039 L1060.2175 529.7039 Z" transform="matrix(1,0,0,1,-566,-172)"/></g><g><g stroke-linecap="butt" stroke-miterlimit="1.45" font-family="sans-serif" shape-rendering="geometricPrecision" text-rendering="geometricPrecision"><text x="939.498" y="546.754" stroke="none" transform="matrix(1,0,0,1,-566,-172)" xml:space="preserve">schema:legalName,</text><text x="939.498" y="560.887" stroke="none" transform="matrix(1,0,0,1,-566,-172)" xml:space="preserve">schema:name</text></g></g></g><g id="y.edge.3"><g stroke-linecap="butt" stroke-miterlimit="1.45" shape-rendering="geometricPrecision" text-rendering="geometricPrecision"><path fill="none" d="M888.6116 595.0268 L888.6116 480.8835 L1066.1277 480.8835" transform="matrix(1,0,0,1,-566,-172)"/><path stroke="none" d="M1074.1277 480.8835 L1062.1277 475.8835 L1065.1277 480.8835 L1062.1277 485.8835 Z" transform="matrix(1,0,0,1,-566,-172)"/></g><g><g stroke-linecap="butt" stroke-miterlimit="1.45" font-family="sans-serif" shape-rendering="geometricPrecision" text-rendering="geometricPrecision"><text x="908.08" y="448.352" stroke="none" transform="matrix(1,0,0,1,-566,-172)" xml:space="preserve">schema:url,</text><text x="908.08" y="462.485" stroke="none" transform="matrix(1,0,0,1,-566,-172)" xml:space="preserve">schema:sameAs</text></g></g></g><g id="y.edge.4"><g stroke-linecap="butt" stroke-miterlimit="1.45" shape-rendering="geometricPrecision" text-rendering="geometricPrecision"><path fill="none" d="M850.4014 594.9778 L850.4014 407.199" transform="matrix(1,0,0,1,-566,-172)"/><path stroke="none" d="M850.4014 399.199 L845.4014 411.199 L850.4014 408.199 L855.4014 411.199 Z" transform="matrix(1,0,0,1,-566,-172)"/></g><g><g stroke-linecap="butt" stroke-miterlimit="1.45" font-family="sans-serif" shape-rendering="geometricPrecision" text-rendering="geometricPrecision"><text x="730.794" y="481.035" stroke="none" transform="matrix(1,0,0,1,-566,-172)" xml:space="preserve">schema:makesOffer</text></g></g></g><g id="y.edge.9"><g stroke-linecap="butt" stroke-miterlimit="1.45" shape-rendering="geometricPrecision" text-rendering="geometricPrecision"><path fill="none" d="M645.2299 509.685 L645.2299 439.5 L818.2233 439.5 L818.2233 407.2344" transform="matrix(1,0,0,1,-566,-172)"/><path stroke="none" d="M818.2233 399.2344 L813.2233 411.2344 L818.2233 408.2344 L823.2233 411.2344 Z" transform="matrix(1,0,0,1,-566,-172)"/></g><g><g stroke-linecap="butt" stroke-miterlimit="1.45" font-family="sans-serif" shape-rendering="geometricPrecision" text-rendering="geometricPrecision"><text x="657.978" y="432.14" stroke="none" transform="matrix(1,0,0,1,-566,-172)" xml:space="preserve">gdx:fundedBy</text></g></g></g><g id="y.edge.5"><g stroke-linecap="butt" stroke-miterlimit="1.45" shape-rendering="geometricPrecision" text-rendering="geometricPrecision"><path fill="none" d="M884.2314 369.2326 L884.2314 337.6165 L1064.2175 337.6165" transform="matrix(1,0,0,1,-566,-172)"/><path stroke="none" d="M1072.2175 337.6165 L1060.2175 332.6165 L1063.2175 337.6165 L1060.2175 342.6165 Z" transform="matrix(1,0,0,1,-566,-172)"/></g><g><g stroke-linecap="butt" stroke-miterlimit="1.45" font-family="sans-serif" shape-rendering="geometricPrecision" text-rendering="geometricPrecision"><text x="940.173" y="365.085" stroke="none" transform="matrix(1,0,0,1,-566,-172)" xml:space="preserve">schema:validFrom,</text><text x="940.173" y="379.218" stroke="none" transform="matrix(1,0,0,1,-566,-172)" xml:space="preserve">schema:validThrough</text></g></g></g><g id="y.edge.6"><g stroke-linecap="butt" stroke-miterlimit="1.45" shape-rendering="geometricPrecision" text-rendering="geometricPrecision"><path fill="none" d="M804.5186 384.199 L691.6214 384.199" transform="matrix(1,0,0,1,-566,-172)"/><path stroke="none" d="M683.6214 384.199 L695.6214 389.199 L692.6214 384.199 L695.6214 379.199 Z" transform="matrix(1,0,0,1,-566,-172)"/></g><g><g stroke-linecap="butt" stroke-miterlimit="1.45" font-family="sans-serif" shape-rendering="geometricPrecision" text-rendering="geometricPrecision"><text x="676.974" y="358.734" stroke="none" transform="matrix(1,0,0,1,-566,-172)" xml:space="preserve">schema:additionalType</text></g></g></g><g id="y.edge.7"><g stroke-linecap="butt" stroke-miterlimit="1.45" shape-rendering="geometricPrecision" text-rendering="geometricPrecision"><path fill="none" d="M870.4014 369.1848 L870.4014 277.6165 L1064.2175 277.6165" transform="matrix(1,0,0,1,-566,-172)"/><path stroke="none" d="M1072.2175 277.6165 L1060.2175 272.6165 L1063.2175 277.6165 L1060.2175 282.6165 Z" transform="matrix(1,0,0,1,-566,-172)"/></g><g><g stroke-linecap="butt" stroke-miterlimit="1.45" font-family="sans-serif" shape-rendering="geometricPrecision" text-rendering="geometricPrecision"><text x="924.101" y="299.627" stroke="none" transform="matrix(1,0,0,1,-566,-172)" xml:space="preserve">schema:name,</text><text x="924.101" y="313.759" stroke="none" transform="matrix(1,0,0,1,-566,-172)" xml:space="preserve">schema:description</text></g></g></g><g id="y.edge.8"><g stroke-linecap="butt" stroke-miterlimit="1.45" shape-rendering="geometricPrecision" text-rendering="geometricPrecision"><path fill="none" d="M850.4014 369.199 L850.4014 233.7961 L1066.1277 233.7961" transform="matrix(1,0,0,1,-566,-172)"/><path stroke="none" d="M1074.1277 233.7961 L1062.1277 228.7961 L1065.1277 233.7961 L1062.1277 238.7961 Z" transform="matrix(1,0,0,1,-566,-172)"/></g><g><g stroke-linecap="butt" stroke-miterlimit="1.45" font-family="sans-serif" shape-rendering="geometricPrecision" text-rendering="geometricPrecision"><text x="922.127" y="201.265" stroke="none" transform="matrix(1,0,0,1,-566,-172)" xml:space="preserve">schema:url,</text><text x="922.127" y="215.398" stroke="none" transform="matrix(1,0,0,1,-566,-172)" xml:space="preserve">schema:sameAs</text></g></g></g></g></svg>