<svg xmlns="http://www.w3.org/2000/svg" xmlns:xlink="http://www.w3.org/1999/xlink" width="643" height="307" fill="#000" fill-opacity="1" stroke="#000" stroke-dasharray="none" stroke-dashoffset="0" stroke-linecap="square" stroke-linejoin="miter" stroke-miterlimit="10" stroke-opacity="1" stroke-width="1" color-interpolation="auto" color-rendering="auto" font-family="'Dialog'" font-size="12" font-style="normal" font-weight="normal" image-rendering="auto" shape-rendering="auto" text-rendering="auto"><g><defs id="defs1"><clipPath id="clipPath1" clipPathUnits="userSpaceOnUse"><path d="M0 0 L643 0 L643 307 L0 307 L0 0 Z"/></clipPath></defs><g id="y.node.0"><g fill="#CFC" stroke="#CFC" shape-rendering="geometricPrecision" text-rendering="geometricPrecision" transform="matrix(1,0,0,1,-485,-419)"><rect width="137.563" height="30" x="804.519" y="595" stroke="none"/></g><g stroke-linecap="butt" stroke-miterlimit="1.45" shape-rendering="geometricPrecision" text-rendering="geometricPrecision" transform="matrix(1,0,0,1,-485,-419)"><rect width="137.563" height="30" x="804.519" y="595" fill="none"/></g><g><g stroke-linecap="butt" stroke-miterlimit="1.45" font-family="sans-serif" shape-rendering="geometricPrecision" text-rendering="geometricPrecision"><text x="811.519" y="614.535" stroke="none" transform="matrix(1,0,0,1,-485,-419)" xml:space="preserve">schema:Organization</text></g></g></g><g id="y.node.1"><a target="_blank" xlink:href="http://schema.geolink.org/1.0/base/main#Organization" xlink:show="new" xlink:type="simple"><g fill="#FC0" stroke="#FC0" shape-rendering="geometricPrecision" text-rendering="geometricPrecision" transform="matrix(1,0,0,1,-485,-419)"><rect width="136.273" height="30" x="805.163" y="681" stroke="none"/></g><g stroke-linecap="butt" stroke-miterlimit="1.45" shape-rendering="geometricPrecision" text-rendering="geometricPrecision" transform="matrix(1,0,0,1,-485,-419)"><rect width="136.273" height="30" x="805.163" y="681" fill="none"/></g><g><g stroke-linecap="butt" stroke-miterlimit="1.45" font-family="sans-serif" shape-rendering="geometricPrecision" text-rendering="geometricPrecision"><text x="812.163" y="700.535" stroke="none" transform="matrix(1,0,0,1,-485,-419)" xml:space="preserve">geolink:Organization</text></g></g></a></g><g id="y.node.2"><a target="_blank" xlink:href="https://schema.org/Dataset" xlink:show="new" xlink:type="simple"><g fill="#CFC" stroke="#CFC" shape-rendering="geometricPrecision" text-rendering="geometricPrecision" transform="matrix(1,0,0,1,-485,-419)"><rect width="106.045" height="30" x="500.978" y="522" stroke="none"/></g><g stroke-linecap="butt" stroke-miterlimit="1.45" shape-rendering="geometricPrecision" text-rendering="geometricPrecision" transform="matrix(1,0,0,1,-485,-419)"><rect width="106.045" height="30" x="500.978" y="522" fill="none"/></g><g><g stroke-linecap="butt" stroke-miterlimit="1.45" font-family="sans-serif" shape-rendering="geometricPrecision" text-rendering="geometricPrecision"><text x="507.978" y="541.535" stroke="none" transform="matrix(1,0,0,1,-485,-419)" xml:space="preserve">schema:Dataset</text></g></g></a></g><g id="y.node.3"><a target="_blank" xlink:href="https://schema.org/Organization" xlink:show="new" xlink:type="simple"><g fill="#CFC" stroke="#CFC" shape-rendering="geometricPrecision" text-rendering="geometricPrecision" transform="matrix(1,0,0,1,-485,-419)"><rect width="137.563" height="30" x="804.519" y="595" stroke="none"/></g><g stroke-linecap="butt" stroke-miterlimit="1.45" shape-rendering="geometricPrecision" text-rendering="geometricPrecision" transform="matrix(1,0,0,1,-485,-419)"><rect width="137.563" height="30" x="804.519" y="595" fill="none"/></g><g><g stroke-linecap="butt" stroke-miterlimit="1.45" font-family="sans-serif" shape-rendering="geometricPrecision" text-rendering="geometricPrecision"><text x="811.519" y="614.535" stroke="none" transform="matrix(1,0,0,1,-485,-419)" xml:space="preserve">schema:Organization</text></g></g></a></g><g id="y.node.4"><g fill="#0CF" stroke="#0CF" shape-rendering="geometricPrecision" text-rendering="geometricPrecision" transform="matrix(1,0,0,1,-485,-419)"><ellipse cx="1092.278" cy="524.704" stroke="none" rx="20.061" ry="15"/></g><g stroke-linecap="butt" stroke-miterlimit="1.45" shape-rendering="geometricPrecision" text-rendering="geometricPrecision" transform="matrix(1,0,0,1,-485,-419)"><ellipse cx="1092.278" cy="524.704" fill="none" rx="20.061" ry="15"/></g><g><g stroke-linecap="butt" stroke-miterlimit="1.45" font-family="sans-serif" shape-rendering="geometricPrecision" text-rendering="geometricPrecision"><text x="1079.217" y="529.239" stroke="none" transform="matrix(1,0,0,1,-485,-419)" xml:space="preserve">Text</text></g></g></g><g id="y.node.5"><g fill="#0CF" stroke="#0CF" shape-rendering="geometricPrecision" text-rendering="geometricPrecision" transform="matrix(1,0,0,1,-485,-419)"><ellipse cx="1092.278" cy="480.884" stroke="none" rx="18.15" ry="15"/></g><g stroke-linecap="butt" stroke-miterlimit="1.45" shape-rendering="geometricPrecision" text-rendering="geometricPrecision" transform="matrix(1,0,0,1,-485,-419)"><ellipse cx="1092.278" cy="480.884" fill="none" rx="18.15" ry="15"/></g><g><g stroke-linecap="butt" stroke-miterlimit="1.45" font-family="sans-serif" shape-rendering="geometricPrecision" text-rendering="geometricPrecision"><text x="1081.128" y="485.419" stroke="none" transform="matrix(1,0,0,1,-485,-419)" xml:space="preserve">URL</text></g></g></g><g id="y.edge.1"><g stroke-linecap="butt" stroke-miterlimit="1.45" shape-rendering="geometricPrecision" text-rendering="geometricPrecision"><path fill="none" d="M873.2998 625 L873.2998 673" transform="matrix(1,0,0,1,-485,-419)"/><path stroke="none" d="M873.2998 681 L878.2998 669 L873.2998 672 L868.2998 669 Z" transform="matrix(1,0,0,1,-485,-419)"/></g><g><g stroke-linecap="butt" stroke-miterlimit="1.45" font-family="sans-serif" shape-rendering="geometricPrecision" text-rendering="geometricPrecision"><text x="887.99" y="657.535" stroke="none" transform="matrix(1,0,0,1,-485,-419)" xml:space="preserve">schema:additionalType</text></g></g></g><g id="y.edge.0"><g stroke-linecap="butt" stroke-miterlimit="1.45" shape-rendering="geometricPrecision" text-rendering="geometricPrecision"><path fill="none" d="M574 552.0063 L574 610 L796.5186 610" transform="matrix(1,0,0,1,-485,-419)"/><path stroke="none" d="M804.5186 610 L792.5186 605 L795.5186 610 L792.5186 615 Z" transform="matrix(1,0,0,1,-485,-419)"/></g><g><g stroke-linecap="butt" stroke-miterlimit="1.45" font-family="sans-serif" shape-rendering="geometricPrecision" text-rendering="geometricPrecision"><text x="635.882" y="577.469" stroke="none" transform="matrix(1,0,0,1,-485,-419)" xml:space="preserve">schema:publisher,</text><text x="640.775" y="591.602" stroke="none" transform="matrix(1,0,0,1,-485,-419)" xml:space="preserve">schema:provider</text></g></g></g><g id="y.edge.2"><g stroke-linecap="butt" stroke-miterlimit="1.45" shape-rendering="geometricPrecision" text-rendering="geometricPrecision"><path fill="none" d="M915.9551 594.9649 L915.9551 524.7039 L1064.2175 524.7039" transform="matrix(1,0,0,1,-485,-419)"/><path stroke="none" d="M1072.2175 524.7039 L1060.2175 519.7039 L1063.2175 524.7039 L1060.2175 529.7039 Z" transform="matrix(1,0,0,1,-485,-419)"/></g><g><g stroke-linecap="butt" stroke-miterlimit="1.45" font-family="sans-serif" shape-rendering="geometricPrecision" text-rendering="geometricPrecision"><text x="939.498" y="546.754" stroke="none" transform="matrix(1,0,0,1,-485,-419)" xml:space="preserve">schema:legalName,</text><text x="939.498" y="560.887" stroke="none" transform="matrix(1,0,0,1,-485,-419)" xml:space="preserve">schema:name</text></g></g></g><g id="y.edge.3"><g stroke-linecap="butt" stroke-miterlimit="1.45" shape-rendering="geometricPrecision" text-rendering="geometricPrecision"><path fill="none" d="M888.6116 595.0268 L888.6116 480.8835 L1066.1277 480.8835" transform="matrix(1,0,0,1,-485,-419)"/><path stroke="none" d="M1074.1277 480.8835 L1062.1277 475.8835 L1065.1277 480.8835 L1062.1277 485.8835 Z" transform="matrix(1,0,0,1,-485,-419)"/></g><g><g stroke-linecap="butt" stroke-miterlimit="1.45" font-family="sans-serif" shape-rendering="geometricPrecision" text-rendering="geometricPrecision"><text x="908.08" y="448.352" stroke="none" transform="matrix(1,0,0,1,-485,-419)" xml:space="preserve">schema:url,</text><text x="908.08" y="462.485" stroke="none" transform="matrix(1,0,0,1,-485,-419)" xml:space="preserve">schema:sameAs</text></g></g></g></g></svg>