<svg xmlns="http://www.w3.org/2000/svg" xmlns:xlink="http://www.w3.org/1999/xlink" width="393" height="117" fill="#000" fill-opacity="1" stroke="#000" stroke-dasharray="none" stroke-dashoffset="0" stroke-linecap="square" stroke-linejoin="miter" stroke-miterlimit="10" stroke-opacity="1" stroke-width="1" color-interpolation="auto" color-rendering="auto" font-family="'Dialog'" font-size="12" font-style="normal" font-weight="normal" image-rendering="auto" shape-rendering="auto" text-rendering="auto"><g><defs id="defs1"><clipPath id="clipPath1" clipPathUnits="userSpaceOnUse"><path d="M0 0 L393 0 L393 117 L0 117 L0 0 Z"/></clipPath></defs><g id="y.node.0"><a target="_blank" xlink:href="https://schema.org/Dataset" xlink:show="new" xlink:type="simple"><g fill="#CFC" stroke="#CFC" shape-rendering="geometricPrecision" text-rendering="geometricPrecision" transform="matrix(1,0,0,1,-185,-301)"><rect width="106.045" height="30" x="455.978" y="316" stroke="none"/></g><g stroke-linecap="butt" stroke-miterlimit="1.45" shape-rendering="geometricPrecision" text-rendering="geometricPrecision" transform="matrix(1,0,0,1,-185,-301)"><rect width="106.045" height="30" x="455.978" y="316" fill="none"/></g><g><g stroke-linecap="butt" stroke-miterlimit="1.45" font-family="sans-serif" shape-rendering="geometricPrecision" text-rendering="geometricPrecision"><text x="462.978" y="335.535" stroke="none" transform="matrix(1,0,0,1,-185,-301)" xml:space="preserve">schema:Dataset</text></g></g></a></g><g id="y.node.1"><g fill="#0CF" stroke="#0CF" shape-rendering="geometricPrecision" text-rendering="geometricPrecision" transform="matrix(1,0,0,1,-185,-301)"><ellipse cx="235.183" cy="388" stroke="none" rx="34.867" ry="15"/></g><g stroke-linecap="butt" stroke-miterlimit="1.45" shape-rendering="geometricPrecision" text-rendering="geometricPrecision" transform="matrix(1,0,0,1,-185,-301)"><ellipse cx="235.183" cy="388" fill="none" rx="34.867" ry="15"/></g><g><g stroke-linecap="butt" stroke-miterlimit="1.45" font-family="sans-serif" shape-rendering="geometricPrecision" text-rendering="geometricPrecision"><text x="207.315" y="392.535" stroke="none" transform="matrix(1,0,0,1,-185,-301)" xml:space="preserve">DateTime</text></g></g></g><g id="y.node.2"><g fill="#0CF" stroke="#0CF" shape-rendering="geometricPrecision" text-rendering="geometricPrecision" transform="matrix(1,0,0,1,-185,-301)"><ellipse cx="249.989" cy="353" stroke="none" rx="20.061" ry="15"/></g><g stroke-linecap="butt" stroke-miterlimit="1.45" shape-rendering="geometricPrecision" text-rendering="geometricPrecision" transform="matrix(1,0,0,1,-185,-301)"><ellipse cx="249.989" cy="353" fill="none" rx="20.061" ry="15"/></g><g><g stroke-linecap="butt" stroke-miterlimit="1.45" font-family="sans-serif" shape-rendering="geometricPrecision" text-rendering="geometricPrecision"><text x="236.929" y="357.535" stroke="none" transform="matrix(1,0,0,1,-185,-301)" xml:space="preserve">Text</text></g></g></g><g id="y.edge.1"><g stroke-linecap="butt" stroke-miterlimit="1.45" shape-rendering="geometricPrecision" text-rendering="geometricPrecision"><path fill="none" d="M474 346.0146 L474 372 L299.6631 372 L299.6631 388 L278.0498 388" transform="matrix(1,0,0,1,-185,-301)"/><path stroke="none" d="M270.0498 388 L282.0498 393 L279.0498 388 L282.0498 383 Z" transform="matrix(1,0,0,1,-185,-301)"/></g><g><g stroke-linecap="butt" stroke-miterlimit="1.45" font-family="sans-serif" shape-rendering="geometricPrecision" text-rendering="geometricPrecision"><text x="312.197" y="394.035" stroke="none" transform="matrix(1,0,0,1,-185,-301)" xml:space="preserve">schema:temporalCoverage</text></g></g></g><g id="y.edge.0"><g stroke-linecap="butt" stroke-miterlimit="1.45" shape-rendering="geometricPrecision" text-rendering="geometricPrecision"><path fill="none" d="M474 345.9707 L474 373 L299.6631 373 L299.6631 353 L278.0498 353" transform="matrix(1,0,0,1,-185,-301)"/><path stroke="none" d="M270.0498 353 L282.0498 358 L279.0498 353 L282.0498 348 Z" transform="matrix(1,0,0,1,-185,-301)"/></g></g></g></svg>