<svg xmlns="http://www.w3.org/2000/svg" xmlns:xlink="http://www.w3.org/1999/xlink" width="444" height="415" fill="#000" fill-opacity="1" stroke="#000" stroke-dasharray="none" stroke-dashoffset="0" stroke-linecap="square" stroke-linejoin="miter" stroke-miterlimit="10" stroke-opacity="1" stroke-width="1" color-interpolation="auto" color-rendering="auto" font-family="'Dialog'" font-size="12" font-style="normal" font-weight="normal" image-rendering="auto" shape-rendering="auto" text-rendering="auto"><g><defs id="defs1"><clipPath id="clipPath1" clipPathUnits="userSpaceOnUse"><path d="M0 0 L444 0 L444 415 L0 415 L0 0 Z"/></clipPath><clipPath id="clipPath2" clipPathUnits="userSpaceOnUse"><path d="M153 350 L597 350 L597 765 L153 765 L153 350 Z"/></clipPath></defs><g fill="#fff" stroke="#fff" shape-rendering="geometricPrecision" text-rendering="geometricPrecision" transform="translate(-153,-350)"><rect width="444" height="415" x="153" y="350" stroke="none" clip-path="url(#clipPath2)"/></g><g id="y.node.0"><a target="_blank" xlink:href="https://schema.org/PropertyValue" xlink:show="new" xlink:type="simple"><g fill="#CFC" stroke="#CFC" shape-rendering="geometricPrecision" text-rendering="geometricPrecision" transform="matrix(1,0,0,1,-153,-350)"><rect width="142.918" height="30" x="212.474" y="582.205" stroke="none"/></g><g stroke-linecap="butt" stroke-miterlimit="1.45" shape-rendering="geometricPrecision" text-rendering="geometricPrecision" transform="matrix(1,0,0,1,-153,-350)"><rect width="142.918" height="30" x="212.474" y="582.205" fill="none"/></g><g><g stroke-linecap="butt" stroke-miterlimit="1.45" font-family="sans-serif" shape-rendering="geometricPrecision" text-rendering="geometricPrecision"><text x="219.474" y="601.74" stroke="none" transform="matrix(1,0,0,1,-153,-350)" xml:space="preserve">schema:PropertyValue</text></g></g></a></g><g id="y.node.1"><a target="_blank" xlink:href="https://library.ucar.edu/earthcollab/schema#Parameter" xlink:show="new" xlink:type="simple"><g fill="#FC0" stroke="#FC0" shape-rendering="geometricPrecision" text-rendering="geometricPrecision" transform="matrix(1,0,0,1,-153,-350)"><rect width="174.359" height="57" x="196.753" y="692.309" stroke="none"/></g><g stroke-linecap="butt" stroke-miterlimit="1.45" shape-rendering="geometricPrecision" text-rendering="geometricPrecision" transform="matrix(1,0,0,1,-153,-350)"><rect width="174.359" height="57" x="196.753" y="692.309" fill="none"/></g><g><g stroke-linecap="butt" stroke-miterlimit="1.45" font-family="sans-serif" shape-rendering="geometricPrecision" text-rendering="geometricPrecision"><text x="218.355" y="711.212" stroke="none" transform="matrix(1,0,0,1,-153,-350)" xml:space="preserve">earthcollab:Parameter,</text><text x="225.227" y="725.345" stroke="none" transform="matrix(1,0,0,1,-153,-350)" xml:space="preserve">geo-upper:Variable,</text><text x="207.201" y="739.477" stroke="none" transform="matrix(1,0,0,1,-153,-350)" xml:space="preserve">geolink:MeasurementType</text></g></g></a></g><g id="y.node.2"><g fill="#0CF" stroke="#0CF" shape-rendering="geometricPrecision" text-rendering="geometricPrecision" transform="matrix(1,0,0,1,-153,-350)"><ellipse cx="289.813" cy="430.436" stroke="none" rx="20.061" ry="15"/></g><g stroke-linecap="butt" stroke-miterlimit="1.45" shape-rendering="geometricPrecision" text-rendering="geometricPrecision" transform="matrix(1,0,0,1,-153,-350)"><ellipse cx="289.813" cy="430.436" fill="none" rx="20.061" ry="15"/></g><g><g stroke-linecap="butt" stroke-miterlimit="1.45" font-family="sans-serif" shape-rendering="geometricPrecision" text-rendering="geometricPrecision"><text x="276.753" y="434.972" stroke="none" transform="matrix(1,0,0,1,-153,-350)" xml:space="preserve">Text</text></g></g></g><g id="y.node.3"><g fill="#0CF" stroke="#0CF" shape-rendering="geometricPrecision" text-rendering="geometricPrecision" transform="matrix(1,0,0,1,-153,-350)"><ellipse cx="239.013" cy="430.436" stroke="none" rx="18.15" ry="15"/></g><g stroke-linecap="butt" stroke-miterlimit="1.45" shape-rendering="geometricPrecision" text-rendering="geometricPrecision" transform="matrix(1,0,0,1,-153,-350)"><ellipse cx="239.013" cy="430.436" fill="none" rx="18.15" ry="15"/></g><g><g stroke-linecap="butt" stroke-miterlimit="1.45" font-family="sans-serif" shape-rendering="geometricPrecision" text-rendering="geometricPrecision"><text x="227.863" y="434.972" stroke="none" transform="matrix(1,0,0,1,-153,-350)" xml:space="preserve">URL</text></g></g></g><g id="y.node.4"><a target="_blank" xlink:href="https://schema.org/Dataset" xlink:show="new" xlink:type="simple"><g fill="#CFC" stroke="#CFC" shape-rendering="geometricPrecision" text-rendering="geometricPrecision" transform="matrix(1,0,0,1,-153,-350)"><rect width="106.045" height="30" x="475.898" y="365.5" stroke="none"/></g><g stroke-linecap="butt" stroke-miterlimit="1.45" shape-rendering="geometricPrecision" text-rendering="geometricPrecision" transform="matrix(1,0,0,1,-153,-350)"><rect width="106.045" height="30" x="475.898" y="365.5" fill="none"/></g><g><g stroke-linecap="butt" stroke-miterlimit="1.45" font-family="sans-serif" shape-rendering="geometricPrecision" text-rendering="geometricPrecision"><text x="482.898" y="385.035" stroke="none" transform="matrix(1,0,0,1,-153,-350)" xml:space="preserve">schema:Dataset</text></g></g></a></g><g id="y.edge.2"><g stroke-linecap="butt" stroke-miterlimit="1.45" shape-rendering="geometricPrecision" text-rendering="geometricPrecision"><path fill="none" d="M283.9326 612.2046 L283.9326 684.3094" transform="matrix(1,0,0,1,-153,-350)"/><path stroke="none" d="M283.9326 692.3094 L288.9326 680.3094 L283.9326 683.3094 L278.9326 680.3094 Z" transform="matrix(1,0,0,1,-153,-350)"/></g><g><g stroke-linecap="butt" stroke-miterlimit="1.45" font-family="sans-serif" shape-rendering="geometricPrecision" text-rendering="geometricPrecision"><text x="290.365" y="659.708" stroke="none" transform="matrix(1,0,0,1,-153,-350)" xml:space="preserve">schema:additionalType</text></g></g></g><g id="y.edge.1"><g stroke-linecap="butt" stroke-miterlimit="1.45" shape-rendering="geometricPrecision" text-rendering="geometricPrecision"><path fill="none" d="M289.8132 582.1808 L289.8132 453.4364" transform="matrix(1,0,0,1,-153,-350)"/><path stroke="none" d="M289.8132 445.4364 L284.8132 457.4364 L289.8132 454.4364 L294.8132 457.4364 Z" transform="matrix(1,0,0,1,-153,-350)"/></g><g><g stroke-linecap="butt" stroke-miterlimit="1.45" font-family="sans-serif" shape-rendering="geometricPrecision" text-rendering="geometricPrecision"><text x="298.309" y="472.82" stroke="none" transform="matrix(1,0,0,1,-153,-350)" xml:space="preserve">schema:value,</text><text x="298.309" y="486.953" stroke="none" transform="matrix(1,0,0,1,-153,-350)" xml:space="preserve">schema:description,</text><text x="298.309" y="501.086" stroke="none" transform="matrix(1,0,0,1,-153,-350)" xml:space="preserve">schema:unitText</text></g></g></g><g id="y.edge.3"><g stroke-linecap="butt" stroke-miterlimit="1.45" shape-rendering="geometricPrecision" text-rendering="geometricPrecision"><path fill="none" d="M239.0131 582.1808 L239.0131 453.4364" transform="matrix(1,0,0,1,-153,-350)"/><path stroke="none" d="M239.0131 445.4364 L234.0131 457.4364 L239.0131 454.4364 L244.0131 457.4364 Z" transform="matrix(1,0,0,1,-153,-350)"/></g><g><g stroke-linecap="butt" stroke-miterlimit="1.45" font-family="sans-serif" shape-rendering="geometricPrecision" text-rendering="geometricPrecision"><text x="170.075" y="482.035" stroke="none" transform="matrix(1,0,0,1,-153,-350)" xml:space="preserve">schema:url</text></g></g></g><g id="y.edge.0"><g stroke-linecap="butt" stroke-miterlimit="1.45" shape-rendering="geometricPrecision" text-rendering="geometricPrecision"><path fill="none" d="M520.4825 395.499 L520.4825 597.2046 L363.3916 597.2046" transform="matrix(1,0,0,1,-153,-350)"/><path stroke="none" d="M355.3916 597.2046 L367.3916 602.2046 L364.3916 597.2046 L367.3916 592.2046 Z" transform="matrix(1,0,0,1,-153,-350)"/></g><g><g stroke-linecap="butt" stroke-miterlimit="1.45" font-family="sans-serif" shape-rendering="geometricPrecision" text-rendering="geometricPrecision"><text x="362.969" y="571.74" stroke="none" transform="matrix(1,0,0,1,-153,-350)" xml:space="preserve">schema:variableMeasured</text></g></g></g></g></svg>