<svg xmlns="http://www.w3.org/2000/svg" xmlns:xlink="http://www.w3.org/1999/xlink" width="734" height="249" fill="#000" fill-opacity="1" stroke="#000" stroke-dasharray="none" stroke-dashoffset="0" stroke-linecap="square" stroke-linejoin="miter" stroke-miterlimit="10" stroke-opacity="1" stroke-width="1" color-interpolation="auto" color-rendering="auto" font-family="'Dialog'" font-size="12" font-style="normal" font-weight="normal" image-rendering="auto" shape-rendering="auto" text-rendering="auto"><g><defs id="defs1"><clipPath id="clipPath1" clipPathUnits="userSpaceOnUse"><path d="M0 0 L734 0 L734 249 L0 249 L0 0 Z"/></clipPath></defs><g id="y.node.0"><a target="_blank" xlink:href="https://schema.org/Dataset" xlink:show="new" xlink:type="simple"><g fill="#CFC" stroke="#CFC" shape-rendering="geometricPrecision" text-rendering="geometricPrecision" transform="matrix(1,0,0,1,-538,-25)"><rect width="106.045" height="30" x="553.055" y="217" stroke="none"/></g><g stroke-linecap="butt" stroke-miterlimit="1.45" shape-rendering="geometricPrecision" text-rendering="geometricPrecision" transform="matrix(1,0,0,1,-538,-25)"><rect width="106.045" height="30" x="553.055" y="217" fill="none"/></g><g><g stroke-linecap="butt" stroke-miterlimit="1.45" font-family="sans-serif" shape-rendering="geometricPrecision" text-rendering="geometricPrecision"><text x="560.055" y="236.535" stroke="none" transform="matrix(1,0,0,1,-538,-25)" xml:space="preserve">schema:Dataset</text></g></g></a></g><g id="y.node.1"><a target="_blank" xlink:href="https://schema.org/PropertyValue" xlink:show="new" xlink:type="simple"><g fill="#CFC" stroke="#CFC" shape-rendering="geometricPrecision" text-rendering="geometricPrecision" transform="matrix(1,0,0,1,-538,-25)"><rect width="142.918" height="30" x="783.653" y="217" stroke="none"/></g><g stroke-linecap="butt" stroke-miterlimit="1.45" shape-rendering="geometricPrecision" text-rendering="geometricPrecision" transform="matrix(1,0,0,1,-538,-25)"><rect width="142.918" height="30" x="783.653" y="217" fill="none"/></g><g><g stroke-linecap="butt" stroke-miterlimit="1.45" font-family="sans-serif" shape-rendering="geometricPrecision" text-rendering="geometricPrecision"><text x="790.653" y="236.535" stroke="none" transform="matrix(1,0,0,1,-538,-25)" xml:space="preserve">schema:PropertyValue</text></g></g></a></g><g id="y.node.2"><a target="_blank" xlink:href="http://www.sparontologies.net/ontologies/datacite/source.html#Identifier" xlink:show="new" xlink:type="simple"><g fill="#FC0" stroke="#FC0" shape-rendering="geometricPrecision" text-rendering="geometricPrecision" transform="matrix(1,0,0,1,-538,-25)"><rect width="146.826" height="41" x="1109.933" y="211.5" stroke="none"/></g><g stroke-linecap="butt" stroke-miterlimit="1.45" shape-rendering="geometricPrecision" text-rendering="geometricPrecision" transform="matrix(1,0,0,1,-538,-25)"><rect width="146.826" height="41" x="1109.933" y="211.5" fill="none"/></g><g><g stroke-linecap="butt" stroke-miterlimit="1.45" font-family="sans-serif" shape-rendering="geometricPrecision" text-rendering="geometricPrecision"><text x="1130.219" y="229.469" stroke="none" transform="matrix(1,0,0,1,-538,-25)" xml:space="preserve">datacite:Identifier,</text><text x="1133.69" y="243.602" stroke="none" transform="matrix(1,0,0,1,-538,-25)" xml:space="preserve">geolink:Identifier</text></g></g></a></g><g id="y.node.3"><g fill="#0CF" stroke="#0CF" shape-rendering="geometricPrecision" text-rendering="geometricPrecision" transform="matrix(1,0,0,1,-538,-25)"><ellipse cx="645.652" cy="141.441" stroke="none" rx="45.619" ry="20.5"/></g><g stroke-linecap="butt" stroke-miterlimit="1.45" shape-rendering="geometricPrecision" text-rendering="geometricPrecision" transform="matrix(1,0,0,1,-538,-25)"><ellipse cx="645.652" cy="141.441" fill="none" rx="45.619" ry="20.5"/></g><g><g stroke-linecap="butt" stroke-miterlimit="1.45" font-family="sans-serif" shape-rendering="geometricPrecision" text-rendering="geometricPrecision"><text x="607.033" y="145.976" stroke="none" transform="matrix(1,0,0,1,-538,-25)" xml:space="preserve">&quot;datacite:doi&quot;</text></g></g></g><g id="y.node.4"><g fill="#0CF" stroke="#0CF" shape-rendering="geometricPrecision" text-rendering="geometricPrecision" transform="matrix(1,0,0,1,-538,-25)"><ellipse cx="855.112" cy="55.931" stroke="none" rx="20.061" ry="15"/></g><g stroke-linecap="butt" stroke-miterlimit="1.45" shape-rendering="geometricPrecision" text-rendering="geometricPrecision" transform="matrix(1,0,0,1,-538,-25)"><ellipse cx="855.112" cy="55.931" fill="none" rx="20.061" ry="15"/></g><g><g stroke-linecap="butt" stroke-miterlimit="1.45" font-family="sans-serif" shape-rendering="geometricPrecision" text-rendering="geometricPrecision"><text x="842.052" y="60.466" stroke="none" transform="matrix(1,0,0,1,-538,-25)" xml:space="preserve">Text</text></g></g></g><g id="y.node.5"><g fill="#0CF" stroke="#0CF" shape-rendering="geometricPrecision" text-rendering="geometricPrecision" transform="matrix(1,0,0,1,-538,-25)"><ellipse cx="1043.468" cy="135.941" stroke="none" rx="18.15" ry="15"/></g><g stroke-linecap="butt" stroke-miterlimit="1.45" shape-rendering="geometricPrecision" text-rendering="geometricPrecision" transform="matrix(1,0,0,1,-538,-25)"><ellipse cx="1043.468" cy="135.941" fill="none" rx="18.15" ry="15"/></g><g><g stroke-linecap="butt" stroke-miterlimit="1.45" font-family="sans-serif" shape-rendering="geometricPrecision" text-rendering="geometricPrecision"><text x="1032.317" y="140.476" stroke="none" transform="matrix(1,0,0,1,-538,-25)" xml:space="preserve">URL</text></g></g></g><g id="y.edge.0"><g stroke-linecap="butt" stroke-miterlimit="1.45" shape-rendering="geometricPrecision" text-rendering="geometricPrecision"><path fill="none" d="M659.0828 233.9482 L775.6592 233.9482" transform="matrix(1,0,0,1,-538,-25)"/><path stroke="none" d="M783.6592 233.9482 L771.6592 228.9482 L774.6592 233.9482 L771.6592 238.9482 Z" transform="matrix(1,0,0,1,-538,-25)"/></g><g><g stroke-linecap="butt" stroke-miterlimit="1.45" font-family="sans-serif" shape-rendering="geometricPrecision" text-rendering="geometricPrecision"><text x="670.186" y="253.715" stroke="none" transform="matrix(1,0,0,1,-538,-25)" xml:space="preserve">schema:identifier</text></g></g></g><g id="y.edge.1"><g stroke-linecap="butt" stroke-miterlimit="1.45" shape-rendering="geometricPrecision" text-rendering="geometricPrecision"><path fill="none" d="M926.5713 232 L1101.9326 232" transform="matrix(1,0,0,1,-538,-25)"/><path stroke="none" d="M1109.9326 232 L1097.9326 227 L1100.9326 232 L1097.9326 237 Z" transform="matrix(1,0,0,1,-538,-25)"/></g><g><g stroke-linecap="butt" stroke-miterlimit="1.45" font-family="sans-serif" shape-rendering="geometricPrecision" text-rendering="geometricPrecision"><text x="946.678" y="206.535" stroke="none" transform="matrix(1,0,0,1,-538,-25)" xml:space="preserve">schema:additionalType</text></g></g></g><g id="y.edge.2"><g stroke-linecap="butt" stroke-miterlimit="1.45" shape-rendering="geometricPrecision" text-rendering="geometricPrecision"><path fill="none" d="M815.9466 217.0099 L815.9466 141.4406 L699.2715 141.4406" transform="matrix(1,0,0,1,-538,-25)"/><path stroke="none" d="M691.2715 141.4406 L703.2715 146.4406 L700.2715 141.4406 L703.2715 136.4406 Z" transform="matrix(1,0,0,1,-538,-25)"/></g><g><g stroke-linecap="butt" stroke-miterlimit="1.45" font-family="sans-serif" shape-rendering="geometricPrecision" text-rendering="geometricPrecision"><text x="696.716" y="169.406" stroke="none" transform="matrix(1,0,0,1,-538,-25)" xml:space="preserve">schema:propertyID</text></g></g></g><g id="y.edge.4"><g stroke-linecap="butt" stroke-miterlimit="1.45" shape-rendering="geometricPrecision" text-rendering="geometricPrecision"><path fill="none" d="M855.1123 217 L855.1123 78.9309" transform="matrix(1,0,0,1,-538,-25)"/><path stroke="none" d="M855.1123 70.9309 L850.1123 82.9309 L855.1123 79.9309 L860.1123 82.9309 Z" transform="matrix(1,0,0,1,-538,-25)"/></g><g><g stroke-linecap="butt" stroke-miterlimit="1.45" font-family="sans-serif" shape-rendering="geometricPrecision" text-rendering="geometricPrecision"><text x="767.011" y="91.45" stroke="none" transform="matrix(1,0,0,1,-538,-25)" xml:space="preserve">schema:value</text></g></g></g><g id="y.edge.3"><g stroke-linecap="butt" stroke-miterlimit="1.45" shape-rendering="geometricPrecision" text-rendering="geometricPrecision"><path fill="none" d="M900.3787 217.0376 L900.3787 135.9406 L1017.3174 135.9406" transform="matrix(1,0,0,1,-538,-25)"/><path stroke="none" d="M1025.3174 135.9406 L1013.3174 130.9406 L1016.3174 135.9406 L1013.3174 140.9406 Z" transform="matrix(1,0,0,1,-538,-25)"/></g><g><g stroke-linecap="butt" stroke-miterlimit="1.45" font-family="sans-serif" shape-rendering="geometricPrecision" text-rendering="geometricPrecision"><text x="927.289" y="125.28" stroke="none" transform="matrix(1,0,0,1,-538,-25)" xml:space="preserve">schema:url</text></g></g></g></g></svg>