<svg xmlns="http://www.w3.org/2000/svg" xmlns:xlink="http://www.w3.org/1999/xlink" width="1048" height="626" fill="#000" fill-opacity="1" stroke="#000" stroke-dasharray="none" stroke-dashoffset="0" stroke-linecap="square" stroke-linejoin="miter" stroke-miterlimit="10" stroke-opacity="1" stroke-width="1" color-interpolation="auto" color-rendering="auto" font-family="'Dialog'" font-size="12" font-style="normal" font-weight="normal" image-rendering="auto" shape-rendering="auto" text-rendering="auto"><g><defs id="defs1"><clipPath id="clipPath1" clipPathUnits="userSpaceOnUse"><path d="M0 0 L1048 0 L1048 626 L0 626 L0 0 Z"/></clipPath><clipPath id="clipPath2" clipPathUnits="userSpaceOnUse"><path d="M54 170 L1102 170 L1102 796 L54 796 L54 170 Z"/></clipPath></defs><g fill="#fff" stroke="#fff" shape-rendering="geometricPrecision" text-rendering="geometricPrecision" transform="translate(-54,-170)"><rect width="1048" height="626" x="54" y="170" stroke="none" clip-path="url(#clipPath2)"/></g><g id="y.node.0"><a target="_blank" xlink:href="https://schema.org/Dataset" xlink:show="new" xlink:type="simple"><g fill="#CFC" stroke="#CFC" shape-rendering="geometricPrecision" text-rendering="geometricPrecision" transform="matrix(1,0,0,1,-54,-170)"><rect width="106.045" height="30" x="455.978" y="217" stroke="none"/></g><g stroke-linecap="butt" stroke-miterlimit="1.45" shape-rendering="geometricPrecision" text-rendering="geometricPrecision" transform="matrix(1,0,0,1,-54,-170)"><rect width="106.045" height="30" x="455.978" y="217" fill="none"/></g><g><g stroke-linecap="butt" stroke-miterlimit="1.45" font-family="sans-serif" shape-rendering="geometricPrecision" text-rendering="geometricPrecision"><text x="462.978" y="236.535" stroke="none" transform="matrix(1,0,0,1,-54,-170)" xml:space="preserve">schema:Dataset</text></g></g></a></g><g id="y.node.1"><a target="_blank" xlink:href="https://schema.org/PropertyValue" xlink:show="new" xlink:type="simple"><g fill="#CFC" stroke="#CFC" shape-rendering="geometricPrecision" text-rendering="geometricPrecision" transform="matrix(1,0,0,1,-54,-170)"><rect width="142.918" height="30" x="685.815" y="217" stroke="none"/></g><g stroke-linecap="butt" stroke-miterlimit="1.45" shape-rendering="geometricPrecision" text-rendering="geometricPrecision" transform="matrix(1,0,0,1,-54,-170)"><rect width="142.918" height="30" x="685.815" y="217" fill="none"/></g><g><g stroke-linecap="butt" stroke-miterlimit="1.45" font-family="sans-serif" shape-rendering="geometricPrecision" text-rendering="geometricPrecision"><text x="692.815" y="236.535" stroke="none" transform="matrix(1,0,0,1,-54,-170)" xml:space="preserve">schema:PropertyValue</text></g></g></a></g><g id="y.node.2"><a target="_blank" xlink:href="https://schema.org/Role" xlink:show="new" xlink:type="simple"><g fill="#CFC" stroke="#CFC" shape-rendering="geometricPrecision" text-rendering="geometricPrecision" transform="matrix(1,0,0,1,-54,-170)"><rect width="101.188" height="30" x="706.68" y="320.106" stroke="none"/></g><g stroke-linecap="butt" stroke-miterlimit="1.45" shape-rendering="geometricPrecision" text-rendering="geometricPrecision" transform="matrix(1,0,0,1,-54,-170)"><rect width="101.188" height="30" x="706.68" y="320.106" fill="none"/></g><g><g stroke-linecap="butt" stroke-miterlimit="1.45" font-family="sans-serif" shape-rendering="geometricPrecision" text-rendering="geometricPrecision"><text x="720.706" y="339.641" stroke="none" transform="matrix(1,0,0,1,-54,-170)" xml:space="preserve">schema:Role</text></g></g></a></g><g id="y.node.3"><a target="_blank" xlink:href="https://schema.org/DigitalDocument" xlink:show="new" xlink:type="simple"><g fill="#CFC" stroke="#CFC" shape-rendering="geometricPrecision" text-rendering="geometricPrecision" transform="matrix(1,0,0,1,-54,-170)"><rect width="159.793" height="30" x="599.389" y="536.657" stroke="none"/></g><g stroke-linecap="butt" stroke-miterlimit="1.45" shape-rendering="geometricPrecision" text-rendering="geometricPrecision" transform="matrix(1,0,0,1,-54,-170)"><rect width="159.793" height="30" x="599.389" y="536.657" fill="none"/></g><g><g stroke-linecap="butt" stroke-miterlimit="1.45" font-family="sans-serif" shape-rendering="geometricPrecision" text-rendering="geometricPrecision"><text x="606.389" y="556.192" stroke="none" transform="matrix(1,0,0,1,-54,-170)" xml:space="preserve">schema:DigitalDocument</text></g></g></a></g><g id="y.node.4"><a target="_blank" xlink:href="https://schema.org/Place" xlink:show="new" xlink:type="simple"><g fill="#CFC" stroke="#CFC" shape-rendering="geometricPrecision" text-rendering="geometricPrecision" transform="matrix(1,0,0,1,-54,-170)"><rect width="91.584" height="30" x="336.197" y="438.473" stroke="none"/></g><g stroke-linecap="butt" stroke-miterlimit="1.45" shape-rendering="geometricPrecision" text-rendering="geometricPrecision" transform="matrix(1,0,0,1,-54,-170)"><rect width="91.584" height="30" x="336.197" y="438.473" fill="none"/></g><g><g stroke-linecap="butt" stroke-miterlimit="1.45" font-family="sans-serif" shape-rendering="geometricPrecision" text-rendering="geometricPrecision"><text x="343.197" y="458.008" stroke="none" transform="matrix(1,0,0,1,-54,-170)" xml:space="preserve">schema:Place</text></g></g></a></g><g id="y.node.5"><a target="_blank" xlink:href="https://schema.org/GeoShape" xlink:show="new" xlink:type="simple"><g fill="#CFC" stroke="#CFC" shape-rendering="geometricPrecision" text-rendering="geometricPrecision" transform="matrix(1,0,0,1,-54,-170)"><rect width="119.527" height="30" x="106.857" y="415.106" stroke="none"/></g><g stroke-linecap="butt" stroke-miterlimit="1.45" shape-rendering="geometricPrecision" text-rendering="geometricPrecision" transform="matrix(1,0,0,1,-54,-170)"><rect width="119.527" height="30" x="106.857" y="415.106" fill="none"/></g><g><g stroke-linecap="butt" stroke-miterlimit="1.45" font-family="sans-serif" shape-rendering="geometricPrecision" text-rendering="geometricPrecision"><text x="113.857" y="434.641" stroke="none" transform="matrix(1,0,0,1,-54,-170)" xml:space="preserve">schema:GeoShape</text></g></g></a></g><g id="y.node.6"><a target="_blank" xlink:href="https://schema.org/GeoCoordinates" xlink:show="new" xlink:type="simple"><g fill="#CFC" stroke="#CFC" shape-rendering="geometricPrecision" text-rendering="geometricPrecision" transform="matrix(1,0,0,1,-54,-170)"><rect width="155.094" height="30" x="69.348" y="462.852" stroke="none"/></g><g stroke-linecap="butt" stroke-miterlimit="1.45" shape-rendering="geometricPrecision" text-rendering="geometricPrecision" transform="matrix(1,0,0,1,-54,-170)"><rect width="155.094" height="30" x="69.348" y="462.852" fill="none"/></g><g><g stroke-linecap="butt" stroke-miterlimit="1.45" font-family="sans-serif" shape-rendering="geometricPrecision" text-rendering="geometricPrecision"><text x="76.348" y="482.387" stroke="none" transform="matrix(1,0,0,1,-54,-170)" xml:space="preserve">schema:GeoCoordinates</text></g></g></a></g><g id="y.node.7"><a target="_blank" xlink:href="https://schema.org/Organization" xlink:show="new" xlink:type="simple"><g fill="#CFC" stroke="#CFC" shape-rendering="geometricPrecision" text-rendering="geometricPrecision" transform="matrix(1,0,0,1,-54,-170)"><rect width="137.563" height="30" x="670.305" y="406.461" stroke="none"/></g><g stroke-linecap="butt" stroke-miterlimit="1.45" shape-rendering="geometricPrecision" text-rendering="geometricPrecision" transform="matrix(1,0,0,1,-54,-170)"><rect width="137.563" height="30" x="670.305" y="406.461" fill="none"/></g><g><g stroke-linecap="butt" stroke-miterlimit="1.45" font-family="sans-serif" shape-rendering="geometricPrecision" text-rendering="geometricPrecision"><text x="677.305" y="425.996" stroke="none" transform="matrix(1,0,0,1,-54,-170)" xml:space="preserve">schema:Organization</text></g></g></a></g><g id="y.node.8"><a target="_blank" xlink:href="https://schema.org/DataCatalog" xlink:show="new" xlink:type="simple"><g fill="#CFC" stroke="#CFC" shape-rendering="geometricPrecision" text-rendering="geometricPrecision" transform="matrix(1,0,0,1,-54,-170)"><rect width="133.121" height="30" x="727.937" y="455.931" stroke="none"/></g><g stroke-linecap="butt" stroke-miterlimit="1.45" shape-rendering="geometricPrecision" text-rendering="geometricPrecision" transform="matrix(1,0,0,1,-54,-170)"><rect width="133.121" height="30" x="727.937" y="455.931" fill="none"/></g><g><g stroke-linecap="butt" stroke-miterlimit="1.45" font-family="sans-serif" shape-rendering="geometricPrecision" text-rendering="geometricPrecision"><text x="734.937" y="475.466" stroke="none" transform="matrix(1,0,0,1,-54,-170)" xml:space="preserve">schema:DataCatalog</text></g></g></a></g><g id="y.node.9"><a target="_blank" xlink:href="https://schema.org/Event" xlink:show="new" xlink:type="simple"><g fill="#CFC" stroke="#CFC" shape-rendering="geometricPrecision" text-rendering="geometricPrecision" transform="matrix(1,0,0,1,-54,-170)"><rect width="93.359" height="30" x="593.526" y="617.383" stroke="none"/></g><g stroke-linecap="butt" stroke-miterlimit="1.45" shape-rendering="geometricPrecision" text-rendering="geometricPrecision" transform="matrix(1,0,0,1,-54,-170)"><rect width="93.359" height="30" x="593.526" y="617.383" fill="none"/></g><g><g stroke-linecap="butt" stroke-miterlimit="1.45" font-family="sans-serif" shape-rendering="geometricPrecision" text-rendering="geometricPrecision"><text x="600.526" y="636.918" stroke="none" transform="matrix(1,0,0,1,-54,-170)" xml:space="preserve">schema:Event</text></g></g></a></g><g id="y.node.10"><a target="_blank" xlink:href="https://schema.org/DataDownload" xlink:show="new" xlink:type="simple"><g fill="#CFC" stroke="#CFC" shape-rendering="geometricPrecision" text-rendering="geometricPrecision" transform="matrix(1,0,0,1,-54,-170)"><rect width="146.826" height="30" x="176.576" y="282.5" stroke="none"/></g><g stroke-linecap="butt" stroke-miterlimit="1.45" shape-rendering="geometricPrecision" text-rendering="geometricPrecision" transform="matrix(1,0,0,1,-54,-170)"><rect width="146.826" height="30" x="176.576" y="282.5" fill="none"/></g><g><g stroke-linecap="butt" stroke-miterlimit="1.45" font-family="sans-serif" shape-rendering="geometricPrecision" text-rendering="geometricPrecision"><text x="183.576" y="302.035" stroke="none" transform="matrix(1,0,0,1,-54,-170)" xml:space="preserve">schema:DataDownload</text></g></g></a></g><g id="y.node.11"><a target="_blank" xlink:href="http://www.sparontologies.net/ontologies/datacite/source.html#Identifier" xlink:show="new" xlink:type="simple"><g fill="#FC0" stroke="#FC0" shape-rendering="geometricPrecision" text-rendering="geometricPrecision" transform="matrix(1,0,0,1,-54,-170)"><rect width="146.826" height="41" x="899.368" y="211.5" stroke="none"/></g><g stroke-linecap="butt" stroke-miterlimit="1.45" shape-rendering="geometricPrecision" text-rendering="geometricPrecision" transform="matrix(1,0,0,1,-54,-170)"><rect width="146.826" height="41" x="899.368" y="211.5" fill="none"/></g><g><g stroke-linecap="butt" stroke-miterlimit="1.45" font-family="sans-serif" shape-rendering="geometricPrecision" text-rendering="geometricPrecision"><text x="919.654" y="229.469" stroke="none" transform="matrix(1,0,0,1,-54,-170)" xml:space="preserve">datacite:Identifier,</text><text x="923.126" y="243.602" stroke="none" transform="matrix(1,0,0,1,-54,-170)" xml:space="preserve">geolink:Identifier</text></g></g></a></g><g id="y.node.12"><a target="_blank" xlink:href="http://schema.geolink.org/1.0/base/main#Dataset" xlink:show="new" xlink:type="simple"><g fill="#FC0" stroke="#FC0" shape-rendering="geometricPrecision" text-rendering="geometricPrecision" transform="matrix(1,0,0,1,-54,-170)"><rect width="108.553" height="41" x="195.713" y="211.5" stroke="none"/></g><g stroke-linecap="butt" stroke-miterlimit="1.45" shape-rendering="geometricPrecision" text-rendering="geometricPrecision" transform="matrix(1,0,0,1,-54,-170)"><rect width="108.553" height="41" x="195.713" y="211.5" fill="none"/></g><g><g stroke-linecap="butt" stroke-miterlimit="1.45" font-family="sans-serif" shape-rendering="geometricPrecision" text-rendering="geometricPrecision"><text x="202.713" y="229.469" stroke="none" transform="matrix(1,0,0,1,-54,-170)" xml:space="preserve">geolink:Dataset,</text><text x="214.449" y="243.602" stroke="none" transform="matrix(1,0,0,1,-54,-170)" xml:space="preserve">vivo:Dataset</text></g></g></a></g><g id="y.node.13"><a target="_blank" xlink:href="http://schema.geolink.org/1.0/base/main#Participant" xlink:show="new" xlink:type="simple"><g fill="#FC0" stroke="#FC0" shape-rendering="geometricPrecision" text-rendering="geometricPrecision" transform="matrix(1,0,0,1,-54,-170)"><rect width="118.145" height="30" x="928.05" y="320.106" stroke="none"/></g><g stroke-linecap="butt" stroke-miterlimit="1.45" shape-rendering="geometricPrecision" text-rendering="geometricPrecision" transform="matrix(1,0,0,1,-54,-170)"><rect width="118.145" height="30" x="928.05" y="320.106" fill="none"/></g><g><g stroke-linecap="butt" stroke-miterlimit="1.45" font-family="sans-serif" shape-rendering="geometricPrecision" text-rendering="geometricPrecision"><text x="932.826" y="339.641" stroke="none" transform="matrix(1,0,0,1,-54,-170)" xml:space="preserve">geolink:Participant</text></g></g></a></g><g id="y.node.14"><a target="_blank" xlink:href="https://geodex.org/voc/Protocol-License" xlink:show="new" xlink:type="simple"><g fill="#ff0" stroke="#ff0" shape-rendering="geometricPrecision" text-rendering="geometricPrecision" transform="matrix(1,0,0,1,-54,-170)"><ellipse cx="908.014" cy="551.657" stroke="none" rx="68.922" ry="17.583"/></g><g stroke-linecap="butt" stroke-miterlimit="1.45" shape-rendering="geometricPrecision" text-rendering="geometricPrecision" transform="matrix(1,0,0,1,-54,-170)"><ellipse cx="908.014" cy="551.657" fill="none" rx="68.922" ry="17.583"/></g><g><g stroke-linecap="butt" stroke-miterlimit="1.45" font-family="sans-serif" shape-rendering="geometricPrecision" text-rendering="geometricPrecision"><text x="846.092" y="556.192" stroke="none" transform="matrix(1,0,0,1,-54,-170)" xml:space="preserve">gdx:Protocol-License</text></g></g></a></g><g id="y.node.15"><a target="_blank" xlink:href="https://geodex.org/voc/Protocol-TermsOfUse" xlink:show="new" xlink:type="simple"><g fill="#ff0" stroke="#ff0" shape-rendering="geometricPrecision" text-rendering="geometricPrecision" transform="matrix(1,0,0,1,-54,-170)"><ellipse cx="922.217" cy="697.188" stroke="none" rx="83.125" ry="17.583"/></g><g stroke-linecap="butt" stroke-miterlimit="1.45" shape-rendering="geometricPrecision" text-rendering="geometricPrecision" transform="matrix(1,0,0,1,-54,-170)"><ellipse cx="922.217" cy="697.188" fill="none" rx="83.125" ry="17.583"/></g><g><g stroke-linecap="butt" stroke-miterlimit="1.45" font-family="sans-serif" shape-rendering="geometricPrecision" text-rendering="geometricPrecision"><text x="846.092" y="701.723" stroke="none" transform="matrix(1,0,0,1,-54,-170)" xml:space="preserve">gdx:Protocol-TermsOfUse</text></g></g></a></g><g id="y.node.16"><a target="_blank" xlink:href="https://geodex.org/voc/Protocol-ResourceSubmissionPolicy" xlink:show="new" xlink:type="simple"><g fill="#ff0" stroke="#ff0" shape-rendering="geometricPrecision" text-rendering="geometricPrecision" transform="matrix(1,0,0,1,-54,-170)"><ellipse cx="963.022" cy="648.983" stroke="none" rx="123.93" ry="18.5"/></g><g stroke-linecap="butt" stroke-miterlimit="1.45" shape-rendering="geometricPrecision" text-rendering="geometricPrecision" transform="matrix(1,0,0,1,-54,-170)"><ellipse cx="963.022" cy="648.983" fill="none" rx="123.93" ry="18.5"/></g><g><g stroke-linecap="butt" stroke-miterlimit="1.45" font-family="sans-serif" shape-rendering="geometricPrecision" text-rendering="geometricPrecision"><text x="846.092" y="653.518" stroke="none" transform="matrix(1,0,0,1,-54,-170)" xml:space="preserve">gdx:Protocol-ResourceSubmissionPolicy</text></g></g></a></g><g id="y.node.17"><a target="_blank" xlink:href="https://geodex.org/voc/Protocol-PreservationPolicy" xlink:show="new" xlink:type="simple"><g fill="#ff0" stroke="#ff0" shape-rendering="geometricPrecision" text-rendering="geometricPrecision" transform="matrix(1,0,0,1,-54,-170)"><ellipse cx="938.995" cy="599.861" stroke="none" rx="99.903" ry="18.5"/></g><g stroke-linecap="butt" stroke-miterlimit="1.45" shape-rendering="geometricPrecision" text-rendering="geometricPrecision" transform="matrix(1,0,0,1,-54,-170)"><ellipse cx="938.995" cy="599.861" fill="none" rx="99.903" ry="18.5"/></g><g><g stroke-linecap="butt" stroke-miterlimit="1.45" font-family="sans-serif" shape-rendering="geometricPrecision" text-rendering="geometricPrecision"><text x="846.092" y="604.396" stroke="none" transform="matrix(1,0,0,1,-54,-170)" xml:space="preserve">gdx:Protocol-PreservationPolicy</text></g></g></a></g><g id="y.node.18"><a target="_blank" xlink:href="https://geodex.org/voc/Protocol-Access" xlink:show="new" xlink:type="simple"><g fill="#ff0" stroke="#ff0" shape-rendering="geometricPrecision" text-rendering="geometricPrecision" transform="matrix(1,0,0,1,-54,-170)"><ellipse cx="906.285" cy="741.892" stroke="none" rx="67.193" ry="15"/></g><g stroke-linecap="butt" stroke-miterlimit="1.45" shape-rendering="geometricPrecision" text-rendering="geometricPrecision" transform="matrix(1,0,0,1,-54,-170)"><ellipse cx="906.285" cy="741.892" fill="none" rx="67.193" ry="15"/></g><g><g stroke-linecap="butt" stroke-miterlimit="1.45" font-family="sans-serif" shape-rendering="geometricPrecision" text-rendering="geometricPrecision"><text x="846.092" y="746.427" stroke="none" transform="matrix(1,0,0,1,-54,-170)" xml:space="preserve">gdx:Protocol-Access</text></g></g></a></g><g id="y.node.19"><a target="_blank" xlink:href="http://schema.geolink.org/1.0/base/main#Organization" xlink:show="new" xlink:type="simple"><g fill="#FC0" stroke="#FC0" shape-rendering="geometricPrecision" text-rendering="geometricPrecision" transform="matrix(1,0,0,1,-54,-170)"><rect width="136.273" height="30" x="909.921" y="406.461" stroke="none"/></g><g stroke-linecap="butt" stroke-miterlimit="1.45" shape-rendering="geometricPrecision" text-rendering="geometricPrecision" transform="matrix(1,0,0,1,-54,-170)"><rect width="136.273" height="30" x="909.921" y="406.461" fill="none"/></g><g><g stroke-linecap="butt" stroke-miterlimit="1.45" font-family="sans-serif" shape-rendering="geometricPrecision" text-rendering="geometricPrecision"><text x="916.921" y="425.996" stroke="none" transform="matrix(1,0,0,1,-54,-170)" xml:space="preserve">geolink:Organization</text></g></g></a></g><g id="y.node.20"><a target="_blank" xlink:href="https://schema.org/CreativeWork" xlink:show="new" xlink:type="simple"><g fill="#CFC" stroke="#CFC" shape-rendering="geometricPrecision" text-rendering="geometricPrecision" transform="matrix(1,0,0,1,-54,-170)"><rect width="138.963" height="30" x="651.037" y="726.892" stroke="none"/></g><g stroke-linecap="butt" stroke-miterlimit="1.45" shape-rendering="geometricPrecision" text-rendering="geometricPrecision" transform="matrix(1,0,0,1,-54,-170)"><rect width="138.963" height="30" x="651.037" y="726.892" fill="none"/></g><g><g stroke-linecap="butt" stroke-miterlimit="1.45" font-family="sans-serif" shape-rendering="geometricPrecision" text-rendering="geometricPrecision"><text x="658.037" y="746.427" stroke="none" transform="matrix(1,0,0,1,-54,-170)" xml:space="preserve">schema:CreativeWork</text></g></g></a></g><g id="y.node.21"><a target="_blank" xlink:href="http://schema.geolink.org/1.0/base/main#Platform" xlink:show="new" xlink:type="simple"><g fill="#FC0" stroke="#FC0" shape-rendering="geometricPrecision" text-rendering="geometricPrecision" transform="matrix(1,0,0,1,-54,-170)"><rect width="109.848" height="30" x="203.623" y="726.892" stroke="none"/></g><g stroke-linecap="butt" stroke-miterlimit="1.45" shape-rendering="geometricPrecision" text-rendering="geometricPrecision" transform="matrix(1,0,0,1,-54,-170)"><rect width="109.848" height="30" x="203.623" y="726.892" fill="none"/></g><g><g stroke-linecap="butt" stroke-miterlimit="1.45" font-family="sans-serif" shape-rendering="geometricPrecision" text-rendering="geometricPrecision"><text x="210.623" y="746.427" stroke="none" transform="matrix(1,0,0,1,-54,-170)" xml:space="preserve">geolink:Platform</text></g></g></a></g><g id="y.node.22"><a target="_blank" xlink:href="https://schema.org/Vehicle" xlink:show="new" xlink:type="simple"><g fill="#CFC" stroke="#CFC" shape-rendering="geometricPrecision" text-rendering="geometricPrecision" transform="matrix(1,0,0,1,-54,-170)"><rect width="103.772" height="30" x="416.01" y="726.892" stroke="none"/></g><g stroke-linecap="butt" stroke-miterlimit="1.45" shape-rendering="geometricPrecision" text-rendering="geometricPrecision" transform="matrix(1,0,0,1,-54,-170)"><rect width="103.772" height="30" x="416.01" y="726.892" fill="none"/></g><g><g stroke-linecap="butt" stroke-miterlimit="1.45" font-family="sans-serif" shape-rendering="geometricPrecision" text-rendering="geometricPrecision"><text x="423.01" y="746.427" stroke="none" transform="matrix(1,0,0,1,-54,-170)" xml:space="preserve">schema:Vehicle</text></g></g></a></g><g id="y.node.23"><a target="_blank" xlink:href="http://schema.geolink.org/1.0/base/main#Cruise" xlink:show="new" xlink:type="simple"><g fill="#FC0" stroke="#FC0" shape-rendering="geometricPrecision" text-rendering="geometricPrecision" transform="matrix(1,0,0,1,-54,-170)"><rect width="97.666" height="30" x="422.115" y="662.118" stroke="none"/></g><g stroke-linecap="butt" stroke-miterlimit="1.45" shape-rendering="geometricPrecision" text-rendering="geometricPrecision" transform="matrix(1,0,0,1,-54,-170)"><rect width="97.666" height="30" x="422.115" y="662.118" fill="none"/></g><g><g stroke-linecap="butt" stroke-miterlimit="1.45" font-family="sans-serif" shape-rendering="geometricPrecision" text-rendering="geometricPrecision"><text x="429.115" y="681.653" stroke="none" transform="matrix(1,0,0,1,-54,-170)" xml:space="preserve">geolink:Cruise</text></g></g></a></g><g id="y.node.24"><g fill="#0CF" stroke="#0CF" shape-rendering="geometricPrecision" text-rendering="geometricPrecision" transform="matrix(1,0,0,1,-54,-170)"><ellipse cx="241.741" cy="382.36" stroke="none" rx="34.867" ry="15"/></g><g stroke-linecap="butt" stroke-miterlimit="1.45" shape-rendering="geometricPrecision" text-rendering="geometricPrecision" transform="matrix(1,0,0,1,-54,-170)"><ellipse cx="241.741" cy="382.36" fill="none" rx="34.867" ry="15"/></g><g><g stroke-linecap="butt" stroke-miterlimit="1.45" font-family="sans-serif" shape-rendering="geometricPrecision" text-rendering="geometricPrecision"><text x="213.874" y="386.895" stroke="none" transform="matrix(1,0,0,1,-54,-170)" xml:space="preserve">DateTime</text></g></g></g><g id="y.node.25"><g fill="#0CF" stroke="#0CF" shape-rendering="geometricPrecision" text-rendering="geometricPrecision" transform="matrix(1,0,0,1,-54,-170)"><ellipse cx="256.548" cy="347.36" stroke="none" rx="20.061" ry="15"/></g><g stroke-linecap="butt" stroke-miterlimit="1.45" shape-rendering="geometricPrecision" text-rendering="geometricPrecision" transform="matrix(1,0,0,1,-54,-170)"><ellipse cx="256.548" cy="347.36" fill="none" rx="20.061" ry="15"/></g><g><g stroke-linecap="butt" stroke-miterlimit="1.45" font-family="sans-serif" shape-rendering="geometricPrecision" text-rendering="geometricPrecision"><text x="243.487" y="351.895" stroke="none" transform="matrix(1,0,0,1,-54,-170)" xml:space="preserve">Text</text></g></g></g><g id="y.node.26"><a target="_blank" xlink:href="https://schema.org/PropertyValue" xlink:show="new" xlink:type="simple"><g fill="#CFC" stroke="#CFC" shape-rendering="geometricPrecision" text-rendering="geometricPrecision" transform="matrix(1,0,0,1,-54,-170)"><rect width="142.918" height="30" x="247.211" y="550.295" stroke="none"/></g><g stroke-linecap="butt" stroke-miterlimit="1.45" shape-rendering="geometricPrecision" text-rendering="geometricPrecision" transform="matrix(1,0,0,1,-54,-170)"><rect width="142.918" height="30" x="247.211" y="550.295" fill="none"/></g><g><g stroke-linecap="butt" stroke-miterlimit="1.45" font-family="sans-serif" shape-rendering="geometricPrecision" text-rendering="geometricPrecision"><text x="254.211" y="569.831" stroke="none" transform="matrix(1,0,0,1,-54,-170)" xml:space="preserve">schema:PropertyValue</text></g></g></a></g><g id="y.node.27"><a target="_blank" xlink:href="https://library.ucar.edu/earthcollab/schema#Parameter" xlink:show="new" xlink:type="simple"><g fill="#FC0" stroke="#FC0" shape-rendering="geometricPrecision" text-rendering="geometricPrecision" transform="matrix(1,0,0,1,-54,-170)"><rect width="166.25" height="53.166" x="211.788" y="617.383" stroke="none"/></g><g stroke-linecap="butt" stroke-miterlimit="1.45" shape-rendering="geometricPrecision" text-rendering="geometricPrecision" transform="matrix(1,0,0,1,-54,-170)"><rect width="166.25" height="53.166" x="211.788" y="617.383" fill="none"/></g><g><g stroke-linecap="butt" stroke-miterlimit="1.45" font-family="sans-serif" shape-rendering="geometricPrecision" text-rendering="geometricPrecision"><text x="229.335" y="634.368" stroke="none" transform="matrix(1,0,0,1,-54,-170)" xml:space="preserve">earthcollab:Parameter,</text><text x="236.208" y="648.5" stroke="none" transform="matrix(1,0,0,1,-54,-170)" xml:space="preserve">geo-upper:Variable,</text><text x="218.181" y="662.633" stroke="none" transform="matrix(1,0,0,1,-54,-170)" xml:space="preserve">geolink:MeasurementType</text></g></g></a></g><g id="y.edge.0"><g stroke-linecap="butt" stroke-miterlimit="1.45" shape-rendering="geometricPrecision" text-rendering="geometricPrecision"><path fill="none" d="M562.0225 232 L677.8149 232" transform="matrix(1,0,0,1,-54,-170)"/><path stroke="none" d="M685.8149 232 L673.8149 227 L676.8149 232 L673.8149 237 Z" transform="matrix(1,0,0,1,-54,-170)"/></g><g><g stroke-linecap="butt" stroke-miterlimit="1.45" font-family="sans-serif" shape-rendering="geometricPrecision" text-rendering="geometricPrecision"><text x="573.613" y="199.469" stroke="none" transform="matrix(1,0,0,1,-54,-170)" xml:space="preserve">schema:identifier</text><text x="609.133" y="213.602" stroke="none" transform="matrix(1,0,0,1,-54,-170)" xml:space="preserve">(DOI)</text></g></g></g><g id="y.edge.1"><g stroke-linecap="butt" stroke-miterlimit="1.45" shape-rendering="geometricPrecision" text-rendering="geometricPrecision"><path fill="none" d="M549 246.9776 L549 335.1063 L698.6801 335.1063" transform="matrix(1,0,0,1,-54,-170)"/><path stroke="none" d="M706.6801 335.1063 L694.6801 330.1063 L697.6801 335.1063 L694.6801 340.1063 Z" transform="matrix(1,0,0,1,-54,-170)"/></g><g><g stroke-linecap="butt" stroke-miterlimit="1.45" font-family="sans-serif" shape-rendering="geometricPrecision" text-rendering="geometricPrecision"><text x="553.188" y="308.469" stroke="none" transform="matrix(1,0,0,1,-54,-170)" xml:space="preserve">schema:creator,</text><text x="553.188" y="322.602" stroke="none" transform="matrix(1,0,0,1,-54,-170)" xml:space="preserve">schema:contributor</text></g></g></g><g id="y.edge.10"><g stroke-linecap="butt" stroke-miterlimit="1.45" shape-rendering="geometricPrecision" text-rendering="geometricPrecision"><path fill="none" d="M757.2739 320.1063 L757.2739 255" transform="matrix(1,0,0,1,-54,-170)"/><path stroke="none" d="M757.2739 247 L752.2739 259 L757.2739 256 L762.2739 259 Z" transform="matrix(1,0,0,1,-54,-170)"/></g><g><g stroke-linecap="butt" stroke-miterlimit="1.45" font-family="sans-serif" shape-rendering="geometricPrecision" text-rendering="geometricPrecision"><text x="765.234" y="265.602" stroke="none" transform="matrix(1,0,0,1,-54,-170)" xml:space="preserve">schema:identifier</text><text x="792.808" y="279.734" stroke="none" transform="matrix(1,0,0,1,-54,-170)" xml:space="preserve">(ORCID)</text></g></g></g><g id="y.edge.2"><g stroke-linecap="butt" stroke-miterlimit="1.45" shape-rendering="geometricPrecision" text-rendering="geometricPrecision"><path fill="none" d="M518.9864 247.0229 L518.9864 551.6566 L591.3888 551.6566" transform="matrix(1,0,0,1,-54,-170)"/><path stroke="none" d="M599.3888 551.6566 L587.3888 546.6566 L590.3888 551.6566 L587.3888 556.6566 Z" transform="matrix(1,0,0,1,-54,-170)"/></g><g><g stroke-linecap="butt" stroke-miterlimit="1.45" font-family="sans-serif" shape-rendering="geometricPrecision" text-rendering="geometricPrecision"><text x="529.313" y="523.535" stroke="none" transform="matrix(1,0,0,1,-54,-170)" xml:space="preserve">schema:publishingPrinciples</text></g></g></g><g id="y.edge.3"><g stroke-linecap="butt" stroke-miterlimit="1.45" shape-rendering="geometricPrecision" text-rendering="geometricPrecision"><path fill="none" d="M488.365 247.0045 L488.365 453.4726 L435.7811 453.4726" transform="matrix(1,0,0,1,-54,-170)"/><path stroke="none" d="M427.7811 453.4726 L439.7811 458.4726 L436.7811 453.4726 L439.7811 448.4726 Z" transform="matrix(1,0,0,1,-54,-170)"/></g><g><g stroke-linecap="butt" stroke-miterlimit="1.45" font-family="sans-serif" shape-rendering="geometricPrecision" text-rendering="geometricPrecision"><text x="342.676" y="427.535" stroke="none" transform="matrix(1,0,0,1,-54,-170)" xml:space="preserve">schema:spatialCoverage</text></g></g></g><g id="y.edge.4"><g stroke-linecap="butt" stroke-miterlimit="1.45" shape-rendering="geometricPrecision" text-rendering="geometricPrecision"><path fill="none" d="M336.2182 453.9793 L244.4414 453.9793 L244.4414 430.1063 L234.384 430.1063" transform="matrix(1,0,0,1,-54,-170)"/><path stroke="none" d="M226.384 430.1063 L238.384 435.1063 L235.384 430.1063 L238.384 425.1063 Z" transform="matrix(1,0,0,1,-54,-170)"/></g><g><g stroke-linecap="butt" stroke-miterlimit="1.45" font-family="sans-serif" shape-rendering="geometricPrecision" text-rendering="geometricPrecision"><text x="255.219" y="467.535" stroke="none" transform="matrix(1,0,0,1,-54,-170)" xml:space="preserve">schema:geo</text></g></g></g><g id="y.edge.5"><g stroke-linecap="butt" stroke-miterlimit="1.45" shape-rendering="geometricPrecision" text-rendering="geometricPrecision"><path fill="none" d="M336.2182 453.9793 L244.4414 453.9793 L244.4414 477.8523 L232.4414 477.8523" transform="matrix(1,0,0,1,-54,-170)"/><path stroke="none" d="M224.4414 477.8523 L236.4414 482.8523 L233.4414 477.8523 L236.4414 472.8523 Z" transform="matrix(1,0,0,1,-54,-170)"/></g></g><g id="y.edge.6"><g stroke-linecap="butt" stroke-miterlimit="1.45" shape-rendering="geometricPrecision" text-rendering="geometricPrecision"><path fill="none" d="M538.7161 247.0329 L538.7161 421.4605 L662.3051 421.4605" transform="matrix(1,0,0,1,-54,-170)"/><path stroke="none" d="M670.3051 421.4605 L658.3051 416.4605 L661.3051 421.4605 L658.3051 426.4605 Z" transform="matrix(1,0,0,1,-54,-170)"/></g><g><g stroke-linecap="butt" stroke-miterlimit="1.45" font-family="sans-serif" shape-rendering="geometricPrecision" text-rendering="geometricPrecision"><text x="548.984" y="385.478" stroke="none" transform="matrix(1,0,0,1,-54,-170)" xml:space="preserve">schema:publisher,</text><text x="548.984" y="399.61" stroke="none" transform="matrix(1,0,0,1,-54,-170)" xml:space="preserve">schema:provider,</text><text x="548.984" y="413.743" stroke="none" transform="matrix(1,0,0,1,-54,-170)" xml:space="preserve">schema:funder</text></g></g></g><g id="y.edge.7"><g stroke-linecap="butt" stroke-miterlimit="1.45" shape-rendering="geometricPrecision" text-rendering="geometricPrecision"><path fill="none" d="M529 247.0207 L529 470.9306 L719.9367 470.9306" transform="matrix(1,0,0,1,-54,-170)"/><path stroke="none" d="M727.9367 470.9306 L715.9367 465.9306 L718.9367 470.9306 L715.9367 475.9306 Z" transform="matrix(1,0,0,1,-54,-170)"/></g><g><g stroke-linecap="butt" stroke-miterlimit="1.45" font-family="sans-serif" shape-rendering="geometricPrecision" text-rendering="geometricPrecision"><text x="537.102" y="460.535" stroke="none" transform="matrix(1,0,0,1,-54,-170)" xml:space="preserve">schema:includedInDataCatalog</text></g></g></g><g id="y.edge.8"><g stroke-linecap="butt" stroke-miterlimit="1.45" shape-rendering="geometricPrecision" text-rendering="geometricPrecision"><path fill="none" d="M509 247 L509 632.3825 L585.5264 632.3825" transform="matrix(1,0,0,1,-54,-170)"/><path stroke="none" d="M593.5264 632.3825 L581.5264 627.3825 L584.5264 632.3825 L581.5264 637.3825 Z" transform="matrix(1,0,0,1,-54,-170)"/></g><g><g stroke-linecap="butt" stroke-miterlimit="1.45" font-family="sans-serif" shape-rendering="geometricPrecision" text-rendering="geometricPrecision"><text x="516.973" y="604.642" stroke="none" transform="matrix(1,0,0,1,-54,-170)" xml:space="preserve">schema:recordedAt</text></g></g></g><g id="y.edge.9"><g stroke-linecap="butt" stroke-miterlimit="1.45" shape-rendering="geometricPrecision" text-rendering="geometricPrecision"><path fill="none" d="M468.365 246.9998 L468.365 297.5 L331.4023 297.5" transform="matrix(1,0,0,1,-54,-170)"/><path stroke="none" d="M323.4023 297.5 L335.4023 302.5 L332.4023 297.5 L335.4023 292.5 Z" transform="matrix(1,0,0,1,-54,-170)"/></g><g><g stroke-linecap="butt" stroke-miterlimit="1.45" font-family="sans-serif" shape-rendering="geometricPrecision" text-rendering="geometricPrecision"><text x="342.096" y="288.216" stroke="none" transform="matrix(1,0,0,1,-54,-170)" xml:space="preserve">schema:distribution</text></g></g></g><g id="y.edge.21"><g stroke-linecap="butt" stroke-miterlimit="1.45" shape-rendering="geometricPrecision" text-rendering="geometricPrecision"><path fill="none" d="M828.7328 232 L891.3683 232" transform="matrix(1,0,0,1,-54,-170)"/><path stroke="none" d="M899.3683 232 L887.3683 227 L890.3683 232 L887.3683 237 Z" transform="matrix(1,0,0,1,-54,-170)"/></g><g><g stroke-linecap="butt" stroke-miterlimit="1.45" font-family="sans-serif" shape-rendering="geometricPrecision" text-rendering="geometricPrecision"><text x="804.238" y="204.535" stroke="none" transform="matrix(1,0,0,1,-54,-170)" xml:space="preserve">schema:additionalType</text></g></g></g><g id="y.edge.16"><g stroke-linecap="butt" stroke-miterlimit="1.45" shape-rendering="geometricPrecision" text-rendering="geometricPrecision"><path fill="none" d="M455.9775 232 L312.2656 232" transform="matrix(1,0,0,1,-54,-170)"/><path stroke="none" d="M304.2656 232 L316.2656 237 L313.2656 232 L316.2656 227 Z" transform="matrix(1,0,0,1,-54,-170)"/></g><g><g stroke-linecap="butt" stroke-miterlimit="1.45" font-family="sans-serif" shape-rendering="geometricPrecision" text-rendering="geometricPrecision"><text x="311.266" y="206.535" stroke="none" transform="matrix(1,0,0,1,-54,-170)" xml:space="preserve">schema:additionalType</text></g></g></g><g id="y.edge.20"><g stroke-linecap="butt" stroke-miterlimit="1.45" shape-rendering="geometricPrecision" text-rendering="geometricPrecision"><path fill="none" d="M807.8676 335.1063 L920.0496 335.1063" transform="matrix(1,0,0,1,-54,-170)"/><path stroke="none" d="M928.0496 335.1063 L916.0496 330.1063 L919.0496 335.1063 L916.0496 340.1063 Z" transform="matrix(1,0,0,1,-54,-170)"/></g><g><g stroke-linecap="butt" stroke-miterlimit="1.45" font-family="sans-serif" shape-rendering="geometricPrecision" text-rendering="geometricPrecision"><text x="801.238" y="313.535" stroke="none" transform="matrix(1,0,0,1,-54,-170)" xml:space="preserve">schema:additionalType</text></g></g></g><g id="y.edge.22"><g stroke-linecap="butt" stroke-miterlimit="1.45" shape-rendering="geometricPrecision" text-rendering="geometricPrecision"><path fill="none" d="M759.1818 551.6566 L831.0921 551.6566" transform="matrix(1,0,0,1,-54,-170)"/><path stroke="none" d="M839.0921 551.6566 L827.0921 546.6566 L830.0921 551.6566 L827.0921 556.6566 Z" transform="matrix(1,0,0,1,-54,-170)"/></g><g><g stroke-linecap="butt" stroke-miterlimit="1.45" font-family="sans-serif" shape-rendering="geometricPrecision" text-rendering="geometricPrecision"><text x="764.904" y="524.535" stroke="none" transform="matrix(1,0,0,1,-54,-170)" xml:space="preserve">schema:additionalType</text></g></g></g><g id="y.edge.24"><g stroke-linecap="butt" stroke-miterlimit="1.45" shape-rendering="geometricPrecision" text-rendering="geometricPrecision"><path fill="none" d="M759.1818 551.6566 L810 551.6566 L810 697.1877 L831.0921 697.1877" transform="matrix(1,0,0,1,-54,-170)"/><path stroke="none" d="M839.0921 697.1877 L827.0921 692.1877 L830.0921 697.1877 L827.0921 702.1877 Z" transform="matrix(1,0,0,1,-54,-170)"/></g></g><g id="y.edge.25"><g stroke-linecap="butt" stroke-miterlimit="1.45" shape-rendering="geometricPrecision" text-rendering="geometricPrecision"><path fill="none" d="M759.1818 551.6566 L810 551.6566 L810 648.983 L831.0921 648.983" transform="matrix(1,0,0,1,-54,-170)"/><path stroke="none" d="M839.0921 648.983 L827.0921 643.983 L830.0921 648.983 L827.0921 653.983 Z" transform="matrix(1,0,0,1,-54,-170)"/></g></g><g id="y.edge.26"><g stroke-linecap="butt" stroke-miterlimit="1.45" shape-rendering="geometricPrecision" text-rendering="geometricPrecision"><path fill="none" d="M759.1818 551.6566 L810 551.6566 L810 599.8611 L831.0921 599.8611" transform="matrix(1,0,0,1,-54,-170)"/><path stroke="none" d="M839.0921 599.8611 L827.0921 594.8611 L830.0921 599.8611 L827.0921 604.8611 Z" transform="matrix(1,0,0,1,-54,-170)"/></g></g><g id="y.edge.23"><g stroke-linecap="butt" stroke-miterlimit="1.45" shape-rendering="geometricPrecision" text-rendering="geometricPrecision"><path fill="none" d="M759.1818 551.6566 L810 551.6566 L810 741.8923 L831.0921 741.8923" transform="matrix(1,0,0,1,-54,-170)"/><path stroke="none" d="M839.0921 741.8923 L827.0921 736.8923 L830.0921 741.8923 L827.0921 746.8923 Z" transform="matrix(1,0,0,1,-54,-170)"/></g></g><g id="y.edge.19"><g stroke-linecap="butt" stroke-miterlimit="1.45" shape-rendering="geometricPrecision" text-rendering="geometricPrecision"><path fill="none" d="M807.8698 421.4605 L901.9369 421.4605" transform="matrix(1,0,0,1,-54,-170)"/><path stroke="none" d="M909.9369 421.4605 L897.9369 416.4605 L900.9369 421.4605 L897.9369 426.4605 Z" transform="matrix(1,0,0,1,-54,-170)"/></g><g><g stroke-linecap="butt" stroke-miterlimit="1.45" font-family="sans-serif" shape-rendering="geometricPrecision" text-rendering="geometricPrecision"><text x="795.212" y="400.663" stroke="none" transform="matrix(1,0,0,1,-54,-170)" xml:space="preserve">schema:additionalType</text></g></g></g><g id="y.edge.11"><g stroke-linecap="butt" stroke-miterlimit="1.45" shape-rendering="geometricPrecision" text-rendering="geometricPrecision"><path fill="none" d="M686.8857 632.3825 L754.5186 632.3825 L754.5186 718.8935" transform="matrix(1,0,0,1,-54,-170)"/><path stroke="none" d="M754.5186 726.8935 L759.5186 714.8935 L754.5186 717.8935 L749.5186 714.8935 Z" transform="matrix(1,0,0,1,-54,-170)"/></g><g><g stroke-linecap="butt" stroke-miterlimit="1.45" font-family="sans-serif" shape-rendering="geometricPrecision" text-rendering="geometricPrecision"><text x="634.629" y="712.535" stroke="none" transform="matrix(1,0,0,1,-54,-170)" xml:space="preserve">schema:recordedIn</text></g></g></g><g id="y.edge.12"><g stroke-linecap="butt" stroke-miterlimit="1.45" shape-rendering="geometricPrecision" text-rendering="geometricPrecision"><path fill="none" d="M651.0371 741.8923 L527.7698 741.8923" transform="matrix(1,0,0,1,-54,-170)"/><path stroke="none" d="M519.7698 741.8923 L531.7698 746.8923 L528.7698 741.8923 L531.7698 736.8923 Z" transform="matrix(1,0,0,1,-54,-170)"/></g><g><g stroke-linecap="butt" stroke-miterlimit="1.45" font-family="sans-serif" shape-rendering="geometricPrecision" text-rendering="geometricPrecision"><text x="535.773" y="766.96" stroke="none" transform="matrix(1,0,0,1,-54,-170)" xml:space="preserve">schema:isBasedOn</text></g></g></g><g id="y.edge.18"><g stroke-linecap="butt" stroke-miterlimit="1.45" shape-rendering="geometricPrecision" text-rendering="geometricPrecision"><path fill="none" d="M416.0096 741.8923 L321.4704 741.8923" transform="matrix(1,0,0,1,-54,-170)"/><path stroke="none" d="M313.4704 741.8923 L325.4704 746.8923 L322.4704 741.8923 L325.4704 736.8923 Z" transform="matrix(1,0,0,1,-54,-170)"/></g><g><g stroke-linecap="butt" stroke-miterlimit="1.45" font-family="sans-serif" shape-rendering="geometricPrecision" text-rendering="geometricPrecision"><text x="297.644" y="776.427" stroke="none" transform="matrix(1,0,0,1,-54,-170)" xml:space="preserve">schema:additionalType</text></g></g></g><g id="y.edge.17"><g stroke-linecap="butt" stroke-miterlimit="1.45" shape-rendering="geometricPrecision" text-rendering="geometricPrecision"><path fill="none" d="M679.4366 647.3672 L679.4366 677.1182 L527.7532 677.1182" transform="matrix(1,0,0,1,-54,-170)"/><path stroke="none" d="M519.7532 677.1182 L531.7532 682.1182 L528.7532 677.1182 L531.7532 672.1182 Z" transform="matrix(1,0,0,1,-54,-170)"/></g><g><g stroke-linecap="butt" stroke-miterlimit="1.45" font-family="sans-serif" shape-rendering="geometricPrecision" text-rendering="geometricPrecision"><text x="537.122" y="666.535" stroke="none" transform="matrix(1,0,0,1,-54,-170)" xml:space="preserve">schema:additionalType</text></g></g></g><g id="y.edge.27"><g stroke-linecap="butt" stroke-miterlimit="1.45" shape-rendering="geometricPrecision" text-rendering="geometricPrecision"><path fill="none" d="M476 247.0181 L476 364.8603 L308.5135 364.8603 L308.5135 382.3603 L284.6083 382.3603" transform="matrix(1,0,0,1,-54,-170)"/><path stroke="none" d="M276.6083 382.3603 L288.6083 387.3603 L285.6083 382.3603 L288.6083 377.3603 Z" transform="matrix(1,0,0,1,-54,-170)"/></g><g><g stroke-linecap="butt" stroke-miterlimit="1.45" font-family="sans-serif" shape-rendering="geometricPrecision" text-rendering="geometricPrecision"><text x="315.994" y="355.897" stroke="none" transform="matrix(1,0,0,1,-54,-170)" xml:space="preserve">schema:temporalCoverage</text></g></g></g><g id="y.edge.13"><g stroke-linecap="butt" stroke-miterlimit="1.45" shape-rendering="geometricPrecision" text-rendering="geometricPrecision"><path fill="none" d="M476 247.0181 L476 364.8603 L308.5135 364.8603 L308.5135 347.3603 L284.6083 347.3603" transform="matrix(1,0,0,1,-54,-170)"/><path stroke="none" d="M276.6083 347.3603 L288.6083 352.3603 L285.6083 347.3603 L288.6083 342.3603 Z" transform="matrix(1,0,0,1,-54,-170)"/></g></g><g id="y.edge.15"><g stroke-linecap="butt" stroke-miterlimit="1.45" shape-rendering="geometricPrecision" text-rendering="geometricPrecision"><path fill="none" d="M498.9864 247.0129 L498.9864 565.2954 L398.1288 565.2954" transform="matrix(1,0,0,1,-54,-170)"/><path stroke="none" d="M390.1288 565.2954 L402.1288 570.2954 L399.1288 565.2954 L402.1288 560.2954 Z" transform="matrix(1,0,0,1,-54,-170)"/></g><g><g stroke-linecap="butt" stroke-miterlimit="1.45" font-family="sans-serif" shape-rendering="geometricPrecision" text-rendering="geometricPrecision"><text x="340.371" y="539.831" stroke="none" transform="matrix(1,0,0,1,-54,-170)" xml:space="preserve">schema:variableMeasured</text></g></g></g><g id="y.edge.14"><g stroke-linecap="butt" stroke-miterlimit="1.45" shape-rendering="geometricPrecision" text-rendering="geometricPrecision"><path fill="none" d="M318.6698 580.2954 L318.6698 609.3844" transform="matrix(1,0,0,1,-54,-170)"/><path stroke="none" d="M318.6698 617.3844 L323.6698 605.3844 L318.6698 608.3844 L313.6698 605.3844 Z" transform="matrix(1,0,0,1,-54,-170)"/></g><g><g stroke-linecap="butt" stroke-miterlimit="1.45" font-family="sans-serif" shape-rendering="geometricPrecision" text-rendering="geometricPrecision"><text x="175.965" y="603.639" stroke="none" transform="matrix(1,0,0,1,-54,-170)" xml:space="preserve">schema:additionalType</text></g></g></g></g></svg>