<svg xmlns="http://www.w3.org/2000/svg" xmlns:xlink="http://www.w3.org/1999/xlink" width="1494" height="427" fill="#000" fill-opacity="1" stroke="#000" stroke-dasharray="none" stroke-dashoffset="0" stroke-linecap="square" stroke-linejoin="miter" stroke-miterlimit="10" stroke-opacity="1" stroke-width="1" color-interpolation="auto" color-rendering="auto" font-family="'Dialog'" font-size="12" font-style="normal" font-weight="normal" image-rendering="auto" shape-rendering="auto" text-rendering="auto"><g><defs id="defs1"><clipPath id="clipPath1" clipPathUnits="userSpaceOnUse"><path d="M0 0 L1494 0 L1494 427 L0 427 L0 0 Z"/></clipPath></defs><g id="y.node.0"><a target="_blank" xlink:href="https://schema.org/Dataset" xlink:show="new" xlink:type="simple"><g fill="#CFC" stroke="#CFC" shape-rendering="geometricPrecision" text-rendering="geometricPrecision" transform="matrix(1,0,0,1,506,-202)"><rect width="106.045" height="30" x="455.978" y="217" stroke="none"/></g><g stroke-linecap="butt" stroke-miterlimit="1.45" shape-rendering="geometricPrecision" text-rendering="geometricPrecision" transform="matrix(1,0,0,1,506,-202)"><rect width="106.045" height="30" x="455.978" y="217" fill="none"/></g><g><g stroke-linecap="butt" stroke-miterlimit="1.45" font-family="sans-serif" shape-rendering="geometricPrecision" text-rendering="geometricPrecision"><text x="462.978" y="236.535" stroke="none" transform="matrix(1,0,0,1,506,-202)" xml:space="preserve">schema:Dataset</text></g></g></a></g><g id="y.node.1"><a target="_blank" xlink:href="https://schema.org/Place" xlink:show="new" xlink:type="simple"><g fill="#CFC" stroke="#CFC" shape-rendering="geometricPrecision" text-rendering="geometricPrecision" transform="matrix(1,0,0,1,506,-202)"><rect width="91.584" height="30" x="204.197" y="303" stroke="none"/></g><g stroke-linecap="butt" stroke-miterlimit="1.45" shape-rendering="geometricPrecision" text-rendering="geometricPrecision" transform="matrix(1,0,0,1,506,-202)"><rect width="91.584" height="30" x="204.197" y="303" fill="none"/></g><g><g stroke-linecap="butt" stroke-miterlimit="1.45" font-family="sans-serif" shape-rendering="geometricPrecision" text-rendering="geometricPrecision"><text x="211.197" y="322.535" stroke="none" transform="matrix(1,0,0,1,506,-202)" xml:space="preserve">schema:Place</text></g></g></a></g><g id="y.node.2"><a target="_blank" xlink:href="https://schema.org/GeoShape" xlink:show="new" xlink:type="simple"><g fill="#CFC" stroke="#CFC" shape-rendering="geometricPrecision" text-rendering="geometricPrecision" transform="matrix(1,0,0,1,506,-202)"><rect width="119.527" height="30" x="-35.688" y="264" stroke="none"/></g><g stroke-linecap="butt" stroke-miterlimit="1.45" shape-rendering="geometricPrecision" text-rendering="geometricPrecision" transform="matrix(1,0,0,1,506,-202)"><rect width="119.527" height="30" x="-35.688" y="264" fill="none"/></g><g><g stroke-linecap="butt" stroke-miterlimit="1.45" font-family="sans-serif" shape-rendering="geometricPrecision" text-rendering="geometricPrecision"><text x="-28.689" y="283.535" stroke="none" transform="matrix(1,0,0,1,506,-202)" xml:space="preserve">schema:GeoShape</text></g></g></a></g><g id="y.node.3"><a target="_blank" xlink:href="https://schema.org/GeoCoordinates" xlink:show="new" xlink:type="simple"><g fill="#CFC" stroke="#CFC" shape-rendering="geometricPrecision" text-rendering="geometricPrecision" transform="matrix(1,0,0,1,506,-202)"><rect width="155.094" height="30" x="-71.255" y="333" stroke="none"/></g><g stroke-linecap="butt" stroke-miterlimit="1.45" shape-rendering="geometricPrecision" text-rendering="geometricPrecision" transform="matrix(1,0,0,1,506,-202)"><rect width="155.094" height="30" x="-71.255" y="333" fill="none"/></g><g><g stroke-linecap="butt" stroke-miterlimit="1.45" font-family="sans-serif" shape-rendering="geometricPrecision" text-rendering="geometricPrecision"><text x="-64.255" y="352.535" stroke="none" transform="matrix(1,0,0,1,506,-202)" xml:space="preserve">schema:GeoCoordinates</text></g></g></a></g><g id="y.node.4"><a target="_blank" xlink:href="https://schema.org/PropertyValue" xlink:show="new" xlink:type="simple"><g fill="#CFC" stroke="#CFC" shape-rendering="geometricPrecision" text-rendering="geometricPrecision" transform="matrix(1,0,0,1,506,-202)"><rect width="142.918" height="30" x="357.809" y="380.303" stroke="none"/></g><g stroke-linecap="butt" stroke-miterlimit="1.45" shape-rendering="geometricPrecision" text-rendering="geometricPrecision" transform="matrix(1,0,0,1,506,-202)"><rect width="142.918" height="30" x="357.809" y="380.303" fill="none"/></g><g><g stroke-linecap="butt" stroke-miterlimit="1.45" font-family="sans-serif" shape-rendering="geometricPrecision" text-rendering="geometricPrecision"><text x="364.809" y="399.838" stroke="none" transform="matrix(1,0,0,1,506,-202)" xml:space="preserve">schema:PropertyValue</text></g></g></a></g><g id="y.node.5"><g fill="#0CF" stroke="#0CF" shape-rendering="geometricPrecision" text-rendering="geometricPrecision" transform="matrix(1,0,0,1,506,-202)"><ellipse cx="751.949" cy="401.629" stroke="none" rx="108.644" ry="21.326"/></g><g stroke-linecap="butt" stroke-miterlimit="1.45" shape-rendering="geometricPrecision" text-rendering="geometricPrecision" transform="matrix(1,0,0,1,506,-202)"><ellipse cx="751.949" cy="401.629" fill="none" rx="108.644" ry="21.326"/></g><g><g stroke-linecap="butt" stroke-miterlimit="1.45" font-family="sans-serif" shape-rendering="geometricPrecision" text-rendering="geometricPrecision"><text x="662.322" y="406.164" stroke="none" transform="matrix(1,0,0,1,506,-202)" xml:space="preserve">&quot;Coordinate Reference System&quot;</text></g></g></g><g id="y.node.6"><a target="_blank" xlink:href="http://www.opengis.net/def/crs/OGC/1.3/CRS84" xlink:show="new" xlink:type="simple"><g fill="#0CF" stroke="#0CF" shape-rendering="geometricPrecision" text-rendering="geometricPrecision" transform="matrix(1,0,0,1,506,-202)"><ellipse cx="807.826" cy="459.248" stroke="none" rx="164.52" ry="20.5"/></g><g stroke-linecap="butt" stroke-miterlimit="1.45" shape-rendering="geometricPrecision" text-rendering="geometricPrecision" transform="matrix(1,0,0,1,506,-202)"><ellipse cx="807.826" cy="459.248" fill="none" rx="164.52" ry="20.5"/></g><g><g stroke-linecap="butt" stroke-miterlimit="1.45" font-family="sans-serif" shape-rendering="geometricPrecision" text-rendering="geometricPrecision"><text x="658.081" y="463.783" stroke="none" transform="matrix(1,0,0,1,506,-202)" xml:space="preserve">&quot;http://www.opengis.net/def/crs/OGC/1.3/CRS84&quot;</text></g></g></a></g><g id="y.node.7"><a target="_blank" xlink:href="https://schema.org/CreativeWork" xlink:show="new" xlink:type="simple"><g fill="#CFC" stroke="#CFC" shape-rendering="geometricPrecision" text-rendering="geometricPrecision" transform="matrix(1,0,0,1,506,-202)"><rect width="138.963" height="30" x="-55.124" y="418.328" stroke="none"/></g><g stroke-linecap="butt" stroke-miterlimit="1.45" shape-rendering="geometricPrecision" text-rendering="geometricPrecision" transform="matrix(1,0,0,1,506,-202)"><rect width="138.963" height="30" x="-55.124" y="418.328" fill="none"/></g><g><g stroke-linecap="butt" stroke-miterlimit="1.45" font-family="sans-serif" shape-rendering="geometricPrecision" text-rendering="geometricPrecision"><text x="-48.124" y="437.863" stroke="none" transform="matrix(1,0,0,1,506,-202)" xml:space="preserve">schema:CreativeWork</text></g></g></a></g><g id="y.node.8"><g fill="#0CF" stroke="#0CF" shape-rendering="geometricPrecision" text-rendering="geometricPrecision" transform="matrix(1,0,0,1,506,-202)"><ellipse cx="282.787" cy="517.402" stroke="none" rx="87.074" ry="21.326"/></g><g stroke-linecap="butt" stroke-miterlimit="1.45" shape-rendering="geometricPrecision" text-rendering="geometricPrecision" transform="matrix(1,0,0,1,506,-202)"><ellipse cx="282.787" cy="517.402" fill="none" rx="87.074" ry="21.326"/></g><g><g stroke-linecap="butt" stroke-miterlimit="1.45" font-family="sans-serif" shape-rendering="geometricPrecision" text-rendering="geometricPrecision"><text x="202.713" y="521.937" stroke="none" transform="matrix(1,0,0,1,506,-202)" xml:space="preserve">&quot;application/vnd.geo+json&quot;</text></g></g></g><g id="y.node.9"><a target="_blank" xlink:href="http://dbpedia.org/resource/Coordinate_reference_system" xlink:show="new" xlink:type="simple"><g fill="#FC0" stroke="#FC0" shape-rendering="geometricPrecision" text-rendering="geometricPrecision" transform="matrix(1,0,0,1,506,-202)"><rect width="236.463" height="41" x="643.306" y="309.303" stroke="none"/></g><g stroke-linecap="butt" stroke-miterlimit="1.45" shape-rendering="geometricPrecision" text-rendering="geometricPrecision" transform="matrix(1,0,0,1,506,-202)"><rect width="236.463" height="41" x="643.306" y="309.303" fill="none"/></g><g><g stroke-linecap="butt" stroke-miterlimit="1.45" font-family="sans-serif" shape-rendering="geometricPrecision" text-rendering="geometricPrecision"><text x="650.306" y="334.338" stroke="none" transform="matrix(1,0,0,1,506,-202)" xml:space="preserve">dbpedia:Coordinate_reference_system</text></g></g></a></g><g id="y.node.10"><g fill="#0CF" stroke="#0CF" shape-rendering="geometricPrecision" text-rendering="geometricPrecision" transform="matrix(1,0,0,1,506,-202)"><ellipse cx="290.527" cy="585.592" stroke="none" rx="96.206" ry="27.687"/></g><g stroke-linecap="butt" stroke-miterlimit="1.45" shape-rendering="geometricPrecision" text-rendering="geometricPrecision" transform="matrix(1,0,0,1,506,-202)"><ellipse cx="290.527" cy="585.592" fill="none" rx="96.206" ry="27.687"/></g><g><g stroke-linecap="butt" stroke-miterlimit="1.45" font-family="sans-serif" shape-rendering="geometricPrecision" text-rendering="geometricPrecision"><text x="201.321" y="590.127" stroke="none" transform="matrix(1,0,0,1,506,-202)" xml:space="preserve">...a GeoJSON-encoded string...</text></g></g></g><g id="y.node.11"><g fill="#0CF" stroke="#0CF" shape-rendering="geometricPrecision" text-rendering="geometricPrecision" transform="matrix(1,0,0,1,506,-202)"><ellipse cx="-346.258" cy="279" stroke="none" rx="144.551" ry="27.687"/></g><g stroke-linecap="butt" stroke-miterlimit="1.45" shape-rendering="geometricPrecision" text-rendering="geometricPrecision" transform="matrix(1,0,0,1,506,-202)"><ellipse cx="-346.258" cy="279" fill="none" rx="144.551" ry="27.687"/></g><g><g stroke-linecap="butt" stroke-miterlimit="1.45" font-family="sans-serif" shape-rendering="geometricPrecision" text-rendering="geometricPrecision"><text x="-359.319" y="276.469" stroke="none" transform="matrix(1,0,0,1,506,-202)" xml:space="preserve">Text</text><text x="-473.491" y="290.602" stroke="none" transform="matrix(1,0,0,1,506,-202)" xml:space="preserve">(see http://pending.schema.org/GeoShape)</text></g></g></g><g id="y.edge.0"><g stroke-linecap="butt" stroke-miterlimit="1.45" shape-rendering="geometricPrecision" text-rendering="geometricPrecision"><path fill="none" d="M465.4946 246.9741 L465.4946 323 L303.7894 323" transform="matrix(1,0,0,1,506,-202)"/><path stroke="none" d="M295.7894 323 L307.7894 328 L304.7894 323 L307.7894 318 Z" transform="matrix(1,0,0,1,506,-202)"/></g><g><g stroke-linecap="butt" stroke-miterlimit="1.45" font-family="sans-serif" shape-rendering="geometricPrecision" text-rendering="geometricPrecision"><text x="317.781" y="297.535" stroke="none" transform="matrix(1,0,0,1,506,-202)" xml:space="preserve">schema:spatialCoverage</text></g></g></g><g id="y.edge.1"><g stroke-linecap="butt" stroke-miterlimit="1.45" shape-rendering="geometricPrecision" text-rendering="geometricPrecision"><path fill="none" d="M204.1973 318 L103.8389 318 L103.8389 279 L91.8389 279" transform="matrix(1,0,0,1,506,-202)"/><path stroke="none" d="M83.8389 279 L95.8389 284 L92.8389 279 L95.8389 274 Z" transform="matrix(1,0,0,1,506,-202)"/></g><g><g stroke-linecap="butt" stroke-miterlimit="1.45" font-family="sans-serif" shape-rendering="geometricPrecision" text-rendering="geometricPrecision"><text x="119.237" y="292.535" stroke="none" transform="matrix(1,0,0,1,506,-202)" xml:space="preserve">schema:geo</text></g></g></g><g id="y.edge.2"><g stroke-linecap="butt" stroke-miterlimit="1.45" shape-rendering="geometricPrecision" text-rendering="geometricPrecision"><path fill="none" d="M204.1973 318 L103.8389 318 L103.8389 348 L91.8389 348" transform="matrix(1,0,0,1,506,-202)"/><path stroke="none" d="M83.8389 348 L95.8389 353 L92.8389 348 L95.8389 343 Z" transform="matrix(1,0,0,1,506,-202)"/></g></g><g id="y.edge.3"><g stroke-linecap="butt" stroke-miterlimit="1.45" shape-rendering="geometricPrecision" text-rendering="geometricPrecision"><path fill="none" d="M249.9893 333 L249.9893 395.3029 L349.8091 395.3029" transform="matrix(1,0,0,1,506,-202)"/><path stroke="none" d="M357.8091 395.3029 L345.8091 390.3029 L348.8091 395.3029 L345.8091 400.3029 Z" transform="matrix(1,0,0,1,506,-202)"/></g><g><g stroke-linecap="butt" stroke-miterlimit="1.45" font-family="sans-serif" shape-rendering="geometricPrecision" text-rendering="geometricPrecision"><text x="280.351" y="369.838" stroke="none" transform="matrix(1,0,0,1,506,-202)" xml:space="preserve">schema:additionalProperty</text></g></g></g><g id="y.edge.4"><g stroke-linecap="butt" stroke-miterlimit="1.45" shape-rendering="geometricPrecision" text-rendering="geometricPrecision"><path fill="none" d="M500.7271 395.3029 L590.6088 395.3029 L590.6088 395.3029 L640.1573 395.3029" transform="matrix(1,0,0,1,506,-202)"/><path stroke="none" d="M648.1573 395.3029 L636.1573 390.3029 L639.1573 395.3029 L636.1573 400.3029 Z" transform="matrix(1,0,0,1,506,-202)"/></g><g><g stroke-linecap="butt" stroke-miterlimit="1.45" font-family="sans-serif" shape-rendering="geometricPrecision" text-rendering="geometricPrecision"><text x="550.772" y="412.469" stroke="none" transform="matrix(1,0,0,1,506,-202)" xml:space="preserve">schema:name</text></g></g></g><g id="y.edge.5"><g stroke-linecap="butt" stroke-miterlimit="1.45" shape-rendering="geometricPrecision" text-rendering="geometricPrecision"><path fill="none" d="M484.8505 410.3212 L484.8505 459.2476 L635.306 459.2476" transform="matrix(1,0,0,1,506,-202)"/><path stroke="none" d="M643.306 459.2476 L631.306 454.2476 L634.306 459.2476 L631.306 464.2476 Z" transform="matrix(1,0,0,1,506,-202)"/></g><g><g stroke-linecap="butt" stroke-miterlimit="1.45" font-family="sans-serif" shape-rendering="geometricPrecision" text-rendering="geometricPrecision"><text x="550.12" y="452.05" stroke="none" transform="matrix(1,0,0,1,506,-202)" xml:space="preserve">schema:value</text></g></g></g><g id="y.edge.6"><g stroke-linecap="butt" stroke-miterlimit="1.45" shape-rendering="geometricPrecision" text-rendering="geometricPrecision"><path fill="none" d="M229.9893 333.0073 L229.9893 433.3282 L91.8389 433.3282" transform="matrix(1,0,0,1,506,-202)"/><path stroke="none" d="M83.8389 433.3282 L95.8389 438.3282 L92.8389 433.3282 L95.8389 428.3282 Z" transform="matrix(1,0,0,1,506,-202)"/></g><g><g stroke-linecap="butt" stroke-miterlimit="1.45" font-family="sans-serif" shape-rendering="geometricPrecision" text-rendering="geometricPrecision"><text x="104.991" y="407.863" stroke="none" transform="matrix(1,0,0,1,506,-202)" xml:space="preserve">schema:subjectOf</text></g></g></g><g id="y.edge.7"><g stroke-linecap="butt" stroke-miterlimit="1.45" shape-rendering="geometricPrecision" text-rendering="geometricPrecision"><path fill="none" d="M69.4875 448.3119 L69.4875 517.4014 L187.6915 517.4014" transform="matrix(1,0,0,1,506,-202)"/><path stroke="none" d="M195.6915 517.4014 L183.6915 512.4014 L186.6915 517.4014 L183.6915 522.4014 Z" transform="matrix(1,0,0,1,506,-202)"/></g><g><g stroke-linecap="butt" stroke-miterlimit="1.45" font-family="sans-serif" shape-rendering="geometricPrecision" text-rendering="geometricPrecision"><text x="81.621" y="491.937" stroke="none" transform="matrix(1,0,0,1,506,-202)" xml:space="preserve">schema:fileFormat</text></g></g></g><g id="y.edge.8"><g stroke-linecap="butt" stroke-miterlimit="1.45" shape-rendering="geometricPrecision" text-rendering="geometricPrecision"><path fill="none" d="M485.4946 380.3032 L485.4946 329.8029 L635.306 329.8029" transform="matrix(1,0,0,1,506,-202)"/><path stroke="none" d="M643.306 329.8029 L631.306 324.8029 L634.306 329.8029 L631.306 334.8029 Z" transform="matrix(1,0,0,1,506,-202)"/></g><g><g stroke-linecap="butt" stroke-miterlimit="1.45" font-family="sans-serif" shape-rendering="geometricPrecision" text-rendering="geometricPrecision"><text x="495.397" y="346.03" stroke="none" transform="matrix(1,0,0,1,506,-202)" xml:space="preserve">schema:additionalType</text></g></g></g><g id="y.edge.9"><g stroke-linecap="butt" stroke-miterlimit="1.45" shape-rendering="geometricPrecision" text-rendering="geometricPrecision"><path fill="none" d="M60.668 448.3092 L60.668 585.5917 L186.3214 585.5917" transform="matrix(1,0,0,1,506,-202)"/><path stroke="none" d="M194.3214 585.5917 L182.3214 580.5917 L185.3214 585.5917 L182.3214 590.5917 Z" transform="matrix(1,0,0,1,506,-202)"/></g><g><g stroke-linecap="butt" stroke-miterlimit="1.45" font-family="sans-serif" shape-rendering="geometricPrecision" text-rendering="geometricPrecision"><text x="96.285" y="560.127" stroke="none" transform="matrix(1,0,0,1,506,-202)" xml:space="preserve">schema:text</text></g></g></g><g id="y.edge.10"><g stroke-linecap="butt" stroke-miterlimit="1.45" shape-rendering="geometricPrecision" text-rendering="geometricPrecision"><path fill="none" d="M-35.6885 279 L-193.7021 279" transform="matrix(1,0,0,1,506,-202)"/><path stroke="none" d="M-201.7021 279 L-189.7021 284 L-192.7021 279 L-189.7021 274 Z" transform="matrix(1,0,0,1,506,-202)"/></g><g><g stroke-linecap="butt" stroke-miterlimit="1.45" font-family="sans-serif" shape-rendering="geometricPrecision" text-rendering="geometricPrecision"><text x="-207.204" y="239.402" stroke="none" transform="matrix(1,0,0,1,506,-202)" xml:space="preserve">schema:box, schema:polygon,</text><text x="-198.529" y="253.535" stroke="none" transform="matrix(1,0,0,1,506,-202)" xml:space="preserve">schema:line, schema:circle,</text><text x="-169.1" y="267.668" stroke="none" transform="matrix(1,0,0,1,506,-202)" xml:space="preserve">schema:elevation</text></g></g></g><g id="y.edge.11"><g stroke-linecap="butt" stroke-miterlimit="1.45" shape-rendering="geometricPrecision" text-rendering="geometricPrecision"><path fill="none" d="M-71.2549 348 L-346.258 348 L-346.258 314.6869" transform="matrix(1,0,0,1,506,-202)"/><path stroke="none" d="M-346.258 306.6869 L-351.258 318.6869 L-346.258 315.6869 L-341.258 318.6869 Z" transform="matrix(1,0,0,1,506,-202)"/></g><g><g stroke-linecap="butt" stroke-miterlimit="1.45" font-family="sans-serif" shape-rendering="geometricPrecision" text-rendering="geometricPrecision"><text x="-296.571" y="323.414" stroke="none" transform="matrix(1,0,0,1,506,-202)" xml:space="preserve">schema:latitude, schema:longtidude,</text><text x="-239.495" y="337.547" stroke="none" transform="matrix(1,0,0,1,506,-202)" xml:space="preserve">schema:elevation</text></g></g></g></g></svg>