<svg xmlns="http://www.w3.org/2000/svg" xmlns:xlink="http://www.w3.org/1999/xlink" width="981" height="469" fill="#000" fill-opacity="1" stroke="#000" stroke-dasharray="none" stroke-dashoffset="0" stroke-linecap="square" stroke-linejoin="miter" stroke-miterlimit="10" stroke-opacity="1" stroke-width="1" color-interpolation="auto" color-rendering="auto" font-family="'Dialog'" font-size="12" font-style="normal" font-weight="normal" image-rendering="auto" shape-rendering="auto" text-rendering="auto"><g><defs id="defs1"><clipPath id="clipPath1" clipPathUnits="userSpaceOnUse"><path d="M0 0 L981 0 L981 469 L0 469 L0 0 Z"/></clipPath></defs><g id="y.node.0"><a target="_blank" xlink:href="https://schema.org/Dataset" xlink:show="new" xlink:type="simple"><g fill="#CFC" stroke="#CFC" shape-rendering="geometricPrecision" text-rendering="geometricPrecision" transform="matrix(1,0,0,1,-161,-515)"><rect width="106.045" height="30" x="396.239" y="530.409" stroke="none"/></g><g stroke-linecap="butt" stroke-miterlimit="1.45" shape-rendering="geometricPrecision" text-rendering="geometricPrecision" transform="matrix(1,0,0,1,-161,-515)"><rect width="106.045" height="30" x="396.239" y="530.409" fill="none"/></g><g><g stroke-linecap="butt" stroke-miterlimit="1.45" font-family="sans-serif" shape-rendering="geometricPrecision" text-rendering="geometricPrecision"><text x="403.239" y="549.944" stroke="none" transform="matrix(1,0,0,1,-161,-515)" xml:space="preserve">schema:Dataset</text></g></g></a></g><g id="y.node.1"><a target="_blank" xlink:href="https://schema.org/Event" xlink:show="new" xlink:type="simple"><g fill="#CFC" stroke="#CFC" shape-rendering="geometricPrecision" text-rendering="geometricPrecision" transform="matrix(1,0,0,1,-161,-515)"><rect width="93.359" height="30" x="402.582" y="708.705" stroke="none"/></g><g stroke-linecap="butt" stroke-miterlimit="1.45" shape-rendering="geometricPrecision" text-rendering="geometricPrecision" transform="matrix(1,0,0,1,-161,-515)"><rect width="93.359" height="30" x="402.582" y="708.705" fill="none"/></g><g><g stroke-linecap="butt" stroke-miterlimit="1.45" font-family="sans-serif" shape-rendering="geometricPrecision" text-rendering="geometricPrecision"><text x="409.582" y="728.24" stroke="none" transform="matrix(1,0,0,1,-161,-515)" xml:space="preserve">schema:Event</text></g></g></a></g><g id="y.node.2"><a target="_blank" xlink:href="https://schema.org/CreativeWork" xlink:show="new" xlink:type="simple"><g fill="#CFC" stroke="#CFC" shape-rendering="geometricPrecision" text-rendering="geometricPrecision" transform="matrix(1,0,0,1,-161,-515)"><rect width="138.963" height="30" x="458.262" y="827" stroke="none"/></g><g stroke-linecap="butt" stroke-miterlimit="1.45" shape-rendering="geometricPrecision" text-rendering="geometricPrecision" transform="matrix(1,0,0,1,-161,-515)"><rect width="138.963" height="30" x="458.262" y="827" fill="none"/></g><g><g stroke-linecap="butt" stroke-miterlimit="1.45" font-family="sans-serif" shape-rendering="geometricPrecision" text-rendering="geometricPrecision"><text x="465.262" y="846.535" stroke="none" transform="matrix(1,0,0,1,-161,-515)" xml:space="preserve">schema:CreativeWork</text></g></g></a></g><g id="y.node.3"><a target="_blank" xlink:href="http://schema.geolink.org/1.0/base/main#Platform" xlink:show="new" xlink:type="simple"><g fill="#FC0" stroke="#FC0" shape-rendering="geometricPrecision" text-rendering="geometricPrecision" transform="matrix(1,0,0,1,-161,-515)"><rect width="109.848" height="30" x="1017.124" y="827" stroke="none"/></g><g stroke-linecap="butt" stroke-miterlimit="1.45" shape-rendering="geometricPrecision" text-rendering="geometricPrecision" transform="matrix(1,0,0,1,-161,-515)"><rect width="109.848" height="30" x="1017.124" y="827" fill="none"/></g><g><g stroke-linecap="butt" stroke-miterlimit="1.45" font-family="sans-serif" shape-rendering="geometricPrecision" text-rendering="geometricPrecision"><text x="1024.123" y="846.535" stroke="none" transform="matrix(1,0,0,1,-161,-515)" xml:space="preserve">geolink:Platform</text></g></g></a></g><g id="y.node.4"><a target="_blank" xlink:href="https://schema.org/Vehicle" xlink:show="new" xlink:type="simple"><g fill="#CFC" stroke="#CFC" shape-rendering="geometricPrecision" text-rendering="geometricPrecision" transform="matrix(1,0,0,1,-161,-515)"><rect width="103.772" height="30" x="763.417" y="827" stroke="none"/></g><g stroke-linecap="butt" stroke-miterlimit="1.45" shape-rendering="geometricPrecision" text-rendering="geometricPrecision" transform="matrix(1,0,0,1,-161,-515)"><rect width="103.772" height="30" x="763.417" y="827" fill="none"/></g><g><g stroke-linecap="butt" stroke-miterlimit="1.45" font-family="sans-serif" shape-rendering="geometricPrecision" text-rendering="geometricPrecision"><text x="770.417" y="846.535" stroke="none" transform="matrix(1,0,0,1,-161,-515)" xml:space="preserve">schema:Vehicle</text></g></g></a></g><g id="y.node.5"><a target="_blank" xlink:href="http://schema.geolink.org/1.0/base/main#Cruise" xlink:show="new" xlink:type="simple"><g fill="#FC0" stroke="#FC0" shape-rendering="geometricPrecision" text-rendering="geometricPrecision" transform="matrix(1,0,0,1,-161,-515)"><rect width="97.666" height="30" x="659.629" y="708.705" stroke="none"/></g><g stroke-linecap="butt" stroke-miterlimit="1.45" shape-rendering="geometricPrecision" text-rendering="geometricPrecision" transform="matrix(1,0,0,1,-161,-515)"><rect width="97.666" height="30" x="659.629" y="708.705" fill="none"/></g><g><g stroke-linecap="butt" stroke-miterlimit="1.45" font-family="sans-serif" shape-rendering="geometricPrecision" text-rendering="geometricPrecision"><text x="666.629" y="728.24" stroke="none" transform="matrix(1,0,0,1,-161,-515)" xml:space="preserve">geolink:Cruise</text></g></g></a></g><g id="y.node.6"><g fill="#0CF" stroke="#0CF" shape-rendering="geometricPrecision" text-rendering="geometricPrecision" transform="matrix(1,0,0,1,-161,-515)"><ellipse cx="227.971" cy="657.5" stroke="none" rx="20.061" ry="15"/></g><g stroke-linecap="butt" stroke-miterlimit="1.45" shape-rendering="geometricPrecision" text-rendering="geometricPrecision" transform="matrix(1,0,0,1,-161,-515)"><ellipse cx="227.971" cy="657.5" fill="none" rx="20.061" ry="15"/></g><g><g stroke-linecap="butt" stroke-miterlimit="1.45" font-family="sans-serif" shape-rendering="geometricPrecision" text-rendering="geometricPrecision"><text x="214.91" y="662.035" stroke="none" transform="matrix(1,0,0,1,-161,-515)" xml:space="preserve">Text</text></g></g></g><g id="y.node.7"><g fill="#0CF" stroke="#0CF" shape-rendering="geometricPrecision" text-rendering="geometricPrecision" transform="matrix(1,0,0,1,-161,-515)"><ellipse cx="227.971" cy="700" stroke="none" rx="18.15" ry="15"/></g><g stroke-linecap="butt" stroke-miterlimit="1.45" shape-rendering="geometricPrecision" text-rendering="geometricPrecision" transform="matrix(1,0,0,1,-161,-515)"><ellipse cx="227.971" cy="700" fill="none" rx="18.15" ry="15"/></g><g><g stroke-linecap="butt" stroke-miterlimit="1.45" font-family="sans-serif" shape-rendering="geometricPrecision" text-rendering="geometricPrecision"><text x="216.82" y="704.535" stroke="none" transform="matrix(1,0,0,1,-161,-515)" xml:space="preserve">URL</text></g></g></g><g id="y.node.8"><g fill="#0CF" stroke="#0CF" shape-rendering="geometricPrecision" text-rendering="geometricPrecision" transform="matrix(1,0,0,1,-161,-515)"><ellipse cx="225.727" cy="742.5" stroke="none" rx="20.395" ry="15"/></g><g stroke-linecap="butt" stroke-miterlimit="1.45" shape-rendering="geometricPrecision" text-rendering="geometricPrecision" transform="matrix(1,0,0,1,-161,-515)"><ellipse cx="225.727" cy="742.5" fill="none" rx="20.395" ry="15"/></g><g><g stroke-linecap="butt" stroke-miterlimit="1.45" font-family="sans-serif" shape-rendering="geometricPrecision" text-rendering="geometricPrecision"><text x="212.332" y="747.035" stroke="none" transform="matrix(1,0,0,1,-161,-515)" xml:space="preserve">Date</text></g></g></g><g id="y.node.9"><g fill="#0CF" stroke="#0CF" shape-rendering="geometricPrecision" text-rendering="geometricPrecision" transform="matrix(1,0,0,1,-161,-515)"><ellipse cx="211.254" cy="785" stroke="none" rx="34.867" ry="15"/></g><g stroke-linecap="butt" stroke-miterlimit="1.45" shape-rendering="geometricPrecision" text-rendering="geometricPrecision" transform="matrix(1,0,0,1,-161,-515)"><ellipse cx="211.254" cy="785" fill="none" rx="34.867" ry="15"/></g><g><g stroke-linecap="butt" stroke-miterlimit="1.45" font-family="sans-serif" shape-rendering="geometricPrecision" text-rendering="geometricPrecision"><text x="183.387" y="789.535" stroke="none" transform="matrix(1,0,0,1,-161,-515)" xml:space="preserve">DateTime</text></g></g></g><g id="y.node.10"><a target="_blank" xlink:href="https://schema.org/Place" xlink:show="new" xlink:type="simple"><g fill="#CFC" stroke="#CFC" shape-rendering="geometricPrecision" text-rendering="geometricPrecision" transform="matrix(1,0,0,1,-161,-515)"><rect width="91.584" height="30" x="227.727" y="827" stroke="none"/></g><g stroke-linecap="butt" stroke-miterlimit="1.45" shape-rendering="geometricPrecision" text-rendering="geometricPrecision" transform="matrix(1,0,0,1,-161,-515)"><rect width="91.584" height="30" x="227.727" y="827" fill="none"/></g><g><g stroke-linecap="butt" stroke-miterlimit="1.45" font-family="sans-serif" shape-rendering="geometricPrecision" text-rendering="geometricPrecision"><text x="234.727" y="846.535" stroke="none" transform="matrix(1,0,0,1,-161,-515)" xml:space="preserve">schema:Place</text></g></g></a></g><g id="y.node.11"><g fill="#0CF" stroke="#0CF" shape-rendering="geometricPrecision" text-rendering="geometricPrecision" transform="matrix(1,0,0,1,-161,-515)"><ellipse cx="396.915" cy="902" stroke="none" rx="20.061" ry="15"/></g><g stroke-linecap="butt" stroke-miterlimit="1.45" shape-rendering="geometricPrecision" text-rendering="geometricPrecision" transform="matrix(1,0,0,1,-161,-515)"><ellipse cx="396.915" cy="902" fill="none" rx="20.061" ry="15"/></g><g><g stroke-linecap="butt" stroke-miterlimit="1.45" font-family="sans-serif" shape-rendering="geometricPrecision" text-rendering="geometricPrecision"><text x="383.854" y="906.535" stroke="none" transform="matrix(1,0,0,1,-161,-515)" xml:space="preserve">Text</text></g></g></g><g id="y.node.12"><g fill="#0CF" stroke="#0CF" shape-rendering="geometricPrecision" text-rendering="geometricPrecision" transform="matrix(1,0,0,1,-161,-515)"><ellipse cx="665.462" cy="954" stroke="none" rx="20.061" ry="15"/></g><g stroke-linecap="butt" stroke-miterlimit="1.45" shape-rendering="geometricPrecision" text-rendering="geometricPrecision" transform="matrix(1,0,0,1,-161,-515)"><ellipse cx="665.462" cy="954" fill="none" rx="20.061" ry="15"/></g><g><g stroke-linecap="butt" stroke-miterlimit="1.45" font-family="sans-serif" shape-rendering="geometricPrecision" text-rendering="geometricPrecision"><text x="652.402" y="958.535" stroke="none" transform="matrix(1,0,0,1,-161,-515)" xml:space="preserve">Text</text></g></g></g><g id="y.node.13"><g fill="#0CF" stroke="#0CF" shape-rendering="geometricPrecision" text-rendering="geometricPrecision" transform="matrix(1,0,0,1,-161,-515)"><ellipse cx="667.372" cy="902" stroke="none" rx="18.15" ry="15"/></g><g stroke-linecap="butt" stroke-miterlimit="1.45" shape-rendering="geometricPrecision" text-rendering="geometricPrecision" transform="matrix(1,0,0,1,-161,-515)"><ellipse cx="667.372" cy="902" fill="none" rx="18.15" ry="15"/></g><g><g stroke-linecap="butt" stroke-miterlimit="1.45" font-family="sans-serif" shape-rendering="geometricPrecision" text-rendering="geometricPrecision"><text x="656.222" y="906.535" stroke="none" transform="matrix(1,0,0,1,-161,-515)" xml:space="preserve">URL</text></g></g></g><g id="y.edge.0"><g stroke-linecap="butt" stroke-miterlimit="1.45" shape-rendering="geometricPrecision" text-rendering="geometricPrecision"><path fill="none" d="M449.2618 560.4092 L449.2618 700.7046" transform="matrix(1,0,0,1,-161,-515)"/><path stroke="none" d="M449.2618 708.7046 L454.2618 696.7046 L449.2618 699.7046 L444.2618 696.7046 Z" transform="matrix(1,0,0,1,-161,-515)"/></g><g><g stroke-linecap="butt" stroke-miterlimit="1.45" font-family="sans-serif" shape-rendering="geometricPrecision" text-rendering="geometricPrecision"><text x="462.234" y="601.483" stroke="none" transform="matrix(1,0,0,1,-161,-515)" xml:space="preserve">schema:recordedAt</text></g></g></g><g id="y.edge.1"><g stroke-linecap="butt" stroke-miterlimit="1.45" shape-rendering="geometricPrecision" text-rendering="geometricPrecision"><path fill="none" d="M470.005 738.6937 L470.005 818.9933" transform="matrix(1,0,0,1,-161,-515)"/><path stroke="none" d="M470.005 826.9933 L475.005 814.9933 L470.005 817.9933 L465.005 814.9933 Z" transform="matrix(1,0,0,1,-161,-515)"/></g><g><g stroke-linecap="butt" stroke-miterlimit="1.45" font-family="sans-serif" shape-rendering="geometricPrecision" text-rendering="geometricPrecision"><text x="486.11" y="787.388" stroke="none" transform="matrix(1,0,0,1,-161,-515)" xml:space="preserve">schema:recordedIn</text></g></g></g><g id="y.edge.2"><g stroke-linecap="butt" stroke-miterlimit="1.45" shape-rendering="geometricPrecision" text-rendering="geometricPrecision"><path fill="none" d="M597.2247 842 L755.4285 842" transform="matrix(1,0,0,1,-161,-515)"/><path stroke="none" d="M763.4285 842 L751.4285 837 L754.4285 842 L751.4285 847 Z" transform="matrix(1,0,0,1,-161,-515)"/></g><g><g stroke-linecap="butt" stroke-miterlimit="1.45" font-family="sans-serif" shape-rendering="geometricPrecision" text-rendering="geometricPrecision"><text x="626.189" y="816.535" stroke="none" transform="matrix(1,0,0,1,-161,-515)" xml:space="preserve">schema:isBasedOn</text></g></g></g><g id="y.edge.4"><g stroke-linecap="butt" stroke-miterlimit="1.45" shape-rendering="geometricPrecision" text-rendering="geometricPrecision"><path fill="none" d="M867.1882 842 L1009.1236 842" transform="matrix(1,0,0,1,-161,-515)"/><path stroke="none" d="M1017.1236 842 L1005.1236 837 L1008.1236 842 L1005.1236 847 Z" transform="matrix(1,0,0,1,-161,-515)"/></g><g><g stroke-linecap="butt" stroke-miterlimit="1.45" font-family="sans-serif" shape-rendering="geometricPrecision" text-rendering="geometricPrecision"><text x="875.06" y="816.535" stroke="none" transform="matrix(1,0,0,1,-161,-515)" xml:space="preserve">schema:additionalType</text></g></g></g><g id="y.edge.3"><g stroke-linecap="butt" stroke-miterlimit="1.45" shape-rendering="geometricPrecision" text-rendering="geometricPrecision"><path fill="none" d="M495.9415 723.7046 L651.6293 723.7046" transform="matrix(1,0,0,1,-161,-515)"/><path stroke="none" d="M659.6293 723.7046 L647.6293 718.7046 L650.6293 723.7046 L647.6293 728.7046 Z" transform="matrix(1,0,0,1,-161,-515)"/></g><g><g stroke-linecap="butt" stroke-miterlimit="1.45" font-family="sans-serif" shape-rendering="geometricPrecision" text-rendering="geometricPrecision"><text x="510.69" y="698.24" stroke="none" transform="matrix(1,0,0,1,-161,-515)" xml:space="preserve">schema:additionalType</text></g></g></g><g id="y.edge.5"><g stroke-linecap="butt" stroke-miterlimit="1.45" shape-rendering="geometricPrecision" text-rendering="geometricPrecision"><path fill="none" d="M402.5725 714.7139 L372.5821 714.7139 L372.5821 657.5 L256.0312 657.5" transform="matrix(1,0,0,1,-161,-515)"/><path stroke="none" d="M248.0312 657.5 L260.0312 662.5 L257.0312 657.5 L260.0312 652.5 Z" transform="matrix(1,0,0,1,-161,-515)"/></g><g><g stroke-linecap="butt" stroke-miterlimit="1.45" font-family="sans-serif" shape-rendering="geometricPrecision" text-rendering="geometricPrecision"><text x="253.69" y="624.969" stroke="none" transform="matrix(1,0,0,1,-161,-515)" xml:space="preserve">schema:name,</text><text x="253.69" y="639.102" stroke="none" transform="matrix(1,0,0,1,-161,-515)" xml:space="preserve">schema:description</text></g></g></g><g id="y.edge.6"><g stroke-linecap="butt" stroke-miterlimit="1.45" shape-rendering="geometricPrecision" text-rendering="geometricPrecision"><path fill="none" d="M402.5821 723.7046 L360.1 723.7046 L360.1 700 L254.1211 700" transform="matrix(1,0,0,1,-161,-515)"/><path stroke="none" d="M246.1211 700 L258.1211 705 L255.1211 700 L258.1211 695 Z" transform="matrix(1,0,0,1,-161,-515)"/></g><g><g stroke-linecap="butt" stroke-miterlimit="1.45" font-family="sans-serif" shape-rendering="geometricPrecision" text-rendering="geometricPrecision"><text x="260.974" y="682.469" stroke="none" transform="matrix(1,0,0,1,-161,-515)" xml:space="preserve">schema:url,</text><text x="260.974" y="696.602" stroke="none" transform="matrix(1,0,0,1,-161,-515)" xml:space="preserve">schema:sameAs</text></g></g></g><g id="y.edge.7"><g stroke-linecap="butt" stroke-miterlimit="1.45" shape-rendering="geometricPrecision" text-rendering="geometricPrecision"><path fill="none" d="M402.5416 731.7837 L279.1589 731.7837 L279.1589 763.75 L266.1211 763.75 L266.1211 742.5 L254.1211 742.5" transform="matrix(1,0,0,1,-161,-515)"/><path stroke="none" d="M246.1211 742.5 L258.1211 747.5 L255.1211 742.5 L258.1211 737.5 Z" transform="matrix(1,0,0,1,-161,-515)"/></g><g><g stroke-linecap="butt" stroke-miterlimit="1.45" font-family="sans-serif" shape-rendering="geometricPrecision" text-rendering="geometricPrecision"><text x="286.38" y="755.279" stroke="none" transform="matrix(1,0,0,1,-161,-515)" xml:space="preserve">schema:startDate,</text><text x="286.38" y="769.412" stroke="none" transform="matrix(1,0,0,1,-161,-515)" xml:space="preserve">schema:endDate</text></g></g></g><g id="y.edge.8"><g stroke-linecap="butt" stroke-miterlimit="1.45" shape-rendering="geometricPrecision" text-rendering="geometricPrecision"><path fill="none" d="M402.5416 731.7837 L279.1589 731.7837 L279.1589 763.75 L266.1211 763.75 L266.1211 785 L254.1211 785" transform="matrix(1,0,0,1,-161,-515)"/><path stroke="none" d="M246.1211 785 L258.1211 790 L255.1211 785 L258.1211 780 Z" transform="matrix(1,0,0,1,-161,-515)"/></g></g><g id="y.edge.9"><g stroke-linecap="butt" stroke-miterlimit="1.45" shape-rendering="geometricPrecision" text-rendering="geometricPrecision"><path fill="none" d="M438.2618 738.6937 L438.2618 842 L327.3105 842" transform="matrix(1,0,0,1,-161,-515)"/><path stroke="none" d="M319.3105 842 L331.3105 847 L328.3105 842 L331.3105 837 Z" transform="matrix(1,0,0,1,-161,-515)"/></g><g><g stroke-linecap="butt" stroke-miterlimit="1.45" font-family="sans-serif" shape-rendering="geometricPrecision" text-rendering="geometricPrecision"><text x="335.794" y="836.345" stroke="none" transform="matrix(1,0,0,1,-161,-515)" xml:space="preserve">schema:location</text></g></g></g><g id="y.edge.10"><g stroke-linecap="butt" stroke-miterlimit="1.45" shape-rendering="geometricPrecision" text-rendering="geometricPrecision"><path fill="none" d="M273.5186 857 L273.5186 902 L368.854 902" transform="matrix(1,0,0,1,-161,-515)"/><path stroke="none" d="M376.854 902 L364.854 897 L367.854 902 L364.854 907 Z" transform="matrix(1,0,0,1,-161,-515)"/></g><g><g stroke-linecap="butt" stroke-miterlimit="1.45" font-family="sans-serif" shape-rendering="geometricPrecision" text-rendering="geometricPrecision"><text x="278.393" y="929.469" stroke="none" transform="matrix(1,0,0,1,-161,-515)" xml:space="preserve">schema:name,</text><text x="278.393" y="943.602" stroke="none" transform="matrix(1,0,0,1,-161,-515)" xml:space="preserve">schema:address</text></g></g></g><g id="y.edge.11"><g stroke-linecap="butt" stroke-miterlimit="1.45" shape-rendering="geometricPrecision" text-rendering="geometricPrecision"><path fill="none" d="M840.3025 857.0117 L840.3025 954 L693.5229 954" transform="matrix(1,0,0,1,-161,-515)"/><path stroke="none" d="M685.5229 954 L697.5229 959 L694.5229 954 L697.5229 949 Z" transform="matrix(1,0,0,1,-161,-515)"/></g><g><g stroke-linecap="butt" stroke-miterlimit="1.45" font-family="sans-serif" shape-rendering="geometricPrecision" text-rendering="geometricPrecision"><text x="705.384" y="931.279" stroke="none" transform="matrix(1,0,0,1,-161,-515)" xml:space="preserve">schema:name,</text><text x="705.384" y="945.412" stroke="none" transform="matrix(1,0,0,1,-161,-515)" xml:space="preserve">schema:description</text></g></g></g><g id="y.edge.12"><g stroke-linecap="butt" stroke-miterlimit="1.45" shape-rendering="geometricPrecision" text-rendering="geometricPrecision"><path fill="none" d="M796 856.9707 L796 902 L693.5229 902" transform="matrix(1,0,0,1,-161,-515)"/><path stroke="none" d="M685.5229 902 L697.5229 907 L694.5229 902 L697.5229 897 Z" transform="matrix(1,0,0,1,-161,-515)"/></g><g><g stroke-linecap="butt" stroke-miterlimit="1.45" font-family="sans-serif" shape-rendering="geometricPrecision" text-rendering="geometricPrecision"><text x="698.974" y="880.469" stroke="none" transform="matrix(1,0,0,1,-161,-515)" xml:space="preserve">schema:url,</text><text x="698.974" y="894.602" stroke="none" transform="matrix(1,0,0,1,-161,-515)" xml:space="preserve">schema:sameAs</text></g></g></g></g></svg>