<svg xmlns="http://www.w3.org/2000/svg" xmlns:xlink="http://www.w3.org/1999/xlink" width="899" height="342" fill="#000" fill-opacity="1" stroke="#000" stroke-dasharray="none" stroke-dashoffset="0" stroke-linecap="square" stroke-linejoin="miter" stroke-miterlimit="10" stroke-opacity="1" stroke-width="1" color-interpolation="auto" color-rendering="auto" font-family="'Dialog'" font-size="12" font-style="normal" font-weight="normal" image-rendering="auto" shape-rendering="auto" text-rendering="auto"><g><defs id="defs1"><clipPath id="clipPath1" clipPathUnits="userSpaceOnUse"><path d="M0 0 L899 0 L899 342 L0 342 L0 0 Z"/></clipPath></defs><g id="y.node.0"><a target="_blank" xlink:href="https://schema.org/Dataset" xlink:show="new" xlink:type="simple"><g fill="#CFC" stroke="#CFC" shape-rendering="geometricPrecision" text-rendering="geometricPrecision" transform="matrix(1,0,0,1,-480,-337)"><rect width="106.045" height="30" x="495.691" y="352.32" stroke="none"/></g><g stroke-linecap="butt" stroke-miterlimit="1.45" shape-rendering="geometricPrecision" text-rendering="geometricPrecision" transform="matrix(1,0,0,1,-480,-337)"><rect width="106.045" height="30" x="495.691" y="352.32" fill="none"/></g><g><g stroke-linecap="butt" stroke-miterlimit="1.45" font-family="sans-serif" shape-rendering="geometricPrecision" text-rendering="geometricPrecision"><text x="502.691" y="371.856" stroke="none" transform="matrix(1,0,0,1,-480,-337)" xml:space="preserve">schema:Dataset</text></g></g></a></g><g id="y.node.1"><a target="_blank" xlink:href="https://schema.org/DigitalDocument" xlink:show="new" xlink:type="simple"><g fill="#CFC" stroke="#CFC" shape-rendering="geometricPrecision" text-rendering="geometricPrecision" transform="matrix(1,0,0,1,-480,-337)"><rect width="159.793" height="30" x="804.519" y="443" stroke="none"/></g><g stroke-linecap="butt" stroke-miterlimit="1.45" shape-rendering="geometricPrecision" text-rendering="geometricPrecision" transform="matrix(1,0,0,1,-480,-337)"><rect width="159.793" height="30" x="804.519" y="443" fill="none"/></g><g><g stroke-linecap="butt" stroke-miterlimit="1.45" font-family="sans-serif" shape-rendering="geometricPrecision" text-rendering="geometricPrecision"><text x="811.519" y="462.535" stroke="none" transform="matrix(1,0,0,1,-480,-337)" xml:space="preserve">schema:DigitalDocument</text></g></g></a></g><g id="y.node.2"><a target="_blank" xlink:href="https://geodex.org/voc/Protocol-License" xlink:show="new" xlink:type="simple"><g fill="#ff0" stroke="#ff0" shape-rendering="geometricPrecision" text-rendering="geometricPrecision" transform="matrix(1,0,0,1,-480,-337)"><ellipse cx="1180.126" cy="458" stroke="none" rx="68.922" ry="17.583"/></g><g stroke-linecap="butt" stroke-miterlimit="1.45" shape-rendering="geometricPrecision" text-rendering="geometricPrecision" transform="matrix(1,0,0,1,-480,-337)"><ellipse cx="1180.126" cy="458" fill="none" rx="68.922" ry="17.583"/></g><g><g stroke-linecap="butt" stroke-miterlimit="1.45" font-family="sans-serif" shape-rendering="geometricPrecision" text-rendering="geometricPrecision"><text x="1118.204" y="462.535" stroke="none" transform="matrix(1,0,0,1,-480,-337)" xml:space="preserve">gdx:Protocol-License</text></g></g></a></g><g id="y.node.3"><a target="_blank" xlink:href="https://geodex.org/voc/Protocol-TermsOfUse" xlink:show="new" xlink:type="simple"><g fill="#ff0" stroke="#ff0" shape-rendering="geometricPrecision" text-rendering="geometricPrecision" transform="matrix(1,0,0,1,-480,-337)"><ellipse cx="1198.558" cy="603.531" stroke="none" rx="83.125" ry="17.583"/></g><g stroke-linecap="butt" stroke-miterlimit="1.45" shape-rendering="geometricPrecision" text-rendering="geometricPrecision" transform="matrix(1,0,0,1,-480,-337)"><ellipse cx="1198.558" cy="603.531" fill="none" rx="83.125" ry="17.583"/></g><g><g stroke-linecap="butt" stroke-miterlimit="1.45" font-family="sans-serif" shape-rendering="geometricPrecision" text-rendering="geometricPrecision"><text x="1122.433" y="608.066" stroke="none" transform="matrix(1,0,0,1,-480,-337)" xml:space="preserve">gdx:Protocol-TermsOfUse</text></g></g></a></g><g id="y.node.4"><a target="_blank" xlink:href="https://geodex.org/voc/Protocol-ResourceSubmissionPolicy" xlink:show="new" xlink:type="simple"><g fill="#ff0" stroke="#ff0" shape-rendering="geometricPrecision" text-rendering="geometricPrecision" transform="matrix(1,0,0,1,-480,-337)"><ellipse cx="1239.751" cy="555.327" stroke="none" rx="123.93" ry="18.5"/></g><g stroke-linecap="butt" stroke-miterlimit="1.45" shape-rendering="geometricPrecision" text-rendering="geometricPrecision" transform="matrix(1,0,0,1,-480,-337)"><ellipse cx="1239.751" cy="555.327" fill="none" rx="123.93" ry="18.5"/></g><g><g stroke-linecap="butt" stroke-miterlimit="1.45" font-family="sans-serif" shape-rendering="geometricPrecision" text-rendering="geometricPrecision"><text x="1122.821" y="559.862" stroke="none" transform="matrix(1,0,0,1,-480,-337)" xml:space="preserve">gdx:Protocol-ResourceSubmissionPolicy</text></g></g></a></g><g id="y.node.5"><a target="_blank" xlink:href="https://geodex.org/voc/Protocol-PreservationPolicy" xlink:show="new" xlink:type="simple"><g fill="#ff0" stroke="#ff0" shape-rendering="geometricPrecision" text-rendering="geometricPrecision" transform="matrix(1,0,0,1,-480,-337)"><ellipse cx="1209.836" cy="506.205" stroke="none" rx="99.903" ry="18.5"/></g><g stroke-linecap="butt" stroke-miterlimit="1.45" shape-rendering="geometricPrecision" text-rendering="geometricPrecision" transform="matrix(1,0,0,1,-480,-337)"><ellipse cx="1209.836" cy="506.205" fill="none" rx="99.903" ry="18.5"/></g><g><g stroke-linecap="butt" stroke-miterlimit="1.45" font-family="sans-serif" shape-rendering="geometricPrecision" text-rendering="geometricPrecision"><text x="1116.933" y="510.74" stroke="none" transform="matrix(1,0,0,1,-480,-337)" xml:space="preserve">gdx:Protocol-PreservationPolicy</text></g></g></a></g><g id="y.node.6"><a target="_blank" xlink:href="https://geodex.org/voc/Protocol-Access" xlink:show="new" xlink:type="simple"><g fill="#ff0" stroke="#ff0" shape-rendering="geometricPrecision" text-rendering="geometricPrecision" transform="matrix(1,0,0,1,-480,-337)"><ellipse cx="1180.126" cy="648.236" stroke="none" rx="67.193" ry="15"/></g><g stroke-linecap="butt" stroke-miterlimit="1.45" shape-rendering="geometricPrecision" text-rendering="geometricPrecision" transform="matrix(1,0,0,1,-480,-337)"><ellipse cx="1180.126" cy="648.236" fill="none" rx="67.193" ry="15"/></g><g><g stroke-linecap="butt" stroke-miterlimit="1.45" font-family="sans-serif" shape-rendering="geometricPrecision" text-rendering="geometricPrecision"><text x="1119.933" y="652.771" stroke="none" transform="matrix(1,0,0,1,-480,-337)" xml:space="preserve">gdx:Protocol-Access</text></g></g></a></g><g id="y.node.7"><g fill="#0CF" stroke="#0CF" shape-rendering="geometricPrecision" text-rendering="geometricPrecision" transform="matrix(1,0,0,1,-480,-337)"><ellipse cx="917.325" cy="600.948" stroke="none" rx="20.061" ry="15"/></g><g stroke-linecap="butt" stroke-miterlimit="1.45" shape-rendering="geometricPrecision" text-rendering="geometricPrecision" transform="matrix(1,0,0,1,-480,-337)"><ellipse cx="917.325" cy="600.948" fill="none" rx="20.061" ry="15"/></g><g><g stroke-linecap="butt" stroke-miterlimit="1.45" font-family="sans-serif" shape-rendering="geometricPrecision" text-rendering="geometricPrecision"><text x="904.264" y="605.484" stroke="none" transform="matrix(1,0,0,1,-480,-337)" xml:space="preserve">Text</text></g></g></g><g id="y.node.8"><g fill="#0CF" stroke="#0CF" shape-rendering="geometricPrecision" text-rendering="geometricPrecision" transform="matrix(1,0,0,1,-480,-337)"><ellipse cx="849.114" cy="600.948" stroke="none" rx="18.15" ry="15"/></g><g stroke-linecap="butt" stroke-miterlimit="1.45" shape-rendering="geometricPrecision" text-rendering="geometricPrecision" transform="matrix(1,0,0,1,-480,-337)"><ellipse cx="849.114" cy="600.948" fill="none" rx="18.15" ry="15"/></g><g><g stroke-linecap="butt" stroke-miterlimit="1.45" font-family="sans-serif" shape-rendering="geometricPrecision" text-rendering="geometricPrecision"><text x="837.964" y="605.484" stroke="none" transform="matrix(1,0,0,1,-480,-337)" xml:space="preserve">URL</text></g></g></g><g id="y.edge.0"><g stroke-linecap="butt" stroke-miterlimit="1.45" shape-rendering="geometricPrecision" text-rendering="geometricPrecision"><path fill="none" d="M587.7136 382.3304 L587.7136 458 L796.5186 458" transform="matrix(1,0,0,1,-480,-337)"/><path stroke="none" d="M804.5186 458 L792.5186 453 L795.5186 458 L792.5186 463 Z" transform="matrix(1,0,0,1,-480,-337)"/></g><g><g stroke-linecap="butt" stroke-miterlimit="1.45" font-family="sans-serif" shape-rendering="geometricPrecision" text-rendering="geometricPrecision"><text x="613.429" y="432.535" stroke="none" transform="matrix(1,0,0,1,-480,-337)" xml:space="preserve">schema:publishingPrinciples</text></g></g></g><g id="y.edge.1"><g stroke-linecap="butt" stroke-miterlimit="1.45" shape-rendering="geometricPrecision" text-rendering="geometricPrecision"><path fill="none" d="M1111.2041 458 L972.3115 458" transform="matrix(1,0,0,1,-480,-337)"/><path stroke="none" d="M964.3115 458 L976.3115 463 L973.3115 458 L976.3115 453 Z" transform="matrix(1,0,0,1,-480,-337)"/></g><g><g stroke-linecap="butt" stroke-miterlimit="1.45" font-family="sans-serif" shape-rendering="geometricPrecision" text-rendering="geometricPrecision"><text x="1000.007" y="432.535" stroke="none" transform="matrix(1,0,0,1,-480,-337)" xml:space="preserve">rdf:type</text></g></g></g><g id="y.edge.4"><g stroke-linecap="butt" stroke-miterlimit="1.45" shape-rendering="geometricPrecision" text-rendering="geometricPrecision"><path fill="none" d="M1115.4326 603.5311 L1058 603.5311 L1058 458 L972.2972 458" transform="matrix(1,0,0,1,-480,-337)"/><path stroke="none" d="M964.2972 458 L976.2972 463 L973.2972 458 L976.2972 453 Z" transform="matrix(1,0,0,1,-480,-337)"/></g></g><g id="y.edge.3"><g stroke-linecap="butt" stroke-miterlimit="1.45" shape-rendering="geometricPrecision" text-rendering="geometricPrecision"><path fill="none" d="M1115.8208 555.3265 L1058 555.3265 L1058 458.8637 L972.3307 458.8637" transform="matrix(1,0,0,1,-480,-337)"/><path stroke="none" d="M964.3307 458.8637 L976.3307 463.8637 L973.3307 458.8637 L976.3307 453.8637 Z" transform="matrix(1,0,0,1,-480,-337)"/></g></g><g id="y.edge.2"><g stroke-linecap="butt" stroke-miterlimit="1.45" shape-rendering="geometricPrecision" text-rendering="geometricPrecision"><path fill="none" d="M1109.9326 506.2046 L1058 506.2046 L1058 458 L972.3254 458" transform="matrix(1,0,0,1,-480,-337)"/><path stroke="none" d="M964.3254 458 L976.3254 463 L973.3254 458 L976.3254 453 Z" transform="matrix(1,0,0,1,-480,-337)"/></g></g><g id="y.edge.5"><g stroke-linecap="butt" stroke-miterlimit="1.45" shape-rendering="geometricPrecision" text-rendering="geometricPrecision"><path fill="none" d="M1112.9326 648.2357 L1058 648.2357 L1058 458 L972.286 458" transform="matrix(1,0,0,1,-480,-337)"/><path stroke="none" d="M964.286 458 L976.286 463 L973.286 458 L976.286 453 Z" transform="matrix(1,0,0,1,-480,-337)"/></g></g><g id="y.edge.6"><g stroke-linecap="butt" stroke-miterlimit="1.45" shape-rendering="geometricPrecision" text-rendering="geometricPrecision"><path fill="none" d="M917.325 472.9719 L917.325 577.9485" transform="matrix(1,0,0,1,-480,-337)"/><path stroke="none" d="M917.325 585.9485 L922.325 573.9485 L917.325 576.9485 L912.325 573.9485 Z" transform="matrix(1,0,0,1,-480,-337)"/></g><g><g stroke-linecap="butt" stroke-miterlimit="1.45" font-family="sans-serif" shape-rendering="geometricPrecision" text-rendering="geometricPrecision"><text x="921.719" y="521.233" stroke="none" transform="matrix(1,0,0,1,-480,-337)" xml:space="preserve">schema:name,</text><text x="921.719" y="535.366" stroke="none" transform="matrix(1,0,0,1,-480,-337)" xml:space="preserve">schema:description</text></g></g></g><g id="y.edge.7"><g stroke-linecap="butt" stroke-miterlimit="1.45" shape-rendering="geometricPrecision" text-rendering="geometricPrecision"><path fill="none" d="M850.0117 472.9719 L850.0117 577.9824" transform="matrix(1,0,0,1,-480,-337)"/><path stroke="none" d="M850.0117 585.9824 L855.0117 573.9824 L850.0117 576.9824 L845.0117 573.9824 Z" transform="matrix(1,0,0,1,-480,-337)"/></g><g><g stroke-linecap="butt" stroke-miterlimit="1.45" font-family="sans-serif" shape-rendering="geometricPrecision" text-rendering="geometricPrecision"><text x="750.891" y="516.821" stroke="none" transform="matrix(1,0,0,1,-480,-337)" xml:space="preserve">schema:url,</text><text x="750.891" y="530.953" stroke="none" transform="matrix(1,0,0,1,-480,-337)" xml:space="preserve">schema:sameAs</text></g></g></g></g></svg>