<svg xmlns="http://www.w3.org/2000/svg" xmlns:xlink="http://www.w3.org/1999/xlink" width="648" height="237" fill="#000" fill-opacity="1" stroke="#000" stroke-dasharray="none" stroke-dashoffset="0" stroke-linecap="square" stroke-linejoin="miter" stroke-miterlimit="10" stroke-opacity="1" stroke-width="1" color-interpolation="auto" color-rendering="auto" font-family="'Dialog'" font-size="12" font-style="normal" font-weight="normal" image-rendering="auto" shape-rendering="auto" text-rendering="auto"><g><defs id="defs1"><clipPath id="clipPath1" clipPathUnits="userSpaceOnUse"><path d="M0 0 L648 0 L648 237 L0 237 L0 0 Z"/></clipPath></defs><g id="y.node.0"><g fill="#0CF" stroke="#0CF" shape-rendering="geometricPrecision" text-rendering="geometricPrecision" transform="matrix(1,0,0,1,45,-352)"><ellipse cx="259.989" cy="558.94" stroke="none" rx="20.061" ry="15"/></g><g stroke-linecap="butt" stroke-miterlimit="1.45" shape-rendering="geometricPrecision" text-rendering="geometricPrecision" transform="matrix(1,0,0,1,45,-352)"><ellipse cx="259.989" cy="558.94" fill="none" rx="20.061" ry="15"/></g><g><g stroke-linecap="butt" stroke-miterlimit="1.45" font-family="sans-serif" shape-rendering="geometricPrecision" text-rendering="geometricPrecision"><text x="246.929" y="563.475" stroke="none" transform="matrix(1,0,0,1,45,-352)" xml:space="preserve">Text</text></g></g></g><g id="y.node.1"><a target="_blank" xlink:href="https://schema.org/Dataset" xlink:show="new" xlink:type="simple"><g fill="#CFC" stroke="#CFC" shape-rendering="geometricPrecision" text-rendering="geometricPrecision" transform="matrix(1,0,0,1,45,-352)"><rect width="106.045" height="30" x="481.032" y="367" stroke="none"/></g><g stroke-linecap="butt" stroke-miterlimit="1.45" shape-rendering="geometricPrecision" text-rendering="geometricPrecision" transform="matrix(1,0,0,1,45,-352)"><rect width="106.045" height="30" x="481.032" y="367" fill="none"/></g><g><g stroke-linecap="butt" stroke-miterlimit="1.45" font-family="sans-serif" shape-rendering="geometricPrecision" text-rendering="geometricPrecision"><text x="488.032" y="386.535" stroke="none" transform="matrix(1,0,0,1,45,-352)" xml:space="preserve">schema:Dataset</text></g></g></a></g><g id="y.node.2"><a target="_blank" xlink:href="http://schema.org/CreativeWork" xlink:show="new" xlink:type="simple"><g fill="#CFC" stroke="#CFC" shape-rendering="geometricPrecision" text-rendering="geometricPrecision" transform="matrix(1,0,0,1,45,-352)"><rect width="138.963" height="30" x="215.563" y="452.705" stroke="none"/></g><g stroke-linecap="butt" stroke-miterlimit="1.45" shape-rendering="geometricPrecision" text-rendering="geometricPrecision" transform="matrix(1,0,0,1,45,-352)"><rect width="138.963" height="30" x="215.563" y="452.705" fill="none"/></g><g><g stroke-linecap="butt" stroke-miterlimit="1.45" font-family="sans-serif" shape-rendering="geometricPrecision" text-rendering="geometricPrecision"><text x="222.563" y="472.24" stroke="none" transform="matrix(1,0,0,1,45,-352)" xml:space="preserve">schema:CreativeWork</text></g></g></a></g><g id="y.node.3"><a target="_blank" xlink:href="https://library.ucar.edu/earthcollab/schema#Project" xlink:show="new" xlink:type="simple"><g fill="#FC0" stroke="#FC0" shape-rendering="geometricPrecision" text-rendering="geometricPrecision" transform="matrix(1,0,0,1,45,-352)"><rect width="122.475" height="30" x="-29.891" y="452.705" stroke="none"/></g><g stroke-linecap="butt" stroke-miterlimit="1.45" shape-rendering="geometricPrecision" text-rendering="geometricPrecision" transform="matrix(1,0,0,1,45,-352)"><rect width="122.475" height="30" x="-29.891" y="452.705" fill="none"/></g><g><g stroke-linecap="butt" stroke-miterlimit="1.45" font-family="sans-serif" shape-rendering="geometricPrecision" text-rendering="geometricPrecision"><text x="-22.891" y="472.24" stroke="none" transform="matrix(1,0,0,1,45,-352)" xml:space="preserve">earthcollab:Project</text></g></g></a></g><g id="y.edge.0"><g stroke-linecap="butt" stroke-miterlimit="1.45" shape-rendering="geometricPrecision" text-rendering="geometricPrecision"><path fill="none" d="M510.5493 397.0234 L510.5493 467.7046 L362.5254 467.7046" transform="matrix(1,0,0,1,45,-352)"/><path stroke="none" d="M354.5254 467.7046 L366.5254 472.7046 L363.5254 467.7046 L366.5254 462.7046 Z" transform="matrix(1,0,0,1,45,-352)"/></g><g><g stroke-linecap="butt" stroke-miterlimit="1.45" font-family="sans-serif" shape-rendering="geometricPrecision" text-rendering="geometricPrecision"><text x="385.536" y="442.24" stroke="none" transform="matrix(1,0,0,1,45,-352)" xml:space="preserve">schema:isPartOf</text></g></g></g><g id="y.edge.2"><g stroke-linecap="butt" stroke-miterlimit="1.45" shape-rendering="geometricPrecision" text-rendering="geometricPrecision"><path fill="none" d="M259.9893 482.7174 L259.9893 535.9398" transform="matrix(1,0,0,1,45,-352)"/><path stroke="none" d="M259.9893 543.9398 L264.9893 531.9398 L259.9893 534.9398 L254.9893 531.9398 Z" transform="matrix(1,0,0,1,45,-352)"/></g><g><g stroke-linecap="butt" stroke-miterlimit="1.45" font-family="sans-serif" shape-rendering="geometricPrecision" text-rendering="geometricPrecision"><text x="292.704" y="509.331" stroke="none" transform="matrix(1,0,0,1,45,-352)" xml:space="preserve">schema:name,</text><text x="277.979" y="523.464" stroke="none" transform="matrix(1,0,0,1,45,-352)" xml:space="preserve">schema:description</text></g></g></g><g id="y.edge.1"><g stroke-linecap="butt" stroke-miterlimit="1.45" shape-rendering="geometricPrecision" text-rendering="geometricPrecision"><path fill="none" d="M215.5625 467.7046 L100.584 467.7046" transform="matrix(1,0,0,1,45,-352)"/><path stroke="none" d="M92.584 467.7046 L104.584 472.7046 L101.584 467.7046 L104.584 462.7046 Z" transform="matrix(1,0,0,1,45,-352)"/></g><g><g stroke-linecap="butt" stroke-miterlimit="1.45" font-family="sans-serif" shape-rendering="geometricPrecision" text-rendering="geometricPrecision"><text x="86.978" y="442.24" stroke="none" transform="matrix(1,0,0,1,45,-352)" xml:space="preserve">schema:additionalType</text></g></g></g></g></svg>