<svg xmlns="http://www.w3.org/2000/svg" xmlns:xlink="http://www.w3.org/1999/xlink" width="468" height="194" fill="#000" fill-opacity="1" stroke="#000" stroke-dasharray="none" stroke-dashoffset="0" stroke-linecap="square" stroke-linejoin="miter" stroke-miterlimit="10" stroke-opacity="1" stroke-width="1" color-interpolation="auto" color-rendering="auto" font-family="'Dialog'" font-size="12" font-style="normal" font-weight="normal" image-rendering="auto" shape-rendering="auto" text-rendering="auto"><g><defs id="defs1"><clipPath id="clipPath1" clipPathUnits="userSpaceOnUse"><path d="M0 0 L468 0 L468 194 L0 194 L0 0 Z"/></clipPath><clipPath id="clipPath2" clipPathUnits="userSpaceOnUse"><path d="M300 32 L768 32 L768 226 L300 226 L300 32 Z"/></clipPath></defs><g fill="#FC0" stroke="#FC0" shape-rendering="geometricPrecision" text-rendering="geometricPrecision" transform="matrix(1,0,0,1,-300,-32)"><rect width="120.893" height="30" x="359.72" y="54" stroke="none" clip-path="url(#clipPath2)"/></g><g stroke-linecap="butt" stroke-miterlimit="1.45" shape-rendering="geometricPrecision" text-rendering="geometricPrecision" transform="matrix(1,0,0,1,-300,-32)"><rect width="120.893" height="30" x="359.72" y="54" fill="none" clip-path="url(#clipPath2)"/><text x="366.72" y="73.535" stroke="none" clip-path="url(#clipPath2)" font-family="sans-serif" xml:space="preserve">Class1 (extension)</text></g><g fill="#CFC" stroke="#CFC" shape-rendering="geometricPrecision" text-rendering="geometricPrecision" transform="matrix(1,0,0,1,-300,-32)"><rect width="124.022" height="30" x="384.587" y="175" stroke="none" clip-path="url(#clipPath2)"/></g><g stroke-linecap="butt" stroke-miterlimit="1.45" shape-rendering="geometricPrecision" text-rendering="geometricPrecision" transform="matrix(1,0,0,1,-300,-32)"><rect width="124.022" height="30" x="384.587" y="175" fill="none" clip-path="url(#clipPath2)"/><text x="391.587" y="194.535" stroke="none" clip-path="url(#clipPath2)" font-family="sans-serif" xml:space="preserve">Class (schema.org)</text></g><g fill="#0CF" stroke="#0CF" shape-rendering="geometricPrecision" text-rendering="geometricPrecision" transform="matrix(1,0,0,1,-300,-32)"><ellipse cx="680.052" cy="69.271" stroke="none" clip-path="url(#clipPath2)" rx="72.558" ry="15"/></g><g stroke-linecap="butt" stroke-miterlimit="1.45" shape-rendering="geometricPrecision" text-rendering="geometricPrecision" transform="matrix(1,0,0,1,-300,-32)"><ellipse cx="680.052" cy="69.271" fill="none" clip-path="url(#clipPath2)" rx="72.558" ry="15"/><text x="614.494" y="73.806" stroke="none" clip-path="url(#clipPath2)" font-family="sans-serif" xml:space="preserve">Datatype (schema.org)</text></g><g fill="#ff0" stroke="#ff0" shape-rendering="geometricPrecision" text-rendering="geometricPrecision" transform="matrix(1,0,0,1,-300,-32)"><ellipse cx="666.259" cy="192.583" stroke="none" clip-path="url(#clipPath2)" rx="35.351" ry="17.583"/></g><g stroke-linecap="butt" stroke-miterlimit="1.45" shape-rendering="geometricPrecision" text-rendering="geometricPrecision" transform="matrix(1,0,0,1,-300,-32)"><ellipse cx="666.259" cy="192.583" fill="none" clip-path="url(#clipPath2)" rx="35.351" ry="17.583"/><text x="637.908" y="197.118" stroke="none" clip-path="url(#clipPath2)" font-family="sans-serif" xml:space="preserve">Individual</text><path fill="none" d="M468.5973 84.0134 L468.5973 167.018" clip-path="url(#clipPath2)"/><path stroke="none" d="M468.5973 175.018 L473.5973 163.018 L468.5973 166.018 L463.5973 163.018 Z" clip-path="url(#clipPath2)"/><text x="478.836" y="128.035" stroke="none" clip-path="url(#clipPath2)" font-family="sans-serif" xml:space="preserve">property1</text><path fill="none" stroke-dasharray="6 2" d="M413.0615 83.9773 L413.0615 160.0129" clip-path="url(#clipPath2)"/><path fill="#fff" stroke="none" stroke-dasharray="6 2" d="M413.0615 175.0129 L419.0615 159.0129 L407.0615 159.0129 Z" clip-path="url(#clipPath2)"/><path fill="none" d="M413.0615 175.0129 L419.0615 159.0129 L407.0615 159.0129 Z" clip-path="url(#clipPath2)"/><text x="317.363" y="123.035" stroke="none" clip-path="url(#clipPath2)" font-family="sans-serif" xml:space="preserve">rdfs:subClassOf</text><path fill="none" d="M480.6125 69 L543.2144 69 L543.2144 69.2711 L599.4723 69.2711" clip-path="url(#clipPath2)"/><path stroke="none" d="M607.4723 69.2711 L595.4723 64.2711 L598.4723 69.2711 L595.4723 74.2711 Z" clip-path="url(#clipPath2)"/><text x="516.336" y="61.202" stroke="none" clip-path="url(#clipPath2)" font-family="sans-serif" xml:space="preserve">property2</text><path fill="none" d="M631.2632 190 L513.5958 190" clip-path="url(#clipPath2)"/><path stroke="none" d="M509.5958 190 L521.5958 196 L509.5958 190 L521.5958 184 Z" clip-path="url(#clipPath2)"/><path fill="none" stroke-linecap="square" stroke-miterlimit="10" d="M509.5958 190 L521.5958 196 L509.5958 190 L521.5958 184 Z" clip-path="url(#clipPath2)"/><text x="550.666" y="183.035" stroke="none" clip-path="url(#clipPath2)" font-family="sans-serif" xml:space="preserve">rdf:type</text></g></g></svg>