<svg xmlns="http://www.w3.org/2000/svg" xmlns:xlink="http://www.w3.org/1999/xlink" width="767" height="443" fill="#000" fill-opacity="1" stroke="#000" stroke-dasharray="none" stroke-dashoffset="0" stroke-linecap="square" stroke-linejoin="miter" stroke-miterlimit="10" stroke-opacity="1" stroke-width="1" color-interpolation="auto" color-rendering="auto" font-family="'Dialog'" font-size="12" font-style="normal" font-weight="normal" image-rendering="auto" shape-rendering="auto" text-rendering="auto"><g><defs id="defs1"><clipPath id="clipPath1" clipPathUnits="userSpaceOnUse"><path d="M0 0 L767 0 L767 443 L0 443 L0 0 Z"/></clipPath><clipPath id="clipPath2" clipPathUnits="userSpaceOnUse"><path d="M188 -638 L955 -638 L955 -195 L188 -195 L188 -638 Z"/></clipPath></defs><g fill="#fff" stroke="#fff" shape-rendering="geometricPrecision" text-rendering="geometricPrecision" transform="translate(-188,638)"><rect width="767" height="443" x="188" y="-638" stroke="none" clip-path="url(#clipPath2)"/></g><g id="y.node.0"><a target="_blank" xlink:href="http://schema.org/Service" xlink:show="new" xlink:type="simple"><g fill="#CFC" stroke="#CFC" shape-rendering="geometricPrecision" text-rendering="geometricPrecision" transform="matrix(1,0,0,1,-188,638)"><rect width="102.594" height="30" x="498.679" y="-598.188" stroke="none"/></g><g stroke-linecap="butt" stroke-miterlimit="1.45" shape-rendering="geometricPrecision" text-rendering="geometricPrecision" transform="matrix(1,0,0,1,-188,638)"><rect width="102.594" height="30" x="498.679" y="-598.188" fill="none"/></g><g><g stroke-linecap="butt" stroke-miterlimit="1.45" font-family="sans-serif" shape-rendering="geometricPrecision" text-rendering="geometricPrecision"><text x="505.679" y="-578.653" stroke="none" transform="matrix(1,0,0,1,-188,638)" xml:space="preserve">schema:Service</text></g></g></a></g><g id="y.node.1"><a target="_blank" xlink:href="http://schema.org/DigitalDocument" xlink:show="new" xlink:type="simple"><g fill="#CFC" stroke="#CFC" shape-rendering="geometricPrecision" text-rendering="geometricPrecision" transform="matrix(1,0,0,1,-188,638)"><rect width="159.793" height="30" x="276.046" y="-493.286" stroke="none"/></g><g stroke-linecap="butt" stroke-miterlimit="1.45" shape-rendering="geometricPrecision" text-rendering="geometricPrecision" transform="matrix(1,0,0,1,-188,638)"><rect width="159.793" height="30" x="276.046" y="-493.286" fill="none"/></g><g><g stroke-linecap="butt" stroke-miterlimit="1.45" font-family="sans-serif" shape-rendering="geometricPrecision" text-rendering="geometricPrecision"><text x="283.046" y="-473.75" stroke="none" transform="matrix(1,0,0,1,-188,638)" xml:space="preserve">schema:DigitalDocument</text></g></g></a></g><g id="y.node.2"><a target="_blank" xlink:href="https://geodex.org/voc/Protocol-License" xlink:show="new" xlink:type="simple"><g fill="#ff0" stroke="#ff0" shape-rendering="geometricPrecision" text-rendering="geometricPrecision" transform="matrix(1,0,0,1,-188,638)"><ellipse cx="434.09" cy="-415.703" stroke="none" rx="68.922" ry="17.583"/></g><g stroke-linecap="butt" stroke-miterlimit="1.45" shape-rendering="geometricPrecision" text-rendering="geometricPrecision" transform="matrix(1,0,0,1,-188,638)"><ellipse cx="434.09" cy="-415.703" fill="none" rx="68.922" ry="17.583"/></g><g><g stroke-linecap="butt" stroke-miterlimit="1.45" font-family="sans-serif" shape-rendering="geometricPrecision" text-rendering="geometricPrecision"><text x="372.168" y="-411.168" stroke="none" transform="matrix(1,0,0,1,-188,638)" xml:space="preserve">gdx:Protocol-License</text></g></g></a></g><g id="y.node.3"><a target="_blank" xlink:href="https://geodex.org/voc/Protocol-TermsOfUse" xlink:show="new" xlink:type="simple"><g fill="#ff0" stroke="#ff0" shape-rendering="geometricPrecision" text-rendering="geometricPrecision" transform="matrix(1,0,0,1,-188,638)"><ellipse cx="452.522" cy="-270.172" stroke="none" rx="83.125" ry="17.583"/></g><g stroke-linecap="butt" stroke-miterlimit="1.45" shape-rendering="geometricPrecision" text-rendering="geometricPrecision" transform="matrix(1,0,0,1,-188,638)"><ellipse cx="452.522" cy="-270.172" fill="none" rx="83.125" ry="17.583"/></g><g><g stroke-linecap="butt" stroke-miterlimit="1.45" font-family="sans-serif" shape-rendering="geometricPrecision" text-rendering="geometricPrecision"><text x="376.397" y="-265.637" stroke="none" transform="matrix(1,0,0,1,-188,638)" xml:space="preserve">gdx:Protocol-TermsOfUse</text></g></g></a></g><g id="y.node.4"><a target="_blank" xlink:href="https://geodex.org/voc/Protocol-ResourceSubmissionPolicy" xlink:show="new" xlink:type="simple"><g fill="#ff0" stroke="#ff0" shape-rendering="geometricPrecision" text-rendering="geometricPrecision" transform="matrix(1,0,0,1,-188,638)"><ellipse cx="493.714" cy="-318.376" stroke="none" rx="123.93" ry="18.5"/></g><g stroke-linecap="butt" stroke-miterlimit="1.45" shape-rendering="geometricPrecision" text-rendering="geometricPrecision" transform="matrix(1,0,0,1,-188,638)"><ellipse cx="493.714" cy="-318.376" fill="none" rx="123.93" ry="18.5"/></g><g><g stroke-linecap="butt" stroke-miterlimit="1.45" font-family="sans-serif" shape-rendering="geometricPrecision" text-rendering="geometricPrecision"><text x="376.785" y="-313.841" stroke="none" transform="matrix(1,0,0,1,-188,638)" xml:space="preserve">gdx:Protocol-ResourceSubmissionPolicy</text></g></g></a></g><g id="y.node.5"><a target="_blank" xlink:href="https://geodex.org/voc/Protocol-PreservationPolicy" xlink:show="new" xlink:type="simple"><g fill="#ff0" stroke="#ff0" shape-rendering="geometricPrecision" text-rendering="geometricPrecision" transform="matrix(1,0,0,1,-188,638)"><ellipse cx="463.8" cy="-367.498" stroke="none" rx="99.903" ry="18.5"/></g><g stroke-linecap="butt" stroke-miterlimit="1.45" shape-rendering="geometricPrecision" text-rendering="geometricPrecision" transform="matrix(1,0,0,1,-188,638)"><ellipse cx="463.8" cy="-367.498" fill="none" rx="99.903" ry="18.5"/></g><g><g stroke-linecap="butt" stroke-miterlimit="1.45" font-family="sans-serif" shape-rendering="geometricPrecision" text-rendering="geometricPrecision"><text x="370.897" y="-362.963" stroke="none" transform="matrix(1,0,0,1,-188,638)" xml:space="preserve">gdx:Protocol-PreservationPolicy</text></g></g></a></g><g id="y.node.6"><a target="_blank" xlink:href="https://geodex.org/voc/Protocol-Access" xlink:show="new" xlink:type="simple"><g fill="#ff0" stroke="#ff0" shape-rendering="geometricPrecision" text-rendering="geometricPrecision" transform="matrix(1,0,0,1,-188,638)"><ellipse cx="434.09" cy="-225.467" stroke="none" rx="67.193" ry="15"/></g><g stroke-linecap="butt" stroke-miterlimit="1.45" shape-rendering="geometricPrecision" text-rendering="geometricPrecision" transform="matrix(1,0,0,1,-188,638)"><ellipse cx="434.09" cy="-225.467" fill="none" rx="67.193" ry="15"/></g><g><g stroke-linecap="butt" stroke-miterlimit="1.45" font-family="sans-serif" shape-rendering="geometricPrecision" text-rendering="geometricPrecision"><text x="373.897" y="-220.932" stroke="none" transform="matrix(1,0,0,1,-188,638)" xml:space="preserve">gdx:Protocol-Access</text></g></g></a></g><g id="y.node.7"><a target="_blank" xlink:href="http://schema.org/Organization" xlink:show="new" xlink:type="simple"><g fill="#CFC" stroke="#CFC" shape-rendering="geometricPrecision" text-rendering="geometricPrecision" transform="matrix(1,0,0,1,-188,638)"><rect width="137.563" height="30" x="203.368" y="-598.188" stroke="none"/></g><g stroke-linecap="butt" stroke-miterlimit="1.45" shape-rendering="geometricPrecision" text-rendering="geometricPrecision" transform="matrix(1,0,0,1,-188,638)"><rect width="137.563" height="30" x="203.368" y="-598.188" fill="none"/></g><g><g stroke-linecap="butt" stroke-miterlimit="1.45" font-family="sans-serif" shape-rendering="geometricPrecision" text-rendering="geometricPrecision"><text x="210.368" y="-578.653" stroke="none" transform="matrix(1,0,0,1,-188,638)" xml:space="preserve">schema:Organization</text></g></g></a></g><g id="y.node.8"><a target="_blank" xlink:href="https://geodex.org/voc/ResearchRepositoryService" xlink:show="new" xlink:type="simple"><g fill="#FC0" stroke="#FC0" shape-rendering="geometricPrecision" text-rendering="geometricPrecision" transform="matrix(1,0,0,1,-188,638)"><rect width="194.791" height="30" x="744.857" y="-598.188" stroke="none"/></g><g stroke-linecap="butt" stroke-miterlimit="1.45" shape-rendering="geometricPrecision" text-rendering="geometricPrecision" transform="matrix(1,0,0,1,-188,638)"><rect width="194.791" height="30" x="744.857" y="-598.188" fill="none"/></g><g><g stroke-linecap="butt" stroke-miterlimit="1.45" font-family="sans-serif" shape-rendering="geometricPrecision" text-rendering="geometricPrecision"><text x="751.857" y="-578.653" stroke="none" transform="matrix(1,0,0,1,-188,638)" xml:space="preserve">gdx:ResearchRepositoryService</text></g></g></a></g><g id="y.edge.0"><g stroke-linecap="butt" stroke-miterlimit="1.45" shape-rendering="geometricPrecision" text-rendering="geometricPrecision"><path fill="none" d="M357.1679 -415.7028 L296.7012 -415.7028 L296.7012 -463.2815" transform="matrix(1,0,0,1,-188,638)"/><path stroke="none" d="M365.1679 -415.7028 L353.1679 -420.7028 L356.1679 -415.7028 L353.1679 -410.7028 Z" transform="matrix(1,0,0,1,-188,638)"/></g><g><g stroke-linecap="butt" stroke-miterlimit="1.45" font-family="sans-serif" shape-rendering="geometricPrecision" text-rendering="geometricPrecision"><text x="303.904" y="-444.368" stroke="none" transform="matrix(1,0,0,1,-188,638)" xml:space="preserve">schema:additionalType</text></g></g></g><g id="y.edge.2"><g stroke-linecap="butt" stroke-miterlimit="1.45" shape-rendering="geometricPrecision" text-rendering="geometricPrecision"><path fill="none" d="M361.3965 -270.1717 L296.7012 -270.1717 L296.7012 -463.2714" transform="matrix(1,0,0,1,-188,638)"/><path stroke="none" d="M369.3965 -270.1717 L357.3965 -275.1717 L360.3965 -270.1717 L357.3965 -265.1717 Z" transform="matrix(1,0,0,1,-188,638)"/></g></g><g id="y.edge.4"><g stroke-linecap="butt" stroke-miterlimit="1.45" shape-rendering="geometricPrecision" text-rendering="geometricPrecision"><path fill="none" d="M361.7579 -318.3763 L296.7012 -318.3763 L296.7012 -463.255" transform="matrix(1,0,0,1,-188,638)"/><path stroke="none" d="M369.7579 -318.3763 L357.7579 -323.3763 L360.7579 -318.3763 L357.7579 -313.3763 Z" transform="matrix(1,0,0,1,-188,638)"/></g></g><g id="y.edge.5"><g stroke-linecap="butt" stroke-miterlimit="1.45" shape-rendering="geometricPrecision" text-rendering="geometricPrecision"><path fill="none" d="M355.8965 -367.4982 L296.7012 -367.4982 L296.7012 -463.274" transform="matrix(1,0,0,1,-188,638)"/><path stroke="none" d="M363.8965 -367.4982 L351.8965 -372.4982 L354.8965 -367.4982 L351.8965 -362.4982 Z" transform="matrix(1,0,0,1,-188,638)"/></g></g><g id="y.edge.1"><g stroke-linecap="butt" stroke-miterlimit="1.45" shape-rendering="geometricPrecision" text-rendering="geometricPrecision"><path fill="none" d="M358.8965 -225.4671 L296.7012 -225.4671 L296.7012 -463.2559" transform="matrix(1,0,0,1,-188,638)"/><path stroke="none" d="M366.8965 -225.4671 L354.8965 -230.4671 L357.8965 -225.4671 L354.8965 -220.4671 Z" transform="matrix(1,0,0,1,-188,638)"/></g></g><g id="y.edge.3"><g stroke-linecap="butt" stroke-miterlimit="1.45" shape-rendering="geometricPrecision" text-rendering="geometricPrecision"><path fill="none" d="M498.6607 -585 L348.8958 -585" transform="matrix(1,0,0,1,-188,638)"/><path stroke="none" d="M340.8958 -585 L352.8958 -580 L349.8958 -585 L352.8958 -590 Z" transform="matrix(1,0,0,1,-188,638)"/></g><g><g stroke-linecap="butt" stroke-miterlimit="1.45" font-family="sans-serif" shape-rendering="geometricPrecision" text-rendering="geometricPrecision"><text x="367.157" y="-596.965" stroke="none" transform="matrix(1,0,0,1,-188,638)" xml:space="preserve">schema:provider</text></g></g></g><g id="y.edge.6"><g stroke-linecap="butt" stroke-miterlimit="1.45" shape-rendering="geometricPrecision" text-rendering="geometricPrecision"><path fill="none" d="M318.8004 -568.1772 L318.8004 -501.2808" transform="matrix(1,0,0,1,-188,638)"/><path stroke="none" d="M318.8004 -493.2808 L323.8004 -505.2808 L318.8004 -502.2808 L313.8004 -505.2808 Z" transform="matrix(1,0,0,1,-188,638)"/></g><g><g stroke-linecap="butt" stroke-miterlimit="1.45" font-family="sans-serif" shape-rendering="geometricPrecision" text-rendering="geometricPrecision"><text x="330.813" y="-514.965" stroke="none" transform="matrix(1,0,0,1,-188,638)" xml:space="preserve">schema:publishingPrinciples</text></g></g></g><g id="y.edge.7"><g stroke-linecap="butt" stroke-miterlimit="1.45" shape-rendering="geometricPrecision" text-rendering="geometricPrecision"><path fill="none" d="M601.2729 -583.1885 L736.8574 -583.1885" transform="matrix(1,0,0,1,-188,638)"/><path stroke="none" d="M744.8574 -583.1885 L732.8574 -588.1885 L735.8574 -583.1885 L732.8574 -578.1885 Z" transform="matrix(1,0,0,1,-188,638)"/></g><g><g stroke-linecap="butt" stroke-miterlimit="1.45" font-family="sans-serif" shape-rendering="geometricPrecision" text-rendering="geometricPrecision"><text x="605.97" y="-608.653" stroke="none" transform="matrix(1,0,0,1,-188,638)" xml:space="preserve">schema:additionalType</text></g></g></g></g></svg>