<svg xmlns="http://www.w3.org/2000/svg" xmlns:xlink="http://www.w3.org/1999/xlink" width="1003" height="503" fill="#000" fill-opacity="1" stroke="#000" stroke-dasharray="none" stroke-dashoffset="0" stroke-linecap="square" stroke-linejoin="miter" stroke-miterlimit="10" stroke-opacity="1" stroke-width="1" color-interpolation="auto" color-rendering="auto" font-family="'Dialog'" font-size="12" font-style="normal" font-weight="normal" image-rendering="auto" shape-rendering="auto" text-rendering="auto"><g><defs id="defs1"><clipPath id="clipPath1" clipPathUnits="userSpaceOnUse"><path d="M0 0 L1003 0 L1003 503 L0 503 L0 0 Z"/></clipPath><clipPath id="clipPath2" clipPathUnits="userSpaceOnUse"><path d="M188 -903 L1191 -903 L1191 -400 L188 -400 L188 -903 Z"/></clipPath></defs><g fill="#fff" stroke="#fff" shape-rendering="geometricPrecision" text-rendering="geometricPrecision" transform="translate(-188,903)"><rect width="1003" height="503" x="188" y="-903" stroke="none" clip-path="url(#clipPath2)"/></g><g id="y.node.0"><a target="_blank" xlink:href="http://schema.org/Organization" xlink:show="new" xlink:type="simple"><g fill="#CFC" stroke="#CFC" shape-rendering="geometricPrecision" text-rendering="geometricPrecision" transform="matrix(1,0,0,1,-188,903)"><rect width="137.563" height="30" x="463.147" y="-800.688" stroke="none"/></g><g stroke-linecap="butt" stroke-miterlimit="1.45" shape-rendering="geometricPrecision" text-rendering="geometricPrecision" transform="matrix(1,0,0,1,-188,903)"><rect width="137.563" height="30" x="463.147" y="-800.688" fill="none"/></g><g><g stroke-linecap="butt" stroke-miterlimit="1.45" font-family="sans-serif" shape-rendering="geometricPrecision" text-rendering="geometricPrecision"><text x="470.147" y="-781.153" stroke="none" transform="matrix(1,0,0,1,-188,903)" xml:space="preserve">schema:Organization</text></g></g></a></g><g id="y.node.1"><a target="_blank" xlink:href="http://schema.org/ContactPoint" xlink:show="new" xlink:type="simple"><g fill="#CFC" stroke="#CFC" shape-rendering="geometricPrecision" text-rendering="geometricPrecision" transform="matrix(1,0,0,1,-188,903)"><rect width="136.303" height="30" x="560.106" y="-675.785" stroke="none"/></g><g stroke-linecap="butt" stroke-miterlimit="1.45" shape-rendering="geometricPrecision" text-rendering="geometricPrecision" transform="matrix(1,0,0,1,-188,903)"><rect width="136.303" height="30" x="560.106" y="-675.785" fill="none"/></g><g><g stroke-linecap="butt" stroke-miterlimit="1.45" font-family="sans-serif" shape-rendering="geometricPrecision" text-rendering="geometricPrecision"><text x="567.106" y="-656.25" stroke="none" transform="matrix(1,0,0,1,-188,903)" xml:space="preserve">schema:ContactPoint</text></g></g></a></g><g id="y.node.2"><a target="_blank" xlink:href="https://geodex.org/voc/ResearchRepositoryService" xlink:show="new" xlink:type="simple"><g fill="#FC0" stroke="#FC0" shape-rendering="geometricPrecision" text-rendering="geometricPrecision" transform="matrix(1,0,0,1,-188,903)"><rect width="194.791" height="30" x="980.357" y="-800.688" stroke="none"/></g><g stroke-linecap="butt" stroke-miterlimit="1.45" shape-rendering="geometricPrecision" text-rendering="geometricPrecision" transform="matrix(1,0,0,1,-188,903)"><rect width="194.791" height="30" x="980.357" y="-800.688" fill="none"/></g><g><g stroke-linecap="butt" stroke-miterlimit="1.45" font-family="sans-serif" shape-rendering="geometricPrecision" text-rendering="geometricPrecision"><text x="987.357" y="-781.153" stroke="none" transform="matrix(1,0,0,1,-188,903)" xml:space="preserve">gdx:ResearchRepositoryService</text></g></g></a></g><g id="y.node.3"><a target="_blank" xlink:href="http://schema.geolink.org/1.0/base/main#Organization" xlink:show="new" xlink:type="simple"><g fill="#FC0" stroke="#FC0" shape-rendering="geometricPrecision" text-rendering="geometricPrecision" transform="matrix(1,0,0,1,-188,903)"><rect width="136.273" height="30" x="581.792" y="-887.193" stroke="none"/></g><g stroke-linecap="butt" stroke-miterlimit="1.45" shape-rendering="geometricPrecision" text-rendering="geometricPrecision" transform="matrix(1,0,0,1,-188,903)"><rect width="136.273" height="30" x="581.792" y="-887.193" fill="none"/></g><g><g stroke-linecap="butt" stroke-miterlimit="1.45" font-family="sans-serif" shape-rendering="geometricPrecision" text-rendering="geometricPrecision"><text x="588.792" y="-867.658" stroke="none" transform="matrix(1,0,0,1,-188,903)" xml:space="preserve">geolink:Organization</text></g></g></a></g><g id="y.node.4"><g fill="#0CF" stroke="#0CF" shape-rendering="geometricPrecision" text-rendering="geometricPrecision" transform="matrix(1,0,0,1,-188,903)"><ellipse cx="298.778" cy="-761.868" stroke="none" rx="20.061" ry="15"/></g><g stroke-linecap="butt" stroke-miterlimit="1.45" shape-rendering="geometricPrecision" text-rendering="geometricPrecision" transform="matrix(1,0,0,1,-188,903)"><ellipse cx="298.778" cy="-761.868" fill="none" rx="20.061" ry="15"/></g><g><g stroke-linecap="butt" stroke-miterlimit="1.45" font-family="sans-serif" shape-rendering="geometricPrecision" text-rendering="geometricPrecision"><text x="285.718" y="-757.333" stroke="none" transform="matrix(1,0,0,1,-188,903)" xml:space="preserve">Text</text></g></g></g><g id="y.node.5"><g fill="#0CF" stroke="#0CF" shape-rendering="geometricPrecision" text-rendering="geometricPrecision" transform="matrix(1,0,0,1,-188,903)"><ellipse cx="298.778" cy="-796.868" stroke="none" rx="18.15" ry="15"/></g><g stroke-linecap="butt" stroke-miterlimit="1.45" shape-rendering="geometricPrecision" text-rendering="geometricPrecision" transform="matrix(1,0,0,1,-188,903)"><ellipse cx="298.778" cy="-796.868" fill="none" rx="18.15" ry="15"/></g><g><g stroke-linecap="butt" stroke-miterlimit="1.45" font-family="sans-serif" shape-rendering="geometricPrecision" text-rendering="geometricPrecision"><text x="287.628" y="-792.333" stroke="none" transform="matrix(1,0,0,1,-188,903)" xml:space="preserve">URL</text></g></g></g><g id="y.node.6"><a target="_blank" xlink:href="http://schema.org/ImageObject" xlink:show="new" xlink:type="simple"><g fill="#CFC" stroke="#CFC" shape-rendering="geometricPrecision" text-rendering="geometricPrecision" transform="matrix(1,0,0,1,-188,903)"><rect width="135.324" height="30" x="240.531" y="-697.576" stroke="none"/></g><g stroke-linecap="butt" stroke-miterlimit="1.45" shape-rendering="geometricPrecision" text-rendering="geometricPrecision" transform="matrix(1,0,0,1,-188,903)"><rect width="135.324" height="30" x="240.531" y="-697.576" fill="none"/></g><g><g stroke-linecap="butt" stroke-miterlimit="1.45" font-family="sans-serif" shape-rendering="geometricPrecision" text-rendering="geometricPrecision"><text x="247.531" y="-678.041" stroke="none" transform="matrix(1,0,0,1,-188,903)" xml:space="preserve">schema:ImageObject</text></g></g></a></g><g id="y.node.7"><g fill="#0CF" stroke="#0CF" shape-rendering="geometricPrecision" text-rendering="geometricPrecision" transform="matrix(1,0,0,1,-188,903)"><ellipse cx="267.906" cy="-613.877" stroke="none" rx="18.15" ry="15"/></g><g stroke-linecap="butt" stroke-miterlimit="1.45" shape-rendering="geometricPrecision" text-rendering="geometricPrecision" transform="matrix(1,0,0,1,-188,903)"><ellipse cx="267.906" cy="-613.877" fill="none" rx="18.15" ry="15"/></g><g><g stroke-linecap="butt" stroke-miterlimit="1.45" font-family="sans-serif" shape-rendering="geometricPrecision" text-rendering="geometricPrecision"><text x="256.755" y="-609.342" stroke="none" transform="matrix(1,0,0,1,-188,903)" xml:space="preserve">URL</text></g></g></g><g id="y.node.8"><a target="_blank" xlink:href="http://schema.org/Address" xlink:show="new" xlink:type="simple"><g fill="#CFC" stroke="#CFC" shape-rendering="geometricPrecision" text-rendering="geometricPrecision" transform="matrix(1,0,0,1,-188,903)"><rect width="109.238" height="30" x="328.606" y="-628.877" stroke="none"/></g><g stroke-linecap="butt" stroke-miterlimit="1.45" shape-rendering="geometricPrecision" text-rendering="geometricPrecision" transform="matrix(1,0,0,1,-188,903)"><rect width="109.238" height="30" x="328.606" y="-628.877" fill="none"/></g><g><g stroke-linecap="butt" stroke-miterlimit="1.45" font-family="sans-serif" shape-rendering="geometricPrecision" text-rendering="geometricPrecision"><text x="335.606" y="-609.342" stroke="none" transform="matrix(1,0,0,1,-188,903)" xml:space="preserve">schema:Address</text></g></g></a></g><g id="y.node.9"><g fill="#0CF" stroke="#0CF" shape-rendering="geometricPrecision" text-rendering="geometricPrecision" transform="matrix(1,0,0,1,-188,903)"><ellipse cx="905.487" cy="-573.281" stroke="none" rx="63.285" ry="15"/></g><g stroke-linecap="butt" stroke-miterlimit="1.45" shape-rendering="geometricPrecision" text-rendering="geometricPrecision" transform="matrix(1,0,0,1,-188,903)"><ellipse cx="905.487" cy="-573.281" fill="none" rx="63.285" ry="15"/></g><g><g stroke-linecap="butt" stroke-miterlimit="1.45" font-family="sans-serif" shape-rendering="geometricPrecision" text-rendering="geometricPrecision"><text x="849.202" y="-568.746" stroke="none" transform="matrix(1,0,0,1,-188,903)" xml:space="preserve">&quot;customer support&quot;</text></g></g></g><g id="y.node.10"><g fill="#0CF" stroke="#0CF" shape-rendering="geometricPrecision" text-rendering="geometricPrecision" transform="matrix(1,0,0,1,-188,903)"><ellipse cx="777.795" cy="-613.877" stroke="none" rx="18.15" ry="15"/></g><g stroke-linecap="butt" stroke-miterlimit="1.45" shape-rendering="geometricPrecision" text-rendering="geometricPrecision" transform="matrix(1,0,0,1,-188,903)"><ellipse cx="777.795" cy="-613.877" fill="none" rx="18.15" ry="15"/></g><g><g stroke-linecap="butt" stroke-miterlimit="1.45" font-family="sans-serif" shape-rendering="geometricPrecision" text-rendering="geometricPrecision"><text x="766.644" y="-609.342" stroke="none" transform="matrix(1,0,0,1,-188,903)" xml:space="preserve">URL</text></g></g></g><g id="y.node.11"><g fill="#0CF" stroke="#0CF" shape-rendering="geometricPrecision" text-rendering="geometricPrecision" transform="matrix(1,0,0,1,-188,903)"><ellipse cx="777.795" cy="-530.383" stroke="none" rx="20.061" ry="15"/></g><g stroke-linecap="butt" stroke-miterlimit="1.45" shape-rendering="geometricPrecision" text-rendering="geometricPrecision" transform="matrix(1,0,0,1,-188,903)"><ellipse cx="777.795" cy="-530.383" fill="none" rx="20.061" ry="15"/></g><g><g stroke-linecap="butt" stroke-miterlimit="1.45" font-family="sans-serif" shape-rendering="geometricPrecision" text-rendering="geometricPrecision"><text x="764.734" y="-525.847" stroke="none" transform="matrix(1,0,0,1,-188,903)" xml:space="preserve">Text</text></g></g></g><g id="y.node.12"><g fill="#0CF" stroke="#0CF" shape-rendering="geometricPrecision" text-rendering="geometricPrecision" transform="matrix(1,0,0,1,-188,903)"><ellipse cx="286.151" cy="-480.882" stroke="none" rx="45.619" ry="20.5"/></g><g stroke-linecap="butt" stroke-miterlimit="1.45" shape-rendering="geometricPrecision" text-rendering="geometricPrecision" transform="matrix(1,0,0,1,-188,903)"><ellipse cx="286.151" cy="-480.882" fill="none" rx="45.619" ry="20.5"/></g><g><g stroke-linecap="butt" stroke-miterlimit="1.45" font-family="sans-serif" shape-rendering="geometricPrecision" text-rendering="geometricPrecision"><text x="247.531" y="-476.347" stroke="none" transform="matrix(1,0,0,1,-188,903)" xml:space="preserve">&quot;datacite:doi&quot;</text></g></g></g><g id="y.node.13"><g fill="#0CF" stroke="#0CF" shape-rendering="geometricPrecision" text-rendering="geometricPrecision" transform="matrix(1,0,0,1,-188,903)"><ellipse cx="553.629" cy="-460.777" stroke="none" rx="18.15" ry="15"/></g><g stroke-linecap="butt" stroke-miterlimit="1.45" shape-rendering="geometricPrecision" text-rendering="geometricPrecision" transform="matrix(1,0,0,1,-188,903)"><ellipse cx="553.629" cy="-460.777" fill="none" rx="18.15" ry="15"/></g><g><g stroke-linecap="butt" stroke-miterlimit="1.45" font-family="sans-serif" shape-rendering="geometricPrecision" text-rendering="geometricPrecision"><text x="542.478" y="-456.241" stroke="none" transform="matrix(1,0,0,1,-188,903)" xml:space="preserve">URL</text></g></g></g><g id="y.node.14"><g fill="#0CF" stroke="#0CF" shape-rendering="geometricPrecision" text-rendering="geometricPrecision" transform="matrix(1,0,0,1,-188,903)"><ellipse cx="367.574" cy="-443.3" stroke="none" rx="20.061" ry="15"/></g><g stroke-linecap="butt" stroke-miterlimit="1.45" shape-rendering="geometricPrecision" text-rendering="geometricPrecision" transform="matrix(1,0,0,1,-188,903)"><ellipse cx="367.574" cy="-443.3" fill="none" rx="20.061" ry="15"/></g><g><g stroke-linecap="butt" stroke-miterlimit="1.45" font-family="sans-serif" shape-rendering="geometricPrecision" text-rendering="geometricPrecision"><text x="355.513" y="-438.765" stroke="none" transform="matrix(1,0,0,1,-188,903)" xml:space="preserve">Text</text></g></g></g><g id="y.node.15"><a target="_blank" xlink:href="https://schema.org/PropertyValue" xlink:show="new" xlink:type="simple"><g fill="#CFC" stroke="#CFC" shape-rendering="geometricPrecision" text-rendering="geometricPrecision" transform="matrix(1,0,0,1,-188,903)"><rect width="142.918" height="30" x="415.785" y="-550.883" stroke="none"/></g><g stroke-linecap="butt" stroke-miterlimit="1.45" shape-rendering="geometricPrecision" text-rendering="geometricPrecision" transform="matrix(1,0,0,1,-188,903)"><rect width="142.918" height="30" x="415.785" y="-550.883" fill="none"/></g><g><g stroke-linecap="butt" stroke-miterlimit="1.45" font-family="sans-serif" shape-rendering="geometricPrecision" text-rendering="geometricPrecision"><text x="422.785" y="-531.347" stroke="none" transform="matrix(1,0,0,1,-188,903)" xml:space="preserve">schema:PropertyValue</text></g></g></a></g><g id="y.node.16"><a target="_blank" xlink:href="http://www.sparontologies.net/ontologies/datacite/source.html#Identifier" xlink:show="new" xlink:type="simple"><g fill="#FC0" stroke="#FC0" shape-rendering="geometricPrecision" text-rendering="geometricPrecision" transform="matrix(1,0,0,1,-188,903)"><rect width="146.826" height="41" x="203.302" y="-556.383" stroke="none"/></g><g stroke-linecap="butt" stroke-miterlimit="1.45" shape-rendering="geometricPrecision" text-rendering="geometricPrecision" transform="matrix(1,0,0,1,-188,903)"><rect width="146.826" height="41" x="203.302" y="-556.383" fill="none"/></g><g><g stroke-linecap="butt" stroke-miterlimit="1.45" font-family="sans-serif" shape-rendering="geometricPrecision" text-rendering="geometricPrecision"><text x="223.588" y="-538.414" stroke="none" transform="matrix(1,0,0,1,-188,903)" xml:space="preserve">datacite:Identifier,</text><text x="227.06" y="-524.281" stroke="none" transform="matrix(1,0,0,1,-188,903)" xml:space="preserve">geolink:Identifier</text></g></g></a></g><g id="y.node.17"><a target="_blank" xlink:href="http://schema.org/Service" xlink:show="new" xlink:type="simple"><g fill="#CFC" stroke="#CFC" shape-rendering="geometricPrecision" text-rendering="geometricPrecision" transform="matrix(1,0,0,1,-188,903)"><rect width="102.594" height="30" x="759.644" y="-798.036" stroke="none"/></g><g stroke-linecap="butt" stroke-miterlimit="1.45" shape-rendering="geometricPrecision" text-rendering="geometricPrecision" transform="matrix(1,0,0,1,-188,903)"><rect width="102.594" height="30" x="759.644" y="-798.036" fill="none"/></g><g><g stroke-linecap="butt" stroke-miterlimit="1.45" font-family="sans-serif" shape-rendering="geometricPrecision" text-rendering="geometricPrecision"><text x="766.644" y="-778.501" stroke="none" transform="matrix(1,0,0,1,-188,903)" xml:space="preserve">schema:Service</text></g></g></a></g><g id="y.node.18"><g fill="#0CF" stroke="#0CF" shape-rendering="geometricPrecision" text-rendering="geometricPrecision" transform="matrix(1,0,0,1,-188,903)"><ellipse cx="1018.424" cy="-686.459" stroke="none" rx="20.061" ry="15"/></g><g stroke-linecap="butt" stroke-miterlimit="1.45" shape-rendering="geometricPrecision" text-rendering="geometricPrecision" transform="matrix(1,0,0,1,-188,903)"><ellipse cx="1018.424" cy="-686.459" fill="none" rx="20.061" ry="15"/></g><g><g stroke-linecap="butt" stroke-miterlimit="1.45" font-family="sans-serif" shape-rendering="geometricPrecision" text-rendering="geometricPrecision"><text x="1005.364" y="-681.924" stroke="none" transform="matrix(1,0,0,1,-188,903)" xml:space="preserve">Text</text></g></g></g><g id="y.node.19"><g fill="#0CF" stroke="#0CF" shape-rendering="geometricPrecision" text-rendering="geometricPrecision" transform="matrix(1,0,0,1,-188,903)"><ellipse cx="1018.424" cy="-644.459" stroke="none" rx="18.15" ry="15"/></g><g stroke-linecap="butt" stroke-miterlimit="1.45" shape-rendering="geometricPrecision" text-rendering="geometricPrecision" transform="matrix(1,0,0,1,-188,903)"><ellipse cx="1018.424" cy="-644.459" fill="none" rx="18.15" ry="15"/></g><g><g stroke-linecap="butt" stroke-miterlimit="1.45" font-family="sans-serif" shape-rendering="geometricPrecision" text-rendering="geometricPrecision"><text x="1007.274" y="-639.924" stroke="none" transform="matrix(1,0,0,1,-188,903)" xml:space="preserve">URL</text></g></g></g><g id="y.edge.8"><g stroke-linecap="butt" stroke-miterlimit="1.45" shape-rendering="geometricPrecision" text-rendering="geometricPrecision"><path fill="none" d="M485.5 -800.7067 L485.5 -851.8333 L542.5 -851.8333 L542.5 -808.6663" transform="matrix(1,0,0,1,-188,903)"/><path stroke="none" d="M542.5 -800.6663 L547.5 -812.6663 L542.5 -809.6663 L537.5 -812.6663 Z" transform="matrix(1,0,0,1,-188,903)"/></g><g><g stroke-linecap="butt" stroke-miterlimit="1.45" font-family="sans-serif" shape-rendering="geometricPrecision" text-rendering="geometricPrecision"><text x="403.863" y="-860.298" stroke="none" transform="matrix(1,0,0,1,-188,903)" xml:space="preserve">schema:parentOrganization</text></g></g></g><g id="y.edge.1"><g stroke-linecap="butt" stroke-miterlimit="1.45" shape-rendering="geometricPrecision" text-rendering="geometricPrecision"><path fill="none" d="M579.2407 -770.716 L579.2407 -683.7882" transform="matrix(1,0,0,1,-188,903)"/><path stroke="none" d="M579.2407 -675.7882 L584.2407 -687.7882 L579.2407 -684.7882 L574.2407 -687.7882 Z" transform="matrix(1,0,0,1,-188,903)"/></g><g><g stroke-linecap="butt" stroke-miterlimit="1.45" font-family="sans-serif" shape-rendering="geometricPrecision" text-rendering="geometricPrecision"><text x="585.318" y="-692.202" stroke="none" transform="matrix(1,0,0,1,-188,903)" xml:space="preserve">schema:contactPoint</text></g></g></g><g id="y.edge.3"><g stroke-linecap="butt" stroke-miterlimit="1.45" shape-rendering="geometricPrecision" text-rendering="geometricPrecision"><path fill="none" d="M590.9286 -800.6832 L590.9286 -849.2139" transform="matrix(1,0,0,1,-188,903)"/><path stroke="none" d="M590.9286 -857.2139 L585.9286 -845.2139 L590.9286 -848.2139 L595.9286 -845.2139 Z" transform="matrix(1,0,0,1,-188,903)"/></g><g><g stroke-linecap="butt" stroke-miterlimit="1.45" font-family="sans-serif" shape-rendering="geometricPrecision" text-rendering="geometricPrecision"><text x="605.619" y="-838.592" stroke="none" transform="matrix(1,0,0,1,-188,903)" xml:space="preserve">schema:additionalType</text></g></g></g><g id="y.edge.4"><g stroke-linecap="butt" stroke-miterlimit="1.45" shape-rendering="geometricPrecision" text-rendering="geometricPrecision"><path fill="none" d="M463.1006 -781.8681 L437.5 -781.8681 L437.5 -761.8681 L326.8387 -761.8681" transform="matrix(1,0,0,1,-188,903)"/><path stroke="none" d="M318.8387 -761.8681 L330.8387 -756.8681 L327.8387 -761.8681 L330.8387 -766.8681 Z" transform="matrix(1,0,0,1,-188,903)"/></g><g><g stroke-linecap="butt" stroke-miterlimit="1.45" font-family="sans-serif" shape-rendering="geometricPrecision" text-rendering="geometricPrecision"><text x="351.218" y="-749.476" stroke="none" transform="matrix(1,0,0,1,-188,903)" xml:space="preserve">schema:legalName,</text><text x="351.218" y="-735.343" stroke="none" transform="matrix(1,0,0,1,-188,903)" xml:space="preserve">schema:name,</text><text x="351.218" y="-721.21" stroke="none" transform="matrix(1,0,0,1,-188,903)" xml:space="preserve">schema:description</text></g></g></g><g id="y.edge.5"><g stroke-linecap="butt" stroke-miterlimit="1.45" shape-rendering="geometricPrecision" text-rendering="geometricPrecision"><path fill="none" d="M463.1868 -796.8681 L324.9285 -796.8681" transform="matrix(1,0,0,1,-188,903)"/><path stroke="none" d="M316.9285 -796.8681 L328.9285 -791.8681 L325.9285 -796.8681 L328.9285 -801.8681 Z" transform="matrix(1,0,0,1,-188,903)"/></g><g><g stroke-linecap="butt" stroke-miterlimit="1.45" font-family="sans-serif" shape-rendering="geometricPrecision" text-rendering="geometricPrecision"><text x="331.382" y="-820.399" stroke="none" transform="matrix(1,0,0,1,-188,903)" xml:space="preserve">schema:url,</text><text x="331.382" y="-806.266" stroke="none" transform="matrix(1,0,0,1,-188,903)" xml:space="preserve">schema:sameAs</text></g></g></g><g id="y.edge.6"><g stroke-linecap="butt" stroke-miterlimit="1.45" shape-rendering="geometricPrecision" text-rendering="geometricPrecision"><path fill="none" d="M475.5 -770.71 L475.5 -682.5757 L383.8557 -682.5757" transform="matrix(1,0,0,1,-188,903)"/><path stroke="none" d="M375.8557 -682.5757 L387.8557 -677.5757 L384.8557 -682.5757 L387.8557 -687.5757 Z" transform="matrix(1,0,0,1,-188,903)"/></g><g><g stroke-linecap="butt" stroke-miterlimit="1.45" font-family="sans-serif" shape-rendering="geometricPrecision" text-rendering="geometricPrecision"><text x="395.642" y="-688.965" stroke="none" transform="matrix(1,0,0,1,-188,903)" xml:space="preserve">schema:logo</text></g></g></g><g id="y.edge.7"><g stroke-linecap="butt" stroke-miterlimit="1.45" shape-rendering="geometricPrecision" text-rendering="geometricPrecision"><path fill="none" d="M267.9059 -667.5815 L267.9059 -636.877" transform="matrix(1,0,0,1,-188,903)"/><path stroke="none" d="M267.9059 -628.877 L272.9059 -640.877 L267.9059 -637.877 L262.9059 -640.877 Z" transform="matrix(1,0,0,1,-188,903)"/></g><g><g stroke-linecap="butt" stroke-miterlimit="1.45" font-family="sans-serif" shape-rendering="geometricPrecision" text-rendering="geometricPrecision"><text x="274.575" y="-647.965" stroke="none" transform="matrix(1,0,0,1,-188,903)" xml:space="preserve">schema:url</text></g></g></g><g id="y.edge.9"><g stroke-linecap="butt" stroke-miterlimit="1.45" shape-rendering="geometricPrecision" text-rendering="geometricPrecision"><path fill="none" d="M517.7845 -770.7137 L517.7845 -613.877 L445.8443 -613.877" transform="matrix(1,0,0,1,-188,903)"/><path stroke="none" d="M437.8443 -613.877 L449.8443 -608.877 L446.8443 -613.877 L449.8443 -618.877 Z" transform="matrix(1,0,0,1,-188,903)"/></g><g><g stroke-linecap="butt" stroke-miterlimit="1.45" font-family="sans-serif" shape-rendering="geometricPrecision" text-rendering="geometricPrecision"><text x="416.078" y="-633.838" stroke="none" transform="matrix(1,0,0,1,-188,903)" xml:space="preserve">schema:address</text></g></g></g><g id="y.edge.10"><g stroke-linecap="butt" stroke-miterlimit="1.45" shape-rendering="geometricPrecision" text-rendering="geometricPrecision"><path fill="none" d="M655.3266 -645.7883 L655.3266 -573.2808 L834.2024 -573.2808" transform="matrix(1,0,0,1,-188,903)"/><path stroke="none" d="M842.2024 -573.2808 L830.2024 -578.2808 L833.2024 -573.2808 L830.2024 -568.2808 Z" transform="matrix(1,0,0,1,-188,903)"/></g><g><g stroke-linecap="butt" stroke-miterlimit="1.45" font-family="sans-serif" shape-rendering="geometricPrecision" text-rendering="geometricPrecision"><text x="664.5" y="-580.78" stroke="none" transform="matrix(1,0,0,1,-188,903)" xml:space="preserve">schema:contactType</text></g></g></g><g id="y.edge.11"><g stroke-linecap="butt" stroke-miterlimit="1.45" shape-rendering="geometricPrecision" text-rendering="geometricPrecision"><path fill="none" d="M680.7946 -645.8059 L680.7946 -613.877 L751.6442 -613.877" transform="matrix(1,0,0,1,-188,903)"/><path stroke="none" d="M759.6442 -613.877 L747.6442 -618.877 L750.6442 -613.877 L747.6442 -608.877 Z" transform="matrix(1,0,0,1,-188,903)"/></g><g><g stroke-linecap="butt" stroke-miterlimit="1.45" font-family="sans-serif" shape-rendering="geometricPrecision" text-rendering="geometricPrecision"><text x="688.809" y="-621.104" stroke="none" transform="matrix(1,0,0,1,-188,903)" xml:space="preserve">schema:url</text></g></g></g><g id="y.edge.12"><g stroke-linecap="butt" stroke-miterlimit="1.45" shape-rendering="geometricPrecision" text-rendering="geometricPrecision"><path fill="none" d="M628.2574 -645.7855 L628.2574 -530.3825 L749.734 -530.3825" transform="matrix(1,0,0,1,-188,903)"/><path stroke="none" d="M757.734 -530.3825 L745.734 -535.3825 L748.734 -530.3825 L745.734 -525.3825 Z" transform="matrix(1,0,0,1,-188,903)"/></g><g><g stroke-linecap="butt" stroke-miterlimit="1.45" font-family="sans-serif" shape-rendering="geometricPrecision" text-rendering="geometricPrecision"><text x="633.212" y="-549.644" stroke="none" transform="matrix(1,0,0,1,-188,903)" xml:space="preserve">schema:name,</text><text x="633.212" y="-535.511" stroke="none" transform="matrix(1,0,0,1,-188,903)" xml:space="preserve">schema:email</text></g></g></g><g id="y.edge.17"><g stroke-linecap="butt" stroke-miterlimit="1.45" shape-rendering="geometricPrecision" text-rendering="geometricPrecision"><path fill="none" d="M546.7578 -770.716 L546.7578 -558.8749" transform="matrix(1,0,0,1,-188,903)"/><path stroke="none" d="M546.7578 -550.8749 L551.7578 -562.8749 L546.7578 -559.8749 L541.7578 -562.8749 Z" transform="matrix(1,0,0,1,-188,903)"/></g><g><g stroke-linecap="butt" stroke-miterlimit="1.45" font-family="sans-serif" shape-rendering="geometricPrecision" text-rendering="geometricPrecision"><text x="426.255" y="-566.965" stroke="none" transform="matrix(1,0,0,1,-188,903)" xml:space="preserve">schema:identifier</text></g></g></g><g id="y.edge.14"><g stroke-linecap="butt" stroke-miterlimit="1.45" shape-rendering="geometricPrecision" text-rendering="geometricPrecision"><path fill="none" d="M487.2438 -520.8825 L487.2438 -480.8825 L339.7748 -480.8825" transform="matrix(1,0,0,1,-188,903)"/><path stroke="none" d="M331.7748 -480.8825 L343.7748 -475.8825 L340.7748 -480.8825 L343.7748 -485.8825 Z" transform="matrix(1,0,0,1,-188,903)"/></g><g><g stroke-linecap="butt" stroke-miterlimit="1.45" font-family="sans-serif" shape-rendering="geometricPrecision" text-rendering="geometricPrecision"><text x="370.285" y="-485.792" stroke="none" transform="matrix(1,0,0,1,-188,903)" xml:space="preserve">schema:propertyID</text></g></g></g><g id="y.edge.15"><g stroke-linecap="butt" stroke-miterlimit="1.45" shape-rendering="geometricPrecision" text-rendering="geometricPrecision"><path fill="none" d="M549.5101 -520.8833 L549.5101 -483.363" transform="matrix(1,0,0,1,-188,903)"/><path stroke="none" d="M549.5101 -475.363 L554.5101 -487.363 L549.5101 -484.363 L544.5101 -487.363 Z" transform="matrix(1,0,0,1,-188,903)"/></g><g><g stroke-linecap="butt" stroke-miterlimit="1.45" font-family="sans-serif" shape-rendering="geometricPrecision" text-rendering="geometricPrecision"><text x="516.644" y="-420.33" stroke="none" transform="matrix(1,0,0,1,-188,903)" xml:space="preserve">schema:url</text></g></g></g><g id="y.edge.16"><g stroke-linecap="butt" stroke-miterlimit="1.45" shape-rendering="geometricPrecision" text-rendering="geometricPrecision"><path fill="none" d="M502.9546 -520.9192 L502.9546 -443.2998 L395.6342 -443.2998" transform="matrix(1,0,0,1,-188,903)"/><path stroke="none" d="M387.6342 -443.2998 L399.6342 -438.2998 L396.6342 -443.2998 L399.6342 -448.2998 Z" transform="matrix(1,0,0,1,-188,903)"/></g><g><g stroke-linecap="butt" stroke-miterlimit="1.45" font-family="sans-serif" shape-rendering="geometricPrecision" text-rendering="geometricPrecision"><text x="417.691" y="-428.186" stroke="none" transform="matrix(1,0,0,1,-188,903)" xml:space="preserve">schema:value</text></g></g></g><g id="y.edge.13"><g stroke-linecap="butt" stroke-miterlimit="1.45" shape-rendering="geometricPrecision" text-rendering="geometricPrecision"><path fill="none" d="M415.7454 -535.8825 L358.1576 -535.8825" transform="matrix(1,0,0,1,-188,903)"/><path stroke="none" d="M350.1576 -535.8825 L362.1576 -530.8825 L359.1576 -535.8825 L362.1576 -540.8825 Z" transform="matrix(1,0,0,1,-188,903)"/></g><g><g stroke-linecap="butt" stroke-miterlimit="1.45" font-family="sans-serif" shape-rendering="geometricPrecision" text-rendering="geometricPrecision"><text x="270.686" y="-565.656" stroke="none" transform="matrix(1,0,0,1,-188,903)" xml:space="preserve">schema:additionalType</text></g></g></g><g id="y.edge.0"><g stroke-linecap="butt" stroke-miterlimit="1.45" shape-rendering="geometricPrecision" text-rendering="geometricPrecision"><path fill="none" d="M759.6225 -787.5 L608.6868 -787.5" transform="matrix(1,0,0,1,-188,903)"/><path stroke="none" d="M600.6868 -787.5 L612.6868 -782.5 L609.6868 -787.5 L612.6868 -792.5 Z" transform="matrix(1,0,0,1,-188,903)"/></g><g><g stroke-linecap="butt" stroke-miterlimit="1.45" font-family="sans-serif" shape-rendering="geometricPrecision" text-rendering="geometricPrecision"><text x="624.365" y="-795.965" stroke="none" transform="matrix(1,0,0,1,-188,903)" xml:space="preserve">schema:provider</text></g></g></g><g id="y.edge.2"><g stroke-linecap="butt" stroke-miterlimit="1.45" shape-rendering="geometricPrecision" text-rendering="geometricPrecision"><path fill="none" d="M862.2562 -785.6885 L972.3574 -785.6885" transform="matrix(1,0,0,1,-188,903)"/><path stroke="none" d="M980.3574 -785.6885 L968.3574 -790.6885 L971.3574 -785.6885 L968.3574 -780.6885 Z" transform="matrix(1,0,0,1,-188,903)"/></g><g><g stroke-linecap="butt" stroke-miterlimit="1.45" font-family="sans-serif" shape-rendering="geometricPrecision" text-rendering="geometricPrecision"><text x="854.202" y="-811.153" stroke="none" transform="matrix(1,0,0,1,-188,903)" xml:space="preserve">schema:additionalType</text></g></g></g><g id="y.edge.18"><g stroke-linecap="butt" stroke-miterlimit="1.45" shape-rendering="geometricPrecision" text-rendering="geometricPrecision"><path fill="none" d="M810.941 -768.0358 L810.941 -686.4592 L990.3638 -686.4592" transform="matrix(1,0,0,1,-188,903)"/><path stroke="none" d="M998.3638 -686.4592 L986.3638 -691.4592 L989.3638 -686.4592 L986.3638 -681.4592 Z" transform="matrix(1,0,0,1,-188,903)"/></g><g><g stroke-linecap="butt" stroke-miterlimit="1.45" font-family="sans-serif" shape-rendering="geometricPrecision" text-rendering="geometricPrecision"><text x="835.189" y="-730.742" stroke="none" transform="matrix(1,0,0,1,-188,903)" xml:space="preserve">schema:name,</text><text x="835.189" y="-716.609" stroke="none" transform="matrix(1,0,0,1,-188,903)" xml:space="preserve">schema:description,</text><text x="835.189" y="-702.476" stroke="none" transform="matrix(1,0,0,1,-188,903)" xml:space="preserve">schema:category</text></g></g></g><g id="y.edge.19"><g stroke-linecap="butt" stroke-miterlimit="1.45" shape-rendering="geometricPrecision" text-rendering="geometricPrecision"><path fill="none" d="M782.965 -768.0482 L782.965 -644.4592 L992.2739 -644.4592" transform="matrix(1,0,0,1,-188,903)"/><path stroke="none" d="M1000.2739 -644.4592 L988.2739 -649.4592 L991.2739 -644.4592 L988.2739 -639.4592 Z" transform="matrix(1,0,0,1,-188,903)"/></g><g><g stroke-linecap="butt" stroke-miterlimit="1.45" font-family="sans-serif" shape-rendering="geometricPrecision" text-rendering="geometricPrecision"><text x="854.606" y="-665.311" stroke="none" transform="matrix(1,0,0,1,-188,903)" xml:space="preserve">schema:url,</text><text x="854.606" y="-651.178" stroke="none" transform="matrix(1,0,0,1,-188,903)" xml:space="preserve">schema:sameAs</text></g></g></g></g></svg>