<svg xmlns="http://www.w3.org/2000/svg" xmlns:xlink="http://www.w3.org/1999/xlink" width="794" height="538" fill="#000" fill-opacity="1" stroke="#000" stroke-dasharray="none" stroke-dashoffset="0" stroke-linecap="square" stroke-linejoin="miter" stroke-miterlimit="10" stroke-opacity="1" stroke-width="1" color-interpolation="auto" color-rendering="auto" font-family="'Dialog'" font-size="12" font-style="normal" font-weight="normal" image-rendering="auto" shape-rendering="auto" text-rendering="auto"><g><defs id="defs1"><clipPath id="clipPath1" clipPathUnits="userSpaceOnUse"><path d="M0 0 L794 0 L794 538 L0 538 L0 0 Z"/></clipPath><clipPath id="clipPath2" clipPathUnits="userSpaceOnUse"><path d="M184 -500 L978 -500 L978 38 L184 38 L184 -500 Z"/></clipPath></defs><g fill="#fff" stroke="#fff" shape-rendering="geometricPrecision" text-rendering="geometricPrecision" transform="translate(-184,500)"><rect width="794" height="538" x="184" y="-500" stroke="none" clip-path="url(#clipPath2)"/></g><g id="y.node.0"><a target="_blank" xlink:href="http://schema.org/Service" xlink:show="new" xlink:type="simple"><g fill="#CFC" stroke="#CFC" shape-rendering="geometricPrecision" text-rendering="geometricPrecision" transform="matrix(1,0,0,1,-184,500)"><rect width="102.594" height="30" x="573.679" y="-460.188" stroke="none"/></g><g stroke-linecap="butt" stroke-miterlimit="1.45" shape-rendering="geometricPrecision" text-rendering="geometricPrecision" transform="matrix(1,0,0,1,-184,500)"><rect width="102.594" height="30" x="573.679" y="-460.188" fill="none"/></g><g><g stroke-linecap="butt" stroke-miterlimit="1.45" font-family="sans-serif" shape-rendering="geometricPrecision" text-rendering="geometricPrecision"><text x="580.679" y="-440.653" stroke="none" transform="matrix(1,0,0,1,-184,500)" xml:space="preserve">schema:Service</text></g></g></a></g><g id="y.node.1"><a target="_blank" xlink:href="http://schema.org/OfferCatalog" xlink:show="new" xlink:type="simple"><g fill="#CFC" stroke="#CFC" shape-rendering="geometricPrecision" text-rendering="geometricPrecision" transform="matrix(1,0,0,1,-184,500)"><rect width="136.133" height="30" x="556.319" y="-390.266" stroke="none"/></g><g stroke-linecap="butt" stroke-miterlimit="1.45" shape-rendering="geometricPrecision" text-rendering="geometricPrecision" transform="matrix(1,0,0,1,-184,500)"><rect width="136.133" height="30" x="556.319" y="-390.266" fill="none"/></g><g><g stroke-linecap="butt" stroke-miterlimit="1.45" font-family="sans-serif" shape-rendering="geometricPrecision" text-rendering="geometricPrecision"><text x="563.319" y="-370.731" stroke="none" transform="matrix(1,0,0,1,-184,500)" xml:space="preserve">schema:OfferCatalog</text></g></g></a></g><g id="y.node.2"><a target="_blank" xlink:href="http://schema.org/DigitalDocument" xlink:show="new" xlink:type="simple"><g fill="#CFC" stroke="#CFC" shape-rendering="geometricPrecision" text-rendering="geometricPrecision" transform="matrix(1,0,0,1,-184,500)"><rect width="159.793" height="30" x="302.244" y="-259.848" stroke="none"/></g><g stroke-linecap="butt" stroke-miterlimit="1.45" shape-rendering="geometricPrecision" text-rendering="geometricPrecision" transform="matrix(1,0,0,1,-184,500)"><rect width="159.793" height="30" x="302.244" y="-259.848" fill="none"/></g><g><g stroke-linecap="butt" stroke-miterlimit="1.45" font-family="sans-serif" shape-rendering="geometricPrecision" text-rendering="geometricPrecision"><text x="309.244" y="-240.313" stroke="none" transform="matrix(1,0,0,1,-184,500)" xml:space="preserve">schema:DigitalDocument</text></g></g></a></g><g id="y.node.3"><a target="_blank" xlink:href="https://geodex.org/voc/Protocol-License" xlink:show="new" xlink:type="simple"><g fill="#ff0" stroke="#ff0" shape-rendering="geometricPrecision" text-rendering="geometricPrecision" transform="matrix(1,0,0,1,-184,500)"><ellipse cx="460.288" cy="-182.266" stroke="none" rx="68.922" ry="17.583"/></g><g stroke-linecap="butt" stroke-miterlimit="1.45" shape-rendering="geometricPrecision" text-rendering="geometricPrecision" transform="matrix(1,0,0,1,-184,500)"><ellipse cx="460.288" cy="-182.266" fill="none" rx="68.922" ry="17.583"/></g><g><g stroke-linecap="butt" stroke-miterlimit="1.45" font-family="sans-serif" shape-rendering="geometricPrecision" text-rendering="geometricPrecision"><text x="398.366" y="-177.73" stroke="none" transform="matrix(1,0,0,1,-184,500)" xml:space="preserve">gdx:Protocol-License</text></g></g></a></g><g id="y.node.4"><a target="_blank" xlink:href="https://geodex.org/voc/Protocol-TermsOfUse" xlink:show="new" xlink:type="simple"><g fill="#ff0" stroke="#ff0" shape-rendering="geometricPrecision" text-rendering="geometricPrecision" transform="matrix(1,0,0,1,-184,500)"><ellipse cx="478.719" cy="-36.734" stroke="none" rx="83.125" ry="17.583"/></g><g stroke-linecap="butt" stroke-miterlimit="1.45" shape-rendering="geometricPrecision" text-rendering="geometricPrecision" transform="matrix(1,0,0,1,-184,500)"><ellipse cx="478.719" cy="-36.734" fill="none" rx="83.125" ry="17.583"/></g><g><g stroke-linecap="butt" stroke-miterlimit="1.45" font-family="sans-serif" shape-rendering="geometricPrecision" text-rendering="geometricPrecision"><text x="402.594" y="-32.199" stroke="none" transform="matrix(1,0,0,1,-184,500)" xml:space="preserve">gdx:Protocol-TermsOfUse</text></g></g></a></g><g id="y.node.5"><a target="_blank" xlink:href="https://geodex.org/voc/Protocol-ResourceSubmissionPolicy" xlink:show="new" xlink:type="simple"><g fill="#ff0" stroke="#ff0" shape-rendering="geometricPrecision" text-rendering="geometricPrecision" transform="matrix(1,0,0,1,-184,500)"><ellipse cx="519.912" cy="-84.939" stroke="none" rx="123.93" ry="18.5"/></g><g stroke-linecap="butt" stroke-miterlimit="1.45" shape-rendering="geometricPrecision" text-rendering="geometricPrecision" transform="matrix(1,0,0,1,-184,500)"><ellipse cx="519.912" cy="-84.939" fill="none" rx="123.93" ry="18.5"/></g><g><g stroke-linecap="butt" stroke-miterlimit="1.45" font-family="sans-serif" shape-rendering="geometricPrecision" text-rendering="geometricPrecision"><text x="402.982" y="-80.404" stroke="none" transform="matrix(1,0,0,1,-184,500)" xml:space="preserve">gdx:Protocol-ResourceSubmissionPolicy</text></g></g></a></g><g id="y.node.6"><a target="_blank" xlink:href="https://geodex.org/voc/Protocol-PreservationPolicy" xlink:show="new" xlink:type="simple"><g fill="#ff0" stroke="#ff0" shape-rendering="geometricPrecision" text-rendering="geometricPrecision" transform="matrix(1,0,0,1,-184,500)"><ellipse cx="489.998" cy="-134.061" stroke="none" rx="99.903" ry="18.5"/></g><g stroke-linecap="butt" stroke-miterlimit="1.45" shape-rendering="geometricPrecision" text-rendering="geometricPrecision" transform="matrix(1,0,0,1,-184,500)"><ellipse cx="489.998" cy="-134.061" fill="none" rx="99.903" ry="18.5"/></g><g><g stroke-linecap="butt" stroke-miterlimit="1.45" font-family="sans-serif" shape-rendering="geometricPrecision" text-rendering="geometricPrecision"><text x="397.094" y="-129.526" stroke="none" transform="matrix(1,0,0,1,-184,500)" xml:space="preserve">gdx:Protocol-PreservationPolicy</text></g></g></a></g><g id="y.node.7"><a target="_blank" xlink:href="https://geodex.org/voc/Protocol-Access" xlink:show="new" xlink:type="simple"><g fill="#ff0" stroke="#ff0" shape-rendering="geometricPrecision" text-rendering="geometricPrecision" transform="matrix(1,0,0,1,-184,500)"><ellipse cx="460.288" cy="7.97" stroke="none" rx="67.193" ry="15"/></g><g stroke-linecap="butt" stroke-miterlimit="1.45" shape-rendering="geometricPrecision" text-rendering="geometricPrecision" transform="matrix(1,0,0,1,-184,500)"><ellipse cx="460.288" cy="7.97" fill="none" rx="67.193" ry="15"/></g><g><g stroke-linecap="butt" stroke-miterlimit="1.45" font-family="sans-serif" shape-rendering="geometricPrecision" text-rendering="geometricPrecision"><text x="400.094" y="12.505" stroke="none" transform="matrix(1,0,0,1,-184,500)" xml:space="preserve">gdx:Protocol-Access</text></g></g></a></g><g id="y.node.8"><a target="_blank" xlink:href="http://schema.org/CreativeWork" xlink:show="new" xlink:type="simple"><g fill="#CFC" stroke="#CFC" shape-rendering="geometricPrecision" text-rendering="geometricPrecision" transform="matrix(1,0,0,1,-184,500)"><rect width="138.963" height="30" x="570.49" y="-282.221" stroke="none"/></g><g stroke-linecap="butt" stroke-miterlimit="1.45" shape-rendering="geometricPrecision" text-rendering="geometricPrecision" transform="matrix(1,0,0,1,-184,500)"><rect width="138.963" height="30" x="570.49" y="-282.221" fill="none"/></g><g><g stroke-linecap="butt" stroke-miterlimit="1.45" font-family="sans-serif" shape-rendering="geometricPrecision" text-rendering="geometricPrecision"><text x="577.49" y="-262.686" stroke="none" transform="matrix(1,0,0,1,-184,500)" xml:space="preserve">schema:CreativeWork</text></g></g></a></g><g id="y.node.9"><a target="_blank" xlink:href="https://geodex.org/voc/ResearchRepositoryService" xlink:show="new" xlink:type="simple"><g fill="#FC0" stroke="#FC0" shape-rendering="geometricPrecision" text-rendering="geometricPrecision" transform="matrix(1,0,0,1,-184,500)"><rect width="194.791" height="30" x="767.857" y="-460.188" stroke="none"/></g><g stroke-linecap="butt" stroke-miterlimit="1.45" shape-rendering="geometricPrecision" text-rendering="geometricPrecision" transform="matrix(1,0,0,1,-184,500)"><rect width="194.791" height="30" x="767.857" y="-460.188" fill="none"/></g><g><g stroke-linecap="butt" stroke-miterlimit="1.45" font-family="sans-serif" shape-rendering="geometricPrecision" text-rendering="geometricPrecision"><text x="774.857" y="-440.653" stroke="none" transform="matrix(1,0,0,1,-184,500)" xml:space="preserve">gdx:ResearchRepositoryService</text></g></g></a></g><g id="y.node.10"><a target="_blank" xlink:href="http://schema.org/Dataset" xlink:show="new" xlink:type="simple"><g fill="#CFC" stroke="#CFC" shape-rendering="geometricPrecision" text-rendering="geometricPrecision" transform="matrix(1,0,0,1,-184,500)"><rect width="106.045" height="30" x="728.713" y="-220.177" stroke="none"/></g><g stroke-linecap="butt" stroke-miterlimit="1.45" shape-rendering="geometricPrecision" text-rendering="geometricPrecision" transform="matrix(1,0,0,1,-184,500)"><rect width="106.045" height="30" x="728.713" y="-220.177" fill="none"/></g><g><g stroke-linecap="butt" stroke-miterlimit="1.45" font-family="sans-serif" shape-rendering="geometricPrecision" text-rendering="geometricPrecision"><text x="735.713" y="-200.642" stroke="none" transform="matrix(1,0,0,1,-184,500)" xml:space="preserve">schema:Dataset</text></g></g></a></g><g id="y.node.11"><a target="_blank" xlink:href="http://schema.org/DataCatalog" xlink:show="new" xlink:type="simple"><g fill="#CFC" stroke="#CFC" shape-rendering="geometricPrecision" text-rendering="geometricPrecision" transform="matrix(1,0,0,1,-184,500)"><rect width="133.121" height="30" x="728.713" y="-174.177" stroke="none"/></g><g stroke-linecap="butt" stroke-miterlimit="1.45" shape-rendering="geometricPrecision" text-rendering="geometricPrecision" transform="matrix(1,0,0,1,-184,500)"><rect width="133.121" height="30" x="728.713" y="-174.177" fill="none"/></g><g><g stroke-linecap="butt" stroke-miterlimit="1.45" font-family="sans-serif" shape-rendering="geometricPrecision" text-rendering="geometricPrecision"><text x="735.713" y="-154.642" stroke="none" transform="matrix(1,0,0,1,-184,500)" xml:space="preserve">schema:DataCatalog</text></g></g></a></g><g id="y.node.12"><g fill="#0CF" stroke="#0CF" shape-rendering="geometricPrecision" text-rendering="geometricPrecision" transform="matrix(1,0,0,1,-184,500)"><ellipse cx="839.918" cy="-375.266" stroke="none" rx="20.061" ry="15"/></g><g stroke-linecap="butt" stroke-miterlimit="1.45" shape-rendering="geometricPrecision" text-rendering="geometricPrecision" transform="matrix(1,0,0,1,-184,500)"><ellipse cx="839.918" cy="-375.266" fill="none" rx="20.061" ry="15"/></g><g><g stroke-linecap="butt" stroke-miterlimit="1.45" font-family="sans-serif" shape-rendering="geometricPrecision" text-rendering="geometricPrecision"><text x="826.857" y="-370.731" stroke="none" transform="matrix(1,0,0,1,-184,500)" xml:space="preserve">Text</text></g></g></g><g id="y.node.13"><a target="_blank" xlink:href="http://schema.org/Dataset" xlink:show="new" xlink:type="simple"><g fill="#CFC" stroke="#CFC" shape-rendering="geometricPrecision" text-rendering="geometricPrecision" transform="matrix(1,0,0,1,-184,500)"><rect width="115.736" height="30" x="351.353" y="-342.266" stroke="none"/></g><g stroke-linecap="butt" stroke-miterlimit="1.45" shape-rendering="geometricPrecision" text-rendering="geometricPrecision" transform="matrix(1,0,0,1,-184,500)"><rect width="115.736" height="30" x="351.353" y="-342.266" fill="none"/></g><g><g stroke-linecap="butt" stroke-miterlimit="1.45" font-family="sans-serif" shape-rendering="geometricPrecision" text-rendering="geometricPrecision"><text x="358.353" y="-322.731" stroke="none" transform="matrix(1,0,0,1,-184,500)" xml:space="preserve">schema:Audience</text></g></g></a></g><g id="y.node.14"><g fill="#0CF" stroke="#0CF" shape-rendering="geometricPrecision" text-rendering="geometricPrecision" transform="matrix(1,0,0,1,-184,500)"><ellipse cx="430.853" cy="-395.532" stroke="none" rx="20.061" ry="15"/></g><g stroke-linecap="butt" stroke-miterlimit="1.45" shape-rendering="geometricPrecision" text-rendering="geometricPrecision" transform="matrix(1,0,0,1,-184,500)"><ellipse cx="430.853" cy="-395.532" fill="none" rx="20.061" ry="15"/></g><g><g stroke-linecap="butt" stroke-miterlimit="1.45" font-family="sans-serif" shape-rendering="geometricPrecision" text-rendering="geometricPrecision"><text x="417.792" y="-390.997" stroke="none" transform="matrix(1,0,0,1,-184,500)" xml:space="preserve">Text</text></g></g></g><g id="y.node.15"><g fill="#0CF" stroke="#0CF" shape-rendering="geometricPrecision" text-rendering="geometricPrecision" transform="matrix(1,0,0,1,-184,500)"><ellipse cx="219.688" cy="-250.848" stroke="none" rx="20.061" ry="15"/></g><g stroke-linecap="butt" stroke-miterlimit="1.45" shape-rendering="geometricPrecision" text-rendering="geometricPrecision" transform="matrix(1,0,0,1,-184,500)"><ellipse cx="219.688" cy="-250.848" fill="none" rx="20.061" ry="15"/></g><g><g stroke-linecap="butt" stroke-miterlimit="1.45" font-family="sans-serif" shape-rendering="geometricPrecision" text-rendering="geometricPrecision"><text x="206.627" y="-246.313" stroke="none" transform="matrix(1,0,0,1,-184,500)" xml:space="preserve">Text</text></g></g></g><g id="y.node.16"><g fill="#0CF" stroke="#0CF" shape-rendering="geometricPrecision" text-rendering="geometricPrecision" transform="matrix(1,0,0,1,-184,500)"><ellipse cx="284.749" cy="-137.561" stroke="none" rx="18.15" ry="15"/></g><g stroke-linecap="butt" stroke-miterlimit="1.45" shape-rendering="geometricPrecision" text-rendering="geometricPrecision" transform="matrix(1,0,0,1,-184,500)"><ellipse cx="284.749" cy="-137.561" fill="none" rx="18.15" ry="15"/></g><g><g stroke-linecap="butt" stroke-miterlimit="1.45" font-family="sans-serif" shape-rendering="geometricPrecision" text-rendering="geometricPrecision"><text x="273.598" y="-133.026" stroke="none" transform="matrix(1,0,0,1,-184,500)" xml:space="preserve">URL</text></g></g></g><g id="y.edge.0"><g stroke-linecap="butt" stroke-miterlimit="1.45" shape-rendering="geometricPrecision" text-rendering="geometricPrecision"><path fill="none" d="M656 -430.2179 L656 -398.2888" transform="matrix(1,0,0,1,-184,500)"/><path stroke="none" d="M656 -390.2888 L661 -402.2888 L656 -399.2888 L651 -402.2888 Z" transform="matrix(1,0,0,1,-184,500)"/></g><g><g stroke-linecap="butt" stroke-miterlimit="1.45" font-family="sans-serif" shape-rendering="geometricPrecision" text-rendering="geometricPrecision"><text x="505.838" y="-409.965" stroke="none" transform="matrix(1,0,0,1,-184,500)" xml:space="preserve">schema:hasOfferCatalog</text></g></g></g><g id="y.edge.1"><g stroke-linecap="butt" stroke-miterlimit="1.45" shape-rendering="geometricPrecision" text-rendering="geometricPrecision"><path fill="none" d="M383.3657 -182.2655 L322.899 -182.2655 L322.899 -229.8443" transform="matrix(1,0,0,1,-184,500)"/><path stroke="none" d="M391.3657 -182.2655 L379.3657 -187.2655 L382.3657 -182.2655 L379.3657 -177.2655 Z" transform="matrix(1,0,0,1,-184,500)"/></g><g><g stroke-linecap="butt" stroke-miterlimit="1.45" font-family="sans-serif" shape-rendering="geometricPrecision" text-rendering="geometricPrecision"><text x="340.102" y="-206.965" stroke="none" transform="matrix(1,0,0,1,-184,500)" xml:space="preserve">schema:additionalType</text></g></g></g><g id="y.edge.3"><g stroke-linecap="butt" stroke-miterlimit="1.45" shape-rendering="geometricPrecision" text-rendering="geometricPrecision"><path fill="none" d="M387.5942 -36.7344 L322.899 -36.7344 L322.899 -229.8342" transform="matrix(1,0,0,1,-184,500)"/><path stroke="none" d="M395.5942 -36.7344 L383.5942 -41.7344 L386.5942 -36.7344 L383.5942 -31.7344 Z" transform="matrix(1,0,0,1,-184,500)"/></g></g><g id="y.edge.5"><g stroke-linecap="butt" stroke-miterlimit="1.45" shape-rendering="geometricPrecision" text-rendering="geometricPrecision"><path fill="none" d="M387.9557 -84.939 L322.899 -84.939 L322.899 -229.8177" transform="matrix(1,0,0,1,-184,500)"/><path stroke="none" d="M395.9557 -84.939 L383.9557 -89.939 L386.9557 -84.939 L383.9557 -79.939 Z" transform="matrix(1,0,0,1,-184,500)"/></g></g><g id="y.edge.6"><g stroke-linecap="butt" stroke-miterlimit="1.45" shape-rendering="geometricPrecision" text-rendering="geometricPrecision"><path fill="none" d="M382.0942 -134.0609 L322.899 -134.0609 L322.899 -229.8368" transform="matrix(1,0,0,1,-184,500)"/><path stroke="none" d="M390.0942 -134.0609 L378.0942 -139.0609 L381.0942 -134.0609 L378.0942 -129.0609 Z" transform="matrix(1,0,0,1,-184,500)"/></g></g><g id="y.edge.2"><g stroke-linecap="butt" stroke-miterlimit="1.45" shape-rendering="geometricPrecision" text-rendering="geometricPrecision"><path fill="none" d="M385.0942 7.9702 L322.899 7.9702 L322.899 -229.8186" transform="matrix(1,0,0,1,-184,500)"/><path stroke="none" d="M393.0942 7.9702 L381.0942 2.9702 L384.0942 7.9702 L381.0942 12.9702 Z" transform="matrix(1,0,0,1,-184,500)"/></g></g><g id="y.edge.4"><g stroke-linecap="butt" stroke-miterlimit="1.45" shape-rendering="geometricPrecision" text-rendering="geometricPrecision"><path fill="none" d="M660 -360.2983 L660 -290.2132" transform="matrix(1,0,0,1,-184,500)"/><path stroke="none" d="M660 -282.2132 L665 -294.2132 L660 -291.2132 L655 -294.2132 Z" transform="matrix(1,0,0,1,-184,500)"/></g><g><g stroke-linecap="butt" stroke-miterlimit="1.45" font-family="sans-serif" shape-rendering="geometricPrecision" text-rendering="geometricPrecision"><text x="672.588" y="-297.465" stroke="none" transform="matrix(1,0,0,1,-184,500)" xml:space="preserve">schema:itemListElement</text></g></g></g><g id="y.edge.7"><g stroke-linecap="butt" stroke-miterlimit="1.45" shape-rendering="geometricPrecision" text-rendering="geometricPrecision"><path fill="none" d="M570.4714 -267.8925 L563.2432 -267.8925 L563.2432 -244.8482 L470.0235 -244.8482" transform="matrix(1,0,0,1,-184,500)"/><path stroke="none" d="M462.0235 -244.8482 L474.0235 -239.8482 L471.0235 -244.8482 L474.0235 -249.8482 Z" transform="matrix(1,0,0,1,-184,500)"/></g><g><g stroke-linecap="butt" stroke-miterlimit="1.45" font-family="sans-serif" shape-rendering="geometricPrecision" text-rendering="geometricPrecision"><text x="392.52" y="-269.465" stroke="none" transform="matrix(1,0,0,1,-184,500)" xml:space="preserve">schema:publishingPrinciples</text></g></g></g><g id="y.edge.10"><g stroke-linecap="butt" stroke-miterlimit="1.45" shape-rendering="geometricPrecision" text-rendering="geometricPrecision"><path fill="none" d="M676.2729 -445.1885 L759.8574 -445.1885" transform="matrix(1,0,0,1,-184,500)"/><path stroke="none" d="M767.8574 -445.1885 L755.8574 -450.1885 L758.8574 -445.1885 L755.8574 -440.1885 Z" transform="matrix(1,0,0,1,-184,500)"/></g><g><g stroke-linecap="butt" stroke-miterlimit="1.45" font-family="sans-serif" shape-rendering="geometricPrecision" text-rendering="geometricPrecision"><text x="654.97" y="-470.653" stroke="none" transform="matrix(1,0,0,1,-184,500)" xml:space="preserve">schema:additionalType</text></g></g></g><g id="y.edge.8"><g stroke-dasharray="6 2" stroke-linecap="butt" stroke-miterlimit="1.45" shape-rendering="geometricPrecision" text-rendering="geometricPrecision"><path fill="none" d="M728.7129 -205.1772 L639.9717 -205.1772 L639.9717 -237.2215" transform="matrix(1,0,0,1,-184,500)"/><path fill="#fff" stroke="none" d="M639.9717 -252.2215 L633.9717 -236.2215 L645.9717 -236.2215 Z" transform="matrix(1,0,0,1,-184,500)"/><path fill="none" stroke-dasharray="none" d="M639.9717 -252.2215 L633.9717 -236.2215 L645.9717 -236.2215 Z" transform="matrix(1,0,0,1,-184,500)"/></g><g><g stroke-linecap="butt" stroke-miterlimit="1.45" font-family="sans-serif" shape-rendering="geometricPrecision" text-rendering="geometricPrecision"><text x="657.206" y="-230.642" stroke="none" transform="matrix(1,0,0,1,-184,500)" xml:space="preserve">rdfs:subClassOf</text></g></g></g><g id="y.edge.9"><g stroke-dasharray="6 2" stroke-linecap="butt" stroke-miterlimit="1.45" shape-rendering="geometricPrecision" text-rendering="geometricPrecision"><path fill="none" d="M728.7129 -159.1772 L639.9717 -159.1772 L639.9717 -237.2411" transform="matrix(1,0,0,1,-184,500)"/><path fill="#fff" stroke="none" d="M639.9717 -252.2411 L633.9717 -236.2411 L645.9717 -236.2411 Z" transform="matrix(1,0,0,1,-184,500)"/><path fill="none" stroke-dasharray="none" d="M639.9717 -252.2411 L633.9717 -236.2411 L645.9717 -236.2411 Z" transform="matrix(1,0,0,1,-184,500)"/></g></g><g id="y.edge.11"><g stroke-linecap="butt" stroke-miterlimit="1.45" shape-rendering="geometricPrecision" text-rendering="geometricPrecision"><path fill="none" d="M692.4519 -375.2658 L811.8574 -375.2658" transform="matrix(1,0,0,1,-184,500)"/><path stroke="none" d="M819.8574 -375.2658 L807.8574 -380.2658 L810.8574 -375.2658 L807.8574 -370.2658 Z" transform="matrix(1,0,0,1,-184,500)"/></g><g><g stroke-linecap="butt" stroke-miterlimit="1.45" font-family="sans-serif" shape-rendering="geometricPrecision" text-rendering="geometricPrecision"><text x="710.007" y="-381.965" stroke="none" transform="matrix(1,0,0,1,-184,500)" xml:space="preserve">schema:name</text></g></g></g><g id="y.edge.12"><g stroke-linecap="butt" stroke-miterlimit="1.45" shape-rendering="geometricPrecision" text-rendering="geometricPrecision"><path fill="none" d="M609.9009 -282.2136 L609.9009 -327.2658 L475.0893 -327.2658" transform="matrix(1,0,0,1,-184,500)"/><path stroke="none" d="M467.0893 -327.2658 L479.0893 -322.2658 L476.0893 -327.2658 L479.0893 -332.2658 Z" transform="matrix(1,0,0,1,-184,500)"/></g><g><g stroke-linecap="butt" stroke-miterlimit="1.45" font-family="sans-serif" shape-rendering="geometricPrecision" text-rendering="geometricPrecision"><text x="483.958" y="-336.465" stroke="none" transform="matrix(1,0,0,1,-184,500)" xml:space="preserve">schema:audience</text></g></g></g><g id="y.edge.13"><g stroke-linecap="butt" stroke-miterlimit="1.45" shape-rendering="geometricPrecision" text-rendering="geometricPrecision"><path fill="none" d="M430.853 -342.299 L430.853 -372.5317" transform="matrix(1,0,0,1,-184,500)"/><path stroke="none" d="M430.853 -380.5317 L425.853 -368.5317 L430.853 -371.5317 L435.853 -368.5317 Z" transform="matrix(1,0,0,1,-184,500)"/></g><g><g stroke-linecap="butt" stroke-miterlimit="1.45" font-family="sans-serif" shape-rendering="geometricPrecision" text-rendering="geometricPrecision"><text x="296.763" y="-357.495" stroke="none" transform="matrix(1,0,0,1,-184,500)" xml:space="preserve">schema:audienceType</text></g></g></g><g id="y.edge.14"><g stroke-linecap="butt" stroke-miterlimit="1.45" shape-rendering="geometricPrecision" text-rendering="geometricPrecision"><path fill="none" d="M302.2231 -250.8482 L247.7486 -250.8482" transform="matrix(1,0,0,1,-184,500)"/><path stroke="none" d="M239.7486 -250.8482 L251.7486 -245.8482 L248.7486 -250.8482 L251.7486 -255.8482 Z" transform="matrix(1,0,0,1,-184,500)"/></g><g><g stroke-linecap="butt" stroke-miterlimit="1.45" font-family="sans-serif" shape-rendering="geometricPrecision" text-rendering="geometricPrecision"><text x="219.454" y="-292.531" stroke="none" transform="matrix(1,0,0,1,-184,500)" xml:space="preserve">schema:name,</text><text x="219.454" y="-278.398" stroke="none" transform="matrix(1,0,0,1,-184,500)" xml:space="preserve">schema:fileFormat</text></g></g></g><g id="y.edge.15"><g stroke-linecap="butt" stroke-miterlimit="1.45" shape-rendering="geometricPrecision" text-rendering="geometricPrecision"><path fill="none" d="M302.2441 -244.8482 L284.7486 -244.8482 L284.7486 -160.5609" transform="matrix(1,0,0,1,-184,500)"/><path stroke="none" d="M284.7486 -152.5609 L289.7486 -164.5609 L284.7486 -161.5609 L279.7486 -164.5609 Z" transform="matrix(1,0,0,1,-184,500)"/></g><g><g stroke-linecap="butt" stroke-miterlimit="1.45" font-family="sans-serif" shape-rendering="geometricPrecision" text-rendering="geometricPrecision"><text x="212.075" y="-179.465" stroke="none" transform="matrix(1,0,0,1,-184,500)" xml:space="preserve">schema:url</text></g></g></g></g></svg>