<svg xmlns="http://www.w3.org/2000/svg" xmlns:xlink="http://www.w3.org/1999/xlink" width="981" height="618" fill="#000" fill-opacity="1" stroke="#000" stroke-dasharray="none" stroke-dashoffset="0" stroke-linecap="square" stroke-linejoin="miter" stroke-miterlimit="10" stroke-opacity="1" stroke-width="1" color-interpolation="auto" color-rendering="auto" font-family="'Dialog'" font-size="12" font-style="normal" font-weight="normal" image-rendering="auto" shape-rendering="auto" text-rendering="auto"><g><defs id="defs1"><clipPath id="clipPath1" clipPathUnits="userSpaceOnUse"><path d="M0 0 L981 0 L981 618 L0 618 L0 0 Z"/></clipPath><clipPath id="clipPath2" clipPathUnits="userSpaceOnUse"><path d="M81 -638 L1062 -638 L1062 -20 L81 -20 L81 -638 Z"/></clipPath></defs><g fill="#fff" stroke="#fff" shape-rendering="geometricPrecision" text-rendering="geometricPrecision" transform="translate(-81,638)"><rect width="981" height="618" x="81" y="-638" stroke="none" clip-path="url(#clipPath2)"/></g><g id="y.node.0"><a target="_blank" xlink:href="http://schema.org/Service" xlink:show="new" xlink:type="simple"><g fill="#CFC" stroke="#CFC" shape-rendering="geometricPrecision" text-rendering="geometricPrecision" transform="matrix(1,0,0,1,-81,638)"><rect width="102.594" height="30" x="573.679" y="-598.188" stroke="none"/></g><g stroke-linecap="butt" stroke-miterlimit="1.45" shape-rendering="geometricPrecision" text-rendering="geometricPrecision" transform="matrix(1,0,0,1,-81,638)"><rect width="102.594" height="30" x="573.679" y="-598.188" fill="none"/></g><g><g stroke-linecap="butt" stroke-miterlimit="1.45" font-family="sans-serif" shape-rendering="geometricPrecision" text-rendering="geometricPrecision"><text x="580.679" y="-578.653" stroke="none" transform="matrix(1,0,0,1,-81,638)" xml:space="preserve">schema:Service</text></g></g></a></g><g id="y.node.1"><a target="_blank" xlink:href="http://schema.org/OfferCatalog" xlink:show="new" xlink:type="simple"><g fill="#CFC" stroke="#CFC" shape-rendering="geometricPrecision" text-rendering="geometricPrecision" transform="matrix(1,0,0,1,-81,638)"><rect width="136.133" height="30" x="583.395" y="-400.8" stroke="none"/></g><g stroke-linecap="butt" stroke-miterlimit="1.45" shape-rendering="geometricPrecision" text-rendering="geometricPrecision" transform="matrix(1,0,0,1,-81,638)"><rect width="136.133" height="30" x="583.395" y="-400.8" fill="none"/></g><g><g stroke-linecap="butt" stroke-miterlimit="1.45" font-family="sans-serif" shape-rendering="geometricPrecision" text-rendering="geometricPrecision"><text x="590.395" y="-381.265" stroke="none" transform="matrix(1,0,0,1,-81,638)" xml:space="preserve">schema:OfferCatalog</text></g></g></a></g><g id="y.node.2"><a target="_blank" xlink:href="http://schema.org/ServiceChannel" xlink:show="new" xlink:type="simple"><g fill="#CFC" stroke="#CFC" shape-rendering="geometricPrecision" text-rendering="geometricPrecision" transform="matrix(1,0,0,1,-81,638)"><rect width="150.019" height="30" x="728.713" y="-521.578" stroke="none"/></g><g stroke-linecap="butt" stroke-miterlimit="1.45" shape-rendering="geometricPrecision" text-rendering="geometricPrecision" transform="matrix(1,0,0,1,-81,638)"><rect width="150.019" height="30" x="728.713" y="-521.578" fill="none"/></g><g><g stroke-linecap="butt" stroke-miterlimit="1.45" font-family="sans-serif" shape-rendering="geometricPrecision" text-rendering="geometricPrecision"><text x="735.713" y="-502.043" stroke="none" transform="matrix(1,0,0,1,-81,638)" xml:space="preserve">schema:ServiceChannel</text></g></g></a></g><g id="y.node.3"><a target="_blank" xlink:href="http://schema.org/DigitalDocument" xlink:show="new" xlink:type="simple"><g fill="#CFC" stroke="#CFC" shape-rendering="geometricPrecision" text-rendering="geometricPrecision" transform="matrix(1,0,0,1,-81,638)"><rect width="159.793" height="30" x="301.146" y="-318.382" stroke="none"/></g><g stroke-linecap="butt" stroke-miterlimit="1.45" shape-rendering="geometricPrecision" text-rendering="geometricPrecision" transform="matrix(1,0,0,1,-81,638)"><rect width="159.793" height="30" x="301.146" y="-318.382" fill="none"/></g><g><g stroke-linecap="butt" stroke-miterlimit="1.45" font-family="sans-serif" shape-rendering="geometricPrecision" text-rendering="geometricPrecision"><text x="308.146" y="-298.847" stroke="none" transform="matrix(1,0,0,1,-81,638)" xml:space="preserve">schema:DigitalDocument</text></g></g></a></g><g id="y.node.4"><a target="_blank" xlink:href="https://geodex.org/voc/Protocol-License" xlink:show="new" xlink:type="simple"><g fill="#ff0" stroke="#ff0" shape-rendering="geometricPrecision" text-rendering="geometricPrecision" transform="matrix(1,0,0,1,-81,638)"><ellipse cx="434.09" cy="-240.8" stroke="none" rx="68.922" ry="17.583"/></g><g stroke-linecap="butt" stroke-miterlimit="1.45" shape-rendering="geometricPrecision" text-rendering="geometricPrecision" transform="matrix(1,0,0,1,-81,638)"><ellipse cx="434.09" cy="-240.8" fill="none" rx="68.922" ry="17.583"/></g><g><g stroke-linecap="butt" stroke-miterlimit="1.45" font-family="sans-serif" shape-rendering="geometricPrecision" text-rendering="geometricPrecision"><text x="372.168" y="-236.265" stroke="none" transform="matrix(1,0,0,1,-81,638)" xml:space="preserve">gdx:Protocol-License</text></g></g></a></g><g id="y.node.5"><a target="_blank" xlink:href="https://geodex.org/voc/Protocol-TermsOfUse" xlink:show="new" xlink:type="simple"><g fill="#ff0" stroke="#ff0" shape-rendering="geometricPrecision" text-rendering="geometricPrecision" transform="matrix(1,0,0,1,-81,638)"><ellipse cx="452.522" cy="-95.269" stroke="none" rx="83.125" ry="17.583"/></g><g stroke-linecap="butt" stroke-miterlimit="1.45" shape-rendering="geometricPrecision" text-rendering="geometricPrecision" transform="matrix(1,0,0,1,-81,638)"><ellipse cx="452.522" cy="-95.269" fill="none" rx="83.125" ry="17.583"/></g><g><g stroke-linecap="butt" stroke-miterlimit="1.45" font-family="sans-serif" shape-rendering="geometricPrecision" text-rendering="geometricPrecision"><text x="376.397" y="-90.734" stroke="none" transform="matrix(1,0,0,1,-81,638)" xml:space="preserve">gdx:Protocol-TermsOfUse</text></g></g></a></g><g id="y.node.6"><a target="_blank" xlink:href="https://geodex.org/voc/Protocol-ResourceSubmissionPolicy" xlink:show="new" xlink:type="simple"><g fill="#ff0" stroke="#ff0" shape-rendering="geometricPrecision" text-rendering="geometricPrecision" transform="matrix(1,0,0,1,-81,638)"><ellipse cx="493.714" cy="-143.473" stroke="none" rx="123.93" ry="18.5"/></g><g stroke-linecap="butt" stroke-miterlimit="1.45" shape-rendering="geometricPrecision" text-rendering="geometricPrecision" transform="matrix(1,0,0,1,-81,638)"><ellipse cx="493.714" cy="-143.473" fill="none" rx="123.93" ry="18.5"/></g><g><g stroke-linecap="butt" stroke-miterlimit="1.45" font-family="sans-serif" shape-rendering="geometricPrecision" text-rendering="geometricPrecision"><text x="376.785" y="-138.938" stroke="none" transform="matrix(1,0,0,1,-81,638)" xml:space="preserve">gdx:Protocol-ResourceSubmissionPolicy</text></g></g></a></g><g id="y.node.7"><a target="_blank" xlink:href="https://geodex.org/voc/Protocol-PreservationPolicy" xlink:show="new" xlink:type="simple"><g fill="#ff0" stroke="#ff0" shape-rendering="geometricPrecision" text-rendering="geometricPrecision" transform="matrix(1,0,0,1,-81,638)"><ellipse cx="463.8" cy="-192.595" stroke="none" rx="99.903" ry="18.5"/></g><g stroke-linecap="butt" stroke-miterlimit="1.45" shape-rendering="geometricPrecision" text-rendering="geometricPrecision" transform="matrix(1,0,0,1,-81,638)"><ellipse cx="463.8" cy="-192.595" fill="none" rx="99.903" ry="18.5"/></g><g><g stroke-linecap="butt" stroke-miterlimit="1.45" font-family="sans-serif" shape-rendering="geometricPrecision" text-rendering="geometricPrecision"><text x="370.897" y="-188.06" stroke="none" transform="matrix(1,0,0,1,-81,638)" xml:space="preserve">gdx:Protocol-PreservationPolicy</text></g></g></a></g><g id="y.node.8"><a target="_blank" xlink:href="https://geodex.org/voc/Protocol-Access" xlink:show="new" xlink:type="simple"><g fill="#ff0" stroke="#ff0" shape-rendering="geometricPrecision" text-rendering="geometricPrecision" transform="matrix(1,0,0,1,-81,638)"><ellipse cx="434.09" cy="-50.564" stroke="none" rx="67.193" ry="15"/></g><g stroke-linecap="butt" stroke-miterlimit="1.45" shape-rendering="geometricPrecision" text-rendering="geometricPrecision" transform="matrix(1,0,0,1,-81,638)"><ellipse cx="434.09" cy="-50.564" fill="none" rx="67.193" ry="15"/></g><g><g stroke-linecap="butt" stroke-miterlimit="1.45" font-family="sans-serif" shape-rendering="geometricPrecision" text-rendering="geometricPrecision"><text x="373.897" y="-46.029" stroke="none" transform="matrix(1,0,0,1,-81,638)" xml:space="preserve">gdx:Protocol-Access</text></g></g></a></g><g id="y.node.9"><a target="_blank" xlink:href="http://schema.org/Thing" xlink:show="new" xlink:type="simple"><g fill="#CFC" stroke="#CFC" shape-rendering="geometricPrecision" text-rendering="geometricPrecision" transform="matrix(1,0,0,1,-81,638)"><rect width="138.963" height="30" x="561.642" y="-315.261" stroke="none"/></g><g stroke-linecap="butt" stroke-miterlimit="1.45" shape-rendering="geometricPrecision" text-rendering="geometricPrecision" transform="matrix(1,0,0,1,-81,638)"><rect width="138.963" height="30" x="561.642" y="-315.261" fill="none"/></g><g><g stroke-linecap="butt" stroke-miterlimit="1.45" font-family="sans-serif" shape-rendering="geometricPrecision" text-rendering="geometricPrecision"><text x="568.642" y="-295.726" stroke="none" transform="matrix(1,0,0,1,-81,638)" xml:space="preserve">schema:CreativeWork</text></g></g></a></g><g id="y.node.10"><a target="_blank" xlink:href="http://schema.org/Organization" xlink:show="new" xlink:type="simple"><g fill="#CFC" stroke="#CFC" shape-rendering="geometricPrecision" text-rendering="geometricPrecision" transform="matrix(1,0,0,1,-81,638)"><rect width="137.563" height="30" x="203.368" y="-598.188" stroke="none"/></g><g stroke-linecap="butt" stroke-miterlimit="1.45" shape-rendering="geometricPrecision" text-rendering="geometricPrecision" transform="matrix(1,0,0,1,-81,638)"><rect width="137.563" height="30" x="203.368" y="-598.188" fill="none"/></g><g><g stroke-linecap="butt" stroke-miterlimit="1.45" font-family="sans-serif" shape-rendering="geometricPrecision" text-rendering="geometricPrecision"><text x="210.368" y="-578.653" stroke="none" transform="matrix(1,0,0,1,-81,638)" xml:space="preserve">schema:Organization</text></g></g></a></g><g id="y.node.11"><a target="_blank" xlink:href="http://schema.org/Organization" xlink:show="new" xlink:type="simple"><g fill="#CFC" stroke="#CFC" shape-rendering="geometricPrecision" text-rendering="geometricPrecision" transform="matrix(1,0,0,1,-81,638)"><rect width="137.563" height="30" x="455.332" y="-555.165" stroke="none"/></g><g stroke-linecap="butt" stroke-miterlimit="1.45" shape-rendering="geometricPrecision" text-rendering="geometricPrecision" transform="matrix(1,0,0,1,-81,638)"><rect width="137.563" height="30" x="455.332" y="-555.165" fill="none"/></g><g><g stroke-linecap="butt" stroke-miterlimit="1.45" font-family="sans-serif" shape-rendering="geometricPrecision" text-rendering="geometricPrecision"><text x="462.332" y="-535.63" stroke="none" transform="matrix(1,0,0,1,-81,638)" xml:space="preserve">schema:Organization</text></g></g></a></g><g id="y.node.12"><a target="_blank" xlink:href="http://schema.org/ContactPoint" xlink:show="new" xlink:type="simple"><g fill="#CFC" stroke="#CFC" shape-rendering="geometricPrecision" text-rendering="geometricPrecision" transform="matrix(1,0,0,1,-81,638)"><rect width="136.303" height="30" x="386.79" y="-481.141" stroke="none"/></g><g stroke-linecap="butt" stroke-miterlimit="1.45" shape-rendering="geometricPrecision" text-rendering="geometricPrecision" transform="matrix(1,0,0,1,-81,638)"><rect width="136.303" height="30" x="386.79" y="-481.141" fill="none"/></g><g><g stroke-linecap="butt" stroke-miterlimit="1.45" font-family="sans-serif" shape-rendering="geometricPrecision" text-rendering="geometricPrecision"><text x="393.79" y="-461.606" stroke="none" transform="matrix(1,0,0,1,-81,638)" xml:space="preserve">schema:ContactPoint</text></g></g></a></g><g id="y.node.13"><a target="_blank" xlink:href="https://geodex.org/voc/SearchService" xlink:show="new" xlink:type="simple"><g fill="#ff0" stroke="#ff0" shape-rendering="geometricPrecision" text-rendering="geometricPrecision" transform="matrix(1,0,0,1,-81,638)"><ellipse cx="958.585" cy="-358.024" stroke="none" rx="59.52" ry="17.583"/></g><g stroke-linecap="butt" stroke-miterlimit="1.45" shape-rendering="geometricPrecision" text-rendering="geometricPrecision" transform="matrix(1,0,0,1,-81,638)"><ellipse cx="958.585" cy="-358.024" fill="none" rx="59.52" ry="17.583"/></g><g><g stroke-linecap="butt" stroke-miterlimit="1.45" font-family="sans-serif" shape-rendering="geometricPrecision" text-rendering="geometricPrecision"><text x="906.064" y="-353.489" stroke="none" transform="matrix(1,0,0,1,-81,638)" xml:space="preserve">gdx:SearchService</text></g></g></a></g><g id="y.node.14"><a target="_blank" xlink:href="https://geodex.org/voc/SubmissionService" xlink:show="new" xlink:type="simple"><g fill="#ff0" stroke="#ff0" shape-rendering="geometricPrecision" text-rendering="geometricPrecision" transform="matrix(1,0,0,1,-81,638)"><ellipse cx="972.773" cy="-312.053" stroke="none" rx="73.709" ry="17.583"/></g><g stroke-linecap="butt" stroke-miterlimit="1.45" shape-rendering="geometricPrecision" text-rendering="geometricPrecision" transform="matrix(1,0,0,1,-81,638)"><ellipse cx="972.773" cy="-312.053" fill="none" rx="73.709" ry="17.583"/></g><g><g stroke-linecap="butt" stroke-miterlimit="1.45" font-family="sans-serif" shape-rendering="geometricPrecision" text-rendering="geometricPrecision"><text x="906.064" y="-307.518" stroke="none" transform="matrix(1,0,0,1,-81,638)" xml:space="preserve">gdx:SubmissionService</text></g></g></a></g><g id="y.node.15"><a target="_blank" xlink:href="https://geodex.org/voc/SyndicationService" xlink:show="new" xlink:type="simple"><g fill="#ff0" stroke="#ff0" shape-rendering="geometricPrecision" text-rendering="geometricPrecision" transform="matrix(1,0,0,1,-81,638)"><ellipse cx="972.82" cy="-266.082" stroke="none" rx="73.756" ry="17.583"/></g><g stroke-linecap="butt" stroke-miterlimit="1.45" shape-rendering="geometricPrecision" text-rendering="geometricPrecision" transform="matrix(1,0,0,1,-81,638)"><ellipse cx="972.82" cy="-266.082" fill="none" rx="73.756" ry="17.583"/></g><g><g stroke-linecap="butt" stroke-miterlimit="1.45" font-family="sans-serif" shape-rendering="geometricPrecision" text-rendering="geometricPrecision"><text x="906.064" y="-261.546" stroke="none" transform="matrix(1,0,0,1,-81,638)" xml:space="preserve">gdx:SyndicationService</text></g></g></a></g><g id="y.node.16"><a target="_blank" xlink:href="https://geodex.org/voc/ResearchRepositoryService" xlink:show="new" xlink:type="simple"><g fill="#FC0" stroke="#FC0" shape-rendering="geometricPrecision" text-rendering="geometricPrecision" transform="matrix(1,0,0,1,-81,638)"><rect width="194.791" height="30" x="819.857" y="-598.188" stroke="none"/></g><g stroke-linecap="butt" stroke-miterlimit="1.45" shape-rendering="geometricPrecision" text-rendering="geometricPrecision" transform="matrix(1,0,0,1,-81,638)"><rect width="194.791" height="30" x="819.857" y="-598.188" fill="none"/></g><g><g stroke-linecap="butt" stroke-miterlimit="1.45" font-family="sans-serif" shape-rendering="geometricPrecision" text-rendering="geometricPrecision"><text x="826.857" y="-578.653" stroke="none" transform="matrix(1,0,0,1,-81,638)" xml:space="preserve">gdx:ResearchRepositoryService</text></g></g></a></g><g id="y.node.17"><a target="_blank" xlink:href="http://schema.org/Dataset" xlink:show="new" xlink:type="simple"><g fill="#CFC" stroke="#CFC" shape-rendering="geometricPrecision" text-rendering="geometricPrecision" transform="matrix(1,0,0,1,-81,638)"><rect width="106.045" height="30" x="684.031" y="-243.712" stroke="none"/></g><g stroke-linecap="butt" stroke-miterlimit="1.45" shape-rendering="geometricPrecision" text-rendering="geometricPrecision" transform="matrix(1,0,0,1,-81,638)"><rect width="106.045" height="30" x="684.031" y="-243.712" fill="none"/></g><g><g stroke-linecap="butt" stroke-miterlimit="1.45" font-family="sans-serif" shape-rendering="geometricPrecision" text-rendering="geometricPrecision"><text x="691.031" y="-224.176" stroke="none" transform="matrix(1,0,0,1,-81,638)" xml:space="preserve">schema:Dataset</text></g></g></a></g><g id="y.node.18"><a target="_blank" xlink:href="http://schema.org/DataCatalog" xlink:show="new" xlink:type="simple"><g fill="#CFC" stroke="#CFC" shape-rendering="geometricPrecision" text-rendering="geometricPrecision" transform="matrix(1,0,0,1,-81,638)"><rect width="133.121" height="30" x="684.031" y="-198.993" stroke="none"/></g><g stroke-linecap="butt" stroke-miterlimit="1.45" shape-rendering="geometricPrecision" text-rendering="geometricPrecision" transform="matrix(1,0,0,1,-81,638)"><rect width="133.121" height="30" x="684.031" y="-198.993" fill="none"/></g><g><g stroke-linecap="butt" stroke-miterlimit="1.45" font-family="sans-serif" shape-rendering="geometricPrecision" text-rendering="geometricPrecision"><text x="691.031" y="-179.458" stroke="none" transform="matrix(1,0,0,1,-81,638)" xml:space="preserve">schema:DataCatalog</text></g></g></a></g><g id="y.node.19"><a target="_blank" xlink:href="http://schema.org/Service" xlink:show="new" xlink:type="simple"><g fill="#CFC" stroke="#CFC" shape-rendering="geometricPrecision" text-rendering="geometricPrecision" transform="matrix(1,0,0,1,-81,638)"><rect width="102.594" height="30" x="776.139" y="-435.607" stroke="none"/></g><g stroke-linecap="butt" stroke-miterlimit="1.45" shape-rendering="geometricPrecision" text-rendering="geometricPrecision" transform="matrix(1,0,0,1,-81,638)"><rect width="102.594" height="30" x="776.139" y="-435.607" fill="none"/></g><g><g stroke-linecap="butt" stroke-miterlimit="1.45" font-family="sans-serif" shape-rendering="geometricPrecision" text-rendering="geometricPrecision"><text x="783.139" y="-416.072" stroke="none" transform="matrix(1,0,0,1,-81,638)" xml:space="preserve">schema:Service</text></g></g></a></g><g id="y.node.20"><a target="_blank" xlink:href="https://schema.org/PropertyValue" xlink:show="new" xlink:type="simple"><g fill="#CFC" stroke="#CFC" shape-rendering="geometricPrecision" text-rendering="geometricPrecision" transform="matrix(1,0,0,1,-81,638)"><rect width="142.918" height="30" x="120.231" y="-538.188" stroke="none"/></g><g stroke-linecap="butt" stroke-miterlimit="1.45" shape-rendering="geometricPrecision" text-rendering="geometricPrecision" transform="matrix(1,0,0,1,-81,638)"><rect width="142.918" height="30" x="120.231" y="-538.188" fill="none"/></g><g><g stroke-linecap="butt" stroke-miterlimit="1.45" font-family="sans-serif" shape-rendering="geometricPrecision" text-rendering="geometricPrecision"><text x="127.231" y="-518.653" stroke="none" transform="matrix(1,0,0,1,-81,638)" xml:space="preserve">schema:PropertyValue</text></g></g></a></g><g id="y.node.21"><a target="_blank" xlink:href="http://www.sparontologies.net/ontologies/datacite/source.html#Identifier" xlink:show="new" xlink:type="simple"><g fill="#FC0" stroke="#FC0" shape-rendering="geometricPrecision" text-rendering="geometricPrecision" transform="matrix(1,0,0,1,-81,638)"><rect width="146.826" height="41" x="106.964" y="-472.688" stroke="none"/></g><g stroke-linecap="butt" stroke-miterlimit="1.45" shape-rendering="geometricPrecision" text-rendering="geometricPrecision" transform="matrix(1,0,0,1,-81,638)"><rect width="146.826" height="41" x="106.964" y="-472.688" fill="none"/></g><g><g stroke-linecap="butt" stroke-miterlimit="1.45" font-family="sans-serif" shape-rendering="geometricPrecision" text-rendering="geometricPrecision"><text x="127.25" y="-454.72" stroke="none" transform="matrix(1,0,0,1,-81,638)" xml:space="preserve">datacite:Identifier,</text><text x="130.722" y="-440.587" stroke="none" transform="matrix(1,0,0,1,-81,638)" xml:space="preserve">geolink:Identifier</text></g></g></a></g><g id="y.node.22"><a target="_blank" xlink:href="http://schema.org/OfferCatalog" xlink:show="new" xlink:type="simple"><g fill="#CFC" stroke="#CFC" shape-rendering="geometricPrecision" text-rendering="geometricPrecision" transform="matrix(1,0,0,1,-81,638)"><rect width="136.133" height="30" x="165.013" y="-373.024" stroke="none"/></g><g stroke-linecap="butt" stroke-miterlimit="1.45" shape-rendering="geometricPrecision" text-rendering="geometricPrecision" transform="matrix(1,0,0,1,-81,638)"><rect width="136.133" height="30" x="165.013" y="-373.024" fill="none"/></g><g><g stroke-linecap="butt" stroke-miterlimit="1.45" font-family="sans-serif" shape-rendering="geometricPrecision" text-rendering="geometricPrecision"><text x="172.013" y="-353.489" stroke="none" transform="matrix(1,0,0,1,-81,638)" xml:space="preserve">schema:OfferCatalog</text></g></g></a></g><g id="y.node.23"><a target="_blank" xlink:href="https://geodex.org/voc/ResearchRepositoryService" xlink:show="new" xlink:type="simple"><g fill="#FC0" stroke="#FC0" shape-rendering="geometricPrecision" text-rendering="geometricPrecision" transform="matrix(1,0,0,1,-81,638)"><rect width="142.619" height="30" x="99.635" y="-284.005" stroke="none"/></g><g stroke-linecap="butt" stroke-miterlimit="1.45" shape-rendering="geometricPrecision" text-rendering="geometricPrecision" transform="matrix(1,0,0,1,-81,638)"><rect width="142.619" height="30" x="99.635" y="-284.005" fill="none"/></g><g><g stroke-linecap="butt" stroke-miterlimit="1.45" font-family="sans-serif" shape-rendering="geometricPrecision" text-rendering="geometricPrecision"><text x="106.635" y="-264.47" stroke="none" transform="matrix(1,0,0,1,-81,638)" xml:space="preserve">gdx:OutreachActivites</text></g></g></a></g><g id="y.node.24"><a target="_blank" xlink:href="https://geodex.org/voc/ResearchRepositoryService" xlink:show="new" xlink:type="simple"><g fill="#FC0" stroke="#FC0" shape-rendering="geometricPrecision" text-rendering="geometricPrecision" transform="matrix(1,0,0,1,-81,638)"><rect width="179.563" height="30" x="99.635" y="-234.382" stroke="none"/></g><g stroke-linecap="butt" stroke-miterlimit="1.45" shape-rendering="geometricPrecision" text-rendering="geometricPrecision" transform="matrix(1,0,0,1,-81,638)"><rect width="179.563" height="30" x="99.635" y="-234.382" fill="none"/></g><g><g stroke-linecap="butt" stroke-miterlimit="1.45" font-family="sans-serif" shape-rendering="geometricPrecision" text-rendering="geometricPrecision"><text x="106.635" y="-214.847" stroke="none" transform="matrix(1,0,0,1,-81,638)" xml:space="preserve">gdx:ResearchResourceTypes</text></g></g></a></g><g id="y.edge.0"><g stroke-linecap="butt" stroke-miterlimit="1.45" shape-rendering="geometricPrecision" text-rendering="geometricPrecision"><path fill="none" d="M656 -568.2307 L656 -408.7958" transform="matrix(1,0,0,1,-81,638)"/><path stroke="none" d="M656 -400.7958 L661 -412.7958 L656 -409.7958 L651 -412.7958 Z" transform="matrix(1,0,0,1,-81,638)"/></g><g><g stroke-linecap="butt" stroke-miterlimit="1.45" font-family="sans-serif" shape-rendering="geometricPrecision" text-rendering="geometricPrecision"><text x="505.171" y="-417.465" stroke="none" transform="matrix(1,0,0,1,-81,638)" xml:space="preserve">schema:hasOfferCatalog</text></g></g></g><g id="y.edge.1"><g stroke-linecap="butt" stroke-miterlimit="1.45" shape-rendering="geometricPrecision" text-rendering="geometricPrecision"><path fill="none" d="M670.4341 -568.1724 L670.4341 -506.5782 L720.7239 -506.5782" transform="matrix(1,0,0,1,-81,638)"/><path stroke="none" d="M728.7239 -506.5782 L716.7239 -511.5782 L719.7239 -506.5782 L716.7239 -501.5782 Z" transform="matrix(1,0,0,1,-81,638)"/></g><g><g stroke-linecap="butt" stroke-miterlimit="1.45" font-family="sans-serif" shape-rendering="geometricPrecision" text-rendering="geometricPrecision"><text x="680.064" y="-535.276" stroke="none" transform="matrix(1,0,0,1,-81,638)" xml:space="preserve">schema:availableChannel</text></g></g></g><g id="y.edge.2"><g stroke-linecap="butt" stroke-miterlimit="1.45" shape-rendering="geometricPrecision" text-rendering="geometricPrecision"><path fill="none" d="M357.1679 -240.7998 L321.8004 -240.7998 L321.8004 -288.3785" transform="matrix(1,0,0,1,-81,638)"/><path stroke="none" d="M365.1679 -240.7998 L353.1679 -245.7998 L356.1679 -240.7998 L353.1679 -235.7998 Z" transform="matrix(1,0,0,1,-81,638)"/></g><g><g stroke-linecap="butt" stroke-miterlimit="1.45" font-family="sans-serif" shape-rendering="geometricPrecision" text-rendering="geometricPrecision"><text x="303.904" y="-269.465" stroke="none" transform="matrix(1,0,0,1,-81,638)" xml:space="preserve">schema:additionalType</text></g></g></g><g id="y.edge.4"><g stroke-linecap="butt" stroke-miterlimit="1.45" shape-rendering="geometricPrecision" text-rendering="geometricPrecision"><path fill="none" d="M361.3965 -95.2687 L321.8004 -95.2687 L321.8004 -288.3684" transform="matrix(1,0,0,1,-81,638)"/><path stroke="none" d="M369.3965 -95.2687 L357.3965 -100.2687 L360.3965 -95.2687 L357.3965 -90.2687 Z" transform="matrix(1,0,0,1,-81,638)"/></g></g><g id="y.edge.10"><g stroke-linecap="butt" stroke-miterlimit="1.45" shape-rendering="geometricPrecision" text-rendering="geometricPrecision"><path fill="none" d="M361.7557 -143.4733 L321.8004 -143.4733 L321.8004 -288.352" transform="matrix(1,0,0,1,-81,638)"/><path stroke="none" d="M369.7557 -143.4733 L357.7557 -148.4733 L360.7557 -143.4733 L357.7557 -138.4733 Z" transform="matrix(1,0,0,1,-81,638)"/></g></g><g id="y.edge.11"><g stroke-linecap="butt" stroke-miterlimit="1.45" shape-rendering="geometricPrecision" text-rendering="geometricPrecision"><path fill="none" d="M355.8965 -192.5952 L321.8004 -192.5952 L321.8004 -288.371" transform="matrix(1,0,0,1,-81,638)"/><path stroke="none" d="M363.8965 -192.5952 L351.8965 -197.5952 L354.8965 -192.5952 L351.8965 -187.5952 Z" transform="matrix(1,0,0,1,-81,638)"/></g></g><g id="y.edge.3"><g stroke-linecap="butt" stroke-miterlimit="1.45" shape-rendering="geometricPrecision" text-rendering="geometricPrecision"><path fill="none" d="M358.8965 -50.5641 L321.8004 -50.5641 L321.8004 -288.3529" transform="matrix(1,0,0,1,-81,638)"/><path stroke="none" d="M366.8965 -50.5641 L354.8965 -55.5641 L357.8965 -50.5641 L354.8965 -45.5641 Z" transform="matrix(1,0,0,1,-81,638)"/></g></g><g id="y.edge.5"><g stroke-linecap="butt" stroke-miterlimit="1.45" shape-rendering="geometricPrecision" text-rendering="geometricPrecision"><path fill="none" d="M619.3177 -370.7945 L619.3177 -323.2849" transform="matrix(1,0,0,1,-81,638)"/><path stroke="none" d="M619.3177 -315.2849 L624.3177 -327.2849 L619.3177 -324.2849 L614.3177 -327.2849 Z" transform="matrix(1,0,0,1,-81,638)"/></g><g><g stroke-linecap="butt" stroke-miterlimit="1.45" font-family="sans-serif" shape-rendering="geometricPrecision" text-rendering="geometricPrecision"><text x="622.921" y="-336.465" stroke="none" transform="matrix(1,0,0,1,-81,638)" xml:space="preserve">schema:itemListElement</text></g></g></g><g id="y.edge.13"><g stroke-linecap="butt" stroke-miterlimit="1.45" shape-rendering="geometricPrecision" text-rendering="geometricPrecision"><path fill="none" d="M561.6694 -303.3825 L468.9503 -303.3825" transform="matrix(1,0,0,1,-81,638)"/><path stroke="none" d="M460.9503 -303.3825 L472.9503 -298.3825 L469.9503 -303.3825 L472.9503 -308.3825 Z" transform="matrix(1,0,0,1,-81,638)"/></g><g><g stroke-linecap="butt" stroke-miterlimit="1.45" font-family="sans-serif" shape-rendering="geometricPrecision" text-rendering="geometricPrecision"><text x="437.313" y="-327.965" stroke="none" transform="matrix(1,0,0,1,-81,638)" xml:space="preserve">schema:publishingPrinciples</text></g></g></g><g id="y.edge.6"><g stroke-linecap="butt" stroke-miterlimit="1.45" shape-rendering="geometricPrecision" text-rendering="geometricPrecision"><path fill="none" d="M573.7155 -585 L348.9522 -585" transform="matrix(1,0,0,1,-81,638)"/><path stroke="none" d="M340.9522 -585 L352.9522 -580 L349.9522 -585 L352.9522 -590 Z" transform="matrix(1,0,0,1,-81,638)"/></g><g><g stroke-linecap="butt" stroke-miterlimit="1.45" font-family="sans-serif" shape-rendering="geometricPrecision" text-rendering="geometricPrecision"><text x="392.198" y="-591.276" stroke="none" transform="matrix(1,0,0,1,-81,638)" xml:space="preserve">schema:provider</text></g></g></g><g id="y.edge.12"><g stroke-linecap="butt" stroke-miterlimit="1.45" shape-rendering="geometricPrecision" text-rendering="geometricPrecision"><path fill="none" d="M309.4416 -568.194 L309.4416 -326.4139" transform="matrix(1,0,0,1,-81,638)"/><path stroke="none" d="M309.4416 -318.4139 L314.4416 -330.4139 L309.4416 -327.4139 L304.4416 -330.4139 Z" transform="matrix(1,0,0,1,-81,638)"/></g><g><g stroke-linecap="butt" stroke-miterlimit="1.45" font-family="sans-serif" shape-rendering="geometricPrecision" text-rendering="geometricPrecision"><text x="310.813" y="-363.965" stroke="none" transform="matrix(1,0,0,1,-81,638)" xml:space="preserve">schema:publishingPrinciples</text></g></g></g><g id="y.edge.7"><g stroke-linecap="butt" stroke-miterlimit="1.45" shape-rendering="geometricPrecision" text-rendering="geometricPrecision"><path fill="none" d="M329.833 -568.189 L329.833 -540.1648 L447.2996 -540.1648" transform="matrix(1,0,0,1,-81,638)"/><path stroke="none" d="M455.2996 -540.1648 L443.2996 -545.1648 L446.2996 -540.1648 L443.2996 -535.1648 Z" transform="matrix(1,0,0,1,-81,638)"/></g><g><g stroke-linecap="butt" stroke-miterlimit="1.45" font-family="sans-serif" shape-rendering="geometricPrecision" text-rendering="geometricPrecision"><text x="340.261" y="-545.965" stroke="none" transform="matrix(1,0,0,1,-81,638)" xml:space="preserve">schema:funder</text></g></g></g><g id="y.edge.8"><g stroke-linecap="butt" stroke-miterlimit="1.45" shape-rendering="geometricPrecision" text-rendering="geometricPrecision"><path fill="none" d="M321.8004 -568.1861 L321.8004 -466.1411 L378.8029 -466.1411" transform="matrix(1,0,0,1,-81,638)"/><path stroke="none" d="M386.8029 -466.1411 L374.8029 -471.1411 L377.8029 -466.1411 L374.8029 -461.1411 Z" transform="matrix(1,0,0,1,-81,638)"/></g><g><g stroke-linecap="butt" stroke-miterlimit="1.45" font-family="sans-serif" shape-rendering="geometricPrecision" text-rendering="geometricPrecision"><text x="341.427" y="-488.965" stroke="none" transform="matrix(1,0,0,1,-81,638)" xml:space="preserve">schema:contactPoint</text></g></g></g><g id="y.edge.18"><g stroke-linecap="butt" stroke-miterlimit="1.45" shape-rendering="geometricPrecision" text-rendering="geometricPrecision"><path fill="none" d="M676.2729 -583.1885 L811.8574 -583.1885" transform="matrix(1,0,0,1,-81,638)"/><path stroke="none" d="M819.8574 -583.1885 L807.8574 -588.1885 L810.8574 -583.1885 L807.8574 -578.1885 Z" transform="matrix(1,0,0,1,-81,638)"/></g><g><g stroke-linecap="butt" stroke-miterlimit="1.45" font-family="sans-serif" shape-rendering="geometricPrecision" text-rendering="geometricPrecision"><text x="680.97" y="-608.653" stroke="none" transform="matrix(1,0,0,1,-81,638)" xml:space="preserve">schema:additionalType</text></g></g></g><g id="y.edge.16"><g stroke-dasharray="6 2" stroke-linecap="butt" stroke-miterlimit="1.45" shape-rendering="geometricPrecision" text-rendering="geometricPrecision"><path fill="none" d="M684.031 -228.7115 L631.1238 -228.7115 L631.1238 -270.2614" transform="matrix(1,0,0,1,-81,638)"/><path fill="#fff" stroke="none" d="M631.1238 -285.2614 L625.1238 -269.2614 L637.1238 -269.2614 Z" transform="matrix(1,0,0,1,-81,638)"/><path fill="none" stroke-dasharray="none" d="M631.1238 -285.2614 L625.1238 -269.2614 L637.1238 -269.2614 Z" transform="matrix(1,0,0,1,-81,638)"/></g><g><g stroke-linecap="butt" stroke-miterlimit="1.45" font-family="sans-serif" shape-rendering="geometricPrecision" text-rendering="geometricPrecision"><text x="669.441" y="-261.176" stroke="none" transform="matrix(1,0,0,1,-81,638)" xml:space="preserve">rdfs:subClassOf</text></g></g></g><g id="y.edge.17"><g stroke-dasharray="6 2" stroke-linecap="butt" stroke-miterlimit="1.45" shape-rendering="geometricPrecision" text-rendering="geometricPrecision"><path fill="none" d="M684.031 -183.9934 L631.1238 -183.9934 L631.1238 -270.2786" transform="matrix(1,0,0,1,-81,638)"/><path fill="#fff" stroke="none" d="M631.1238 -285.2786 L625.1238 -269.2786 L637.1238 -269.2786 Z" transform="matrix(1,0,0,1,-81,638)"/><path fill="none" stroke-dasharray="none" d="M631.1238 -285.2786 L625.1238 -269.2786 L637.1238 -269.2786 Z" transform="matrix(1,0,0,1,-81,638)"/></g></g><g id="y.edge.9"><g stroke-linecap="butt" stroke-miterlimit="1.45" shape-rendering="geometricPrecision" text-rendering="geometricPrecision"><path fill="none" d="M891.076 -312.0528 L830.4138 -312.0528 L830.4138 -405.5715" transform="matrix(1,0,0,1,-81,638)"/><path stroke="none" d="M899.076 -312.0528 L887.076 -317.0528 L890.076 -312.0528 L887.076 -307.0528 Z" transform="matrix(1,0,0,1,-81,638)"/></g></g><g id="y.edge.14"><g stroke-linecap="butt" stroke-miterlimit="1.45" shape-rendering="geometricPrecision" text-rendering="geometricPrecision"><path fill="none" d="M891.0642 -358.0242 L830.4138 -358.0242 L830.4138 -405.6016" transform="matrix(1,0,0,1,-81,638)"/><path stroke="none" d="M899.0642 -358.0242 L887.0642 -363.0242 L890.0642 -358.0242 L887.0642 -353.0242 Z" transform="matrix(1,0,0,1,-81,638)"/></g><g><g stroke-linecap="butt" stroke-miterlimit="1.45" font-family="sans-serif" shape-rendering="geometricPrecision" text-rendering="geometricPrecision"><text x="838.238" y="-383.465" stroke="none" transform="matrix(1,0,0,1,-81,638)" xml:space="preserve">schema:additionalType</text></g></g></g><g id="y.edge.15"><g stroke-linecap="butt" stroke-miterlimit="1.45" shape-rendering="geometricPrecision" text-rendering="geometricPrecision"><path fill="none" d="M891.0642 -266.0815 L830.4138 -266.0815 L830.4138 -405.6016" transform="matrix(1,0,0,1,-81,638)"/><path stroke="none" d="M899.0642 -266.0815 L887.0642 -271.0815 L890.0642 -266.0815 L887.0642 -261.0815 Z" transform="matrix(1,0,0,1,-81,638)"/></g></g><g id="y.edge.19"><g stroke-linecap="butt" stroke-miterlimit="1.45" shape-rendering="geometricPrecision" text-rendering="geometricPrecision"><path fill="none" d="M803.7227 -491.5782 L803.7227 -443.612" transform="matrix(1,0,0,1,-81,638)"/><path stroke="none" d="M803.7227 -435.612 L808.7227 -447.612 L803.7227 -444.612 L798.7227 -447.612 Z" transform="matrix(1,0,0,1,-81,638)"/></g><g><g stroke-linecap="butt" stroke-miterlimit="1.45" font-family="sans-serif" shape-rendering="geometricPrecision" text-rendering="geometricPrecision"><text x="813.491" y="-455.057" stroke="none" transform="matrix(1,0,0,1,-81,638)" xml:space="preserve">schema:providesService</text></g></g></g><g id="y.edge.20"><g stroke-linecap="butt" stroke-miterlimit="1.45" shape-rendering="geometricPrecision" text-rendering="geometricPrecision"><path fill="none" d="M254.1492 -568.1869 L254.1492 -546.1564" transform="matrix(1,0,0,1,-81,638)"/><path stroke="none" d="M254.1492 -538.1564 L259.1492 -550.1564 L254.1492 -547.1564 L249.1492 -550.1564 Z" transform="matrix(1,0,0,1,-81,638)"/></g><g><g stroke-linecap="butt" stroke-miterlimit="1.45" font-family="sans-serif" shape-rendering="geometricPrecision" text-rendering="geometricPrecision"><text x="141.194" y="-543.965" stroke="none" transform="matrix(1,0,0,1,-81,638)" xml:space="preserve">schema:identifier</text></g></g></g><g id="y.edge.21"><g stroke-linecap="butt" stroke-miterlimit="1.45" shape-rendering="geometricPrecision" text-rendering="geometricPrecision"><path fill="none" d="M241.6902 -508.1818 L241.6902 -480.6954" transform="matrix(1,0,0,1,-81,638)"/><path stroke="none" d="M241.6902 -472.6954 L246.6902 -484.6954 L241.6902 -481.6954 L236.6902 -484.6954 Z" transform="matrix(1,0,0,1,-81,638)"/></g><g><g stroke-linecap="butt" stroke-miterlimit="1.45" font-family="sans-serif" shape-rendering="geometricPrecision" text-rendering="geometricPrecision"><text x="98.753" y="-489.129" stroke="none" transform="matrix(1,0,0,1,-81,638)" xml:space="preserve">schema:additionalType</text></g></g></g><g id="y.edge.22"><g stroke-linecap="butt" stroke-miterlimit="1.45" shape-rendering="geometricPrecision" text-rendering="geometricPrecision"><path fill="none" d="M283.1492 -568.2087 L283.1492 -381.0337" transform="matrix(1,0,0,1,-81,638)"/><path stroke="none" d="M283.1492 -373.0337 L288.1492 -385.0337 L283.1492 -382.0337 L278.1492 -385.0337 Z" transform="matrix(1,0,0,1,-81,638)"/></g><g><g stroke-linecap="butt" stroke-miterlimit="1.45" font-family="sans-serif" shape-rendering="geometricPrecision" text-rendering="geometricPrecision"><text x="131.338" y="-388.965" stroke="none" transform="matrix(1,0,0,1,-81,638)" xml:space="preserve">schema:hasOfferCatalog</text></g></g></g><g id="y.edge.24"><g stroke-linecap="butt" stroke-miterlimit="1.45" shape-rendering="geometricPrecision" text-rendering="geometricPrecision"><path fill="none" d="M242.2543 -269.0055 L262.2543 -269.0055 L262.2543 -335.0426" transform="matrix(1,0,0,1,-81,638)"/><path stroke="none" d="M262.2543 -343.0426 L257.2543 -331.0426 L262.2543 -334.0426 L267.2543 -331.0426 Z" transform="matrix(1,0,0,1,-81,638)"/></g></g><g id="y.edge.23"><g stroke-linecap="butt" stroke-miterlimit="1.45" shape-rendering="geometricPrecision" text-rendering="geometricPrecision"><path fill="none" d="M262.2543 -234.3772 L262.2543 -335.0211" transform="matrix(1,0,0,1,-81,638)"/><path stroke="none" d="M262.2543 -343.0211 L257.2543 -331.0211 L262.2543 -334.0211 L267.2543 -331.0211 Z" transform="matrix(1,0,0,1,-81,638)"/></g><g><g stroke-linecap="butt" stroke-miterlimit="1.45" font-family="sans-serif" shape-rendering="geometricPrecision" text-rendering="geometricPrecision"><text x="108.404" y="-300.965" stroke="none" transform="matrix(1,0,0,1,-81,638)" xml:space="preserve">schema:additionalType</text></g></g></g></g></svg>