<svg xmlns="http://www.w3.org/2000/svg" xmlns:xlink="http://www.w3.org/1999/xlink" width="950" height="549" fill="#000" fill-opacity="1" stroke="#000" stroke-dasharray="none" stroke-dashoffset="0" stroke-linecap="square" stroke-linejoin="miter" stroke-miterlimit="10" stroke-opacity="1" stroke-width="1" color-interpolation="auto" color-rendering="auto" font-family="'Dialog'" font-size="12" font-style="normal" font-weight="normal" image-rendering="auto" shape-rendering="auto" text-rendering="auto"><g><defs id="defs1"><clipPath id="clipPath1" clipPathUnits="userSpaceOnUse"><path d="M0 0 L950 0 L950 549 L0 549 L0 0 Z"/></clipPath><clipPath id="clipPath2" clipPathUnits="userSpaceOnUse"><path d="M583 -648 L1533 -648 L1533 -99 L583 -99 L583 -648 Z"/></clipPath></defs><g fill="#fff" stroke="#fff" shape-rendering="geometricPrecision" text-rendering="geometricPrecision" transform="translate(-583,648)"><rect width="950" height="549" x="583" y="-648" stroke="none" clip-path="url(#clipPath2)"/></g><g id="y.node.0"><a target="_blank" xlink:href="http://schema.org/Service" xlink:show="new" xlink:type="simple"><g fill="#CFC" stroke="#CFC" shape-rendering="geometricPrecision" text-rendering="geometricPrecision" transform="matrix(1,0,0,1,-583,648)"><rect width="102.594" height="30" x="625.092" y="-598.188" stroke="none"/></g><g stroke-linecap="butt" stroke-miterlimit="1.45" shape-rendering="geometricPrecision" text-rendering="geometricPrecision" transform="matrix(1,0,0,1,-583,648)"><rect width="102.594" height="30" x="625.092" y="-598.188" fill="none"/></g><g><g stroke-linecap="butt" stroke-miterlimit="1.45" font-family="sans-serif" shape-rendering="geometricPrecision" text-rendering="geometricPrecision"><text x="632.092" y="-578.653" stroke="none" transform="matrix(1,0,0,1,-583,648)" xml:space="preserve">schema:Service</text></g></g></a></g><g id="y.node.1"><a target="_blank" xlink:href="http://schema.org/ServiceChannel" xlink:show="new" xlink:type="simple"><g fill="#CFC" stroke="#CFC" shape-rendering="geometricPrecision" text-rendering="geometricPrecision" transform="matrix(1,0,0,1,-583,648)"><rect width="150.019" height="30" x="728.713" y="-521.578" stroke="none"/></g><g stroke-linecap="butt" stroke-miterlimit="1.45" shape-rendering="geometricPrecision" text-rendering="geometricPrecision" transform="matrix(1,0,0,1,-583,648)"><rect width="150.019" height="30" x="728.713" y="-521.578" fill="none"/></g><g><g stroke-linecap="butt" stroke-miterlimit="1.45" font-family="sans-serif" shape-rendering="geometricPrecision" text-rendering="geometricPrecision"><text x="735.713" y="-502.043" stroke="none" transform="matrix(1,0,0,1,-583,648)" xml:space="preserve">schema:ServiceChannel</text></g></g></a></g><g id="y.node.2"><a target="_blank" xlink:href="https://geodex.org/voc/ResearchRepositoryService" xlink:show="new" xlink:type="simple"><g fill="#FC0" stroke="#FC0" shape-rendering="geometricPrecision" text-rendering="geometricPrecision" transform="matrix(1,0,0,1,-583,648)"><rect width="194.791" height="30" x="855.433" y="-598.188" stroke="none"/></g><g stroke-linecap="butt" stroke-miterlimit="1.45" shape-rendering="geometricPrecision" text-rendering="geometricPrecision" transform="matrix(1,0,0,1,-583,648)"><rect width="194.791" height="30" x="855.433" y="-598.188" fill="none"/></g><g><g stroke-linecap="butt" stroke-miterlimit="1.45" font-family="sans-serif" shape-rendering="geometricPrecision" text-rendering="geometricPrecision"><text x="862.433" y="-578.653" stroke="none" transform="matrix(1,0,0,1,-583,648)" xml:space="preserve">gdx:ResearchRepositoryService</text></g></g></a></g><g id="y.node.3"><g fill="#0CF" stroke="#0CF" shape-rendering="geometricPrecision" text-rendering="geometricPrecision" transform="matrix(1,0,0,1,-583,648)"><ellipse cx="621.899" cy="-324.214" stroke="none" rx="20.061" ry="15"/></g><g stroke-linecap="butt" stroke-miterlimit="1.45" shape-rendering="geometricPrecision" text-rendering="geometricPrecision" transform="matrix(1,0,0,1,-583,648)"><ellipse cx="621.899" cy="-324.214" fill="none" rx="20.061" ry="15"/></g><g><g stroke-linecap="butt" stroke-miterlimit="1.45" font-family="sans-serif" shape-rendering="geometricPrecision" text-rendering="geometricPrecision"><text x="608.839" y="-319.679" stroke="none" transform="matrix(1,0,0,1,-583,648)" xml:space="preserve">Text</text></g></g></g><g id="y.node.4"><g fill="#0CF" stroke="#0CF" shape-rendering="geometricPrecision" text-rendering="geometricPrecision" transform="matrix(1,0,0,1,-583,648)"><ellipse cx="616.696" cy="-463.792" stroke="none" rx="18.15" ry="15"/></g><g stroke-linecap="butt" stroke-miterlimit="1.45" shape-rendering="geometricPrecision" text-rendering="geometricPrecision" transform="matrix(1,0,0,1,-583,648)"><ellipse cx="616.696" cy="-463.792" fill="none" rx="18.15" ry="15"/></g><g><g stroke-linecap="butt" stroke-miterlimit="1.45" font-family="sans-serif" shape-rendering="geometricPrecision" text-rendering="geometricPrecision"><text x="605.546" y="-459.257" stroke="none" transform="matrix(1,0,0,1,-583,648)" xml:space="preserve">URL</text></g></g></g><g id="y.node.5"><a target="_blank" xlink:href="https://geodex.org/voc/SearchService" xlink:show="new" xlink:type="simple"><g fill="#ff0" stroke="#ff0" shape-rendering="geometricPrecision" text-rendering="geometricPrecision" transform="matrix(1,0,0,1,-583,648)"><ellipse cx="883.807" cy="-321.631" stroke="none" rx="59.52" ry="17.583"/></g><g stroke-linecap="butt" stroke-miterlimit="1.45" shape-rendering="geometricPrecision" text-rendering="geometricPrecision" transform="matrix(1,0,0,1,-583,648)"><ellipse cx="883.807" cy="-321.631" fill="none" rx="59.52" ry="17.583"/></g><g><g stroke-linecap="butt" stroke-miterlimit="1.45" font-family="sans-serif" shape-rendering="geometricPrecision" text-rendering="geometricPrecision"><text x="831.286" y="-317.096" stroke="none" transform="matrix(1,0,0,1,-583,648)" xml:space="preserve">gdx:SearchService</text></g></g></a></g><g id="y.node.6"><a target="_blank" xlink:href="https://geodex.org/voc/SubmissionService" xlink:show="new" xlink:type="simple"><g fill="#ff0" stroke="#ff0" shape-rendering="geometricPrecision" text-rendering="geometricPrecision" transform="matrix(1,0,0,1,-583,648)"><ellipse cx="897.995" cy="-275.66" stroke="none" rx="73.709" ry="17.583"/></g><g stroke-linecap="butt" stroke-miterlimit="1.45" shape-rendering="geometricPrecision" text-rendering="geometricPrecision" transform="matrix(1,0,0,1,-583,648)"><ellipse cx="897.995" cy="-275.66" fill="none" rx="73.709" ry="17.583"/></g><g><g stroke-linecap="butt" stroke-miterlimit="1.45" font-family="sans-serif" shape-rendering="geometricPrecision" text-rendering="geometricPrecision"><text x="831.286" y="-271.125" stroke="none" transform="matrix(1,0,0,1,-583,648)" xml:space="preserve">gdx:SubmissionService</text></g></g></a></g><g id="y.node.7"><a target="_blank" xlink:href="https://geodex.org/voc/SyndicationService" xlink:show="new" xlink:type="simple"><g fill="#ff0" stroke="#ff0" shape-rendering="geometricPrecision" text-rendering="geometricPrecision" transform="matrix(1,0,0,1,-583,648)"><ellipse cx="898.042" cy="-229.688" stroke="none" rx="73.756" ry="17.583"/></g><g stroke-linecap="butt" stroke-miterlimit="1.45" shape-rendering="geometricPrecision" text-rendering="geometricPrecision" transform="matrix(1,0,0,1,-583,648)"><ellipse cx="898.042" cy="-229.688" fill="none" rx="73.756" ry="17.583"/></g><g><g stroke-linecap="butt" stroke-miterlimit="1.45" font-family="sans-serif" shape-rendering="geometricPrecision" text-rendering="geometricPrecision"><text x="831.286" y="-225.153" stroke="none" transform="matrix(1,0,0,1,-583,648)" xml:space="preserve">gdx:SyndicationService</text></g></g></a></g><g id="y.node.8"><a target="_blank" xlink:href="http://schema.org/Service" xlink:show="new" xlink:type="simple"><g fill="#CFC" stroke="#CFC" shape-rendering="geometricPrecision" text-rendering="geometricPrecision" transform="matrix(1,0,0,1,-583,648)"><rect width="102.594" height="30" x="752.426" y="-410.185" stroke="none"/></g><g stroke-linecap="butt" stroke-miterlimit="1.45" shape-rendering="geometricPrecision" text-rendering="geometricPrecision" transform="matrix(1,0,0,1,-583,648)"><rect width="102.594" height="30" x="752.426" y="-410.185" fill="none"/></g><g><g stroke-linecap="butt" stroke-miterlimit="1.45" font-family="sans-serif" shape-rendering="geometricPrecision" text-rendering="geometricPrecision"><text x="759.426" y="-390.65" stroke="none" transform="matrix(1,0,0,1,-583,648)" xml:space="preserve">schema:Service</text></g></g></a></g><g id="y.node.9"><a target="_blank" xlink:href="http://schema.org/Service" xlink:show="new" xlink:type="simple"><g fill="#CFC" stroke="#CFC" shape-rendering="geometricPrecision" text-rendering="geometricPrecision" transform="matrix(1,0,0,1,-583,648)"><rect width="99.225" height="30" x="1046.314" y="-410.185" stroke="none"/></g><g stroke-linecap="butt" stroke-miterlimit="1.45" shape-rendering="geometricPrecision" text-rendering="geometricPrecision" transform="matrix(1,0,0,1,-583,648)"><rect width="99.225" height="30" x="1046.314" y="-410.185" fill="none"/></g><g><g stroke-linecap="butt" stroke-miterlimit="1.45" font-family="sans-serif" shape-rendering="geometricPrecision" text-rendering="geometricPrecision"><text x="1053.314" y="-390.65" stroke="none" transform="matrix(1,0,0,1,-583,648)" xml:space="preserve">schema:Action</text></g></g></a></g><g id="y.node.10"><a target="_blank" xlink:href="https://schema.org/SearchAction" xlink:show="new" xlink:type="simple"><g fill="#ff0" stroke="#ff0" shape-rendering="geometricPrecision" text-rendering="geometricPrecision" transform="matrix(1,0,0,1,-583,648)"><ellipse cx="1115.748" cy="-321.631" stroke="none" rx="68.752" ry="17.583"/></g><g stroke-linecap="butt" stroke-miterlimit="1.45" shape-rendering="geometricPrecision" text-rendering="geometricPrecision" transform="matrix(1,0,0,1,-583,648)"><ellipse cx="1115.748" cy="-321.631" fill="none" rx="68.752" ry="17.583"/></g><g><g stroke-linecap="butt" stroke-miterlimit="1.45" font-family="sans-serif" shape-rendering="geometricPrecision" text-rendering="geometricPrecision"><text x="1053.996" y="-317.096" stroke="none" transform="matrix(1,0,0,1,-583,648)" xml:space="preserve">schema:SearchAction</text></g></g></a></g><g id="y.node.11"><a target="_blank" xlink:href="https://schema.org/CreateAction" xlink:show="new" xlink:type="simple"><g fill="#ff0" stroke="#ff0" shape-rendering="geometricPrecision" text-rendering="geometricPrecision" transform="matrix(1,0,0,1,-583,648)"><ellipse cx="1116.038" cy="-275.66" stroke="none" rx="68.462" ry="17.583"/></g><g stroke-linecap="butt" stroke-miterlimit="1.45" shape-rendering="geometricPrecision" text-rendering="geometricPrecision" transform="matrix(1,0,0,1,-583,648)"><ellipse cx="1116.038" cy="-275.66" fill="none" rx="68.462" ry="17.583"/></g><g><g stroke-linecap="butt" stroke-miterlimit="1.45" font-family="sans-serif" shape-rendering="geometricPrecision" text-rendering="geometricPrecision"><text x="1054.576" y="-271.125" stroke="none" transform="matrix(1,0,0,1,-583,648)" xml:space="preserve">schema:CreateAction</text></g></g></a></g><g id="y.node.12"><a target="_blank" xlink:href="https://schema.org/ConsumeAction" xlink:show="new" xlink:type="simple"><g fill="#ff0" stroke="#ff0" shape-rendering="geometricPrecision" text-rendering="geometricPrecision" transform="matrix(1,0,0,1,-583,648)"><ellipse cx="1107.601" cy="-229.688" stroke="none" rx="76.899" ry="17.583"/></g><g stroke-linecap="butt" stroke-miterlimit="1.45" shape-rendering="geometricPrecision" text-rendering="geometricPrecision" transform="matrix(1,0,0,1,-583,648)"><ellipse cx="1107.601" cy="-229.688" fill="none" rx="76.899" ry="17.583"/></g><g><g stroke-linecap="butt" stroke-miterlimit="1.45" font-family="sans-serif" shape-rendering="geometricPrecision" text-rendering="geometricPrecision"><text x="1037.701" y="-225.153" stroke="none" transform="matrix(1,0,0,1,-583,648)" xml:space="preserve">schema:ConsumeAction</text></g></g></a></g><g id="y.node.13"><a target="_blank" xlink:href="https://geodex.org/voc/SitemapXML" xlink:show="new" xlink:type="simple"><g fill="#ff0" stroke="#ff0" shape-rendering="geometricPrecision" text-rendering="geometricPrecision" transform="matrix(1,0,0,1,-583,648)"><ellipse cx="992.871" cy="-176.187" stroke="none" rx="55.463" ry="15"/></g><g stroke-linecap="butt" stroke-miterlimit="1.45" shape-rendering="geometricPrecision" text-rendering="geometricPrecision" transform="matrix(1,0,0,1,-583,648)"><ellipse cx="992.871" cy="-176.187" fill="none" rx="55.463" ry="15"/></g><g><g stroke-linecap="butt" stroke-miterlimit="1.45" font-family="sans-serif" shape-rendering="geometricPrecision" text-rendering="geometricPrecision"><text x="944.408" y="-171.652" stroke="none" transform="matrix(1,0,0,1,-583,648)" xml:space="preserve">gdx:SitemapXML</text></g></g></a></g><g id="y.node.14"><a target="_blank" xlink:href="http://schema.org/EntryPoint" xlink:show="new" xlink:type="simple"><g fill="#CFC" stroke="#CFC" shape-rendering="geometricPrecision" text-rendering="geometricPrecision" transform="matrix(1,0,0,1,-583,648)"><rect width="121.051" height="30" x="1343.824" y="-342.187" stroke="none"/></g><g stroke-linecap="butt" stroke-miterlimit="1.45" shape-rendering="geometricPrecision" text-rendering="geometricPrecision" transform="matrix(1,0,0,1,-583,648)"><rect width="121.051" height="30" x="1343.824" y="-342.187" fill="none"/></g><g><g stroke-linecap="butt" stroke-miterlimit="1.45" font-family="sans-serif" shape-rendering="geometricPrecision" text-rendering="geometricPrecision"><text x="1350.824" y="-322.652" stroke="none" transform="matrix(1,0,0,1,-583,648)" xml:space="preserve">schema:EntryPoint</text></g></g></a></g><g id="y.node.15"><a target="_blank" xlink:href="https://schema.org/PropertyValueSpecification" xlink:show="new" xlink:type="simple"><g fill="#CFC" stroke="#CFC" shape-rendering="geometricPrecision" text-rendering="geometricPrecision" transform="matrix(1,0,0,1,-583,648)"><rect width="216.664" height="30" x="1086.299" y="-521.578" stroke="none"/></g><g stroke-linecap="butt" stroke-miterlimit="1.45" shape-rendering="geometricPrecision" text-rendering="geometricPrecision" transform="matrix(1,0,0,1,-583,648)"><rect width="216.664" height="30" x="1086.299" y="-521.578" fill="none"/></g><g><g stroke-linecap="butt" stroke-miterlimit="1.45" font-family="sans-serif" shape-rendering="geometricPrecision" text-rendering="geometricPrecision"><text x="1093.299" y="-502.043" stroke="none" transform="matrix(1,0,0,1,-583,648)" xml:space="preserve">schema:PropertyValueSpecification</text></g></g></a></g><g id="y.node.16"><g fill="#0CF" stroke="#0CF" shape-rendering="geometricPrecision" text-rendering="geometricPrecision" transform="matrix(1,0,0,1,-583,648)"><ellipse cx="1106.359" cy="-617.971" stroke="none" rx="20.061" ry="15"/></g><g stroke-linecap="butt" stroke-miterlimit="1.45" shape-rendering="geometricPrecision" text-rendering="geometricPrecision" transform="matrix(1,0,0,1,-583,648)"><ellipse cx="1106.359" cy="-617.971" fill="none" rx="20.061" ry="15"/></g><g><g stroke-linecap="butt" stroke-miterlimit="1.45" font-family="sans-serif" shape-rendering="geometricPrecision" text-rendering="geometricPrecision"><text x="1093.299" y="-613.436" stroke="none" transform="matrix(1,0,0,1,-583,648)" xml:space="preserve">Text</text></g></g></g><g id="y.node.17"><g fill="#0CF" stroke="#0CF" shape-rendering="geometricPrecision" text-rendering="geometricPrecision" transform="matrix(1,0,0,1,-583,648)"><ellipse cx="1434.938" cy="-506.578" stroke="none" rx="29.936" ry="15"/></g><g stroke-linecap="butt" stroke-miterlimit="1.45" shape-rendering="geometricPrecision" text-rendering="geometricPrecision" transform="matrix(1,0,0,1,-583,648)"><ellipse cx="1434.938" cy="-506.578" fill="none" rx="29.936" ry="15"/></g><g><g stroke-linecap="butt" stroke-miterlimit="1.45" font-family="sans-serif" shape-rendering="geometricPrecision" text-rendering="geometricPrecision"><text x="1412.002" y="-502.043" stroke="none" transform="matrix(1,0,0,1,-583,648)" xml:space="preserve">Boolean</text></g></g></g><g id="y.node.18"><g fill="#0CF" stroke="#0CF" shape-rendering="geometricPrecision" text-rendering="geometricPrecision" transform="matrix(1,0,0,1,-583,648)"><ellipse cx="1288.543" cy="-617.971" stroke="none" rx="30.332" ry="15"/></g><g stroke-linecap="butt" stroke-miterlimit="1.45" shape-rendering="geometricPrecision" text-rendering="geometricPrecision" transform="matrix(1,0,0,1,-583,648)"><ellipse cx="1288.543" cy="-617.971" fill="none" rx="30.332" ry="15"/></g><g><g stroke-linecap="butt" stroke-miterlimit="1.45" font-family="sans-serif" shape-rendering="geometricPrecision" text-rendering="geometricPrecision"><text x="1265.211" y="-613.436" stroke="none" transform="matrix(1,0,0,1,-583,648)" xml:space="preserve">Number</text></g></g></g><g id="y.node.19"><g fill="#0CF" stroke="#0CF" shape-rendering="geometricPrecision" text-rendering="geometricPrecision" transform="matrix(1,0,0,1,-583,648)"><ellipse cx="1363.885" cy="-246.188" stroke="none" rx="20.061" ry="15"/></g><g stroke-linecap="butt" stroke-miterlimit="1.45" shape-rendering="geometricPrecision" text-rendering="geometricPrecision" transform="matrix(1,0,0,1,-583,648)"><ellipse cx="1363.885" cy="-246.188" fill="none" rx="20.061" ry="15"/></g><g><g stroke-linecap="butt" stroke-miterlimit="1.45" font-family="sans-serif" shape-rendering="geometricPrecision" text-rendering="geometricPrecision"><text x="1350.824" y="-241.653" stroke="none" transform="matrix(1,0,0,1,-583,648)" xml:space="preserve">Text</text></g></g></g><g id="y.node.20"><g fill="#0CF" stroke="#0CF" shape-rendering="geometricPrecision" text-rendering="geometricPrecision" transform="matrix(1,0,0,1,-583,648)"><ellipse cx="1428.893" cy="-395.185" stroke="none" rx="18.15" ry="15"/></g><g stroke-linecap="butt" stroke-miterlimit="1.45" shape-rendering="geometricPrecision" text-rendering="geometricPrecision" transform="matrix(1,0,0,1,-583,648)"><ellipse cx="1428.893" cy="-395.185" fill="none" rx="18.15" ry="15"/></g><g><g stroke-linecap="butt" stroke-miterlimit="1.45" font-family="sans-serif" shape-rendering="geometricPrecision" text-rendering="geometricPrecision"><text x="1417.743" y="-390.65" stroke="none" transform="matrix(1,0,0,1,-583,648)" xml:space="preserve">URL</text></g></g></g><g id="y.node.21"><a target="_blank" xlink:href="http://schema.org/EntryPoint" xlink:show="new" xlink:type="simple"><g fill="#CFC" stroke="#CFC" shape-rendering="geometricPrecision" text-rendering="geometricPrecision" transform="matrix(1,0,0,1,-583,648)"><rect width="95.457" height="30" x="1207.506" y="-191.187" stroke="none"/></g><g stroke-linecap="butt" stroke-miterlimit="1.45" shape-rendering="geometricPrecision" text-rendering="geometricPrecision" transform="matrix(1,0,0,1,-583,648)"><rect width="95.457" height="30" x="1207.506" y="-191.187" fill="none"/></g><g><g stroke-linecap="butt" stroke-miterlimit="1.45" font-family="sans-serif" shape-rendering="geometricPrecision" text-rendering="geometricPrecision"><text x="1214.506" y="-171.652" stroke="none" transform="matrix(1,0,0,1,-583,648)" xml:space="preserve">schema:Thing</text></g></g></a></g><g id="y.node.22"><a target="_blank" xlink:href="http://schema.org/EntryPoint" xlink:show="new" xlink:type="simple"><g fill="#CFC" stroke="#CFC" shape-rendering="geometricPrecision" text-rendering="geometricPrecision" transform="matrix(1,0,0,1,-583,648)"><rect width="152.346" height="30" x="1048.334" y="-144.73" stroke="none"/></g><g stroke-linecap="butt" stroke-miterlimit="1.45" shape-rendering="geometricPrecision" text-rendering="geometricPrecision" transform="matrix(1,0,0,1,-583,648)"><rect width="152.346" height="30" x="1048.334" y="-144.73" fill="none"/></g><g><g stroke-linecap="butt" stroke-miterlimit="1.45" font-family="sans-serif" shape-rendering="geometricPrecision" text-rendering="geometricPrecision"><text x="1055.334" y="-125.195" stroke="none" transform="matrix(1,0,0,1,-583,648)" xml:space="preserve">schema:DigitalDocumet</text></g></g></a></g><g id="y.edge.0"><g stroke-linecap="butt" stroke-miterlimit="1.45" shape-rendering="geometricPrecision" text-rendering="geometricPrecision"><path fill="none" d="M654.8464 -568.192 L654.8464 -511.7891 L720.6858 -511.7891" transform="matrix(1,0,0,1,-583,648)"/><path stroke="none" d="M728.6858 -511.7891 L716.6858 -516.7891 L719.6858 -511.7891 L716.6858 -506.7891 Z" transform="matrix(1,0,0,1,-583,648)"/></g><g><g stroke-linecap="butt" stroke-miterlimit="1.45" font-family="sans-serif" shape-rendering="geometricPrecision" text-rendering="geometricPrecision"><text x="669.907" y="-531.965" stroke="none" transform="matrix(1,0,0,1,-583,648)" xml:space="preserve">schema:availableChannel</text></g></g></g><g id="y.edge.1"><g stroke-linecap="butt" stroke-miterlimit="1.45" shape-rendering="geometricPrecision" text-rendering="geometricPrecision"><path fill="none" d="M727.6853 -583.1885 L847.4328 -583.1885" transform="matrix(1,0,0,1,-583,648)"/><path stroke="none" d="M855.4328 -583.1885 L843.4328 -588.1885 L846.4328 -583.1885 L843.4328 -578.1885 Z" transform="matrix(1,0,0,1,-583,648)"/></g><g><g stroke-linecap="butt" stroke-miterlimit="1.45" font-family="sans-serif" shape-rendering="geometricPrecision" text-rendering="geometricPrecision"><text x="724.463" y="-608.653" stroke="none" transform="matrix(1,0,0,1,-583,648)" xml:space="preserve">schema:additionalType</text></g></g></g><g id="y.edge.3"><g stroke-linecap="butt" stroke-miterlimit="1.45" shape-rendering="geometricPrecision" text-rendering="geometricPrecision"><path fill="none" d="M785 -491.5953 L785 -463.7919 L642.8464 -463.7919" transform="matrix(1,0,0,1,-583,648)"/><path stroke="none" d="M634.8464 -463.7919 L646.8464 -458.7919 L643.8464 -463.7919 L646.8464 -468.7919 Z" transform="matrix(1,0,0,1,-583,648)"/></g><g><g stroke-linecap="butt" stroke-miterlimit="1.45" font-family="sans-serif" shape-rendering="geometricPrecision" text-rendering="geometricPrecision"><text x="661.434" y="-450.465" stroke="none" transform="matrix(1,0,0,1,-583,648)" xml:space="preserve">schema:serviceUrl</text></g></g></g><g id="y.edge.4"><g stroke-linecap="butt" stroke-miterlimit="1.45" shape-rendering="geometricPrecision" text-rendering="geometricPrecision"><path fill="none" d="M830 -491.5562 L830 -418.196" transform="matrix(1,0,0,1,-583,648)"/><path stroke="none" d="M830 -410.196 L835 -422.196 L830 -419.196 L825 -422.196 Z" transform="matrix(1,0,0,1,-583,648)"/></g><g><g stroke-linecap="butt" stroke-miterlimit="1.45" font-family="sans-serif" shape-rendering="geometricPrecision" text-rendering="geometricPrecision"><text x="839.769" y="-446.346" stroke="none" transform="matrix(1,0,0,1,-583,648)" xml:space="preserve">schema:providesService</text></g></g></g><g id="y.edge.2"><g stroke-linecap="butt" stroke-miterlimit="1.45" shape-rendering="geometricPrecision" text-rendering="geometricPrecision"><path fill="none" d="M768.5742 -380.1652 L768.5742 -324.2137 L649.9597 -324.2137" transform="matrix(1,0,0,1,-583,648)"/><path stroke="none" d="M641.9597 -324.2137 L653.9597 -319.2137 L650.9597 -324.2137 L653.9597 -329.2137 Z" transform="matrix(1,0,0,1,-583,648)"/></g><g><g stroke-linecap="butt" stroke-miterlimit="1.45" font-family="sans-serif" shape-rendering="geometricPrecision" text-rendering="geometricPrecision"><text x="649.958" y="-351.031" stroke="none" transform="matrix(1,0,0,1,-583,648)" xml:space="preserve">schema:name,</text><text x="649.958" y="-336.898" stroke="none" transform="matrix(1,0,0,1,-583,648)" xml:space="preserve">schema:description</text></g></g></g><g id="y.edge.9"><g stroke-linecap="butt" stroke-miterlimit="1.45" shape-rendering="geometricPrecision" text-rendering="geometricPrecision"><path fill="none" d="M803.7227 -380.1851 L803.7227 -321.631 L816.2863 -321.631" transform="matrix(1,0,0,1,-583,648)"/><path stroke="none" d="M824.2863 -321.631 L812.2863 -326.631 L815.2863 -321.631 L812.2863 -316.631 Z" transform="matrix(1,0,0,1,-583,648)"/></g><g><g stroke-linecap="butt" stroke-miterlimit="1.45" font-family="sans-serif" shape-rendering="geometricPrecision" text-rendering="geometricPrecision"><text x="811.976" y="-356.248" stroke="none" transform="matrix(1,0,0,1,-583,648)" xml:space="preserve">schema:additionalType</text></g></g></g><g id="y.edge.10"><g stroke-linecap="butt" stroke-miterlimit="1.45" shape-rendering="geometricPrecision" text-rendering="geometricPrecision"><path fill="none" d="M803.7227 -380.1851 L803.7227 -275.6597 L816.2863 -275.6597" transform="matrix(1,0,0,1,-583,648)"/><path stroke="none" d="M824.2863 -275.6597 L812.2863 -280.6597 L815.2863 -275.6597 L812.2863 -270.6597 Z" transform="matrix(1,0,0,1,-583,648)"/></g></g><g id="y.edge.11"><g stroke-linecap="butt" stroke-miterlimit="1.45" shape-rendering="geometricPrecision" text-rendering="geometricPrecision"><path fill="none" d="M803.7227 -380.1851 L803.7227 -229.6883 L816.2863 -229.6883" transform="matrix(1,0,0,1,-583,648)"/><path stroke="none" d="M824.2863 -229.6883 L812.2863 -234.6883 L815.2863 -229.6883 L812.2863 -224.6883 Z" transform="matrix(1,0,0,1,-583,648)"/></g></g><g id="y.edge.5"><g stroke-linecap="butt" stroke-miterlimit="1.45" shape-rendering="geometricPrecision" text-rendering="geometricPrecision"><path fill="none" d="M855.0355 -395.1851 L1038.314 -395.1851" transform="matrix(1,0,0,1,-583,648)"/><path stroke="none" d="M1046.314 -395.1851 L1034.314 -400.1851 L1037.314 -395.1851 L1034.314 -390.1851 Z" transform="matrix(1,0,0,1,-583,648)"/></g><g><g stroke-linecap="butt" stroke-miterlimit="1.45" font-family="sans-serif" shape-rendering="geometricPrecision" text-rendering="geometricPrecision"><text x="878.496" y="-400.965" stroke="none" transform="matrix(1,0,0,1,-583,648)" xml:space="preserve">schema:potentialAction</text></g></g></g><g id="y.edge.12"><g stroke-linecap="butt" stroke-miterlimit="1.45" shape-rendering="geometricPrecision" text-rendering="geometricPrecision"><path fill="none" d="M1145.5466 -389.1851 L1212.9354 -389.1851 L1212.9354 -321.631 L1192.5 -321.631" transform="matrix(1,0,0,1,-583,648)"/><path stroke="none" d="M1184.5 -321.631 L1196.5 -316.631 L1193.5 -321.631 L1196.5 -326.631 Z" transform="matrix(1,0,0,1,-583,648)"/></g><g><g stroke-linecap="butt" stroke-miterlimit="1.45" font-family="sans-serif" shape-rendering="geometricPrecision" text-rendering="geometricPrecision"><text x="1170.254" y="-350.465" stroke="none" transform="matrix(1,0,0,1,-583,648)" xml:space="preserve">@type</text></g></g></g><g id="y.edge.8"><g stroke-linecap="butt" stroke-miterlimit="1.45" shape-rendering="geometricPrecision" text-rendering="geometricPrecision"><path fill="none" d="M1038.9961 -321.631 L943.3273 -321.631" transform="matrix(1,0,0,1,-583,648)"/><path stroke="none" d="M1046.9961 -321.631 L1034.9961 -326.631 L1037.9961 -321.631 L1034.9961 -316.631 Z" transform="matrix(1,0,0,1,-583,648)"/></g><g><g stroke-linecap="butt" stroke-miterlimit="1.45" font-family="sans-serif" shape-rendering="geometricPrecision" text-rendering="geometricPrecision"><text x="955.486" y="-327.465" stroke="none" transform="matrix(1,0,0,1,-583,648)" xml:space="preserve">skos:related</text></g></g></g><g id="y.edge.13"><g stroke-linecap="butt" stroke-miterlimit="1.45" shape-rendering="geometricPrecision" text-rendering="geometricPrecision"><path fill="none" d="M1145.5466 -389.1851 L1212.9354 -389.1851 L1212.9354 -275.6597 L1192.5 -275.6597" transform="matrix(1,0,0,1,-583,648)"/><path stroke="none" d="M1184.5 -275.6597 L1196.5 -270.6597 L1193.5 -275.6597 L1196.5 -280.6597 Z" transform="matrix(1,0,0,1,-583,648)"/></g></g><g id="y.edge.7"><g stroke-linecap="butt" stroke-miterlimit="1.45" shape-rendering="geometricPrecision" text-rendering="geometricPrecision"><path fill="none" d="M1039.5762 -275.6597 L971.7043 -275.6597" transform="matrix(1,0,0,1,-583,648)"/><path stroke="none" d="M1047.5762 -275.6597 L1035.5762 -280.6597 L1038.5762 -275.6597 L1035.5762 -270.6597 Z" transform="matrix(1,0,0,1,-583,648)"/></g><g><g stroke-linecap="butt" stroke-miterlimit="1.45" font-family="sans-serif" shape-rendering="geometricPrecision" text-rendering="geometricPrecision"><text x="964.486" y="-286.465" stroke="none" transform="matrix(1,0,0,1,-583,648)" xml:space="preserve">skos:related</text></g></g></g><g id="y.edge.14"><g stroke-linecap="butt" stroke-miterlimit="1.45" shape-rendering="geometricPrecision" text-rendering="geometricPrecision"><path fill="none" d="M1145.5466 -389.1851 L1212.9354 -389.1851 L1212.9354 -229.6883 L1192.5 -229.6883" transform="matrix(1,0,0,1,-583,648)"/><path stroke="none" d="M1184.5 -229.6883 L1196.5 -224.6883 L1193.5 -229.6883 L1196.5 -234.6883 Z" transform="matrix(1,0,0,1,-583,648)"/></g></g><g id="y.edge.6"><g stroke-linecap="butt" stroke-miterlimit="1.45" shape-rendering="geometricPrecision" text-rendering="geometricPrecision"><path fill="none" d="M1022.7011 -229.6883 L971.798 -229.6883" transform="matrix(1,0,0,1,-583,648)"/><path stroke="none" d="M1030.7012 -229.6883 L1018.7012 -234.6883 L1021.7012 -229.6883 L1018.7012 -224.6883 Z" transform="matrix(1,0,0,1,-583,648)"/></g><g><g stroke-linecap="butt" stroke-miterlimit="1.45" font-family="sans-serif" shape-rendering="geometricPrecision" text-rendering="geometricPrecision"><text x="967.177" y="-241.272" stroke="none" transform="matrix(1,0,0,1,-583,648)" xml:space="preserve">skos:related</text></g></g></g><g id="y.edge.20"><g stroke-linecap="butt" stroke-miterlimit="1.45" shape-rendering="geometricPrecision" text-rendering="geometricPrecision"><path fill="none" d="M937.4084 -176.1868 L880.923 -176.1868 L880.923 -204.6063" transform="matrix(1,0,0,1,-583,648)"/><path stroke="none" d="M880.923 -212.6063 L875.923 -200.6063 L880.923 -203.6063 L885.923 -200.6063 Z" transform="matrix(1,0,0,1,-583,648)"/></g><g><g stroke-linecap="butt" stroke-miterlimit="1.45" font-family="sans-serif" shape-rendering="geometricPrecision" text-rendering="geometricPrecision"><text x="798.728" y="-180.326" stroke="none" transform="matrix(1,0,0,1,-583,648)" xml:space="preserve">skos:related</text></g></g></g><g id="y.edge.15"><g stroke-linecap="butt" stroke-miterlimit="1.45" shape-rendering="geometricPrecision" text-rendering="geometricPrecision"><path fill="none" d="M1145.5471 -403.488 L1375.7858 -403.488 L1375.7858 -350.2011" transform="matrix(1,0,0,1,-583,648)"/><path stroke="none" d="M1375.7858 -342.2011 L1380.7858 -354.2011 L1375.7858 -351.2011 L1370.7858 -354.2011 Z" transform="matrix(1,0,0,1,-583,648)"/></g><g><g stroke-linecap="butt" stroke-miterlimit="1.45" font-family="sans-serif" shape-rendering="geometricPrecision" text-rendering="geometricPrecision"><text x="1284.594" y="-386.019" stroke="none" transform="matrix(1,0,0,1,-583,648)" xml:space="preserve">schema:target</text></g></g></g><g id="y.edge.16"><g stroke-linecap="butt" stroke-miterlimit="1.45" shape-rendering="geometricPrecision" text-rendering="geometricPrecision"><path fill="none" d="M1101.6813 -410.1382 L1101.6813 -483.5565" transform="matrix(1,0,0,1,-583,648)"/><path stroke="none" d="M1101.6813 -491.5565 L1096.6813 -479.5565 L1101.6813 -482.5565 L1106.6813 -479.5565 Z" transform="matrix(1,0,0,1,-583,648)"/></g><g><g stroke-linecap="butt" stroke-miterlimit="1.45" font-family="sans-serif" shape-rendering="geometricPrecision" text-rendering="geometricPrecision"><text x="1102.71" y="-457.031" stroke="none" transform="matrix(1,0,0,1,-583,648)" xml:space="preserve">schema:&lt;property&gt;-input,</text><text x="1102.71" y="-442.898" stroke="none" transform="matrix(1,0,0,1,-583,648)" xml:space="preserve">schema:&lt;property&gt;-output</text></g></g></g><g id="y.edge.17"><g stroke-linecap="butt" stroke-miterlimit="1.45" shape-rendering="geometricPrecision" text-rendering="geometricPrecision"><path fill="none" d="M1106.3591 -521.563 L1106.3591 -594.9714" transform="matrix(1,0,0,1,-583,648)"/><path stroke="none" d="M1106.3591 -602.9714 L1101.3591 -590.9714 L1106.3591 -593.9714 L1111.3591 -590.9714 Z" transform="matrix(1,0,0,1,-583,648)"/></g><g><g stroke-linecap="butt" stroke-miterlimit="1.45" font-family="sans-serif" shape-rendering="geometricPrecision" text-rendering="geometricPrecision"><text x="1112.44" y="-573.664" stroke="none" transform="matrix(1,0,0,1,-583,648)" xml:space="preserve">schema:description,</text><text x="1112.44" y="-559.531" stroke="none" transform="matrix(1,0,0,1,-583,648)" xml:space="preserve">schema:defaultValue,</text><text x="1112.44" y="-545.398" stroke="none" transform="matrix(1,0,0,1,-583,648)" xml:space="preserve">schema:valueName,</text><text x="1112.44" y="-531.266" stroke="none" transform="matrix(1,0,0,1,-583,648)" xml:space="preserve">schema:valuePattern</text></g></g></g><g id="y.edge.18"><g stroke-linecap="butt" stroke-miterlimit="1.45" shape-rendering="geometricPrecision" text-rendering="geometricPrecision"><path fill="none" d="M1302.9468 -506.5782 L1397.002 -506.5782" transform="matrix(1,0,0,1,-583,648)"/><path stroke="none" d="M1405.002 -506.5782 L1393.002 -511.5782 L1396.002 -506.5782 L1393.002 -501.5782 Z" transform="matrix(1,0,0,1,-583,648)"/></g><g><g stroke-linecap="butt" stroke-miterlimit="1.45" font-family="sans-serif" shape-rendering="geometricPrecision" text-rendering="geometricPrecision"><text x="1333.102" y="-477.598" stroke="none" transform="matrix(1,0,0,1,-583,648)" xml:space="preserve">schema:valueRequired,</text><text x="1333.102" y="-463.465" stroke="none" transform="matrix(1,0,0,1,-583,648)" xml:space="preserve">schema:multipleValues,</text><text x="1333.102" y="-449.332" stroke="none" transform="matrix(1,0,0,1,-583,648)" xml:space="preserve">schema:readOnlyValue</text></g></g></g><g id="y.edge.19"><g stroke-linecap="butt" stroke-miterlimit="1.45" shape-rendering="geometricPrecision" text-rendering="geometricPrecision"><path fill="none" d="M1288.543 -521.563 L1288.543 -594.9714" transform="matrix(1,0,0,1,-583,648)"/><path stroke="none" d="M1288.543 -602.9714 L1283.543 -590.9714 L1288.543 -593.9714 L1293.543 -590.9714 Z" transform="matrix(1,0,0,1,-583,648)"/></g><g><g stroke-linecap="butt" stroke-miterlimit="1.45" font-family="sans-serif" shape-rendering="geometricPrecision" text-rendering="geometricPrecision"><text x="1298.734" y="-586.731" stroke="none" transform="matrix(1,0,0,1,-583,648)" xml:space="preserve">schema:valueMinLength,</text><text x="1298.734" y="-572.598" stroke="none" transform="matrix(1,0,0,1,-583,648)" xml:space="preserve">schema:valueMaxLength,</text><text x="1298.734" y="-558.465" stroke="none" transform="matrix(1,0,0,1,-583,648)" xml:space="preserve">schema:stepValue,</text><text x="1298.734" y="-544.332" stroke="none" transform="matrix(1,0,0,1,-583,648)" xml:space="preserve">schema:minValue,</text><text x="1298.734" y="-530.199" stroke="none" transform="matrix(1,0,0,1,-583,648)" xml:space="preserve">schema:maxValue</text></g></g></g><g id="y.edge.21"><g stroke-linecap="butt" stroke-miterlimit="1.45" shape-rendering="geometricPrecision" text-rendering="geometricPrecision"><path fill="none" d="M1363.9536 -312.1972 L1363.9536 -286.6872 L1363.8848 -286.6872 L1363.8848 -269.1876" transform="matrix(1,0,0,1,-583,648)"/><path stroke="none" d="M1363.8848 -261.1876 L1368.8848 -273.1876 L1363.8848 -270.1876 L1358.8848 -273.1876 Z" transform="matrix(1,0,0,1,-583,648)"/></g><g><g stroke-linecap="butt" stroke-miterlimit="1.45" font-family="sans-serif" shape-rendering="geometricPrecision" text-rendering="geometricPrecision"><text x="1393.481" y="-284.664" stroke="none" transform="matrix(1,0,0,1,-583,648)" xml:space="preserve">schema:description,</text><text x="1393.481" y="-270.531" stroke="none" transform="matrix(1,0,0,1,-583,648)" xml:space="preserve">schema:urlTemplate,</text><text x="1393.481" y="-256.398" stroke="none" transform="matrix(1,0,0,1,-583,648)" xml:space="preserve">schema:httpMethod,</text><text x="1393.481" y="-242.266" stroke="none" transform="matrix(1,0,0,1,-583,648)" xml:space="preserve">schema:contentType</text></g></g></g><g id="y.edge.22"><g stroke-linecap="butt" stroke-miterlimit="1.45" shape-rendering="geometricPrecision" text-rendering="geometricPrecision"><path fill="none" d="M1145.5645 -404 L1375.7858 -404 L1375.7858 -395.1851 L1402.7427 -395.1851" transform="matrix(1,0,0,1,-583,648)"/><path stroke="none" d="M1410.7427 -395.1851 L1398.7427 -400.1851 L1401.7427 -395.1851 L1398.7427 -390.1851 Z" transform="matrix(1,0,0,1,-583,648)"/></g></g><g id="y.edge.23"><g stroke-linecap="butt" stroke-miterlimit="1.45" shape-rendering="geometricPrecision" text-rendering="geometricPrecision"><path fill="none" d="M1145.5386 -395.1851 L1232.9354 -395.1851 L1234.8702 -199.2012" transform="matrix(1,0,0,1,-583,648)"/><path stroke="none" d="M1234.9492 -191.2016 L1239.8306 -203.2504 L1234.8604 -200.2012 L1229.8309 -203.1517 Z" transform="matrix(1,0,0,1,-583,648)"/></g><g><g stroke-linecap="butt" stroke-miterlimit="1.45" font-family="sans-serif" shape-rendering="geometricPrecision" text-rendering="geometricPrecision"><text x="1244.204" y="-210.799" stroke="none" transform="matrix(1,0,0,1,-583,648)" xml:space="preserve">schema:object</text></g></g></g><g id="y.edge.24"><g stroke-linecap="butt" stroke-miterlimit="1.45" shape-rendering="geometricPrecision" text-rendering="geometricPrecision"><path fill="none" d="M988.5262 -161.2758 L988.5262 -129.7304 L1040.33 -129.7304" transform="matrix(1,0,0,1,-583,648)"/><path stroke="none" d="M1048.33 -129.7304 L1036.33 -134.7304 L1039.33 -129.7304 L1036.33 -124.7304 Z" transform="matrix(1,0,0,1,-583,648)"/></g><g><g stroke-linecap="butt" stroke-miterlimit="1.45" font-family="sans-serif" shape-rendering="geometricPrecision" text-rendering="geometricPrecision"><text x="840.693" y="-132.923" stroke="none" transform="matrix(1,0,0,1,-583,648)" xml:space="preserve">schema:additionalType</text></g></g></g><g id="y.edge.25"><g stroke-dasharray="6 2" stroke-linecap="butt" stroke-miterlimit="1.45" shape-rendering="geometricPrecision" text-rendering="geometricPrecision"><path fill="none" d="M1200.6798 -129.7304 L1255.2341 -129.7304 L1255.2341 -146.1868" transform="matrix(1,0,0,1,-583,648)"/><path fill="#fff" stroke="none" d="M1255.2341 -161.1868 L1249.2341 -145.1868 L1261.2341 -145.1868 Z" transform="matrix(1,0,0,1,-583,648)"/><path fill="none" stroke-dasharray="none" d="M1255.2341 -161.1868 L1249.2341 -145.1868 L1261.2341 -145.1868 Z" transform="matrix(1,0,0,1,-583,648)"/></g><g><g stroke-linecap="butt" stroke-miterlimit="1.45" font-family="sans-serif" shape-rendering="geometricPrecision" text-rendering="geometricPrecision"><text x="1266.266" y="-132.923" stroke="none" transform="matrix(1,0,0,1,-583,648)" xml:space="preserve">rdfs:subClassOf</text></g></g></g></g></svg>