<svg xmlns="http://www.w3.org/2000/svg" xmlns:xlink="http://www.w3.org/1999/xlink" width="801" height="449" fill="#000" fill-opacity="1" stroke="#000" stroke-dasharray="none" stroke-dashoffset="0" stroke-linecap="square" stroke-linejoin="miter" stroke-miterlimit="10" stroke-opacity="1" stroke-width="1" color-interpolation="auto" color-rendering="auto" font-family="'Dialog'" font-size="12" font-style="normal" font-weight="normal" image-rendering="auto" shape-rendering="auto" text-rendering="auto"><g><defs id="defs1"><clipPath id="clipPath1" clipPathUnits="userSpaceOnUse"><path d="M0 0 L801 0 L801 449 L0 449 L0 0 Z"/></clipPath><clipPath id="clipPath2" clipPathUnits="userSpaceOnUse"><path d="M263 -638 L1064 -638 L1064 -189 L263 -189 L263 -638 Z"/></clipPath></defs><g fill="#fff" stroke="#fff" shape-rendering="geometricPrecision" text-rendering="geometricPrecision" transform="translate(-263,638)"><rect width="801" height="449" x="263" y="-638" stroke="none" clip-path="url(#clipPath2)"/></g><g id="y.node.0"><a target="_blank" xlink:href="http://schema.org/Service" xlink:show="new" xlink:type="simple"><g fill="#CFC" stroke="#CFC" shape-rendering="geometricPrecision" text-rendering="geometricPrecision" transform="matrix(1,0,0,1,-263,638)"><rect width="102.594" height="30" x="573.679" y="-598.188" stroke="none"/></g><g stroke-linecap="butt" stroke-miterlimit="1.45" shape-rendering="geometricPrecision" text-rendering="geometricPrecision" transform="matrix(1,0,0,1,-263,638)"><rect width="102.594" height="30" x="573.679" y="-598.188" fill="none"/></g><g><g stroke-linecap="butt" stroke-miterlimit="1.45" font-family="sans-serif" shape-rendering="geometricPrecision" text-rendering="geometricPrecision"><text x="580.679" y="-578.653" stroke="none" transform="matrix(1,0,0,1,-263,638)" xml:space="preserve">schema:Service</text></g></g></a></g><g id="y.node.1"><a target="_blank" xlink:href="https://geodex.org/voc/Protocol-Access" xlink:show="new" xlink:type="simple"><g fill="#ff0" stroke="#ff0" shape-rendering="geometricPrecision" text-rendering="geometricPrecision" transform="matrix(1,0,0,1,-263,638)"><ellipse cx="912.253" cy="-219.824" stroke="none" rx="100.734" ry="15"/></g><g stroke-linecap="butt" stroke-miterlimit="1.45" shape-rendering="geometricPrecision" text-rendering="geometricPrecision" transform="matrix(1,0,0,1,-263,638)"><ellipse cx="912.253" cy="-219.824" fill="none" rx="100.734" ry="15"/></g><g><g stroke-linecap="butt" stroke-miterlimit="1.45" font-family="sans-serif" shape-rendering="geometricPrecision" text-rendering="geometricPrecision"><text x="823.519" y="-215.288" stroke="none" transform="matrix(1,0,0,1,-263,638)" xml:space="preserve">gdx:OutreachActivity-Training</text></g></g></a></g><g id="y.node.2"><a target="_blank" xlink:href="http://schema.org/Organization" xlink:show="new" xlink:type="simple"><g fill="#CFC" stroke="#CFC" shape-rendering="geometricPrecision" text-rendering="geometricPrecision" transform="matrix(1,0,0,1,-263,638)"><rect width="137.563" height="30" x="278.368" y="-598.188" stroke="none"/></g><g stroke-linecap="butt" stroke-miterlimit="1.45" shape-rendering="geometricPrecision" text-rendering="geometricPrecision" transform="matrix(1,0,0,1,-263,638)"><rect width="137.563" height="30" x="278.368" y="-598.188" fill="none"/></g><g><g stroke-linecap="butt" stroke-miterlimit="1.45" font-family="sans-serif" shape-rendering="geometricPrecision" text-rendering="geometricPrecision"><text x="285.368" y="-578.653" stroke="none" transform="matrix(1,0,0,1,-263,638)" xml:space="preserve">schema:Organization</text></g></g></a></g><g id="y.node.3"><a target="_blank" xlink:href="https://geodex.org/voc/ResearchRepositoryService" xlink:show="new" xlink:type="simple"><g fill="#FC0" stroke="#FC0" shape-rendering="geometricPrecision" text-rendering="geometricPrecision" transform="matrix(1,0,0,1,-263,638)"><rect width="194.791" height="30" x="819.857" y="-598.188" stroke="none"/></g><g stroke-linecap="butt" stroke-miterlimit="1.45" shape-rendering="geometricPrecision" text-rendering="geometricPrecision" transform="matrix(1,0,0,1,-263,638)"><rect width="194.791" height="30" x="819.857" y="-598.188" fill="none"/></g><g><g stroke-linecap="butt" stroke-miterlimit="1.45" font-family="sans-serif" shape-rendering="geometricPrecision" text-rendering="geometricPrecision"><text x="826.857" y="-578.653" stroke="none" transform="matrix(1,0,0,1,-263,638)" xml:space="preserve">gdx:ResearchRepositoryService</text></g></g></a></g><g id="y.node.4"><a target="_blank" xlink:href="https://geodex.org/voc/ResearchRepositoryService" xlink:show="new" xlink:type="simple"><g fill="#FC0" stroke="#FC0" shape-rendering="geometricPrecision" text-rendering="geometricPrecision" transform="matrix(1,0,0,1,-263,638)"><rect width="142.619" height="30" x="636.857" y="-414.909" stroke="none"/></g><g stroke-linecap="butt" stroke-miterlimit="1.45" shape-rendering="geometricPrecision" text-rendering="geometricPrecision" transform="matrix(1,0,0,1,-263,638)"><rect width="142.619" height="30" x="636.857" y="-414.909" fill="none"/></g><g><g stroke-linecap="butt" stroke-miterlimit="1.45" font-family="sans-serif" shape-rendering="geometricPrecision" text-rendering="geometricPrecision"><text x="643.857" y="-395.374" stroke="none" transform="matrix(1,0,0,1,-263,638)" xml:space="preserve">gdx:OutreachActivites</text></g></g></a></g><g id="y.node.5"><a target="_blank" xlink:href="https://geodex.org/voc/Protocol-Access" xlink:show="new" xlink:type="simple"><g fill="#ff0" stroke="#ff0" shape-rendering="geometricPrecision" text-rendering="geometricPrecision" transform="matrix(1,0,0,1,-263,638)"><ellipse cx="923.939" cy="-315.208" stroke="none" rx="112.421" ry="15"/></g><g stroke-linecap="butt" stroke-miterlimit="1.45" shape-rendering="geometricPrecision" text-rendering="geometricPrecision" transform="matrix(1,0,0,1,-263,638)"><ellipse cx="923.939" cy="-315.208" fill="none" rx="112.421" ry="15"/></g><g><g stroke-linecap="butt" stroke-miterlimit="1.45" font-family="sans-serif" shape-rendering="geometricPrecision" text-rendering="geometricPrecision"><text x="823.519" y="-310.673" stroke="none" transform="matrix(1,0,0,1,-263,638)" xml:space="preserve">gdx:OutreachActivity-UserSupport</text></g></g></a></g><g id="y.node.6"><a target="_blank" xlink:href="https://geodex.org/voc/Protocol-Access" xlink:show="new" xlink:type="simple"><g fill="#ff0" stroke="#ff0" shape-rendering="geometricPrecision" text-rendering="geometricPrecision" transform="matrix(1,0,0,1,-263,638)"><ellipse cx="930.071" cy="-267.516" stroke="none" rx="118.553" ry="15"/></g><g stroke-linecap="butt" stroke-miterlimit="1.45" shape-rendering="geometricPrecision" text-rendering="geometricPrecision" transform="matrix(1,0,0,1,-263,638)"><ellipse cx="930.071" cy="-267.516" fill="none" rx="118.553" ry="15"/></g><g><g stroke-linecap="butt" stroke-miterlimit="1.45" font-family="sans-serif" shape-rendering="geometricPrecision" text-rendering="geometricPrecision"><text x="823.519" y="-262.981" stroke="none" transform="matrix(1,0,0,1,-263,638)" xml:space="preserve">gdx:OutreachActivity-UserWorkshop</text></g></g></a></g><g id="y.node.7"><a target="_blank" xlink:href="http://schema.org/OfferCatalog" xlink:show="new" xlink:type="simple"><g fill="#CFC" stroke="#CFC" shape-rendering="geometricPrecision" text-rendering="geometricPrecision" transform="matrix(1,0,0,1,-263,638)"><rect width="99.225" height="30" x="558.594" y="-282.516" stroke="none"/></g><g stroke-linecap="butt" stroke-miterlimit="1.45" shape-rendering="geometricPrecision" text-rendering="geometricPrecision" transform="matrix(1,0,0,1,-263,638)"><rect width="99.225" height="30" x="558.594" y="-282.516" fill="none"/></g><g><g stroke-linecap="butt" stroke-miterlimit="1.45" font-family="sans-serif" shape-rendering="geometricPrecision" text-rendering="geometricPrecision"><text x="565.594" y="-262.981" stroke="none" transform="matrix(1,0,0,1,-263,638)" xml:space="preserve">schema:Action</text></g></g></a></g><g id="y.node.8"><a target="_blank" xlink:href="http://schema.org/OfferCatalog" xlink:show="new" xlink:type="simple"><g fill="#CFC" stroke="#CFC" shape-rendering="geometricPrecision" text-rendering="geometricPrecision" transform="matrix(1,0,0,1,-263,638)"><rect width="136.133" height="30" x="540.14" y="-485.606" stroke="none"/></g><g stroke-linecap="butt" stroke-miterlimit="1.45" shape-rendering="geometricPrecision" text-rendering="geometricPrecision" transform="matrix(1,0,0,1,-263,638)"><rect width="136.133" height="30" x="540.14" y="-485.606" fill="none"/></g><g><g stroke-linecap="butt" stroke-miterlimit="1.45" font-family="sans-serif" shape-rendering="geometricPrecision" text-rendering="geometricPrecision"><text x="547.14" y="-466.071" stroke="none" transform="matrix(1,0,0,1,-263,638)" xml:space="preserve">schema:OfferCatalog</text></g></g></a></g><g id="y.edge.0"><g stroke-linecap="butt" stroke-miterlimit="1.45" shape-rendering="geometricPrecision" text-rendering="geometricPrecision"><path fill="none" d="M573.6606 -585 L423.8958 -585" transform="matrix(1,0,0,1,-263,638)"/><path stroke="none" d="M415.8958 -585 L427.8958 -580 L424.8958 -585 L427.8958 -590 Z" transform="matrix(1,0,0,1,-263,638)"/></g><g><g stroke-linecap="butt" stroke-miterlimit="1.45" font-family="sans-serif" shape-rendering="geometricPrecision" text-rendering="geometricPrecision"><text x="454.157" y="-592.965" stroke="none" transform="matrix(1,0,0,1,-263,638)" xml:space="preserve">schema:provider</text></g></g></g><g id="y.edge.1"><g stroke-linecap="butt" stroke-miterlimit="1.45" shape-rendering="geometricPrecision" text-rendering="geometricPrecision"><path fill="none" d="M676.2729 -583.1885 L811.8574 -583.1885" transform="matrix(1,0,0,1,-263,638)"/><path stroke="none" d="M819.8574 -583.1885 L807.8574 -588.1885 L810.8574 -583.1885 L807.8574 -578.1885 Z" transform="matrix(1,0,0,1,-263,638)"/></g><g><g stroke-linecap="butt" stroke-miterlimit="1.45" font-family="sans-serif" shape-rendering="geometricPrecision" text-rendering="geometricPrecision"><text x="680.97" y="-608.653" stroke="none" transform="matrix(1,0,0,1,-263,638)" xml:space="preserve">schema:additionalType</text></g></g></g><g id="y.edge.5"><g stroke-linecap="butt" stroke-miterlimit="1.45" shape-rendering="geometricPrecision" text-rendering="geometricPrecision"><path fill="none" d="M811.5186 -219.8236 L699.0872 -219.8236 L699.0872 -267.5158 L665.8188 -267.5158" transform="matrix(1,0,0,1,-263,638)"/><path stroke="none" d="M657.8188 -267.5158 L669.8188 -262.5158 L666.8188 -267.5158 L669.8188 -272.5158 Z" transform="matrix(1,0,0,1,-263,638)"/></g><g><g stroke-linecap="butt" stroke-miterlimit="1.45" font-family="sans-serif" shape-rendering="geometricPrecision" text-rendering="geometricPrecision"><text x="703.404" y="-283.965" stroke="none" transform="matrix(1,0,0,1,-263,638)" xml:space="preserve">schema:additionalType</text></g></g></g><g id="y.edge.6"><g stroke-linecap="butt" stroke-miterlimit="1.45" shape-rendering="geometricPrecision" text-rendering="geometricPrecision"><path fill="none" d="M811.5186 -267.5158 L665.7899 -267.5158" transform="matrix(1,0,0,1,-263,638)"/><path stroke="none" d="M657.7899 -267.5158 L669.7899 -262.5158 L666.7899 -267.5158 L669.7899 -272.5158 Z" transform="matrix(1,0,0,1,-263,638)"/></g></g><g id="y.edge.7"><g stroke-linecap="butt" stroke-miterlimit="1.45" shape-rendering="geometricPrecision" text-rendering="geometricPrecision"><path fill="none" d="M811.5186 -315.208 L699.0872 -315.208 L699.0872 -267.5158 L665.7782 -267.5158" transform="matrix(1,0,0,1,-263,638)"/><path stroke="none" d="M657.7782 -267.5158 L669.7782 -262.5158 L666.7782 -267.5158 L669.7782 -272.5158 Z" transform="matrix(1,0,0,1,-263,638)"/></g></g><g id="y.edge.2"><g stroke-linecap="butt" stroke-miterlimit="1.45" shape-rendering="geometricPrecision" text-rendering="geometricPrecision"><path fill="none" d="M653.0582 -414.8802 L653.0582 -447.5925" transform="matrix(1,0,0,1,-263,638)"/><path stroke="none" d="M653.0582 -455.5925 L648.0582 -443.5925 L653.0582 -446.5925 L658.0582 -443.5925 Z" transform="matrix(1,0,0,1,-263,638)"/></g><g><g stroke-linecap="butt" stroke-miterlimit="1.45" font-family="sans-serif" shape-rendering="geometricPrecision" text-rendering="geometricPrecision"><text x="664.404" y="-429.965" stroke="none" transform="matrix(1,0,0,1,-263,638)" xml:space="preserve">schema:additionalType</text></g></g></g><g id="y.edge.3"><g stroke-linecap="butt" stroke-miterlimit="1.45" shape-rendering="geometricPrecision" text-rendering="geometricPrecision"><path fill="none" d="M399.5 -568.2087 L399.5 -526.8974 L608.2065 -526.8974 L608.2065 -493.6063" transform="matrix(1,0,0,1,-263,638)"/><path stroke="none" d="M608.2065 -485.6063 L613.2065 -497.6063 L608.2065 -494.6063 L603.2065 -497.6063 Z" transform="matrix(1,0,0,1,-263,638)"/></g><g><g stroke-linecap="butt" stroke-miterlimit="1.45" font-family="sans-serif" shape-rendering="geometricPrecision" text-rendering="geometricPrecision"><text x="419.338" y="-539.965" stroke="none" transform="matrix(1,0,0,1,-263,638)" xml:space="preserve">schema:hasOfferCatalog</text></g></g></g><g id="y.edge.4"><g stroke-linecap="butt" stroke-miterlimit="1.45" shape-rendering="geometricPrecision" text-rendering="geometricPrecision"><path fill="none" d="M602.1343 -455.5828 L602.1343 -290.53" transform="matrix(1,0,0,1,-263,638)"/><path stroke="none" d="M602.1343 -282.53 L607.1343 -294.53 L602.1343 -291.53 L597.1343 -294.53 Z" transform="matrix(1,0,0,1,-263,638)"/></g><g><g stroke-linecap="butt" stroke-miterlimit="1.45" font-family="sans-serif" shape-rendering="geometricPrecision" text-rendering="geometricPrecision"><text x="453.722" y="-364.526" stroke="none" transform="matrix(1,0,0,1,-263,638)" xml:space="preserve">schema:itemListElement</text></g></g></g></g></svg>